<svg width="350" height="88" viewBox="0 0 350 88" fill="none" xmlns="http://www.w3.org/2000/svg">
<path d="M105.443 10.0818V9.7314C105.443 4.29192 109.832 1.92692 114.474 2.01451C119.038 2.10211 122.892 4.64229 122.892 9.7314V10.0818C122.892 12.1577 122.76 14.1636 122.489 16.0468C122.428 16.4848 122.734 16.8702 123.172 16.914C134.918 18.149 142.81 26.1725 142.136 42.1494C142.118 42.561 141.777 42.8851 141.365 42.8851H126.01C125.563 42.8851 125.213 42.4997 125.248 42.053C125.747 35.3171 123.391 30.9726 118.591 30.0003C118.276 29.939 117.96 30.0966 117.803 30.3682C112.784 38.6807 104.76 43.4282 96.3163 43.7698C91.7528 43.945 88.5995 41.58 87.8111 38.2427C86.8476 34.2047 88.7746 30.4382 92.5499 29.6499C101.493 27.8105 105.443 20.7067 105.443 10.0905V10.0818ZM105.443 83.7645C97.4638 83.7645 92.9878 78.1498 92.9878 71.8344V70.7833C92.9878 64.4679 97.4638 60.4299 105.443 60.4299H147.041C147.462 60.4299 147.812 60.0883 147.812 59.6591V58.1437C147.812 57.0926 147.549 56.7422 146.41 56.7422H98.7777C95.3528 56.7422 93.9514 54.2021 93.9514 51.5655C93.9514 49.1129 95.4404 46.4764 98.7777 46.4764H154.916C162.72 46.4764 165.619 48.7538 165.619 55.6911V63.9248C165.619 67.1307 163.027 69.7234 159.821 69.7234H113.423C112.109 69.7234 111.496 70.5118 111.496 71.3877V71.6505C111.496 72.5264 112.109 73.3147 113.423 73.3147H162.895C166.408 73.3147 167.897 76.0301 167.897 78.6666C167.897 81.1192 166.495 83.7558 162.895 83.7558H105.443V83.7645ZM147.637 10.0818C147.637 4.37951 151.675 1.40137 156.317 1.40137C160.96 1.40137 164.998 4.4671 164.998 10.0818V14.7504C164.998 15.1709 165.339 15.5213 165.768 15.5213H167.722C173.074 15.5213 174.65 19.4717 174.65 22.9754C174.65 26.4791 172.986 30.4295 167.722 30.4295H165.768C165.348 30.4295 164.998 30.7711 164.998 31.2003V42.9114C164.998 43.3319 164.656 43.6822 164.227 43.6822H148.39C147.97 43.6822 147.619 43.3406 147.619 42.9114V10.0818H147.637Z" fill="#042D53"/>
<path d="M193.23 80.436C181.738 80.436 179.635 77.0111 179.635 65.9657V18.7709C179.635 7.71678 181.738 4.30068 193.23 4.30068H213.753C225.245 4.30068 227.347 7.72554 227.347 18.7709V69.0577C227.347 75.3381 222.258 80.436 215.969 80.436H193.221H193.23ZM196.655 63.5044C196.655 65.4314 197.268 66.4913 199.545 66.4913H207.919C209.25 66.4913 210.337 65.4139 210.337 64.0737V21.1359C210.337 19.3841 209.899 18.2454 207.972 18.2454H198.941C197.014 18.2454 196.663 19.3841 196.663 21.1359V63.5044H196.655ZM236.921 9.90659C236.921 4.29192 241.046 1.40137 245.61 1.40137C250.174 1.40137 254.29 4.38827 254.29 9.90659V32.1025H257.181C262.533 32.1025 264.109 36.2281 264.109 39.7318C264.109 43.2355 262.445 47.3611 257.181 47.3611H254.29V75.7848C254.29 80.1907 250.717 83.7645 246.311 83.7645H244.9C240.495 83.7645 236.921 80.1907 236.921 75.7848V9.90659Z" fill="#042D53"/>
<path d="M343.231 33.6792C347.882 33.6792 349.546 36.6661 349.546 39.6443C349.546 42.8064 347.795 45.6093 343.231 45.6093H273.761C269.198 45.6093 267.446 42.7976 267.446 39.6443C267.446 36.6661 269.11 33.6792 273.761 33.6792H343.231ZM280.953 83.7646C273.411 83.7646 269.899 78.5003 269.899 72.5352V72.2724C269.899 66.1322 273.324 61.8314 280.953 61.8314H327.885V60.1672C327.885 59.3788 327.359 58.7657 326.045 58.7657H275.785C272.535 58.7657 270.783 56.2255 270.783 53.9394C270.783 51.6532 272.272 49.0254 275.785 49.0254H336.136C343.59 49.0254 345.964 51.8371 345.964 57.1803V64.1088C345.964 67.8403 342.942 70.871 339.202 70.871H290.439C289.125 70.871 288.775 71.4841 288.775 72.36C288.775 73.3235 289.125 73.9367 290.439 73.9367H343.686C347.111 73.9367 348.425 76.3893 348.425 78.8506C348.425 80.9528 347.199 83.7646 343.686 83.7646H280.97H280.953ZM330.775 30.5171H286.217C275.251 30.5171 270.249 24.2893 270.249 16.3972C270.249 8.50516 275.251 2.27734 286.217 2.27734H330.775C341.742 2.27734 346.743 8.50516 346.743 16.3972C346.743 24.2893 341.742 30.5171 330.775 30.5171ZM325.248 13.6731H291.744C289.116 13.6731 288.232 14.8118 288.232 16.3885C288.232 17.9651 289.108 19.1038 291.744 19.1038H325.248C327.876 19.1038 328.761 17.9651 328.761 16.3885C328.761 14.8118 327.885 13.6731 325.248 13.6731Z" fill="#042D53"/>
<path d="M3.77523 36.71C3.77523 48.5525 12.7184 54.5175 23.3346 54.5175C33.9508 54.5175 42.894 48.5525 42.894 36.71V25.1741C42.894 23.247 42.456 21.4864 41.6677 19.9098C45.005 19.2966 46.4065 16.844 46.4065 14.0323C46.4065 10.879 44.567 7.80448 40.1786 7.80448H31.2355C31.1479 2.54018 27.8982 0 23.3434 0C18.7886 0 15.4513 2.45259 15.4513 7.80448H6.31541C2.01463 7.80448 0 10.879 0 14.0323C0 16.844 1.57666 19.2966 4.91393 19.9098C4.21319 21.4864 3.77523 23.247 3.77523 25.1741V36.71ZM18.6835 25.0865C18.6835 21.2236 21.0485 19.7346 23.3346 19.7346C25.6208 19.7346 27.9858 21.2236 27.9858 25.0865V36.7976C27.9858 40.6604 25.6208 42.1495 23.3346 42.1495C21.0485 42.1495 18.6835 40.6604 18.6835 36.7976V25.0865Z" fill="#042D53"/>
<path d="M58.346 55.1656C60.0453 55.2619 61.7008 55.4634 63.3125 55.7437C63.3125 55.6473 63.33 55.551 63.33 55.4546V32.7157H67.4556V55.4546C67.4556 55.8926 67.4994 56.3218 67.5695 56.7422C71.6863 57.9598 75.4002 59.8343 78.5974 62.2693C81.085 61.0168 82.8018 58.4415 82.8018 55.4546V8.85548C82.8018 4.02914 79.0266 1.40137 75.0849 1.40137C71.1432 1.40137 67.4556 3.94155 67.4556 8.85548V19.2089H63.33V8.85548C63.33 4.02914 59.6424 1.40137 55.7007 1.40137C51.7591 1.40137 48.0714 3.94155 48.0714 8.85548V47.1509C50.9707 47.545 53.581 48.7801 55.5518 50.7684C56.8044 52.021 57.7416 53.5101 58.3548 55.1656H58.346Z" fill="#042D53"/>
<path d="M81.6701 74.3579C76.2481 63.0672 65.3428 59.6598 54.2098 60.089C54.2536 49.5692 39.4155 49.2714 36.3147 59.2131C32.8022 67.1928 21.3101 70.3549 13.4181 70.0045C3.58143 69.1373 3.66902 84.2821 13.0677 84.5624C23.7715 85.7011 39.2053 81.1375 47.8068 72.9827C57.0303 71.8702 63.6698 75.1199 66.026 82.2937C70.8699 93.8121 88.0205 85.5784 81.6613 74.3579H81.6701Z" fill="#042D53"/>
</svg>
