<svg width="129" height="129" viewBox="0 0 129 129" fill="none" xmlns="http://www.w3.org/2000/svg">
<rect width="129" height="129" rx="16.681" fill="url(#paint0_linear_2622_77463)"/>
<path d="M111.089 93.6096C103.876 85.5275 93.79 83.3975 84.6396 86.4233C82.1579 77.6711 69.7561 80.9822 69.557 89.98C68.555 97.4516 59.7563 102.833 53.1141 104.432C44.7334 106.065 47.3345 120.119 55.2109 118.101C64.3746 116.489 77.2144 107.511 82.4034 98.6726C89.8021 95.5406 97.4064 97.0734 101.083 102.468C107.864 110.882 119.052 101.406 111.082 93.6096H111.089Z" fill="#FFA339"/>
<path d="M34.1961 107.862C40.1733 107.862 45.0187 103.017 45.0187 97.0399C45.0187 91.0627 40.1733 86.2173 34.1961 86.2173C28.219 86.2173 23.3735 91.0627 23.3735 97.0399C23.3735 103.017 28.219 107.862 34.1961 107.862Z" fill="#FFA339"/>
<path d="M97.7845 41.653C103.762 41.653 108.607 36.8075 108.607 30.8304C108.607 24.8532 103.762 20.0078 97.7845 20.0078C91.8074 20.0078 86.9619 24.8532 86.9619 30.8304C86.9619 36.8075 91.8074 41.653 97.7845 41.653Z" fill="#FFA339"/>
<path d="M27.753 36.5705C33.7301 36.5705 38.5756 31.725 38.5756 25.7479C38.5756 19.7707 33.7301 14.9253 27.753 14.9253C21.7759 14.9253 16.9304 19.7707 16.9304 25.7479C16.9304 31.725 21.7759 36.5705 27.753 36.5705Z" fill="#FFA339"/>
<path d="M65.3235 30.4523C64.5804 30.4523 63.8438 30.4854 63.1073 30.5319C63.4125 28.7137 63.5319 26.6368 63.2532 24.3276C63.1205 23.193 62.8352 22.0649 62.3243 21.043C58.2102 12.815 47.4275 14.6066 45.3439 24.2878C45.1117 25.3694 44.6206 26.8558 44.2026 28.1364C41.3626 36.6963 31.9401 43.3186 23.9442 45.2495C13.5463 47.2734 18.1448 62.8603 27.9123 60.3587C29.4783 60.0866 31.0974 59.6686 32.7563 59.1311C32.5837 60.498 32.4842 61.8849 32.4842 63.2982C32.4842 79.3297 43.977 92.6738 59.1724 95.5603C61.6541 93.8085 63.5452 91.6387 63.9367 89.4556C64.3415 80.9222 71.5809 75.6603 78.1899 75.6603C81.8792 75.6603 85.1506 77.213 87.4199 79.8606C89.6495 79.4093 91.8856 79.1705 94.1085 79.1373C96.6964 74.4393 98.1761 69.0446 98.1761 63.3049C98.1761 45.1633 83.4718 30.4589 65.3302 30.4589L65.3235 30.4523ZM53.3796 56.3574C53.3796 53.7165 54.4479 51.5798 55.7683 51.5798C57.0888 51.5798 58.1571 53.7165 58.1571 56.3574C58.1571 58.9984 57.0888 61.135 55.7683 61.135C54.4479 61.135 53.3796 58.9984 53.3796 56.3574ZM71.5875 71.5529C70.0215 73.6298 65.2041 78.1021 59.6501 71.6856C57.8055 69.5556 56.6509 66.8283 56.4717 65.8662C56.2926 64.904 56.558 63.7893 57.3874 63.7893C58.7013 63.7826 61.9991 64.8377 65.6553 64.758C70.0348 64.6651 73.0075 63.9153 73.0075 63.9153C73.8635 63.7959 74.2284 64.2405 74.2218 64.9637C74.1886 67.9298 72.052 70.9357 71.5809 71.5595L71.5875 71.5529ZM74.8787 61.135C73.5583 61.135 72.4899 58.9984 72.4899 56.3574C72.4899 53.7165 73.5583 51.5798 74.8787 51.5798C76.1992 51.5798 77.2675 53.7165 77.2675 56.3574C77.2675 58.9984 76.1992 61.135 74.8787 61.135Z" fill="#FFA339"/>
<defs>
<linearGradient id="paint0_linear_2622_77463" x1="64.5" y1="0" x2="64.5" y2="129" gradientUnits="userSpaceOnUse">
<stop stop-color="#BCEAFE"/>
<stop offset="0.734375" stop-color="#DDF5FF"/>
</linearGradient>
</defs>
</svg>
