<svg width="24" height="24" viewBox="0 0 24 24" fill="none" xmlns="http://www.w3.org/2000/svg">
<path d="M12.32 6.23499C13.1019 6.23499 14.0821 5.70637 14.6658 5.00155C15.1944 4.3628 15.5798 3.47075 15.5798 2.57871C15.5798 2.45756 15.5688 2.33642 15.5468 2.2373C14.6768 2.27034 13.6305 2.82099 13.0028 3.55885C12.5072 4.12051 12.0557 5.00155 12.0557 5.9046C12.0557 6.03676 12.0777 6.16891 12.0887 6.21297C12.1438 6.22398 12.2319 6.23499 12.32 6.23499ZM9.56678 19.5606C10.635 19.5606 11.1086 18.8448 12.4411 18.8448C13.7957 18.8448 14.0931 19.5386 15.2825 19.5386C16.4498 19.5386 17.2318 18.4593 17.9696 17.4021C18.7956 16.1907 19.137 15.0013 19.159 14.9462C19.0819 14.9242 16.8463 14.0101 16.8463 11.4441C16.8463 9.21949 18.6084 8.21732 18.7075 8.14022C17.5401 6.46626 15.767 6.42221 15.2825 6.42221C13.9719 6.42221 12.9037 7.21514 12.2319 7.21514C11.5051 7.21514 10.5469 6.46626 9.4126 6.46626C7.25407 6.46626 5.0625 8.25035 5.0625 11.6203C5.0625 13.7128 5.87745 15.9264 6.87963 17.358C7.73864 18.5695 8.48751 19.5606 9.56678 19.5606Z" fill="white"/>
</svg>
