<svg width="1267" height="722" viewBox="0 0 1267 722" fill="none" xmlns="http://www.w3.org/2000/svg">
<g opacity="0.5">
<rect y="323" width="750" height="399" rx="12" fill="white"/>
<path d="M57.0312 378.656C62.7969 378.656 67.0859 383.414 67.9531 391.078H75.3594V375.656H81.2656V418.406H75.3594V395.859H68C67.3672 404.062 62.9844 409.078 57.0312 409.078C50.5625 409.078 45.9219 403.219 45.9688 393.844C45.9219 384.562 50.5625 378.656 57.0312 378.656ZM57.0312 384.047C53.8438 384.047 51.6406 387.516 51.6875 393.844C51.6406 400.219 53.8438 403.641 57.0312 403.641C60.2656 403.641 62.375 400.219 62.375 393.844C62.375 387.516 60.2656 384.047 57.0312 384.047ZM124.203 412.781V417.562H93.4062V403.922H99.4062V412.781H124.203ZM123.078 375.703V406.547H117.219V391.734H111.312V386.953H117.219V375.703H123.078ZM98.6094 378.844V383.672H93.2656V395.719C95.1641 395.602 96.9219 395.414 98.8906 394.969L99.3594 399.797C95.9844 400.547 93.3125 400.5 89.5156 400.5H87.4531V378.844H98.6094ZM112.672 378.844V383.672H106.625V395.719C109.648 395.648 111.523 395.438 113.656 394.922L114.172 399.75C111.125 400.453 108.594 400.5 103.016 400.5H100.672V378.844H112.672ZM178.344 408.422V413.203H139.297V408.422H155.609V398.766H161.562V408.422H178.344ZM161.75 381.141C161.75 387.234 167.234 393.656 176.984 395.156L174.453 400.125C166.953 398.766 161.375 394.758 158.562 389.438C155.75 394.734 150.219 398.789 142.766 400.125L140.234 395.156C149.891 393.656 155.328 387.188 155.375 381.141V378.094H161.75V381.141ZM219.688 397.641V402.328H180.688V397.641H197.188V395.016H185.562V376.688H215.141V381.281H191.562V383.672H214.156V387.984H191.562V390.422H215.516V395.016H203.188V397.641H219.688ZM200.188 404.297C209.609 404.25 215 406.781 215.047 411.281C215 415.875 209.609 418.312 200.188 418.312C190.625 418.312 185.234 415.875 185.234 411.281C185.234 406.781 190.625 404.25 200.188 404.297ZM200.188 408.703C194.047 408.703 191.188 409.5 191.234 411.281C191.188 413.109 194.047 413.906 200.188 413.906C206.188 413.906 209 413.109 209.047 411.281C209 409.5 206.188 408.703 200.188 408.703ZM241.719 376.266C251.516 376.266 257.188 378.844 257.234 383.531C257.188 388.266 251.516 390.844 241.719 390.844C231.875 390.844 226.156 388.266 226.156 383.531C226.156 378.844 231.875 376.266 241.719 376.266ZM241.719 380.625C235.438 380.625 232.391 381.656 232.438 383.531C232.391 385.641 235.438 386.438 241.719 386.438C248.047 386.438 251.047 385.641 251.047 383.531C251.047 381.656 248.047 380.625 241.719 380.625ZM261.172 392.859V397.594H222.266V392.859H261.172ZM256.438 400.078V410.953H232.672V413.531H257.562V418.031H226.812V406.781H250.531V404.438H226.766V400.078H256.438ZM310.953 375.703V407.906H304.953V404.531H296.797V400.453H304.953V375.703H310.953ZM311.891 412.781V417.562H280.109V404.812H286.062V399.141C282.242 399.305 278.609 399.328 275.375 399.328L274.672 394.594C282.5 394.547 293.047 394.453 302.047 393.328L302.375 397.594C299 398.156 295.508 398.555 292.062 398.812V406.922H286.062V412.781H311.891ZM288.547 377.156C294.734 377.109 299.188 380.25 299.188 384.797C299.188 389.344 294.734 392.297 288.547 392.297C282.219 392.297 277.812 389.344 277.812 384.797C277.812 380.25 282.172 377.109 288.547 377.156ZM288.547 381.516C285.5 381.516 283.438 382.688 283.484 384.797C283.438 386.859 285.5 387.984 288.547 387.984C291.406 387.984 293.469 386.859 293.516 384.797C293.469 382.688 291.406 381.516 288.547 381.516ZM349.953 375.656V392.344H356.234V397.266H349.953V418.312H344.047V375.656H349.953ZM341.141 382.031V386.812H316.062V382.031H325.719V376.312H331.719V382.031H341.141ZM328.719 389.203C334.953 389.203 339.594 393.422 339.594 399.375C339.594 405.328 334.953 409.547 328.719 409.547C322.438 409.547 317.797 405.328 317.797 399.375C317.797 393.422 322.438 389.203 328.719 389.203ZM328.719 394.031C325.719 394.078 323.516 396.094 323.516 399.375C323.516 402.703 325.719 404.672 328.719 404.625C331.719 404.672 333.875 402.703 333.875 399.375C333.875 396.094 331.719 394.078 328.719 394.031ZM371.469 386.391C371.469 393.281 373.391 400.406 379.203 404.156L375.969 408.797C372.289 406.57 369.945 402.914 368.609 398.531C367.062 403.359 364.508 407.391 360.641 409.734L356.984 405.328C363.312 401.391 365.656 393.891 365.656 386.672V379.312H371.469V386.391ZM394.766 375.656V418.312H389.047V375.656H394.766ZM385.812 376.266V416.344H380.234V394.922H374.703V390.047H380.234V376.266H385.812ZM438.312 408.422V413.344H399.266V408.422H407.984V397.969C404.68 396 402.688 392.977 402.688 389.203C402.688 382.312 409.438 377.719 418.719 377.719C427.953 377.719 434.75 382.312 434.797 389.203C434.773 392.883 432.828 395.883 429.641 397.875V408.422H438.312ZM418.719 382.453C412.625 382.453 408.594 384.891 408.594 389.203C408.594 393.375 412.625 395.953 418.719 395.953C424.766 395.953 428.844 393.375 428.891 389.203C428.844 384.891 424.766 382.453 418.719 382.453ZM413.891 408.422H423.594V400.125C422.07 400.43 420.43 400.594 418.719 400.594C417.008 400.594 415.391 400.453 413.891 400.125V408.422ZM448.203 403.312C448.25 397.5 449.797 395.672 452.609 393.938C454.625 392.625 456.172 391.172 456.172 389.016C456.172 386.672 454.344 385.125 452.094 385.125C449.891 385.125 447.875 386.578 447.781 389.344H441.125C441.266 382.734 446.141 379.594 452.141 379.594C458.656 379.594 463.297 383.016 463.297 388.781C463.297 392.625 461.328 395.109 458.234 396.938C455.609 398.531 454.438 400.031 454.391 403.312V403.828H448.203V403.312ZM451.438 414.422C449.234 414.422 447.453 412.641 447.5 410.484C447.453 408.328 449.234 406.594 451.438 406.594C453.5 406.594 455.328 408.328 455.328 410.484C455.328 412.641 453.5 414.422 451.438 414.422Z" fill="black"/>
<g clip-path="url(#clip0_199_4732)">
<rect x="47" y="470" width="212" height="212" rx="20" fill="#F2F2F7"/>
<rect x="101" y="491.5" width="104" height="104" rx="52" fill="white" fill-opacity="0.5"/>
<path d="M167.288 526.417C170.628 536.419 165.769 537.076 169.517 541.416C170.957 543.086 172.798 543.152 174.679 542.961C176.618 542.764 176.908 542.244 176.645 540.166C176.257 537.056 178.19 530.553 176.776 527.759C173.173 520.605 174.08 515.43 166.072 510.623C162.034 508.204 157.958 508.769 152.908 508.342C146.089 507.763 139.829 507.402 133.215 507.263C131.203 507.224 129.513 506.303 127.836 505.33C125.462 503.956 122.405 504.607 120.827 506.856C118.433 510.275 115.612 515.746 116.974 521.276C122.056 527.029 127.442 532.223 135.989 531.579C136.515 531.54 152.605 529.777 160.154 529.179C161.489 529.074 162.758 529.1 164.178 528.581C166.433 527.759 167.676 526.569 167.189 524.465C166.677 522.268 165.552 520.329 162.528 520.427C156.985 520.611 151.435 520.48 145.892 520.48" fill="#FBE2C7"/>
<path d="M159.864 569.499C159.897 565.719 157.491 563.457 154.69 561.609C151.625 559.59 147.779 561.155 144.412 565.541C144.412 565.541 144.412 565.548 144.406 565.554C143.959 566.139 143.222 566.422 142.505 566.231C140.145 565.607 135.562 566.126 132.235 568.98C131.459 569.644 131.393 570.847 132.116 571.577C146.129 585.694 176.184 576.469 185.778 573.024C187.113 572.544 187.376 570.755 186.225 569.92C182.227 567.027 177.927 564.66 173.337 562.74C168.13 560.563 163.284 564.594 159.858 569.499" fill="#132D51"/>
<path d="M163.368 515.64L147.714 524.678C145.795 525.786 145.138 528.239 146.246 530.157L161.303 556.238C162.411 558.156 164.864 558.813 166.782 557.706L182.436 548.668C184.355 547.56 185.012 545.107 183.904 543.189L168.847 517.108C167.739 515.19 165.286 514.533 163.368 515.64Z" fill="#D9DEE3"/>
<path d="M145.412 521.23C150.962 521.23 156.511 521.362 162.048 521.177C165.066 521.079 166.197 523.019 166.71 525.215C167.203 527.312 165.953 528.509 163.698 529.331C162.278 529.85 161.009 529.824 159.674 529.929C159.674 529.929 135.437 533.71 135.168 529.929C134.898 526.148 135.03 522.111 145.419 521.23H145.412Z" fill="#FBE2C7"/>
<path d="M147.989 522.084C146.352 522.084 144.721 522.071 143.11 522.065C141.479 522.051 139.849 522.045 138.218 522.045C137.856 522.045 137.561 521.749 137.561 521.387C137.561 521.026 137.856 520.73 138.218 520.73C139.849 520.73 141.486 520.743 143.117 520.75C146.963 520.776 150.935 520.802 154.834 520.677C155.176 520.638 155.498 520.947 155.511 521.315C155.524 521.677 155.242 521.979 154.873 521.992C152.585 522.071 150.277 522.091 147.982 522.091L147.989 522.084Z" fill="#F5A040"/>
<path d="M166.301 549.575C166.124 549.575 165.946 549.503 165.828 549.371L162.869 546.268C162.619 546.005 162.626 545.591 162.889 545.341C163.152 545.091 163.566 545.097 163.816 545.36L166.269 547.931L170.727 542.605C170.957 542.329 171.371 542.29 171.654 542.527C171.93 542.757 171.969 543.177 171.733 543.454L166.801 549.345C166.683 549.49 166.505 549.575 166.321 549.582C166.315 549.582 166.308 549.582 166.301 549.582V549.575Z" fill="#F5A040"/>
<path d="M152.16 640.796V644.06H141.088V652.38H137.12V644.06H126.176V640.796H152.16ZM129.44 638.684V625.052H149.088V628.188H133.344V630.3H148.512V633.372H133.344V635.548H149.408V638.684H129.44ZM179.88 646.044V649.244H153.832V646.044H160.296V640.604H156.008V637.404H159.784V629.404H155.88V626.204H177.704V629.404H173.672V637.404H177.576V640.604H173.288V646.044H179.88ZM163.816 637.404H169.768V629.404H163.816V637.404ZM164.328 646.044H169.256V640.604H164.328V646.044Z" fill="black"/>
</g>
<g clip-path="url(#clip1_199_4732)">
<rect x="269" y="470" width="212" height="212" rx="20" fill="#F2F2F7"/>
<rect x="323" y="491.5" width="104" height="104" rx="52" fill="white" fill-opacity="0.5"/>
<path d="M369.274 528.237H365.328C364.967 528.237 364.671 527.941 364.671 527.579C364.671 527.218 364.967 526.922 365.328 526.922H369.274C369.635 526.922 369.931 527.218 369.931 527.579C369.931 527.941 369.635 528.237 369.274 528.237Z" fill="#F5A040"/>
<path d="M380.892 516.534C380.53 516.534 380.234 516.238 380.234 515.876V511.931C380.234 511.569 380.53 511.273 380.892 511.273C381.254 511.273 381.549 511.569 381.549 511.931V515.876C381.549 516.238 381.254 516.534 380.892 516.534Z" fill="#F5A040"/>
<path d="M372.515 520.204C372.345 520.204 372.18 520.138 372.049 520.013L369.261 517.225C369.004 516.968 369.004 516.554 369.261 516.298C369.517 516.041 369.931 516.041 370.188 516.298L372.976 519.086C373.232 519.342 373.232 519.756 372.976 520.013C372.844 520.144 372.68 520.204 372.509 520.204H372.515Z" fill="#F5A040"/>
<path d="M392.537 539.547C392.366 539.547 392.202 539.482 392.07 539.357L389.282 536.569C389.026 536.312 389.026 535.898 389.282 535.642C389.539 535.385 389.953 535.385 390.209 535.642L392.997 538.429C393.254 538.686 393.254 539.1 392.997 539.357C392.866 539.488 392.701 539.547 392.53 539.547H392.537Z" fill="#F5A040"/>
<path d="M397.022 528.237H393.076C392.715 528.237 392.419 527.941 392.419 527.579C392.419 527.218 392.715 526.922 393.076 526.922H397.022C397.383 526.922 397.679 527.218 397.679 527.579C397.679 527.941 397.383 528.237 397.022 528.237Z" fill="#F5A040"/>
<path d="M389.407 519.862C389.236 519.862 389.072 519.796 388.94 519.671C388.684 519.415 388.684 519 388.94 518.744L391.728 515.956C391.985 515.7 392.399 515.7 392.655 515.956C392.912 516.212 392.912 516.627 392.655 516.883L389.867 519.671C389.736 519.803 389.572 519.862 389.401 519.862H389.407Z" fill="#F5A040"/>
<path d="M370.062 539.883C369.892 539.883 369.727 539.817 369.596 539.693C369.339 539.436 369.339 539.022 369.596 538.765L372.384 535.977C372.64 535.721 373.054 535.721 373.311 535.977C373.567 536.234 373.567 536.648 373.311 536.905L370.523 539.693C370.391 539.824 370.227 539.883 370.056 539.883H370.062Z" fill="#F5A040"/>
<path d="M381.576 544.715C381.215 544.715 380.919 544.42 380.919 544.058V534.892C380.919 534.53 381.215 534.234 381.576 534.234C381.938 534.234 382.234 534.53 382.234 534.892V544.058C382.234 544.42 381.938 544.715 381.576 544.715Z" fill="#F5A040"/>
<path d="M381.129 534.997C385.094 534.997 388.309 531.783 388.309 527.817C388.309 523.851 385.094 520.637 381.129 520.637C377.163 520.637 373.948 523.851 373.948 527.817C373.948 531.783 377.163 534.997 381.129 534.997Z" fill="#F5A040"/>
<path d="M360.686 549.122C362.717 543.342 368.306 540.39 370.989 545.723C370.989 545.723 377.735 539.325 384.238 543.691C388.059 540.278 392.234 539.575 396.304 543.224C398.204 544.927 399.651 547.136 401.301 549.122C401.301 549.122 393.082 569.289 360.692 549.122H360.686Z" fill="#132D51"/>
<path d="M369.01 562.192C374.422 562.415 379.84 561.837 385.258 562.534C387.77 562.856 389.953 561.824 390.354 559.016C390.762 556.195 389.769 554.768 386.481 554.071C382.97 553.328 379.57 553.585 376.138 553.539C371.857 553.48 367.675 553.591 363.842 551.126C358.74 547.851 353.808 549.337 349.232 552.329C346.273 554.262 343.511 556.504 340.697 558.661C339.98 559.213 339.474 559.989 339.29 560.877C338.718 563.573 338.317 569.576 343.971 575.08C345.096 576.178 346.805 576.375 348.226 575.698C354.4 572.772 360.962 572.364 367.84 573.199C371.877 573.686 376.066 572.897 380.103 573.37C387.02 574.185 392.432 571.437 397.113 566.913C401.946 562.245 406.943 557.688 410.994 552.276C412.217 550.639 413.749 548.897 411.803 546.746C409.962 544.715 407.884 545.28 405.872 546.372C404.359 547.187 402.341 547.864 401.617 549.186C399.211 553.585 394.694 554.354 390.808 556.254" fill="#FBE2C7"/>
<path d="M386.146 563.258C385.83 563.258 385.508 563.238 385.172 563.192C381.898 562.771 378.544 562.824 375.303 562.876C373.232 562.909 371.095 562.942 368.977 562.857C368.616 562.844 368.333 562.535 368.346 562.173C368.359 561.811 368.675 561.528 369.03 561.542C371.108 561.627 373.225 561.594 375.277 561.561C378.564 561.509 381.97 561.456 385.337 561.89C386.501 562.041 389.249 562.055 389.696 558.931C389.867 557.741 389.762 556.906 389.374 556.295C389.177 555.992 389.262 555.584 389.571 555.387C389.874 555.19 390.281 555.275 390.479 555.584C391.051 556.479 391.215 557.596 390.998 559.122C390.623 561.739 388.795 563.264 386.139 563.264L386.146 563.258Z" fill="#F5A040"/>
<path d="M357.392 625.82C361.904 625.82 365.264 628.732 365.264 632.796C365.264 636.892 361.904 639.804 357.392 639.772C352.912 639.804 349.488 636.892 349.52 632.796C349.488 628.732 352.912 625.82 357.392 625.82ZM348.304 643.42C353.392 643.388 360.432 643.324 366.48 642.46L366.8 645.34C360.496 646.588 353.744 646.62 348.752 646.62L348.304 643.42ZM353.488 632.796C353.456 635.068 355.152 636.348 357.392 636.38C359.664 636.348 361.392 635.068 361.424 632.796C361.392 630.588 359.664 629.276 357.392 629.276C355.152 629.276 353.456 630.588 353.488 632.796ZM368.144 652.444V623.9H372.112V652.444H368.144ZM399.768 623.964V644.956H395.864V639.004H389.336V635.804H395.864V632.604H389.752C387.736 636.956 383.608 640.156 377.88 641.884L376.216 638.748C382.264 636.86 386.104 633.468 386.776 629.276H377.752V626.076H391.128C391.128 627.26 391 628.38 390.776 629.468H395.864V623.964H399.768ZM381.08 651.868V642.844H385.112V648.668H400.536V651.868H381.08Z" fill="black"/>
</g>
</g>
<g opacity="0.5">
<rect x="517" width="750" height="449" rx="12" fill="white"/>
<path d="M578.812 64.2813C578.812 71.1719 582.328 78.5313 589.5 81.5313L586.266 86.2188C581.227 84.0859 577.758 79.8438 575.859 74.6406C573.914 80.2891 570.375 84.9766 565.359 87.2969L561.937 82.5625C569.016 79.4219 572.672 71.5 572.672 64.2813V61.6563H563.625V56.7813H587.719V61.6563H578.812V64.2813ZM597.984 52.6563V95.3125H591.937V52.6563H597.984ZM638.156 54.5781V58C638.156 61.3281 638.156 65.0313 637.172 69.9063H642.797V74.7344H603.75V69.9063H631.125C632.062 65.6406 632.18 62.3359 632.203 59.3594H608.531V54.5781H638.156ZM638.016 79.2344V94.8437H608.391V79.2344H638.016ZM614.25 83.9219V90.0625H632.062V83.9219H614.25ZM690.797 52.5156V68.5938H695.953V73.6094H690.797V95.3125H684.844V52.5156H690.797ZM668.25 56.9219V61.7031H663.141V79.8438C664.875 79.7734 666.562 79.5859 668.484 79.2344L668.953 84.1563C665.437 84.7656 662.672 84.8594 659.297 84.8125H657.141V56.9219H668.25ZM681.984 56.9219V61.7031H676.359V79.8906C678.937 79.8203 680.672 79.6328 682.594 79.1406L683.062 84.0625C680.156 84.7656 677.766 84.8594 672.703 84.8125H670.453V56.9219H681.984ZM736.687 72.4375V77.2188H697.781V72.4375H736.687ZM733.312 64.9375V69.625H718.5V54.6719H733.078V59.4063H724.453V64.9375H733.312ZM716.344 54.6719V59.4063H707.391V64.8906C710.625 64.8203 713.391 64.5859 716.578 63.9063L717.047 68.6875C712.687 69.5781 708.984 69.625 704.062 69.625H701.391V54.6719H716.344ZM720.328 80.5C720.328 85.0469 724.734 89.4063 734.156 90.4375L732 95.125C724.969 94.1641 719.93 91.4453 717.328 87.5313C714.68 91.4453 709.664 94.1641 702.609 95.125L700.5 90.4375C709.875 89.4063 714.234 85.0469 714.234 80.5V79.6563H720.328V80.5ZM773.109 52.7031V65.7813H778.875V70.6563H773.109V84.5313H767.109V52.7031H773.109ZM764.578 57.1563V61.8906H739.266V57.1563H748.969V52.6094H754.922V57.1563H764.578ZM751.922 63.3906C758.109 63.3906 762.422 66.7188 762.422 71.6406C762.422 76.5625 758.109 79.7969 751.922 79.7969C745.687 79.7969 741.328 76.5625 741.328 71.6406C741.328 66.7188 745.687 63.3906 751.922 63.3906ZM751.922 67.9375C749.062 67.9844 747.141 69.2969 747.187 71.6406C747.141 73.9844 749.062 75.25 751.922 75.25C754.781 75.25 756.75 73.9844 756.75 71.6406C756.75 69.2969 754.781 67.9844 751.922 67.9375ZM774.656 89.7813V94.5625H745.453V82.0938H751.406V89.7813H774.656ZM813.656 56.6875V84.9063H793.172V56.6875H813.656ZM799.078 61.375V80.1719H807.703V61.375H799.078ZM825.469 52.6563V68.7344H831.75V73.7031H825.469V95.3125H819.469V52.6563H825.469ZM852.75 53.2656C862.547 53.2656 868.219 55.8438 868.266 60.5313C868.219 65.2656 862.547 67.8438 852.75 67.8438C842.906 67.8438 837.187 65.2656 837.187 60.5313C837.187 55.8438 842.906 53.2656 852.75 53.2656ZM852.75 57.625C846.469 57.625 843.422 58.6563 843.469 60.5313C843.422 62.6406 846.469 63.4375 852.75 63.4375C859.078 63.4375 862.078 62.6406 862.078 60.5313C862.078 58.6563 859.078 57.625 852.75 57.625ZM872.203 69.8594V74.5938H833.297V69.8594H872.203ZM867.469 77.0781V87.9531H843.703V90.5313H868.594V95.0312H837.844V83.7813H861.562V81.4375H837.797V77.0781H867.469Z" fill="black"/>
<path d="M1157.75 65.2031V67.6406H1151.05V77.1094C1154.16 77.0742 1156.39 76.9336 1158.9 76.4766L1159.21 78.8906C1156.28 79.4531 1153.7 79.5703 1149.76 79.5469H1148.03V65.2031H1157.75ZM1165.04 63.3281V84.7031H1162.07V73.1484H1156.7V70.7109H1162.07V63.3281H1165.04ZM1187.29 79.7344V82.1719H1167.76V79.7344H1175.99V75.7969H1169.82V64.6875H1172.82V67.9922H1182.13V64.6875H1185.11V75.7969H1178.96V79.7344H1187.29ZM1172.82 73.4063H1182.13V70.3828H1172.82V73.4063ZM1206.43 63.3281V84.6562H1203.41V63.3281H1206.43ZM1200.04 65.5547C1200.04 72.0234 1197.76 77.3906 1190.14 81L1188.57 78.6094C1194.08 76.0078 1196.51 72.6328 1196.99 67.8984H1189.72V65.5547H1200.04Z" fill="#8E8E93"/>
<path d="M1237 62.9215C1236.22 63.7015 1236.22 64.9615 1237 65.7415L1244.76 73.5015L1237 81.2615C1236.22 82.0415 1236.22 83.3015 1237 84.0815C1237.78 84.8615 1239.04 84.8615 1239.82 84.0815L1249 74.9015C1249.78 74.1215 1249.78 72.8615 1249 72.0815L1239.82 62.9015C1239.06 62.1415 1237.78 62.1415 1237 62.9215Z" fill="#8E8E93"/>
<rect width="750" height="151" transform="translate(517 107)" fill="white"/>
<path d="M574.408 145.9V174.38H570.632V145.9H574.408ZM549.256 166.06C553.448 163.5 555.016 158.38 555.016 153.58V152.044H550.344V148.844H563.144V152.044H558.856V153.58C558.824 158.284 560.328 163.052 564.488 165.42L562.12 168.364C559.56 166.86 557.928 164.332 556.968 161.292C555.976 164.588 554.28 167.404 551.688 169.004L549.256 166.06ZM561.16 158.892V155.692H564.872V146.412H568.584V173.036H564.872V158.892H561.16ZM600.144 147.052V157.1H592.464V159.788H603.472V162.988H577.488V159.788H588.432V157.1H580.688V147.052H600.144ZM580.368 168.236V165.1H600.272V174.38H596.304V168.236H580.368ZM584.592 153.964H596.24V150.188H584.592V153.964Z" fill="black"/>
<path d="M567.288 208.992V221.472H565.08V216.192H561.144V214.368H565.08V208.992H567.288ZM549.768 219.6C553.032 218.448 555.024 215.616 555.048 212.736V212.256H550.488V210.432H561.816V212.256H557.304V212.688C557.28 215.352 559.176 217.944 562.344 219.024L561.192 220.8C558.84 219.96 557.112 218.28 556.224 216.216C555.288 218.568 553.44 220.464 550.92 221.376L549.768 219.6ZM553.128 226.032C553.128 223.536 555.84 222.072 560.232 222.096C564.648 222.072 567.336 223.536 567.336 226.032C567.336 228.528 564.648 229.968 560.232 229.968C555.84 229.968 553.128 228.528 553.128 226.032ZM555.336 226.032C555.336 227.448 557.16 228.264 560.232 228.24C563.304 228.264 565.128 227.448 565.128 226.032C565.128 224.616 563.304 223.8 560.232 223.776C557.16 223.8 555.336 224.616 555.336 226.032ZM589.71 220.032V221.76H570.51V220.032H589.71ZM572.718 226.608C572.694 224.4 575.382 223.224 580.062 223.2C584.718 223.224 587.406 224.4 587.406 226.608C587.406 228.792 584.718 229.968 580.062 229.968C575.382 229.968 572.694 228.792 572.718 226.608ZM572.91 211.344V209.616H587.31V214.8H575.166V216.672H587.694V218.4H572.958V213.168H585.054V211.344H572.91ZM574.974 226.608C574.95 227.736 576.75 228.336 580.062 228.336C583.374 228.336 585.15 227.736 585.15 226.608C585.15 225.48 583.374 224.856 580.062 224.88C576.75 224.856 574.95 225.48 574.974 226.608ZM609.252 208.992V229.968H607.14V208.992H609.252ZM590.964 224.208C593.916 222.408 595.452 218.592 595.428 214.848V213.168H591.588V211.344H601.188V213.168H597.588V214.848C597.588 218.448 599.028 222.024 602.004 223.728L600.66 225.36C598.644 224.16 597.276 222.048 596.532 219.504C595.788 222.24 594.372 224.568 592.308 225.84L590.964 224.208ZM599.652 218.256V216.432H602.916V209.424H605.028V228.912H602.916V218.256H599.652ZM612.715 228V226.128L618.619 220.176C620.467 218.256 621.403 217.176 621.403 215.712C621.403 214.032 620.035 212.952 618.235 212.976C616.363 212.952 615.163 214.152 615.163 215.952H612.715C612.715 212.856 615.067 210.792 618.331 210.816C621.571 210.792 623.851 212.856 623.851 215.616C623.851 217.512 622.939 219.024 619.771 222.144L616.315 225.648V225.792H624.139V228H612.715ZM645.445 219.216V220.992H626.245V219.216H634.741V216.96H628.645V209.952H643.045V211.728H630.853V215.184H643.189V216.96H636.901V219.216H645.445ZM628.501 226.176C628.525 223.728 631.261 222.36 635.797 222.384C640.333 222.36 643.045 223.728 643.045 226.176C643.045 228.6 640.333 229.968 635.797 229.968C631.261 229.968 628.525 228.6 628.501 226.176ZM630.805 226.176C630.757 227.52 632.605 228.264 635.797 228.24C638.989 228.264 640.813 227.52 640.837 226.176C640.813 224.856 638.989 224.088 635.797 224.064C632.605 224.088 630.757 224.856 630.805 226.176Z" fill="#AEAEB2"/>
<path d="M658.488 228V226.128L664.392 220.176C666.24 218.256 667.176 217.176 667.176 215.712C667.176 214.032 665.808 212.952 664.008 212.976C662.136 212.952 660.936 214.152 660.936 215.952H658.488C658.488 212.856 660.84 210.792 664.104 210.816C667.344 210.792 669.624 212.856 669.624 215.616C669.624 217.512 668.712 219.024 665.544 222.144L662.088 225.648V225.792H669.912V228H658.488ZM679.746 214.32C679.722 218.16 682.026 222.024 685.266 223.488L683.97 225.216C681.546 224.088 679.626 221.736 678.642 218.88C677.682 221.952 675.738 224.472 673.218 225.696L671.874 223.824C675.162 222.36 677.49 218.352 677.49 214.32V210.72H679.746V214.32ZM687.186 230.016V208.992H689.442V230.016H687.186ZM709.272 208.992V215.184H712.296V217.056H709.272V224.256H707.016V208.992H709.272ZM692.76 220.176C697.656 218.688 700.728 215.88 701.16 212.448H693.624V210.576H703.56C703.56 216.096 699.816 220.08 693.672 221.952L692.76 220.176ZM695.928 229.536V222.672H698.184V227.76H710.136V229.536H695.928ZM736.882 208.992V224.4H734.674V216.48H730.642V214.704H734.674V208.992H736.882ZM719.362 219.984C722.626 218.904 724.618 216.144 724.642 213.264V212.448H720.082V210.624H731.41V212.448H726.898V213.264C726.874 215.88 728.77 218.496 731.938 219.552L730.786 221.328C728.434 220.512 726.706 218.832 725.794 216.744C724.882 219.072 723.034 220.92 720.514 221.808L719.362 219.984ZM723.25 229.536V223.008H725.458V227.76H737.41V229.536H723.25Z" fill="#AEAEB2"/>
<mask id="mask0_199_4732" style="mask-type:alpha" maskUnits="userSpaceOnUse" x="1100" y="203" width="32" height="33">
<rect x="1100" y="203.5" width="32" height="32" fill="#D9D9D9"/>
</mask>
<g mask="url(#mask0_199_4732)">
<path d="M1109.33 231.499V214.166L1117.33 206.233C1117.67 205.899 1118.06 205.705 1118.52 205.649C1118.97 205.594 1119.41 205.677 1119.83 205.899C1120.26 206.122 1120.57 206.433 1120.77 206.833C1120.97 207.233 1121.01 207.644 1120.9 208.066L1119.4 214.166H1128C1128.71 214.166 1129.33 214.433 1129.87 214.966C1130.4 215.499 1130.67 216.122 1130.67 216.833V219.499C1130.67 219.655 1130.64 219.822 1130.6 219.999C1130.56 220.177 1130.51 220.344 1130.47 220.499L1126.47 229.899C1126.27 230.344 1125.93 230.722 1125.47 231.033C1125 231.344 1124.51 231.499 1124 231.499H1109.33ZM1112 215.299V228.833H1124L1128 219.499V216.833H1116L1117.8 209.499L1112 215.299ZM1105.33 231.499C1104.6 231.499 1103.97 231.238 1103.45 230.716C1102.93 230.194 1102.67 229.566 1102.67 228.833V216.833C1102.67 216.099 1102.93 215.472 1103.45 214.949C1103.97 214.427 1104.6 214.166 1105.33 214.166H1109.33V216.833H1105.33V228.833H1109.33V231.499H1105.33Z" fill="#FFA339"/>
</g>
<path d="M1149.92 211.008V228H1147.33V213.6H1147.23L1143.2 216.24V213.792L1147.42 211.008H1149.92ZM1160.15 228.24C1156.24 228.24 1153.93 225.072 1153.91 219.504C1153.93 214.008 1156.26 210.792 1160.15 210.816C1164.06 210.792 1166.39 214.008 1166.39 219.504C1166.39 225.072 1164.09 228.24 1160.15 228.24ZM1156.5 219.504C1156.5 223.752 1157.87 226.008 1160.15 226.032C1162.45 226.008 1163.82 223.752 1163.8 219.504C1163.82 215.304 1162.43 212.976 1160.15 212.976C1157.89 212.976 1156.5 215.304 1156.5 219.504Z" fill="#FFA339"/>
<g clip-path="url(#clip2_199_4732)">
<mask id="mask1_199_4732" style="mask-type:alpha" maskUnits="userSpaceOnUse" x="1178" y="203" width="32" height="33">
<rect x="1178" y="203.5" width="32" height="32" fill="#D9D9D9"/>
</mask>
<g mask="url(#mask1_199_4732)">
<path d="M1179.33 234.166C1179.33 233.499 1181.93 225.233 1181.93 225.233C1181.51 224.322 1181.19 223.388 1180.98 222.433C1180.77 221.477 1180.67 220.499 1180.67 219.499C1180.67 217.655 1181.02 215.922 1181.72 214.299C1182.42 212.677 1183.37 211.266 1184.57 210.066C1185.77 208.866 1187.18 207.916 1188.8 207.216C1190.42 206.516 1192.16 206.166 1194 206.166C1195.84 206.166 1197.58 206.516 1199.2 207.216C1200.82 207.916 1202.23 208.866 1203.43 210.066C1204.63 211.266 1205.58 212.677 1206.28 214.299C1206.98 215.922 1207.33 217.655 1207.33 219.499C1207.33 221.344 1206.98 223.077 1206.28 224.699C1205.58 226.322 1204.63 227.733 1203.43 228.933C1202.23 230.133 1200.82 231.083 1199.2 231.783C1197.58 232.483 1195.84 232.833 1194 232.833C1193 232.833 1192.02 232.727 1191.07 232.516C1190.11 232.305 1189.18 231.988 1188.27 231.566C1188.27 231.566 1179.33 236.052 1179.33 234.166ZM1182.67 231.499C1182.84 231.783 1187.53 228.966 1187.53 228.966C1187.84 228.877 1188.16 228.844 1188.48 228.866C1188.81 228.888 1189.11 228.966 1189.4 229.099C1190.11 229.455 1190.86 229.722 1191.63 229.899C1192.41 230.077 1193.2 230.166 1194 230.166C1196.98 230.166 1199.5 229.133 1201.57 227.066C1203.63 224.999 1204.67 222.477 1204.67 219.499C1204.67 216.522 1203.63 213.999 1201.57 211.933C1199.5 209.866 1196.98 208.833 1194 208.833C1191.02 208.833 1188.5 209.866 1186.43 211.933C1184.37 213.999 1183.33 216.522 1183.33 219.499C1183.33 220.299 1183.42 221.088 1183.6 221.866C1183.78 222.644 1184.04 223.388 1184.4 224.099C1184.56 224.388 1184.64 224.694 1184.65 225.016C1184.66 225.338 1184.62 225.655 1184.53 225.966C1184.53 225.966 1182.49 231.216 1182.67 231.499Z" fill="#8E8E93"/>
</g>
</g>
<path d="M1227.63 228.24C1224.51 228.216 1221.22 226.344 1221.25 220.08C1221.22 214.176 1223.79 210.792 1227.87 210.816C1230.97 210.792 1233.15 212.736 1233.54 215.424H1230.99C1230.66 214.056 1229.58 213.048 1227.87 213.072C1225.23 213.048 1223.7 215.328 1223.7 219.168H1223.89C1224.8 217.728 1226.41 216.888 1228.26 216.864C1231.28 216.888 1233.7 219.192 1233.73 222.432C1233.7 225.744 1231.28 228.264 1227.63 228.24ZM1224.03 222.528C1224.03 224.4 1225.52 226.08 1227.63 226.08C1229.67 226.08 1231.21 224.472 1231.23 222.48C1231.21 220.536 1229.72 218.976 1227.68 218.976C1225.62 218.976 1224.03 220.632 1224.03 222.528Z" fill="#8E8E93"/>
<line x1="549" y1="257" x2="1235" y2="257" stroke="#E5E5EA" stroke-width="2"/>
<path d="M1205 107H1267V152H1213C1208.58 152 1205 148.418 1205 144V107Z" fill="#FFF0D4"/>
<path d="M1233.45 118.992V134.256H1231.24V118.992H1233.45ZM1216.46 125.616C1216.46 122.592 1218.88 120.432 1222.08 120.432C1225.22 120.432 1227.64 122.592 1227.64 125.616C1227.64 128.712 1225.22 130.848 1222.08 130.848C1218.88 130.848 1216.46 128.712 1216.46 125.616ZM1218.62 125.616C1218.62 127.608 1220.11 128.904 1222.08 128.928C1223.97 128.904 1225.46 127.608 1225.44 125.616C1225.46 123.696 1223.97 122.376 1222.08 122.352C1220.11 122.376 1218.62 123.696 1218.62 125.616ZM1219.72 139.536V132.72H1221.93V137.76H1234.08V139.536H1219.72ZM1254.24 118.992V139.968H1251.99V118.992H1254.24ZM1236.96 134.352C1242.58 131.712 1245.29 127.92 1245.72 123.024H1238.02V121.248H1248C1247.98 127.392 1245.36 132.72 1238.16 136.176L1236.96 134.352Z" fill="#FFA339"/>
<rect width="750" height="151" transform="translate(517 258)" fill="white"/>
<path d="M574.408 296.9V325.38H570.632V296.9H574.408ZM549.256 317.06C553.448 314.5 555.016 309.38 555.016 304.58V303.044H550.344V299.844H563.144V303.044H558.856V304.58C558.824 309.284 560.328 314.052 564.488 316.42L562.12 319.364C559.56 317.86 557.928 315.332 556.968 312.292C555.976 315.588 554.28 318.404 551.688 320.004L549.256 317.06ZM561.16 309.892V306.692H564.872V297.412H568.584V324.036H564.872V309.892H561.16ZM600.144 298.052V308.1H592.464V310.788H603.472V313.988H577.488V310.788H588.432V308.1H580.688V298.052H600.144ZM580.368 319.236V316.1H600.272V325.38H596.304V319.236H580.368ZM584.592 304.964H596.24V301.188H584.592V304.964Z" fill="black"/>
<path d="M567.288 359.992V372.472H565.08V367.192H561.144V365.368H565.08V359.992H567.288ZM549.768 370.6C553.032 369.448 555.024 366.616 555.048 363.736V363.256H550.488V361.432H561.816V363.256H557.304V363.688C557.28 366.352 559.176 368.944 562.344 370.024L561.192 371.8C558.84 370.96 557.112 369.28 556.224 367.216C555.288 369.568 553.44 371.464 550.92 372.376L549.768 370.6ZM553.128 377.032C553.128 374.536 555.84 373.072 560.232 373.096C564.648 373.072 567.336 374.536 567.336 377.032C567.336 379.528 564.648 380.968 560.232 380.968C555.84 380.968 553.128 379.528 553.128 377.032ZM555.336 377.032C555.336 378.448 557.16 379.264 560.232 379.24C563.304 379.264 565.128 378.448 565.128 377.032C565.128 375.616 563.304 374.8 560.232 374.776C557.16 374.8 555.336 375.616 555.336 377.032ZM589.71 371.032V372.76H570.51V371.032H589.71ZM572.718 377.608C572.694 375.4 575.382 374.224 580.062 374.2C584.718 374.224 587.406 375.4 587.406 377.608C587.406 379.792 584.718 380.968 580.062 380.968C575.382 380.968 572.694 379.792 572.718 377.608ZM572.91 362.344V360.616H587.31V365.8H575.166V367.672H587.694V369.4H572.958V364.168H585.054V362.344H572.91ZM574.974 377.608C574.95 378.736 576.75 379.336 580.062 379.336C583.374 379.336 585.15 378.736 585.15 377.608C585.15 376.48 583.374 375.856 580.062 375.88C576.75 375.856 574.95 376.48 574.974 377.608ZM609.252 359.992V380.968H607.14V359.992H609.252ZM590.964 375.208C593.916 373.408 595.452 369.592 595.428 365.848V364.168H591.588V362.344H601.188V364.168H597.588V365.848C597.588 369.448 599.028 373.024 602.004 374.728L600.66 376.36C598.644 375.16 597.276 373.048 596.532 370.504C595.788 373.24 594.372 375.568 592.308 376.84L590.964 375.208ZM599.652 369.256V367.432H602.916V360.424H605.028V379.912H602.916V369.256H599.652ZM612.715 379V377.128L618.619 371.176C620.467 369.256 621.403 368.176 621.403 366.712C621.403 365.032 620.035 363.952 618.235 363.976C616.363 363.952 615.163 365.152 615.163 366.952H612.715C612.715 363.856 615.067 361.792 618.331 361.816C621.571 361.792 623.851 363.856 623.851 366.616C623.851 368.512 622.939 370.024 619.771 373.144L616.315 376.648V376.792H624.139V379H612.715ZM645.445 370.216V371.992H626.245V370.216H634.741V367.96H628.645V360.952H643.045V362.728H630.853V366.184H643.189V367.96H636.901V370.216H645.445ZM628.501 377.176C628.525 374.728 631.261 373.36 635.797 373.384C640.333 373.36 643.045 374.728 643.045 377.176C643.045 379.6 640.333 380.968 635.797 380.968C631.261 380.968 628.525 379.6 628.501 377.176ZM630.805 377.176C630.757 378.52 632.605 379.264 635.797 379.24C638.989 379.264 640.813 378.52 640.837 377.176C640.813 375.856 638.989 375.088 635.797 375.064C632.605 375.088 630.757 375.856 630.805 377.176Z" fill="#AEAEB2"/>
<path d="M658.488 379V377.128L664.392 371.176C666.24 369.256 667.176 368.176 667.176 366.712C667.176 365.032 665.808 363.952 664.008 363.976C662.136 363.952 660.936 365.152 660.936 366.952H658.488C658.488 363.856 660.84 361.792 664.104 361.816C667.344 361.792 669.624 363.856 669.624 366.616C669.624 368.512 668.712 370.024 665.544 373.144L662.088 376.648V376.792H669.912V379H658.488ZM679.746 365.32C679.722 369.16 682.026 373.024 685.266 374.488L683.97 376.216C681.546 375.088 679.626 372.736 678.642 369.88C677.682 372.952 675.738 375.472 673.218 376.696L671.874 374.824C675.162 373.36 677.49 369.352 677.49 365.32V361.72H679.746V365.32ZM687.186 381.016V359.992H689.442V381.016H687.186ZM709.272 359.992V366.184H712.296V368.056H709.272V375.256H707.016V359.992H709.272ZM692.76 371.176C697.656 369.688 700.728 366.88 701.16 363.448H693.624V361.576H703.56C703.56 367.096 699.816 371.08 693.672 372.952L692.76 371.176ZM695.928 380.536V373.672H698.184V378.76H710.136V380.536H695.928ZM736.882 359.992V375.4H734.674V367.48H730.642V365.704H734.674V359.992H736.882ZM719.362 370.984C722.626 369.904 724.618 367.144 724.642 364.264V363.448H720.082V361.624H731.41V363.448H726.898V364.264C726.874 366.88 728.77 369.496 731.938 370.552L730.786 372.328C728.434 371.512 726.706 369.832 725.794 367.744C724.882 370.072 723.034 371.92 720.514 372.808L719.362 370.984ZM723.25 380.536V374.008H725.458V378.76H737.41V380.536H723.25Z" fill="#AEAEB2"/>
<mask id="mask2_199_4732" style="mask-type:alpha" maskUnits="userSpaceOnUse" x="1100" y="354" width="32" height="33">
<rect x="1100" y="354.5" width="32" height="32" fill="#D9D9D9"/>
</mask>
<g mask="url(#mask2_199_4732)">
<path d="M1109.33 382.499V365.166L1117.33 357.233C1117.67 356.899 1118.06 356.705 1118.52 356.649C1118.97 356.594 1119.41 356.677 1119.83 356.899C1120.26 357.122 1120.57 357.433 1120.77 357.833C1120.97 358.233 1121.01 358.644 1120.9 359.066L1119.4 365.166H1128C1128.71 365.166 1129.33 365.433 1129.87 365.966C1130.4 366.499 1130.67 367.122 1130.67 367.833V370.499C1130.67 370.655 1130.64 370.822 1130.6 370.999C1130.56 371.177 1130.51 371.344 1130.47 371.499L1126.47 380.899C1126.27 381.344 1125.93 381.722 1125.47 382.033C1125 382.344 1124.51 382.499 1124 382.499H1109.33ZM1112 366.299V379.833H1124L1128 370.499V367.833H1116L1117.8 360.499L1112 366.299ZM1105.33 382.499C1104.6 382.499 1103.97 382.238 1103.45 381.716C1102.93 381.194 1102.67 380.566 1102.67 379.833V367.833C1102.67 367.099 1102.93 366.472 1103.45 365.949C1103.97 365.427 1104.6 365.166 1105.33 365.166H1109.33V367.833H1105.33V379.833H1109.33V382.499H1105.33Z" fill="#FFA339"/>
</g>
<path d="M1149.92 362.008V379H1147.33V364.6H1147.23L1143.2 367.24V364.792L1147.42 362.008H1149.92ZM1160.15 379.24C1156.24 379.24 1153.93 376.072 1153.91 370.504C1153.93 365.008 1156.26 361.792 1160.15 361.816C1164.06 361.792 1166.39 365.008 1166.39 370.504C1166.39 376.072 1164.09 379.24 1160.15 379.24ZM1156.5 370.504C1156.5 374.752 1157.87 377.008 1160.15 377.032C1162.45 377.008 1163.82 374.752 1163.8 370.504C1163.82 366.304 1162.43 363.976 1160.15 363.976C1157.89 363.976 1156.5 366.304 1156.5 370.504Z" fill="#FFA339"/>
<g clip-path="url(#clip3_199_4732)">
<mask id="mask3_199_4732" style="mask-type:alpha" maskUnits="userSpaceOnUse" x="1178" y="354" width="32" height="33">
<rect x="1178" y="354.5" width="32" height="32" fill="#D9D9D9"/>
</mask>
<g mask="url(#mask3_199_4732)">
<path d="M1179.33 385.166C1179.33 384.499 1181.93 376.233 1181.93 376.233C1181.51 375.322 1181.19 374.388 1180.98 373.433C1180.77 372.477 1180.67 371.499 1180.67 370.499C1180.67 368.655 1181.02 366.922 1181.72 365.299C1182.42 363.677 1183.37 362.266 1184.57 361.066C1185.77 359.866 1187.18 358.916 1188.8 358.216C1190.42 357.516 1192.16 357.166 1194 357.166C1195.84 357.166 1197.58 357.516 1199.2 358.216C1200.82 358.916 1202.23 359.866 1203.43 361.066C1204.63 362.266 1205.58 363.677 1206.28 365.299C1206.98 366.922 1207.33 368.655 1207.33 370.499C1207.33 372.344 1206.98 374.077 1206.28 375.699C1205.58 377.322 1204.63 378.733 1203.43 379.933C1202.23 381.133 1200.82 382.083 1199.2 382.783C1197.58 383.483 1195.84 383.833 1194 383.833C1193 383.833 1192.02 383.727 1191.07 383.516C1190.11 383.305 1189.18 382.988 1188.27 382.566C1188.27 382.566 1179.33 387.052 1179.33 385.166ZM1182.67 382.499C1182.84 382.783 1187.53 379.966 1187.53 379.966C1187.84 379.877 1188.16 379.844 1188.48 379.866C1188.81 379.888 1189.11 379.966 1189.4 380.099C1190.11 380.455 1190.86 380.722 1191.63 380.899C1192.41 381.077 1193.2 381.166 1194 381.166C1196.98 381.166 1199.5 380.133 1201.57 378.066C1203.63 375.999 1204.67 373.477 1204.67 370.499C1204.67 367.522 1203.63 364.999 1201.57 362.933C1199.5 360.866 1196.98 359.833 1194 359.833C1191.02 359.833 1188.5 360.866 1186.43 362.933C1184.37 364.999 1183.33 367.522 1183.33 370.499C1183.33 371.299 1183.42 372.088 1183.6 372.866C1183.78 373.644 1184.04 374.388 1184.4 375.099C1184.56 375.388 1184.64 375.694 1184.65 376.016C1184.66 376.338 1184.62 376.655 1184.53 376.966C1184.53 376.966 1182.49 382.216 1182.67 382.499Z" fill="#8E8E93"/>
</g>
</g>
<path d="M1227.63 379.24C1224.51 379.216 1221.22 377.344 1221.25 371.08C1221.22 365.176 1223.79 361.792 1227.87 361.816C1230.97 361.792 1233.15 363.736 1233.54 366.424H1230.99C1230.66 365.056 1229.58 364.048 1227.87 364.072C1225.23 364.048 1223.7 366.328 1223.7 370.168H1223.89C1224.8 368.728 1226.41 367.888 1228.26 367.864C1231.28 367.888 1233.7 370.192 1233.73 373.432C1233.7 376.744 1231.28 379.264 1227.63 379.24ZM1224.03 373.528C1224.03 375.4 1225.52 377.08 1227.63 377.08C1229.67 377.08 1231.21 375.472 1231.23 373.48C1231.21 371.536 1229.72 369.976 1227.68 369.976C1225.62 369.976 1224.03 371.632 1224.03 373.528Z" fill="#8E8E93"/>
<line x1="549" y1="408" x2="1235" y2="408" stroke="#E5E5EA" stroke-width="2"/>
<path d="M1205 258H1267V303H1213C1208.58 303 1205 299.418 1205 295V258Z" fill="#FFF0D4"/>
<path d="M1233.45 269.992V285.256H1231.24V269.992H1233.45ZM1216.46 276.616C1216.46 273.592 1218.88 271.432 1222.08 271.432C1225.22 271.432 1227.64 273.592 1227.64 276.616C1227.64 279.712 1225.22 281.848 1222.08 281.848C1218.88 281.848 1216.46 279.712 1216.46 276.616ZM1218.62 276.616C1218.62 278.608 1220.11 279.904 1222.08 279.928C1223.97 279.904 1225.46 278.608 1225.44 276.616C1225.46 274.696 1223.97 273.376 1222.08 273.352C1220.11 273.376 1218.62 274.696 1218.62 276.616ZM1219.72 290.536V283.72H1221.93V288.76H1234.08V290.536H1219.72ZM1254.24 269.992V290.968H1251.99V269.992H1254.24ZM1236.96 285.352C1242.58 282.712 1245.29 278.92 1245.72 274.024H1238.02V272.248H1248C1247.98 278.392 1245.36 283.72 1238.16 287.176L1236.96 285.352Z" fill="#FFA339"/>
</g>
<defs>
<clipPath id="clip0_199_4732">
<rect width="212" height="212" fill="white" transform="translate(47 470)"/>
</clipPath>
<clipPath id="clip1_199_4732">
<rect width="212" height="212" fill="white" transform="translate(269 470)"/>
</clipPath>
<clipPath id="clip2_199_4732">
<rect width="32" height="32" fill="white" transform="translate(1178 203.5)"/>
</clipPath>
<clipPath id="clip3_199_4732">
<rect width="32" height="32" fill="white" transform="translate(1178 354.5)"/>
</clipPath>
</defs>
</svg>
