<svg width="783" height="794" viewBox="0 0 783 794" fill="none" xmlns="http://www.w3.org/2000/svg">
<g opacity="0.5">
<path d="M680.21 557.753C625.139 496.046 548.131 479.783 478.267 502.885C459.319 436.061 364.63 461.342 363.11 530.041C355.46 587.087 288.281 628.175 237.567 640.385C173.58 652.848 193.44 760.152 253.577 744.75C323.542 732.439 421.575 663.892 461.194 596.409C517.683 572.496 575.743 584.199 603.81 625.388C655.588 689.629 741.005 617.282 680.159 557.753H680.21Z" fill="white"/>
<path d="M93.1272 666.577C138.763 666.577 175.759 629.582 175.759 583.946C175.759 538.31 138.763 501.315 93.1272 501.315C47.4912 501.315 10.4958 538.31 10.4958 583.946C10.4958 629.582 47.4912 666.577 93.1272 666.577Z" fill="white"/>
<path d="M578.631 161.062C624.267 161.062 661.262 124.067 661.262 78.4306C661.262 32.7946 624.267 -4.20068 578.631 -4.20068C532.995 -4.20068 495.999 32.7946 495.999 78.4306C495.999 124.067 532.995 161.062 578.631 161.062Z" fill="white"/>
<path d="M43.9336 122.254C89.5696 122.254 126.565 85.259 126.565 39.623C126.565 -6.01299 89.5696 -43.0083 43.9336 -43.0083C-1.70244 -43.0083 -38.6978 -6.01299 -38.6978 39.623C-38.6978 85.259 -1.70244 122.254 43.9336 122.254Z" fill="white"/>
<path d="M330.787 75.5432C325.113 75.5432 319.49 75.7965 313.866 76.1511C316.196 62.2695 317.108 46.4119 314.981 28.7812C313.967 20.1179 311.789 11.5052 307.888 3.70306C276.477 -59.119 194.149 -45.44 178.241 28.4772C176.468 36.7353 172.719 48.0838 169.527 57.8618C147.843 123.217 75.9019 173.779 14.853 188.522C-64.5358 203.974 -29.4264 322.981 45.1495 303.881C57.106 301.804 69.4678 298.612 82.1335 294.509C80.8163 304.945 80.0563 315.534 80.0563 326.325C80.0563 448.727 167.805 550.61 283.823 572.648C302.771 559.273 317.21 542.706 320.199 526.038C323.289 460.886 378.563 420.71 429.023 420.71C457.192 420.71 482.168 432.565 499.495 452.78C516.518 449.335 533.591 447.511 550.563 447.257C570.322 411.388 581.62 370.199 581.62 326.376C581.62 187.863 469.351 75.5938 330.838 75.5938L330.787 75.5432ZM239.594 273.331C239.594 253.168 247.751 236.854 257.833 236.854C267.915 236.854 276.071 253.168 276.071 273.331C276.071 293.495 267.915 309.809 257.833 309.809C247.751 309.809 239.594 293.495 239.594 273.331ZM378.613 389.35C366.657 405.207 329.875 439.354 287.471 390.363C273.386 374.1 264.571 353.278 263.203 345.931C261.835 338.585 263.862 330.074 270.194 330.074C280.226 330.023 305.405 338.079 333.321 337.471C366.758 336.761 389.455 331.037 389.455 331.037C395.991 330.125 398.777 333.519 398.726 339.041C398.473 361.688 382.16 384.638 378.563 389.4L378.613 389.35ZM403.742 309.809C393.66 309.809 385.503 293.495 385.503 273.331C385.503 253.168 393.66 236.854 403.742 236.854C413.824 236.854 421.981 253.168 421.981 273.331C421.981 293.495 413.824 309.809 403.742 309.809Z" fill="white"/>
</g>
</svg>
