<svg width="40" height="40" viewBox="0 0 40 40" fill="none" xmlns="http://www.w3.org/2000/svg">
<g clip-path="url(#clip0_2603_51313)">
<path d="M10.0834 6.90008L9.43341 6.25008C8.78341 5.60008 7.73342 5.61675 7.10008 6.25008L7.08342 6.26675C6.43341 6.91675 6.43341 7.96675 7.08342 8.60008L7.73341 9.25008C8.38341 9.90008 9.41675 9.90008 10.0667 9.25008L10.0834 9.23341C10.7334 8.60008 10.7334 7.53341 10.0834 6.90008ZM5.01675 17.5001H3.31675C2.40008 17.5001 1.66675 18.2334 1.66675 19.1501V19.1667C1.66675 20.0834 2.40008 20.8167 3.31675 20.8167H5.00008C5.93341 20.8334 6.66675 20.1001 6.66675 19.1834V19.1667C6.66675 18.2334 5.93341 17.5001 5.01675 17.5001ZM20.0167 0.916748H20.0001C19.0667 0.916748 18.3334 1.65008 18.3334 2.56675V4.16675C18.3334 5.08342 19.0667 5.81675 19.9834 5.81675H20.0001C20.9334 5.83342 21.6667 5.10008 21.6667 4.18341V2.56675C21.6667 1.65008 20.9334 0.916748 20.0167 0.916748ZM32.9167 6.26675C32.2668 5.61675 31.2167 5.61675 30.5667 6.25008L29.9167 6.90008C29.2668 7.55008 29.2668 8.60008 29.9167 9.23341L29.9334 9.25008C30.5834 9.90008 31.6334 9.90008 32.2668 9.25008L32.9167 8.60008C33.5667 7.95008 33.5667 6.91675 32.9167 6.26675ZM29.9001 31.4334L30.5501 32.0834C31.2001 32.7334 32.2501 32.7334 32.9001 32.0834C33.5501 31.4334 33.5501 30.3834 32.9001 29.7334L32.2501 29.0834C31.6001 28.4334 30.5501 28.4501 29.9167 29.0834C29.2501 29.7501 29.2501 30.7834 29.9001 31.4334ZM33.3334 19.1501V19.1667C33.3334 20.0834 34.0667 20.8167 34.9834 20.8167H36.6667C37.5834 20.8167 38.3167 20.0834 38.3167 19.1667V19.1501C38.3167 18.2334 37.5834 17.5001 36.6667 17.5001H34.9834C34.0667 17.5001 33.3334 18.2334 33.3334 19.1501ZM20.0001 9.16675C14.4834 9.16675 10.0001 13.6501 10.0001 19.1667C10.0001 24.6834 14.4834 29.1667 20.0001 29.1667C25.5167 29.1667 30.0001 24.6834 30.0001 19.1667C30.0001 13.6501 25.5167 9.16675 20.0001 9.16675ZM19.9834 37.4168H20.0001C20.9167 37.4168 21.6501 36.6834 21.6501 35.7668V34.1668C21.6501 33.2501 20.9167 32.5168 20.0001 32.5168H19.9834C19.0667 32.5168 18.3334 33.2501 18.3334 34.1668V35.7668C18.3334 36.6834 19.0667 37.4168 19.9834 37.4168ZM7.08342 32.0667C7.73342 32.7168 8.78341 32.7168 9.43341 32.0667L10.0834 31.4168C10.7334 30.7668 10.7167 29.7168 10.0834 29.0834L10.0667 29.0668C9.41675 28.4168 8.36675 28.4168 7.71675 29.0668L7.06675 29.7168C6.43341 30.3834 6.43341 31.4167 7.08342 32.0667Z" fill="#FFA339"/>
</g>
<defs>
<clipPath id="clip0_2603_51313">
<rect width="40" height="40" fill="white"/>
</clipPath>
</defs>
</svg>
