<svg width="232" height="232" viewBox="0 0 232 232" fill="none" xmlns="http://www.w3.org/2000/svg">
<rect width="232" height="232" rx="30" fill="#042D53"/>
<path d="M199.788 168.352C186.816 153.817 168.677 149.986 152.22 155.428C147.757 139.687 125.453 145.642 125.095 161.824C123.293 175.262 107.469 184.94 95.523 187.816C80.4507 190.751 85.1287 216.027 99.294 212.399C115.774 209.499 138.866 193.353 148.198 177.457C161.504 171.825 175.18 174.581 181.792 184.283C193.988 199.415 214.108 182.374 199.776 168.352H199.788Z" fill="#FFA339"/>
<path d="M61.5 193.985C72.2496 193.985 80.9639 185.271 80.9639 174.521C80.9639 163.772 72.2496 155.058 61.5 155.058C50.7504 155.058 42.0361 163.772 42.0361 174.521C42.0361 185.271 50.7504 193.985 61.5 193.985Z" fill="#FFA339"/>
<path d="M175.861 74.9111C186.61 74.9111 195.324 66.1969 195.324 55.4473C195.324 44.6977 186.61 35.9834 175.861 35.9834C165.111 35.9834 156.397 44.6977 156.397 55.4473C156.397 66.1969 165.111 74.9111 175.861 74.9111Z" fill="#FFA339"/>
<path d="M49.9124 65.77C60.662 65.77 69.3762 57.0558 69.3762 46.3062C69.3762 35.5566 60.662 26.8423 49.9124 26.8423C39.1628 26.8423 30.4485 35.5566 30.4485 46.3062C30.4485 57.0558 39.1628 65.77 49.9124 65.77Z" fill="#FFA339"/>
<path d="M117.481 54.7669C116.144 54.7669 114.82 54.8265 113.495 54.9101C114.044 51.6402 114.259 47.905 113.758 43.7521C113.519 41.7114 113.006 39.6827 112.087 37.8449C104.688 23.0471 85.2958 26.2692 81.5486 43.6804C81.1309 45.6256 80.2478 48.2988 79.496 50.602C74.3884 65.9965 57.4425 77.9063 43.0624 81.379C24.3623 85.0188 32.6324 113.051 50.1988 108.552C53.0151 108.063 55.927 107.311 58.9104 106.344C58.6001 108.803 58.4211 111.297 58.4211 113.839C58.4211 142.671 79.0903 166.669 106.418 171.86C110.882 168.71 114.283 164.808 114.987 160.881C115.715 145.535 128.734 136.071 140.62 136.071C147.256 136.071 153.139 138.864 157.22 143.625C161.23 142.814 165.252 142.384 169.249 142.324C173.904 133.875 176.565 124.173 176.565 113.851C176.565 81.2239 150.12 54.7788 117.493 54.7788L117.481 54.7669ZM96.0003 101.356C96.0003 96.6064 97.9217 92.7638 100.296 92.7638C102.671 92.7638 104.593 96.6064 104.593 101.356C104.593 106.106 102.671 109.948 100.296 109.948C97.9217 109.948 96.0003 106.106 96.0003 101.356ZM128.746 128.684C125.93 132.419 117.266 140.463 107.278 128.923C103.96 125.092 101.884 120.187 101.561 118.457C101.239 116.727 101.717 114.722 103.208 114.722C105.571 114.71 111.502 116.607 118.078 116.464C125.954 116.297 131.3 114.949 131.3 114.949C132.84 114.734 133.496 115.533 133.484 116.834C133.424 122.168 129.582 127.574 128.734 128.696L128.746 128.684ZM134.666 109.948C132.291 109.948 130.369 106.106 130.369 101.356C130.369 96.6064 132.291 92.7638 134.666 92.7638C137.04 92.7638 138.962 96.6064 138.962 101.356C138.962 106.106 137.04 109.948 134.666 109.948Z" fill="#FFA339"/>
</svg>
