<svg width="825" height="633" viewBox="0 0 825 633" fill="none" xmlns="http://www.w3.org/2000/svg">
<g clip-path="url(#clip0_2759_25330)">
<rect x="8" y="8" width="281.25" height="609" rx="30" fill="white"/>
<rect width="281.25" height="33" transform="translate(8 8)" fill="white"/>
<path d="M36.6879 28.25H36.3199V20.6804H36.2759L34.4907 21.834V21.4275L36.2485 20.2959H36.6879V28.25ZM40.7435 28.25H40.3755V20.6804H40.3315L38.5462 21.834V21.4275L40.304 20.2959H40.7435V28.25ZM43.25 27.1349C43.1914 27.1349 43.1346 27.1184 43.0797 27.0854C43.0248 27.0525 42.9808 27.0104 42.9479 26.9591C42.9186 26.9078 42.9039 26.8511 42.9039 26.7888C42.9039 26.7266 42.9186 26.668 42.9479 26.613C42.9808 26.5581 43.0248 26.516 43.0797 26.4867C43.1346 26.4537 43.1932 26.4373 43.2555 26.4373C43.3177 26.4373 43.3745 26.4537 43.4258 26.4867C43.4807 26.5197 43.5228 26.5636 43.5521 26.6185C43.5814 26.6698 43.5961 26.7266 43.5961 26.7888C43.5961 26.8511 43.5814 26.9078 43.5521 26.9591C43.5228 27.0104 43.4807 27.0525 43.4258 27.0854C43.3708 27.1184 43.3123 27.1349 43.25 27.1349ZM43.25 22.1031C43.1914 22.1031 43.1346 22.0867 43.0797 22.0537C43.0248 22.0208 42.9808 21.9786 42.9479 21.9274C42.9186 21.8761 42.9039 21.8193 42.9039 21.7571C42.9039 21.6948 42.9186 21.6362 42.9479 21.5813C42.9808 21.5264 43.0248 21.4843 43.0797 21.455C43.1346 21.422 43.1932 21.4055 43.2555 21.4055C43.3177 21.4055 43.3745 21.422 43.4258 21.455C43.4807 21.4879 43.5228 21.5319 43.5521 21.5868C43.5814 21.6381 43.5961 21.6948 43.5961 21.7571C43.5961 21.8193 43.5814 21.8761 43.5521 21.9274C43.5228 21.9786 43.4807 22.0208 43.4258 22.0537C43.3708 22.0867 43.3123 22.1031 43.25 22.1031ZM47.0639 28.25H46.6958V20.6804H46.6519L44.8666 21.834V21.4275L46.6244 20.2959H47.0639V28.25ZM51.1194 28.25H50.7514V20.6804H50.7075L48.9222 21.834V21.4275L50.68 20.2959H51.1194V28.25Z" fill="black" fill-opacity="0.85"/>
<path d="M224.75 21.125C224.75 20.7108 225.086 20.375 225.5 20.375H226.25C226.664 20.375 227 20.7108 227 21.125V27.125C227 27.5392 226.664 27.875 226.25 27.875H225.5C225.086 27.875 224.75 27.5392 224.75 27.125V21.125Z" fill="black" fill-opacity="0.85"/>
<path d="M228.5 19.625C228.5 19.2108 228.836 18.875 229.25 18.875H230C230.414 18.875 230.75 19.2108 230.75 19.625V27.125C230.75 27.5392 230.414 27.875 230 27.875H229.25C228.836 27.875 228.5 27.5392 228.5 27.125V19.625Z" fill="black" fill-opacity="0.85"/>
<path d="M221 23.75C221 23.3358 221.336 23 221.75 23H222.5C222.914 23 223.25 23.3358 223.25 23.75V27.125C223.25 27.5392 222.914 27.875 222.5 27.875H221.75C221.336 27.875 221 27.5392 221 27.125V23.75Z" fill="black" fill-opacity="0.85"/>
<path d="M217.25 25.625C217.25 25.2108 217.586 24.875 218 24.875H218.75C219.164 24.875 219.5 25.2108 219.5 25.625V27.125C219.5 27.5392 219.164 27.875 218.75 27.875H218C217.586 27.875 217.25 27.5392 217.25 27.125V25.625Z" fill="black" fill-opacity="0.85"/>
<path fill-rule="evenodd" clip-rule="evenodd" d="M242.375 20.8781C244.225 20.8782 246.004 21.6038 247.345 22.9049C247.446 23.0053 247.607 23.004 247.707 22.902L248.672 21.9078C248.722 21.8561 248.75 21.786 248.75 21.7131C248.75 21.6401 248.721 21.5704 248.67 21.5193C245.151 18.0769 239.599 18.0769 236.08 21.5193C236.029 21.5704 236 21.6401 236 21.713C236 21.7859 236.028 21.8561 236.078 21.9078L237.043 22.902C237.143 23.0042 237.304 23.0055 237.405 22.9049C238.746 21.6037 240.525 20.8781 242.375 20.8781ZM242.402 23.8793C243.418 23.8792 244.398 24.2649 245.152 24.9612C245.254 25.0601 245.414 25.0579 245.514 24.9564L246.478 23.9622C246.528 23.9101 246.557 23.8393 246.556 23.7658C246.555 23.6923 246.526 23.6222 246.474 23.5711C244.179 21.3926 240.626 21.3926 238.332 23.5711C238.28 23.6222 238.251 23.6924 238.25 23.7659C238.249 23.8394 238.278 23.9102 238.328 23.9622L239.292 24.9564C239.391 25.0579 239.552 25.0601 239.654 24.9612C240.407 24.2653 241.386 23.8797 242.402 23.8793ZM244.362 25.8198C244.364 25.8935 244.335 25.9646 244.284 26.0162L242.616 27.7339C242.567 27.7844 242.501 27.8128 242.431 27.8128C242.362 27.8128 242.295 27.7844 242.246 27.7339L240.578 26.0162C240.527 25.9645 240.499 25.8934 240.5 25.8197C240.502 25.746 240.533 25.6762 240.586 25.6268C241.651 24.7074 243.211 24.7074 244.276 25.6268C244.329 25.6762 244.361 25.7461 244.362 25.8198Z" fill="black" fill-opacity="0.85"/>
<path opacity="0.35" d="M254.375 21.5C254.375 20.0503 255.55 18.875 257 18.875H269.75C271.2 18.875 272.375 20.0503 272.375 21.5V25.25C272.375 26.6997 271.2 27.875 269.75 27.875H257C255.55 27.875 254.375 26.6997 254.375 25.25V21.5Z" stroke="black" stroke-opacity="0.85" stroke-width="0.75"/>
<path opacity="0.4" d="M273.5 22.25V25.4153C274.137 25.1472 274.551 24.5236 274.551 23.8326C274.551 23.1417 274.137 22.5181 273.5 22.25Z" fill="black" fill-opacity="0.85"/>
<path d="M255.5 21.5C255.5 20.6716 256.172 20 257 20H269.75C270.578 20 271.25 20.6716 271.25 21.5V25.25C271.25 26.0784 270.578 26.75 269.75 26.75H257C256.172 26.75 255.5 26.0784 255.5 25.25V21.5Z" fill="black" fill-opacity="0.85"/>
<rect width="281.25" height="24" transform="translate(8 593)" fill="white"/>
<rect x="98" y="607.25" width="100.5" height="3.75" rx="1.875" fill="black" fill-opacity="0.85"/>
<rect width="281.25" height="31.5" transform="translate(8 41)" fill="white"/>
<path d="M32.7515 49.989C32.384 49.6215 31.7915 49.6215 31.424 49.989L25.1915 56.2215C24.899 56.514 24.899 56.9865 25.1915 57.279L31.424 63.5115C31.7915 63.879 32.384 63.879 32.7515 63.5115C33.119 63.144 33.119 62.5515 32.7515 62.184L27.3215 56.7465L32.759 51.309C33.119 50.949 33.119 50.349 32.7515 49.989Z" fill="black"/>
<path d="M128.949 51.6V53.07H126.279C126.324 54.42 127.284 55.755 129.399 56.31L128.529 57.75C127.029 57.36 125.964 56.52 125.364 55.44C124.779 56.64 123.714 57.57 122.139 57.99L121.269 56.55C123.369 55.98 124.374 54.555 124.419 53.07H121.719V51.6H124.419V50.22H126.309V51.6H128.949ZM123.219 63.45V58.62H131.949V63.45H123.219ZM125.079 61.95H130.089V60.12H125.079V61.95ZM130.059 58.08V50.25H131.949V53.4H133.749V54.93H131.949V58.08H130.059ZM138.013 51.21C139.198 51.21 140.203 51.87 140.803 53.01H143.743V50.25H145.573V63.63H143.743V58.65H140.938C140.338 59.97 139.288 60.72 138.013 60.72C135.973 60.72 134.533 58.875 134.533 55.95C134.533 53.04 135.973 51.21 138.013 51.21ZM136.333 55.95C136.318 57.945 137.008 59.01 138.013 59.01C139.018 59.01 139.678 57.945 139.693 55.95C139.678 53.97 139.018 52.89 138.013 52.89C137.008 52.89 136.318 53.97 136.333 55.95ZM141.328 54.51C141.418 54.96 141.463 55.44 141.463 55.95C141.463 56.37 141.433 56.775 141.373 57.15H143.743V54.51H141.328ZM158.214 51.24V52.08C158.214 52.995 158.214 54.315 157.914 55.98L156.084 55.8C156.324 54.525 156.384 53.565 156.399 52.77H151.374V51.24H158.214ZM150.564 56.94C151.314 56.94 152.169 56.94 153.054 56.925V54.3H154.914V56.865C156.234 56.805 157.599 56.7 158.844 56.52L158.964 57.87C156.174 58.38 153.054 58.425 150.744 58.44L150.564 56.94ZM152.544 63.36V59.34H154.404V61.86H161.904V63.36H152.544ZM159.564 60.24V50.25H161.484V54.33H163.104V55.89H161.484V60.24H159.564ZM174.897 50.25V63.63H173.037V50.25H174.897ZM164.427 60.51V55.05H168.837V52.89H164.427V51.39H170.757V56.52H166.347V58.98C168.387 58.965 170.112 58.86 172.077 58.53L172.227 60.03C170.052 60.42 168.072 60.51 165.627 60.51H164.427Z" fill="black"/>
<rect x="20" y="129.5" width="24" height="24" rx="12" fill="#F2F2F7"/>
<path d="M31.9998 146.45C34.7336 146.45 36.9498 144.234 36.9498 141.5C36.9498 138.766 34.7336 136.55 31.9998 136.55C29.266 136.55 27.0498 138.766 27.0498 141.5C27.0498 144.234 29.266 146.45 31.9998 146.45Z" fill="#F8981D"/>
<path d="M27.1071 138.239C28.0079 138.239 28.7381 137.509 28.7381 136.608C28.7381 135.707 28.0079 134.977 27.1071 134.977C26.2063 134.977 25.4761 135.707 25.4761 136.608C25.4761 137.509 26.2063 138.239 27.1071 138.239Z" fill="#F8981D"/>
<path d="M25.0812 143.131C25.982 143.131 26.7122 142.401 26.7122 141.5C26.7122 140.599 25.982 139.869 25.0812 139.869C24.1804 139.869 23.4502 140.599 23.4502 141.5C23.4502 142.401 24.1804 143.131 25.0812 143.131Z" fill="#F8981D"/>
<path d="M27.1071 148.024C28.0079 148.024 28.7381 147.294 28.7381 146.393C28.7381 145.492 28.0079 144.762 27.1071 144.762C26.2063 144.762 25.4761 145.492 25.4761 146.393C25.4761 147.294 26.2063 148.024 27.1071 148.024Z" fill="#F8981D"/>
<path d="M32.0001 150.05C32.9009 150.05 33.6311 149.32 33.6311 148.419C33.6311 147.518 32.9009 146.788 32.0001 146.788C31.0994 146.788 30.3691 147.518 30.3691 148.419C30.3691 149.32 31.0994 150.05 32.0001 150.05Z" fill="#F8981D"/>
<path d="M36.893 148.024C37.7937 148.024 38.524 147.294 38.524 146.393C38.524 145.492 37.7937 144.762 36.893 144.762C35.9922 144.762 35.262 145.492 35.262 146.393C35.262 147.294 35.9922 148.024 36.893 148.024Z" fill="#F8981D"/>
<path d="M38.9191 143.131C39.8199 143.131 40.5501 142.401 40.5501 141.5C40.5501 140.599 39.8199 139.869 38.9191 139.869C38.0183 139.869 37.2881 140.599 37.2881 141.5C37.2881 142.401 38.0183 143.131 38.9191 143.131Z" fill="#F8981D"/>
<path d="M36.893 138.239C37.7937 138.239 38.524 137.509 38.524 136.608C38.524 135.707 37.7937 134.977 36.893 134.977C35.9922 134.977 35.262 135.707 35.262 136.608C35.262 137.509 35.9922 138.239 36.893 138.239Z" fill="#F8981D"/>
<path d="M32.0001 136.212C32.9009 136.212 33.6311 135.482 33.6311 134.581C33.6311 133.68 32.9009 132.95 32.0001 132.95C31.0994 132.95 30.3691 133.68 30.3691 134.581C30.3691 135.482 31.0994 136.212 32.0001 136.212Z" fill="#F8981D"/>
<path d="M29.2939 137.038C29.2939 137.038 28.3379 138.099 27.9359 138.808C27.5339 139.517 25.9099 139.989 25.7569 140.409C25.6149 140.8 26.2729 140.551 26.2729 140.551C26.2729 140.551 28.2829 139.901 28.7199 139.401C29.1569 138.901 30.5749 136.683 29.9989 136.352C29.7109 136.186 29.2939 137.039 29.2939 137.039V137.038Z" fill="#3582B7"/>
<path d="M32.718 136.911L27.303 139.558C27.151 139.632 26.982 139.526 26.971 139.348C26.912 138.385 27.027 136.838 28.88 135.844C31.129 134.637 32.616 135.997 32.847 136.557C32.902 136.69 32.844 136.85 32.718 136.911Z" fill="#E54142"/>
<mask id="mask0_2759_25330" style="mask-type:luminance" maskUnits="userSpaceOnUse" x="26" y="135" width="7" height="5">
<path d="M32.718 136.911L27.303 139.558C27.151 139.632 26.982 139.526 26.971 139.348C26.912 138.385 27.027 136.838 28.88 135.844C31.129 134.637 32.616 135.997 32.847 136.557C32.902 136.69 32.844 136.85 32.718 136.911Z" fill="white"/>
</mask>
<g mask="url(#mask0_2759_25330)">
<path d="M33.7589 137.211L30.9199 138.564L28.8389 135.613L30.3689 134.581L32.8519 135.602L33.7589 137.211Z" fill="#3582B7"/>
</g>
<mask id="mask1_2759_25330" style="mask-type:luminance" maskUnits="userSpaceOnUse" x="26" y="135" width="7" height="5">
<path d="M32.718 136.911L27.303 139.558C27.151 139.632 26.982 139.526 26.971 139.348C26.912 138.385 27.027 136.838 28.88 135.844C31.129 134.637 32.616 135.997 32.847 136.557C32.902 136.69 32.844 136.85 32.718 136.911Z" fill="white"/>
</mask>
<g mask="url(#mask1_2759_25330)">
<path d="M28.88 135.843C28.88 135.843 28.141 136.608 28.69 138.325C29.239 140.042 31.89 138.431 31.89 138.431C31.89 138.431 30.286 135.33 28.88 135.842V135.843Z" fill="#FED600"/>
</g>
<path d="M29.1869 135.653C29.2289 135.738 29.1129 135.801 28.9669 135.872C28.8209 135.943 28.7009 135.997 28.6589 135.913C28.6169 135.829 28.6939 135.685 28.8389 135.613C28.9839 135.541 29.1449 135.568 29.1869 135.653Z" fill="#3582B7"/>
<path d="M30.5602 141.175C30.759 141.175 30.9202 140.853 30.9202 140.455C30.9202 140.057 30.759 139.735 30.5602 139.735C30.3614 139.735 30.2002 140.057 30.2002 140.455C30.2002 140.853 30.3614 141.175 30.5602 141.175Z" fill="#282828"/>
<path d="M33.4401 141.175C33.6389 141.175 33.8001 140.853 33.8001 140.455C33.8001 140.057 33.6389 139.735 33.4401 139.735C33.2413 139.735 33.0801 140.057 33.0801 140.455C33.0801 140.853 33.2413 141.175 33.4401 141.175Z" fill="#282828"/>
<path d="M31.145 142.764C30.867 142.443 30.693 142.032 30.666 141.887C30.639 141.742 30.679 141.574 30.804 141.574C31.002 141.573 31.499 141.732 32.05 141.72C32.71 141.706 33.158 141.593 33.158 141.593C33.287 141.575 33.342 141.642 33.341 141.751C33.336 142.198 33.014 142.651 32.943 142.745C32.707 143.058 31.981 143.732 31.144 142.765L31.145 142.764Z" fill="#E54142"/>
<path d="M60.428 136.716V137.892H53.06V133.476H60.308V134.676H54.572V136.716H60.428ZM51.812 140.148V138.948H61.556V140.148H57.404V143.556H55.916V140.148H51.812ZM71.1111 132.924V138.948H69.6231V132.924H71.1111ZM62.3511 135.972C62.3511 134.46 63.5991 133.404 65.2791 133.404C66.9351 133.404 68.1831 134.46 68.1831 135.972C68.1831 137.448 66.9351 138.528 65.2791 138.54C63.5991 138.528 62.3511 137.448 62.3511 135.972ZM63.8151 135.972C63.8031 136.776 64.4151 137.268 65.2791 137.268C66.1071 137.268 66.7071 136.776 66.6951 135.972C66.7071 135.144 66.1071 134.664 65.2791 134.676C64.4151 134.664 63.8031 135.144 63.8151 135.972ZM63.9591 143.46V139.428H71.1111V143.46H63.9591ZM65.4471 142.26H69.6471V140.604H65.4471V142.26Z" fill="black"/>
<path d="M58.358 153.122V157.802H57.53V155.822H56.054V155.138H57.53V153.122H58.358ZM51.788 157.1C53.012 156.668 53.759 155.606 53.768 154.526V154.346H52.058V153.662H56.306V154.346H54.614V154.508C54.605 155.507 55.316 156.479 56.504 156.884L56.072 157.55C55.19 157.235 54.542 156.605 54.209 155.831C53.858 156.713 53.165 157.424 52.22 157.766L51.788 157.1ZM53.048 159.512C53.048 158.576 54.065 158.027 55.712 158.036C57.368 158.027 58.376 158.576 58.376 159.512C58.376 160.448 57.368 160.988 55.712 160.988C54.065 160.988 53.048 160.448 53.048 159.512ZM53.876 159.512C53.876 160.043 54.56 160.349 55.712 160.34C56.864 160.349 57.548 160.043 57.548 159.512C57.548 158.981 56.864 158.675 55.712 158.666C54.56 158.675 53.876 158.981 53.876 159.512ZM66.7663 157.262V157.91H59.5663V157.262H66.7663ZM60.3943 159.728C60.3853 158.9 61.3933 158.459 63.1483 158.45C64.8943 158.459 65.9023 158.9 65.9023 159.728C65.9023 160.547 64.8943 160.988 63.1483 160.988C61.3933 160.988 60.3853 160.547 60.3943 159.728ZM60.4663 154.004V153.356H65.8663V155.3H61.3123V156.002H66.0103V156.65H60.4843V154.688H65.0203V154.004H60.4663ZM61.2403 159.728C61.2313 160.151 61.9063 160.376 63.1483 160.376C64.3903 160.376 65.0563 160.151 65.0563 159.728C65.0563 159.305 64.3903 159.071 63.1483 159.08C61.9063 159.071 61.2313 159.305 61.2403 159.728ZM74.0946 153.122V160.988H73.3026V153.122H74.0946ZM67.2366 158.828C68.3436 158.153 68.9196 156.722 68.9106 155.318V154.688H67.4706V154.004H71.0706V154.688H69.7206V155.318C69.7206 156.668 70.2606 158.009 71.3766 158.648L70.8726 159.26C70.1166 158.81 69.6036 158.018 69.3246 157.064C69.0456 158.09 68.5146 158.963 67.7406 159.44L67.2366 158.828ZM70.4946 156.596V155.912H71.7186V153.284H72.5106V160.592H71.7186V156.596H70.4946ZM75.393 160.25V159.548L77.607 157.316C78.3 156.596 78.651 156.191 78.651 155.642C78.651 155.012 78.138 154.607 77.463 154.616C76.761 154.607 76.311 155.057 76.311 155.732H75.393C75.393 154.571 76.275 153.797 77.499 153.806C78.714 153.797 79.569 154.571 79.569 155.606C79.569 156.317 79.227 156.884 78.039 158.054L76.743 159.368V159.422H79.677V160.25H75.393ZM87.6667 156.956V157.622H80.4667V156.956H83.6527V156.11H81.3667V153.482H86.7667V154.148H82.1947V155.444H86.8207V156.11H84.4627V156.956H87.6667ZM81.3127 159.566C81.3217 158.648 82.3477 158.135 84.0487 158.144C85.7497 158.135 86.7667 158.648 86.7667 159.566C86.7667 160.475 85.7497 160.988 84.0487 160.988C82.3477 160.988 81.3217 160.475 81.3127 159.566ZM82.1767 159.566C82.1587 160.07 82.8517 160.349 84.0487 160.34C85.2457 160.349 85.9297 160.07 85.9387 159.566C85.9297 159.071 85.2457 158.783 84.0487 158.774C82.8517 158.783 82.1587 159.071 82.1767 159.566Z" fill="#8E8E93"/>
<path d="M92.808 160.25V159.548L95.022 157.316C95.715 156.596 96.066 156.191 96.066 155.642C96.066 155.012 95.553 154.607 94.878 154.616C94.176 154.607 93.726 155.057 93.726 155.732H92.808C92.808 154.571 93.69 153.797 94.914 153.806C96.129 153.797 96.984 154.571 96.984 155.606C96.984 156.317 96.642 156.884 95.454 158.054L94.158 159.368V159.422H97.092V160.25H92.808ZM100.78 155.12C100.771 156.56 101.635 158.009 102.85 158.558L102.364 159.206C101.455 158.783 100.735 157.901 100.366 156.83C100.006 157.982 99.2768 158.927 98.3318 159.386L97.8278 158.684C99.0608 158.135 99.9338 156.632 99.9338 155.12V153.77H100.78V155.12ZM103.57 161.006V153.122H104.416V161.006H103.57ZM111.852 153.122V155.444H112.986V156.146H111.852V158.846H111.006V153.122H111.852ZM105.66 157.316C107.496 156.758 108.648 155.705 108.81 154.418H105.984V153.716H109.71C109.71 155.786 108.306 157.28 106.002 157.982L105.66 157.316ZM106.848 160.826V158.252H107.694V160.16H112.176V160.826H106.848ZM122.206 153.122V158.9H121.378V155.93H119.866V155.264H121.378V153.122H122.206ZM115.636 157.244C116.86 156.839 117.607 155.804 117.616 154.724V154.418H115.906V153.734H120.154V154.418H118.462V154.724C118.453 155.705 119.164 156.686 120.352 157.082L119.92 157.748C119.038 157.442 118.39 156.812 118.048 156.029C117.706 156.902 117.013 157.595 116.068 157.928L115.636 157.244ZM117.094 160.826V158.378H117.922V160.16H122.404V160.826H117.094Z" fill="#8E8E93"/>
<path d="M55.052 173.175C55.064 174.363 55.82 175.515 57.14 175.983L56.636 176.847C55.64 176.463 54.932 175.743 54.56 174.855C54.2 175.815 53.492 176.607 52.484 177.015L51.932 176.199C53.276 175.659 54.008 174.447 54.02 173.175V173.079H52.172V172.191H54.02V170.991H55.052V172.191H56.852V173.079H55.052V173.175ZM53.708 178.743V177.831H60.836V181.359H59.732V178.743H53.708ZM57.524 177.255V171.063H58.58V173.631H59.78V170.871H60.836V177.303H59.78V174.543H58.58V177.255H57.524ZM71.0151 170.871V177.111H69.9111V174.471H67.9431V173.559H69.9111V170.871H71.0151ZM62.2551 176.175C63.8871 175.599 64.8831 174.183 64.8951 172.743V172.503H62.6151V171.591H68.2791V172.503H66.0231V172.719C66.0111 174.051 66.9591 175.347 68.5431 175.887L67.9671 176.775C66.7911 176.355 65.9271 175.515 65.4831 174.483C65.0151 175.659 64.0911 176.607 62.8311 177.063L62.2551 176.175ZM63.9351 179.391C63.9351 178.143 65.2911 177.411 67.4871 177.423C69.6951 177.411 71.0391 178.143 71.0391 179.391C71.0391 180.639 69.6951 181.359 67.4871 181.359C65.2911 181.359 63.9351 180.639 63.9351 179.391ZM65.0391 179.391C65.0391 180.099 65.9511 180.507 67.4871 180.495C69.0231 180.507 69.9351 180.099 69.9351 179.391C69.9351 178.683 69.0231 178.275 67.4871 178.263C65.9511 178.275 65.0391 178.683 65.0391 179.391ZM81.3382 170.871V181.383H80.2342V170.871H81.3382ZM73.2022 172.719V171.807H78.1222V175.647H74.3782V177.951C76.0822 177.939 77.5702 177.867 79.3222 177.567L79.4182 178.503C77.5582 178.803 75.9742 178.875 74.1142 178.863H73.2262V174.759H76.9942V172.719H73.2022ZM94.447 175.719V176.607H91.255V179.175H95.551V180.087H85.927V179.175H90.151V176.607H87.127V171.687H94.351V172.575H88.231V175.719H94.447ZM99.4661 171.543C101.074 171.543 102.274 172.563 102.274 174.039C102.274 175.335 101.338 176.283 100.018 176.499V178.155C100.954 178.107 101.878 178.035 102.754 177.927L102.826 178.767C100.606 179.139 98.1701 179.163 96.3461 179.151L96.1781 178.215C96.9941 178.215 97.9301 178.215 98.9141 178.191V176.499C97.5581 176.295 96.6221 175.347 96.6341 174.039C96.6221 172.563 97.8101 171.543 99.4661 171.543ZM97.7141 174.039C97.7021 174.963 98.4461 175.587 99.4661 175.575C100.45 175.587 101.182 174.963 101.194 174.039C101.182 173.103 100.45 172.491 99.4661 172.479C98.4461 172.491 97.7021 173.103 97.7141 174.039ZM103.378 181.359V170.871H104.482V175.143H106.114V176.079H104.482V181.359H103.378ZM115.189 175.863V176.751H107.869V171.807H115.093V172.719H108.973V175.863H115.189ZM106.669 179.991V179.055H116.293V179.991H106.669ZM122.416 171.375V174.039H118.672V175.167C120.664 175.155 121.936 175.107 123.472 174.879L123.568 175.719C121.948 175.983 120.604 176.031 118.432 176.031H117.568V173.223H121.336V172.239H117.544V171.375H122.416ZM118.84 177.687V176.823H125.752V179.391H119.992V180.399H126.088V181.263H118.888V178.575H124.624V177.687H118.84ZM124.648 176.391V170.871H125.752V176.391H124.648ZM136.435 170.871V181.359H135.379V170.871H136.435ZM127.387 178.335C129.607 177.015 130.675 175.239 130.867 173.079H127.867V172.167H131.971C131.971 173.199 131.827 174.183 131.503 175.095H133.171V171.135H134.227V180.855H133.171V175.983H131.119C130.483 177.195 129.487 178.263 128.011 179.127L127.387 178.335ZM147.406 179.127V180.063H137.782V179.127H140.086V176.391C139.222 175.923 138.694 175.167 138.694 174.231C138.694 172.575 140.314 171.483 142.558 171.471C144.826 171.483 146.446 172.575 146.446 174.231C146.446 175.143 145.942 175.887 145.102 176.367V179.127H147.406ZM139.774 174.231C139.774 175.347 140.914 176.079 142.558 176.079C144.202 176.079 145.366 175.347 145.366 174.231C145.366 173.091 144.202 172.371 142.558 172.383C140.914 172.371 139.774 173.091 139.774 174.231ZM141.19 179.127H143.974V176.787C143.542 176.895 143.062 176.943 142.558 176.943C142.066 176.943 141.61 176.895 141.19 176.799V179.127Z" fill="black"/>
<path d="M236.699 134.123C236.687 135.491 237.431 136.871 239.123 137.435L238.307 138.611C237.191 138.191 236.411 137.411 235.967 136.415C235.499 137.531 234.671 138.407 233.435 138.851L232.619 137.675C234.407 137.099 235.175 135.635 235.187 134.099V132.947H236.699V134.123ZM234.587 142.763V139.355H236.099V141.563H241.907V142.763H234.587ZM238.187 135.779V134.579H240.203V132.299H241.691V140.171H240.203V135.779H238.187ZM247.646 132.995V134.195H244.886V135.083H247.55V136.211H244.886V137.159C246.062 137.147 246.938 137.087 247.91 136.931L248.078 138.131C246.818 138.347 245.774 138.383 244.166 138.395H243.446V132.995H247.646ZM244.862 140.435V139.235H252.23V142.955H250.742V140.435H244.862ZM248.486 138.731V132.491H249.878V134.891H250.814V132.299H252.23V138.803H250.814V136.091H249.878V138.731H248.486Z" fill="#8E8E93"/>
<path d="M265.846 140.281L263.244 137.679C262.951 137.386 262.479 137.386 262.186 137.679C261.894 137.971 261.894 138.444 262.186 138.736L265.321 141.871C265.614 142.164 266.086 142.164 266.379 141.871L274.314 133.936C274.606 133.644 274.606 133.171 274.314 132.879C274.021 132.586 273.549 132.586 273.256 132.879L265.846 140.281Z" fill="#8E8E93"/>
<rect width="281.25" height="69.25" transform="translate(8 191.25)" fill="#FFF0D4"/>
<rect x="20" y="198.75" width="24" height="24" rx="12" fill="#FFF0D4"/>
<path d="M31.9998 215.7C34.7336 215.7 36.9498 213.484 36.9498 210.75C36.9498 208.016 34.7336 205.8 31.9998 205.8C29.266 205.8 27.0498 208.016 27.0498 210.75C27.0498 213.484 29.266 215.7 31.9998 215.7Z" fill="#F8981D"/>
<path d="M27.1071 207.489C28.0079 207.489 28.7381 206.759 28.7381 205.858C28.7381 204.957 28.0079 204.227 27.1071 204.227C26.2063 204.227 25.4761 204.957 25.4761 205.858C25.4761 206.759 26.2063 207.489 27.1071 207.489Z" fill="#F8981D"/>
<path d="M25.0812 212.381C25.982 212.381 26.7122 211.651 26.7122 210.75C26.7122 209.849 25.982 209.119 25.0812 209.119C24.1804 209.119 23.4502 209.849 23.4502 210.75C23.4502 211.651 24.1804 212.381 25.0812 212.381Z" fill="#F8981D"/>
<path d="M27.1071 217.274C28.0079 217.274 28.7381 216.544 28.7381 215.643C28.7381 214.742 28.0079 214.012 27.1071 214.012C26.2063 214.012 25.4761 214.742 25.4761 215.643C25.4761 216.544 26.2063 217.274 27.1071 217.274Z" fill="#F8981D"/>
<path d="M32.0001 219.3C32.9009 219.3 33.6311 218.57 33.6311 217.669C33.6311 216.768 32.9009 216.038 32.0001 216.038C31.0994 216.038 30.3691 216.768 30.3691 217.669C30.3691 218.57 31.0994 219.3 32.0001 219.3Z" fill="#F8981D"/>
<path d="M36.893 217.274C37.7937 217.274 38.524 216.544 38.524 215.643C38.524 214.742 37.7937 214.012 36.893 214.012C35.9922 214.012 35.262 214.742 35.262 215.643C35.262 216.544 35.9922 217.274 36.893 217.274Z" fill="#F8981D"/>
<path d="M38.9191 212.381C39.8199 212.381 40.5501 211.651 40.5501 210.75C40.5501 209.849 39.8199 209.119 38.9191 209.119C38.0183 209.119 37.2881 209.849 37.2881 210.75C37.2881 211.651 38.0183 212.381 38.9191 212.381Z" fill="#F8981D"/>
<path d="M36.893 207.489C37.7937 207.489 38.524 206.759 38.524 205.858C38.524 204.957 37.7937 204.227 36.893 204.227C35.9922 204.227 35.262 204.957 35.262 205.858C35.262 206.759 35.9922 207.489 36.893 207.489Z" fill="#F8981D"/>
<path d="M32.0001 205.462C32.9009 205.462 33.6311 204.732 33.6311 203.831C33.6311 202.93 32.9009 202.2 32.0001 202.2C31.0994 202.2 30.3691 202.93 30.3691 203.831C30.3691 204.732 31.0994 205.462 32.0001 205.462Z" fill="#F8981D"/>
<path d="M29.2939 206.288C29.2939 206.288 28.3379 207.349 27.9359 208.058C27.5339 208.767 25.9099 209.239 25.7569 209.659C25.6149 210.05 26.2729 209.801 26.2729 209.801C26.2729 209.801 28.2829 209.151 28.7199 208.651C29.1569 208.151 30.5749 205.933 29.9989 205.602C29.7109 205.436 29.2939 206.289 29.2939 206.289V206.288Z" fill="#3582B7"/>
<path d="M32.718 206.161L27.303 208.808C27.151 208.882 26.982 208.776 26.971 208.598C26.912 207.635 27.027 206.088 28.88 205.094C31.129 203.887 32.616 205.247 32.847 205.807C32.902 205.94 32.844 206.1 32.718 206.161Z" fill="#E54142"/>
<mask id="mask2_2759_25330" style="mask-type:luminance" maskUnits="userSpaceOnUse" x="26" y="204" width="7" height="5">
<path d="M32.718 206.161L27.303 208.808C27.151 208.882 26.982 208.776 26.971 208.598C26.912 207.635 27.027 206.088 28.88 205.094C31.129 203.887 32.616 205.247 32.847 205.807C32.902 205.94 32.844 206.1 32.718 206.161Z" fill="white"/>
</mask>
<g mask="url(#mask2_2759_25330)">
<path d="M33.7589 206.461L30.9199 207.814L28.8389 204.863L30.3689 203.831L32.8519 204.852L33.7589 206.461Z" fill="#3582B7"/>
</g>
<mask id="mask3_2759_25330" style="mask-type:luminance" maskUnits="userSpaceOnUse" x="26" y="204" width="7" height="5">
<path d="M32.718 206.161L27.303 208.808C27.151 208.882 26.982 208.776 26.971 208.598C26.912 207.635 27.027 206.088 28.88 205.094C31.129 203.887 32.616 205.247 32.847 205.807C32.902 205.94 32.844 206.1 32.718 206.161Z" fill="white"/>
</mask>
<g mask="url(#mask3_2759_25330)">
<path d="M28.88 205.093C28.88 205.093 28.141 205.858 28.69 207.575C29.239 209.292 31.89 207.681 31.89 207.681C31.89 207.681 30.286 204.58 28.88 205.092V205.093Z" fill="#FED600"/>
</g>
<path d="M29.1869 204.903C29.2289 204.988 29.1129 205.051 28.9669 205.122C28.8209 205.193 28.7009 205.247 28.6589 205.163C28.6169 205.079 28.6939 204.935 28.8389 204.863C28.9839 204.791 29.1449 204.818 29.1869 204.903Z" fill="#3582B7"/>
<path d="M30.5602 210.425C30.759 210.425 30.9202 210.103 30.9202 209.705C30.9202 209.307 30.759 208.985 30.5602 208.985C30.3614 208.985 30.2002 209.307 30.2002 209.705C30.2002 210.103 30.3614 210.425 30.5602 210.425Z" fill="#282828"/>
<path d="M33.4401 210.425C33.6389 210.425 33.8001 210.103 33.8001 209.705C33.8001 209.307 33.6389 208.985 33.4401 208.985C33.2413 208.985 33.0801 209.307 33.0801 209.705C33.0801 210.103 33.2413 210.425 33.4401 210.425Z" fill="#282828"/>
<path d="M31.145 212.014C30.867 211.693 30.693 211.282 30.666 211.137C30.639 210.992 30.679 210.824 30.804 210.824C31.002 210.823 31.499 210.982 32.05 210.97C32.71 210.956 33.158 210.843 33.158 210.843C33.287 210.825 33.342 210.892 33.341 211.001C33.336 211.448 33.014 211.901 32.943 211.995C32.707 212.308 31.981 212.982 31.144 212.015L31.145 212.014Z" fill="#E54142"/>
<path d="M56.66 209.494C59.036 209.506 60.368 210.094 60.38 211.174C60.368 212.266 59.036 212.83 56.66 212.83C54.272 212.83 52.928 212.266 52.94 211.174C52.928 210.094 54.272 209.506 56.66 209.494ZM51.812 209.086V207.934H55.916V207.382C54.092 207.274 53.084 206.758 53.084 205.87C53.084 204.862 54.38 204.346 56.684 204.334C58.988 204.346 60.26 204.862 60.26 205.87C60.26 206.758 59.264 207.286 57.428 207.382V207.934H61.556V209.086H51.812ZM52.292 204.046V202.918H55.916V202.078H57.428V202.918H61.028V204.046H52.292ZM54.452 211.174C54.464 211.582 55.148 211.75 56.66 211.75C58.16 211.75 58.868 211.582 58.868 211.174C58.868 210.778 58.16 210.598 56.66 210.598C55.148 210.598 54.464 210.778 54.452 211.174ZM54.692 205.87C54.692 206.218 55.328 206.386 56.684 206.398C58.04 206.386 58.664 206.218 58.652 205.87C58.664 205.498 58.04 205.354 56.684 205.342C55.328 205.354 54.692 205.498 54.692 205.87ZM71.9511 210.382V211.582H62.1831V210.382H66.3111V208.39H63.2151V202.846H64.7271V204.502H69.3831V202.846H70.8711V208.39H67.7751V210.382H71.9511ZM64.7271 207.214H69.3831V205.678H64.7271V207.214ZM81.0262 202.15V204.766H82.4662V205.99H81.0262V208.582H79.5142V202.15H81.0262ZM72.8662 208.006V202.822H74.3542V204.262H76.5382V202.822H78.0502V208.006H72.8662ZM73.8502 210.238V209.038H81.0262V212.83H79.5142V210.238H73.8502ZM74.3542 206.83H76.5382V205.414H74.3542V206.83Z" fill="#FFA339"/>
<path d="M58.358 222.372V227.052H57.53V225.072H56.054V224.388H57.53V222.372H58.358ZM51.788 226.35C53.012 225.918 53.759 224.856 53.768 223.776V223.596H52.058V222.912H56.306V223.596H54.614V223.758C54.605 224.757 55.316 225.729 56.504 226.134L56.072 226.8C55.19 226.485 54.542 225.855 54.209 225.081C53.858 225.963 53.165 226.674 52.22 227.016L51.788 226.35ZM53.048 228.762C53.048 227.826 54.065 227.277 55.712 227.286C57.368 227.277 58.376 227.826 58.376 228.762C58.376 229.698 57.368 230.238 55.712 230.238C54.065 230.238 53.048 229.698 53.048 228.762ZM53.876 228.762C53.876 229.293 54.56 229.599 55.712 229.59C56.864 229.599 57.548 229.293 57.548 228.762C57.548 228.231 56.864 227.925 55.712 227.916C54.56 227.925 53.876 228.231 53.876 228.762ZM66.7663 226.512V227.16H59.5663V226.512H66.7663ZM60.3943 228.978C60.3853 228.15 61.3933 227.709 63.1483 227.7C64.8943 227.709 65.9023 228.15 65.9023 228.978C65.9023 229.797 64.8943 230.238 63.1483 230.238C61.3933 230.238 60.3853 229.797 60.3943 228.978ZM60.4663 223.254V222.606H65.8663V224.55H61.3123V225.252H66.0103V225.9H60.4843V223.938H65.0203V223.254H60.4663ZM61.2403 228.978C61.2313 229.401 61.9063 229.626 63.1483 229.626C64.3903 229.626 65.0563 229.401 65.0563 228.978C65.0563 228.555 64.3903 228.321 63.1483 228.33C61.9063 228.321 61.2313 228.555 61.2403 228.978ZM74.0946 222.372V230.238H73.3026V222.372H74.0946ZM67.2366 228.078C68.3436 227.403 68.9196 225.972 68.9106 224.568V223.938H67.4706V223.254H71.0706V223.938H69.7206V224.568C69.7206 225.918 70.2606 227.259 71.3766 227.898L70.8726 228.51C70.1166 228.06 69.6036 227.268 69.3246 226.314C69.0456 227.34 68.5146 228.213 67.7406 228.69L67.2366 228.078ZM70.4946 225.846V225.162H71.7186V222.534H72.5106V229.842H71.7186V225.846H70.4946ZM75.393 229.5V228.798L77.607 226.566C78.3 225.846 78.651 225.441 78.651 224.892C78.651 224.262 78.138 223.857 77.463 223.866C76.761 223.857 76.311 224.307 76.311 224.982H75.393C75.393 223.821 76.275 223.047 77.499 223.056C78.714 223.047 79.569 223.821 79.569 224.856C79.569 225.567 79.227 226.134 78.039 227.304L76.743 228.618V228.672H79.677V229.5H75.393ZM87.6667 226.206V226.872H80.4667V226.206H83.6527V225.36H81.3667V222.732H86.7667V223.398H82.1947V224.694H86.8207V225.36H84.4627V226.206H87.6667ZM81.3127 228.816C81.3217 227.898 82.3477 227.385 84.0487 227.394C85.7497 227.385 86.7667 227.898 86.7667 228.816C86.7667 229.725 85.7497 230.238 84.0487 230.238C82.3477 230.238 81.3217 229.725 81.3127 228.816ZM82.1767 228.816C82.1587 229.32 82.8517 229.599 84.0487 229.59C85.2457 229.599 85.9297 229.32 85.9387 228.816C85.9297 228.321 85.2457 228.033 84.0487 228.024C82.8517 228.033 82.1587 228.321 82.1767 228.816Z" fill="#AEAEB2"/>
<path d="M92.808 229.5V228.798L95.022 226.566C95.715 225.846 96.066 225.441 96.066 224.892C96.066 224.262 95.553 223.857 94.878 223.866C94.176 223.857 93.726 224.307 93.726 224.982H92.808C92.808 223.821 93.69 223.047 94.914 223.056C96.129 223.047 96.984 223.821 96.984 224.856C96.984 225.567 96.642 226.134 95.454 227.304L94.158 228.618V228.672H97.092V229.5H92.808ZM100.78 224.37C100.771 225.81 101.635 227.259 102.85 227.808L102.364 228.456C101.455 228.033 100.735 227.151 100.366 226.08C100.006 227.232 99.2768 228.177 98.3318 228.636L97.8278 227.934C99.0608 227.385 99.9338 225.882 99.9338 224.37V223.02H100.78V224.37ZM103.57 230.256V222.372H104.416V230.256H103.57ZM111.852 222.372V224.694H112.986V225.396H111.852V228.096H111.006V222.372H111.852ZM105.66 226.566C107.496 226.008 108.648 224.955 108.81 223.668H105.984V222.966H109.71C109.71 225.036 108.306 226.53 106.002 227.232L105.66 226.566ZM106.848 230.076V227.502H107.694V229.41H112.176V230.076H106.848ZM122.206 222.372V228.15H121.378V225.18H119.866V224.514H121.378V222.372H122.206ZM115.636 226.494C116.86 226.089 117.607 225.054 117.616 223.974V223.668H115.906V222.984H120.154V223.668H118.462V223.974C118.453 224.955 119.164 225.936 120.352 226.332L119.92 226.998C119.038 226.692 118.39 226.062 118.048 225.279C117.706 226.152 117.013 226.845 116.068 227.178L115.636 226.494ZM117.094 230.076V227.628H117.922V229.41H122.404V230.076H117.094Z" fill="#AEAEB2"/>
<path d="M55.748 243.217C55.748 244.969 56.9 246.781 58.532 247.465L57.908 248.353C56.672 247.801 55.7 246.649 55.208 245.257C54.716 246.745 53.732 248.029 52.508 248.617L51.86 247.729C53.444 246.997 54.62 245.017 54.62 243.217V242.089H52.22V241.177H58.148V242.089H55.748V243.217ZM59.468 250.609V240.121H60.596V250.609H59.468ZM70.9911 240.121V248.089H69.8631V247.081H67.7751V246.289H69.8631V240.121H70.9911ZM62.2071 244.921C64.1511 244.909 66.7671 244.885 68.9991 244.609L69.0711 245.401C68.1711 245.557 67.2351 245.653 66.3111 245.713V247.753H65.2071V245.773C64.1871 245.809 63.2031 245.809 62.3511 245.809L62.2071 244.921ZM63.0231 242.377C63.0231 241.273 64.0911 240.529 65.6391 240.529C67.1751 240.529 68.2431 241.273 68.2551 242.377C68.2431 243.505 67.1751 244.213 65.6391 244.201C64.0911 244.213 63.0231 243.505 63.0231 242.377ZM63.6711 250.393V247.321H64.7751V249.505H71.2551V250.393H63.6711ZM64.0791 242.377C64.0791 243.001 64.7151 243.397 65.6391 243.385C66.5391 243.397 67.1871 243.001 67.1991 242.377C67.1871 241.753 66.5391 241.357 65.6391 241.369C64.7151 241.357 64.0791 241.753 64.0791 242.377ZM80.8822 240.121V242.761H82.3942V243.697H80.8822V246.241H79.7782V240.121H80.8822ZM72.6502 242.041V241.153H75.2182V240.025H76.3222V241.153H78.8902V242.041H72.6502ZM73.2262 244.321C73.2142 243.193 74.2342 242.473 75.7702 242.473C77.2822 242.473 78.3142 243.193 78.3142 244.321C78.3142 245.437 77.2822 246.169 75.7702 246.169C74.2342 246.169 73.2142 245.437 73.2262 244.321ZM74.1622 250.489V246.673H75.2662V247.681H79.7782V246.673H80.8822V250.489H74.1622ZM74.2822 244.321C74.2822 244.945 74.8822 245.329 75.7702 245.329C76.6582 245.329 77.2582 244.945 77.2582 244.321C77.2582 243.697 76.6582 243.301 75.7702 243.313C74.8822 243.301 74.2822 243.697 74.2822 244.321ZM75.2662 249.601H79.7782V248.569H75.2662V249.601ZM91.7093 240.121V250.609H90.6053V240.121H91.7093ZM83.6453 247.945V241.153H84.7493V246.985C86.2733 246.985 87.8933 246.853 89.5733 246.505L89.7173 247.441C87.8693 247.825 86.1773 247.957 84.5333 247.945H83.6453ZM101.552 240.121V244.177H103.232V245.113H101.552V250.633H100.448V240.121H101.552ZM93.8244 248.041V241.129H98.7204V242.041H94.9284V247.105C96.6924 247.093 98.0124 247.021 99.5124 246.745L99.6564 247.705C98.0124 247.981 96.6084 248.041 94.6644 248.041H93.8244ZM105.683 241.129L105.563 247.177H104.411L104.315 241.129H105.683ZM104.171 248.881C104.171 248.413 104.555 248.041 105.011 248.041C105.455 248.041 105.839 248.413 105.827 248.881C105.839 249.337 105.455 249.709 105.011 249.697C104.555 249.709 104.171 249.337 104.171 248.881Z" fill="black"/>
<path d="M236.699 203.373C236.687 204.741 237.431 206.121 239.123 206.685L238.307 207.861C237.191 207.441 236.411 206.661 235.967 205.665C235.499 206.781 234.671 207.657 233.435 208.101L232.619 206.925C234.407 206.349 235.175 204.885 235.187 203.349V202.197H236.699V203.373ZM234.587 212.013V208.605H236.099V210.813H241.907V212.013H234.587ZM238.187 205.029V203.829H240.203V201.549H241.691V209.421H240.203V205.029H238.187ZM247.646 202.245V203.445H244.886V204.333H247.55V205.461H244.886V206.409C246.062 206.397 246.938 206.337 247.91 206.181L248.078 207.381C246.818 207.597 245.774 207.633 244.166 207.645H243.446V202.245H247.646ZM244.862 209.685V208.485H252.23V212.205H250.742V209.685H244.862ZM248.486 207.981V201.741H249.878V204.141H250.814V201.549H252.23V208.053H250.814V205.341H249.878V207.981H248.486Z" fill="#FFA339"/>
<path d="M265.846 209.531L263.244 206.929C262.951 206.636 262.479 206.636 262.186 206.929C261.894 207.221 261.894 207.694 262.186 207.986L265.321 211.121C265.614 211.414 266.086 211.414 266.379 211.121L274.314 203.186C274.606 202.894 274.606 202.421 274.314 202.129C274.021 201.836 273.549 201.836 273.256 202.129L265.846 209.531Z" fill="#FFA339"/>
<rect width="281.25" height="69.25" transform="translate(8 260.5)" fill="#FFF0D4"/>
<rect x="20" y="268" width="24" height="24" rx="12" fill="#FFF0D4"/>
<path d="M31.9998 284.95C34.7336 284.95 36.9498 282.734 36.9498 280C36.9498 277.266 34.7336 275.05 31.9998 275.05C29.266 275.05 27.0498 277.266 27.0498 280C27.0498 282.734 29.266 284.95 31.9998 284.95Z" fill="#F8981D"/>
<path d="M27.1071 276.739C28.0079 276.739 28.7381 276.009 28.7381 275.108C28.7381 274.207 28.0079 273.477 27.1071 273.477C26.2063 273.477 25.4761 274.207 25.4761 275.108C25.4761 276.009 26.2063 276.739 27.1071 276.739Z" fill="#F8981D"/>
<path d="M25.0812 281.631C25.982 281.631 26.7122 280.901 26.7122 280C26.7122 279.099 25.982 278.369 25.0812 278.369C24.1804 278.369 23.4502 279.099 23.4502 280C23.4502 280.901 24.1804 281.631 25.0812 281.631Z" fill="#F8981D"/>
<path d="M27.1071 286.524C28.0079 286.524 28.7381 285.794 28.7381 284.893C28.7381 283.992 28.0079 283.262 27.1071 283.262C26.2063 283.262 25.4761 283.992 25.4761 284.893C25.4761 285.794 26.2063 286.524 27.1071 286.524Z" fill="#F8981D"/>
<path d="M32.0001 288.55C32.9009 288.55 33.6311 287.82 33.6311 286.919C33.6311 286.018 32.9009 285.288 32.0001 285.288C31.0994 285.288 30.3691 286.018 30.3691 286.919C30.3691 287.82 31.0994 288.55 32.0001 288.55Z" fill="#F8981D"/>
<path d="M36.893 286.524C37.7937 286.524 38.524 285.794 38.524 284.893C38.524 283.992 37.7937 283.262 36.893 283.262C35.9922 283.262 35.262 283.992 35.262 284.893C35.262 285.794 35.9922 286.524 36.893 286.524Z" fill="#F8981D"/>
<path d="M38.9191 281.631C39.8199 281.631 40.5501 280.901 40.5501 280C40.5501 279.099 39.8199 278.369 38.9191 278.369C38.0183 278.369 37.2881 279.099 37.2881 280C37.2881 280.901 38.0183 281.631 38.9191 281.631Z" fill="#F8981D"/>
<path d="M36.893 276.739C37.7937 276.739 38.524 276.009 38.524 275.108C38.524 274.207 37.7937 273.477 36.893 273.477C35.9922 273.477 35.262 274.207 35.262 275.108C35.262 276.009 35.9922 276.739 36.893 276.739Z" fill="#F8981D"/>
<path d="M32.0001 274.712C32.9009 274.712 33.6311 273.982 33.6311 273.081C33.6311 272.18 32.9009 271.45 32.0001 271.45C31.0994 271.45 30.3691 272.18 30.3691 273.081C30.3691 273.982 31.0994 274.712 32.0001 274.712Z" fill="#F8981D"/>
<path d="M29.2939 275.538C29.2939 275.538 28.3379 276.599 27.9359 277.308C27.5339 278.017 25.9099 278.489 25.7569 278.909C25.6149 279.3 26.2729 279.051 26.2729 279.051C26.2729 279.051 28.2829 278.401 28.7199 277.901C29.1569 277.401 30.5749 275.183 29.9989 274.852C29.7109 274.686 29.2939 275.539 29.2939 275.539V275.538Z" fill="#3582B7"/>
<path d="M32.718 275.411L27.303 278.058C27.151 278.132 26.982 278.026 26.971 277.848C26.912 276.885 27.027 275.338 28.88 274.344C31.129 273.137 32.616 274.497 32.847 275.057C32.902 275.19 32.844 275.35 32.718 275.411Z" fill="#E54142"/>
<mask id="mask4_2759_25330" style="mask-type:luminance" maskUnits="userSpaceOnUse" x="26" y="273" width="7" height="6">
<path d="M32.718 275.411L27.303 278.058C27.151 278.132 26.982 278.026 26.971 277.848C26.912 276.885 27.027 275.338 28.88 274.344C31.129 273.137 32.616 274.497 32.847 275.057C32.902 275.19 32.844 275.35 32.718 275.411Z" fill="white"/>
</mask>
<g mask="url(#mask4_2759_25330)">
<path d="M33.7589 275.711L30.9199 277.064L28.8389 274.113L30.3689 273.081L32.8519 274.102L33.7589 275.711Z" fill="#3582B7"/>
</g>
<mask id="mask5_2759_25330" style="mask-type:luminance" maskUnits="userSpaceOnUse" x="26" y="273" width="7" height="6">
<path d="M32.718 275.411L27.303 278.058C27.151 278.132 26.982 278.026 26.971 277.848C26.912 276.885 27.027 275.338 28.88 274.344C31.129 273.137 32.616 274.497 32.847 275.057C32.902 275.19 32.844 275.35 32.718 275.411Z" fill="white"/>
</mask>
<g mask="url(#mask5_2759_25330)">
<path d="M28.88 274.343C28.88 274.343 28.141 275.108 28.69 276.825C29.239 278.542 31.89 276.931 31.89 276.931C31.89 276.931 30.286 273.83 28.88 274.342V274.343Z" fill="#FED600"/>
</g>
<path d="M29.1869 274.153C29.2289 274.238 29.1129 274.301 28.9669 274.372C28.8209 274.443 28.7009 274.497 28.6589 274.413C28.6169 274.329 28.6939 274.185 28.8389 274.113C28.9839 274.041 29.1449 274.068 29.1869 274.153Z" fill="#3582B7"/>
<path d="M30.5602 279.675C30.759 279.675 30.9202 279.353 30.9202 278.955C30.9202 278.557 30.759 278.235 30.5602 278.235C30.3614 278.235 30.2002 278.557 30.2002 278.955C30.2002 279.353 30.3614 279.675 30.5602 279.675Z" fill="#282828"/>
<path d="M33.4401 279.675C33.6389 279.675 33.8001 279.353 33.8001 278.955C33.8001 278.557 33.6389 278.235 33.4401 278.235C33.2413 278.235 33.0801 278.557 33.0801 278.955C33.0801 279.353 33.2413 279.675 33.4401 279.675Z" fill="#282828"/>
<path d="M31.145 281.264C30.867 280.943 30.693 280.532 30.666 280.387C30.639 280.242 30.679 280.074 30.804 280.074C31.002 280.073 31.499 280.232 32.05 280.22C32.71 280.206 33.158 280.093 33.158 280.093C33.287 280.075 33.342 280.142 33.341 280.251C33.336 280.698 33.014 281.151 32.943 281.245C32.707 281.558 31.981 282.232 31.144 281.265L31.145 281.264Z" fill="#E54142"/>
<path d="M60.668 271.4V273.896H61.748V275.144H60.668V277.712H59.204V271.4H60.668ZM51.932 277.232V272.024H53.156V273.488H53.852V272.024H55.052V277.232H51.932ZM52.988 279.344V278.168H60.668V282.08H59.156V279.344H52.988ZM53.156 276.056H53.852V274.64H53.156V276.056ZM55.508 277.232V272.024H56.708V273.488H57.38V272.024H58.604V277.232H55.508ZM56.708 276.056H57.38V274.64H56.708V276.056ZM71.4231 271.4V282.08H70.0311V271.4H71.4231ZM62.0631 278.816C64.2231 277.532 65.1591 275.972 65.3631 273.872H62.6391V272.672H66.8391C66.8391 273.692 66.7311 274.652 66.4791 275.528H67.7511V271.664H69.1671V281.6H67.7511V276.704H66.0231C65.4111 277.928 64.4271 278.984 62.9031 279.848L62.0631 278.816Z" fill="#FFA339"/>
<path d="M58.358 291.622V296.302H57.53V294.322H56.054V293.638H57.53V291.622H58.358ZM51.788 295.6C53.012 295.168 53.759 294.106 53.768 293.026V292.846H52.058V292.162H56.306V292.846H54.614V293.008C54.605 294.007 55.316 294.979 56.504 295.384L56.072 296.05C55.19 295.735 54.542 295.105 54.209 294.331C53.858 295.213 53.165 295.924 52.22 296.266L51.788 295.6ZM53.048 298.012C53.048 297.076 54.065 296.527 55.712 296.536C57.368 296.527 58.376 297.076 58.376 298.012C58.376 298.948 57.368 299.488 55.712 299.488C54.065 299.488 53.048 298.948 53.048 298.012ZM53.876 298.012C53.876 298.543 54.56 298.849 55.712 298.84C56.864 298.849 57.548 298.543 57.548 298.012C57.548 297.481 56.864 297.175 55.712 297.166C54.56 297.175 53.876 297.481 53.876 298.012ZM66.7663 295.762V296.41H59.5663V295.762H66.7663ZM60.3943 298.228C60.3853 297.4 61.3933 296.959 63.1483 296.95C64.8943 296.959 65.9023 297.4 65.9023 298.228C65.9023 299.047 64.8943 299.488 63.1483 299.488C61.3933 299.488 60.3853 299.047 60.3943 298.228ZM60.4663 292.504V291.856H65.8663V293.8H61.3123V294.502H66.0103V295.15H60.4843V293.188H65.0203V292.504H60.4663ZM61.2403 298.228C61.2313 298.651 61.9063 298.876 63.1483 298.876C64.3903 298.876 65.0563 298.651 65.0563 298.228C65.0563 297.805 64.3903 297.571 63.1483 297.58C61.9063 297.571 61.2313 297.805 61.2403 298.228ZM74.0946 291.622V299.488H73.3026V291.622H74.0946ZM67.2366 297.328C68.3436 296.653 68.9196 295.222 68.9106 293.818V293.188H67.4706V292.504H71.0706V293.188H69.7206V293.818C69.7206 295.168 70.2606 296.509 71.3766 297.148L70.8726 297.76C70.1166 297.31 69.6036 296.518 69.3246 295.564C69.0456 296.59 68.5146 297.463 67.7406 297.94L67.2366 297.328ZM70.4946 295.096V294.412H71.7186V291.784H72.5106V299.092H71.7186V295.096H70.4946ZM75.393 298.75V298.048L77.607 295.816C78.3 295.096 78.651 294.691 78.651 294.142C78.651 293.512 78.138 293.107 77.463 293.116C76.761 293.107 76.311 293.557 76.311 294.232H75.393C75.393 293.071 76.275 292.297 77.499 292.306C78.714 292.297 79.569 293.071 79.569 294.106C79.569 294.817 79.227 295.384 78.039 296.554L76.743 297.868V297.922H79.677V298.75H75.393ZM87.6667 295.456V296.122H80.4667V295.456H83.6527V294.61H81.3667V291.982H86.7667V292.648H82.1947V293.944H86.8207V294.61H84.4627V295.456H87.6667ZM81.3127 298.066C81.3217 297.148 82.3477 296.635 84.0487 296.644C85.7497 296.635 86.7667 297.148 86.7667 298.066C86.7667 298.975 85.7497 299.488 84.0487 299.488C82.3477 299.488 81.3217 298.975 81.3127 298.066ZM82.1767 298.066C82.1587 298.57 82.8517 298.849 84.0487 298.84C85.2457 298.849 85.9297 298.57 85.9387 298.066C85.9297 297.571 85.2457 297.283 84.0487 297.274C82.8517 297.283 82.1587 297.571 82.1767 298.066Z" fill="#AEAEB2"/>
<path d="M92.808 298.75V298.048L95.022 295.816C95.715 295.096 96.066 294.691 96.066 294.142C96.066 293.512 95.553 293.107 94.878 293.116C94.176 293.107 93.726 293.557 93.726 294.232H92.808C92.808 293.071 93.69 292.297 94.914 292.306C96.129 292.297 96.984 293.071 96.984 294.106C96.984 294.817 96.642 295.384 95.454 296.554L94.158 297.868V297.922H97.092V298.75H92.808ZM100.78 293.62C100.771 295.06 101.635 296.509 102.85 297.058L102.364 297.706C101.455 297.283 100.735 296.401 100.366 295.33C100.006 296.482 99.2768 297.427 98.3318 297.886L97.8278 297.184C99.0608 296.635 99.9338 295.132 99.9338 293.62V292.27H100.78V293.62ZM103.57 299.506V291.622H104.416V299.506H103.57ZM111.852 291.622V293.944H112.986V294.646H111.852V297.346H111.006V291.622H111.852ZM105.66 295.816C107.496 295.258 108.648 294.205 108.81 292.918H105.984V292.216H109.71C109.71 294.286 108.306 295.78 106.002 296.482L105.66 295.816ZM106.848 299.326V296.752H107.694V298.66H112.176V299.326H106.848ZM122.206 291.622V297.4H121.378V294.43H119.866V293.764H121.378V291.622H122.206ZM115.636 295.744C116.86 295.339 117.607 294.304 117.616 293.224V292.918H115.906V292.234H120.154V292.918H118.462V293.224C118.453 294.205 119.164 295.186 120.352 295.582L119.92 296.248C119.038 295.942 118.39 295.312 118.048 294.529C117.706 295.402 117.013 296.095 116.068 296.428L115.636 295.744ZM117.094 299.326V296.878H117.922V298.66H122.404V299.326H117.094Z" fill="#AEAEB2"/>
<path d="M55.748 312.467C55.748 314.219 56.9 316.031 58.532 316.715L57.908 317.603C56.672 317.051 55.7 315.899 55.208 314.507C54.716 315.995 53.732 317.279 52.508 317.867L51.86 316.979C53.444 316.247 54.62 314.267 54.62 312.467V311.339H52.22V310.427H58.148V311.339H55.748V312.467ZM59.468 319.859V309.371H60.596V319.859H59.468ZM70.6551 309.899V310.691C70.6551 311.519 70.6551 312.455 70.3911 313.739H71.8791V314.651H62.2551V313.739H69.2511C69.5391 312.515 69.5511 311.615 69.5511 310.811H63.4551V309.899H70.6551ZM63.4311 319.739V315.971H70.6551V319.739H63.4311ZM64.5111 318.827H69.5511V316.859H64.5111V318.827ZM83.7399 309.371V313.427H85.4199V314.387H83.7399V319.859H82.6359V309.371H83.7399ZM75.9639 317.387V310.235H77.0679V312.947H79.8279V310.235H80.9319V317.387H75.9639ZM77.0679 316.451H79.8279V313.811H77.0679V316.451ZM95.551 317.675V318.611H85.927V317.675H90.151V315.827H87.103V312.491H93.271V311.027H87.079V310.115H94.375V313.403H88.207V314.915H94.615V315.827H91.255V317.675H95.551ZM107.412 309.371V313.547H109.044V314.483H107.412V319.859H106.308V309.371H107.412ZM99.2278 317.051C101.868 315.743 103.296 313.859 103.536 311.411H99.7558V310.475H104.676C104.664 313.511 103.32 316.223 99.8518 317.915L99.2278 317.051ZM118.095 312.203V313.115H110.871V309.563H111.975V312.203H118.095ZM109.599 315.131V314.219H119.199V315.131H109.599ZM110.727 317.915C110.739 316.679 112.107 315.983 114.375 315.995C116.643 315.983 117.999 316.679 117.999 317.915C117.999 319.139 116.643 319.823 114.375 319.835C112.107 319.823 110.739 319.139 110.727 317.915ZM111.879 317.915C111.855 318.575 112.779 318.959 114.375 318.971C115.971 318.959 116.883 318.575 116.895 317.915C116.883 317.219 115.971 316.871 114.375 316.859C112.779 316.871 111.855 317.219 111.879 317.915ZM125.154 311.099V312.011H119.946V311.099H122.01V309.683H123.114V311.099H125.154ZM120.282 315.059C120.282 313.643 121.242 312.635 122.562 312.635C123.894 312.635 124.842 313.643 124.842 315.059C124.842 316.487 123.894 317.495 122.562 317.507C121.242 317.495 120.282 316.487 120.282 315.059ZM121.266 315.059C121.266 315.947 121.806 316.547 122.562 316.547C123.318 316.547 123.858 315.947 123.858 315.059C123.858 314.183 123.318 313.571 122.562 313.571C121.806 313.571 121.266 314.183 121.266 315.059ZM125.658 319.379V309.611H126.69V313.739H127.914V309.371H128.97V319.859H127.914V314.651H126.69V319.379H125.658ZM139.965 317.627V318.563H130.341V317.627H132.645V314.891C131.781 314.423 131.253 313.667 131.253 312.731C131.253 311.075 132.873 309.983 135.117 309.971C137.385 309.983 139.005 311.075 139.005 312.731C139.005 313.643 138.501 314.387 137.661 314.867V317.627H139.965ZM132.333 312.731C132.333 313.847 133.473 314.579 135.117 314.579C136.761 314.579 137.925 313.847 137.925 312.731C137.925 311.591 136.761 310.871 135.117 310.883C133.473 310.871 132.333 311.591 132.333 312.731ZM133.749 317.627H136.533V315.287C136.101 315.395 135.621 315.443 135.117 315.443C134.625 315.443 134.169 315.395 133.749 315.299V317.627Z" fill="black"/>
<path d="M236.699 272.623C236.687 273.991 237.431 275.371 239.123 275.935L238.307 277.111C237.191 276.691 236.411 275.911 235.967 274.915C235.499 276.031 234.671 276.907 233.435 277.351L232.619 276.175C234.407 275.599 235.175 274.135 235.187 272.599V271.447H236.699V272.623ZM234.587 281.263V277.855H236.099V280.063H241.907V281.263H234.587ZM238.187 274.279V273.079H240.203V270.799H241.691V278.671H240.203V274.279H238.187ZM247.646 271.495V272.695H244.886V273.583H247.55V274.711H244.886V275.659C246.062 275.647 246.938 275.587 247.91 275.431L248.078 276.631C246.818 276.847 245.774 276.883 244.166 276.895H243.446V271.495H247.646ZM244.862 278.935V277.735H252.23V281.455H250.742V278.935H244.862ZM248.486 277.231V270.991H249.878V273.391H250.814V270.799H252.23V277.303H250.814V274.591H249.878V277.231H248.486Z" fill="#FFA339"/>
<path d="M265.846 278.781L263.244 276.179C262.951 275.886 262.479 275.886 262.186 276.179C261.894 276.471 261.894 276.944 262.186 277.236L265.321 280.371C265.614 280.664 266.086 280.664 266.379 280.371L274.314 272.436C274.606 272.144 274.606 271.671 274.314 271.379C274.021 271.086 273.549 271.086 273.256 271.379L265.846 278.781Z" fill="#FFA339"/>
<rect width="281.25" height="63" transform="translate(8 530)" fill="white"/>
<rect x="20" y="536" width="257.25" height="45" rx="9" fill="#042D53"/>
<path d="M128.949 553.35V554.82H126.279C126.324 556.17 127.284 557.505 129.399 558.06L128.529 559.5C127.029 559.11 125.964 558.27 125.364 557.19C124.779 558.39 123.714 559.32 122.139 559.74L121.269 558.3C123.369 557.73 124.374 556.305 124.419 554.82H121.719V553.35H124.419V551.97H126.309V553.35H128.949ZM123.219 565.2V560.37H131.949V565.2H123.219ZM125.079 563.7H130.089V561.87H125.079V563.7ZM130.059 559.83V552H131.949V555.15H133.749V556.68H131.949V559.83H130.059ZM138.013 552.96C139.198 552.96 140.203 553.62 140.803 554.76H143.743V552H145.573V565.38H143.743V560.4H140.938C140.338 561.72 139.288 562.47 138.013 562.47C135.973 562.47 134.533 560.625 134.533 557.7C134.533 554.79 135.973 552.96 138.013 552.96ZM136.333 557.7C136.318 559.695 137.008 560.76 138.013 560.76C139.018 560.76 139.678 559.695 139.693 557.7C139.678 555.72 139.018 554.64 138.013 554.64C137.008 554.64 136.318 555.72 136.333 557.7ZM141.328 556.26C141.418 556.71 141.463 557.19 141.463 557.7C141.463 558.12 141.433 558.525 141.373 558.9H143.743V556.26H141.328ZM157.824 553.05C157.824 554.625 159.429 556.365 162.474 556.74L161.754 558.27C159.414 557.925 157.704 556.845 156.849 555.39C155.979 556.845 154.269 557.925 151.944 558.27L151.224 556.74C154.254 556.365 155.859 554.625 155.844 553.05V552.42H157.824V553.05ZM150.744 560.79V559.26H162.924V560.79H157.734V565.35H155.874V560.79H150.744ZM170.308 552.75V556.86H166.078V558.12C168.268 558.105 169.753 558.03 171.448 557.73L171.658 559.23C169.738 559.56 168.028 559.65 165.328 559.65H164.188V555.42H168.478V554.25H164.188V552.75H170.308ZM165.328 562.23V560.73H174.298V565.32H172.408V562.23H165.328ZM172.408 560.13V552.03H174.298V555.21H176.098V556.74H174.298V560.13H172.408Z" fill="white"/>
<mask id="path-92-inside-1_2759_25330" fill="white">
<path d="M8 72.5H289.25V110H8V72.5Z"/>
</mask>
<path d="M8 72.5H289.25V110H8V72.5Z" fill="white"/>
<path d="M289.25 109.25H8V110.75H289.25V109.25Z" fill="#E5E5EA" mask="url(#path-92-inside-1_2759_25330)"/>
<path d="M64.6363 90.6V92.07H61.9663C62.0113 93.42 62.9713 94.755 65.0863 95.31L64.2163 96.75C62.7163 96.36 61.6513 95.52 61.0513 94.44C60.4663 95.64 59.4013 96.57 57.8263 96.99L56.9563 95.55C59.0563 94.98 60.0613 93.555 60.1063 92.07H57.4063V90.6H60.1063V89.22H61.9963V90.6H64.6363ZM58.9063 102.45V97.62H67.6363V102.45H58.9063ZM60.7663 100.95H65.7763V99.12H60.7663V100.95ZM65.7463 97.08V89.25H67.6363V92.4H69.4363V93.93H67.6363V97.08H65.7463ZM73.7001 90.21C74.8851 90.21 75.8901 90.87 76.4901 92.01H79.4301V89.25H81.2601V102.63H79.4301V97.65H76.6251C76.0251 98.97 74.9751 99.72 73.7001 99.72C71.6601 99.72 70.2201 97.875 70.2201 94.95C70.2201 92.04 71.6601 90.21 73.7001 90.21ZM72.0201 94.95C72.0051 96.945 72.6951 98.01 73.7001 98.01C74.7051 98.01 75.3651 96.945 75.3801 94.95C75.3651 92.97 74.7051 91.89 73.7001 91.89C72.6951 91.89 72.0051 92.97 72.0201 94.95ZM77.0151 93.51C77.1051 93.96 77.1501 94.44 77.1501 94.95C77.1501 95.37 77.1201 95.775 77.0601 96.15H79.4301V93.51H77.0151ZM97.591 89.25V102.63H95.701V89.25H97.591ZM86.821 94.95C86.821 92.04 88.321 90.21 90.361 90.21C92.371 90.21 93.856 92.04 93.871 94.95C93.856 97.875 92.371 99.72 90.361 99.72C88.321 99.72 86.821 97.875 86.821 94.95ZM88.621 94.95C88.621 96.945 89.326 98.01 90.361 98.01C91.366 98.01 92.056 96.945 92.071 94.95C92.056 92.97 91.366 91.89 90.361 91.89C89.326 91.89 88.621 92.97 88.621 94.95ZM111.575 95.1V96.63H106.385V97.92H104.525V96.63H99.3949V95.1H111.575ZM100.175 101.13C103.07 100.89 104.48 99.735 104.465 98.67V98.43H106.385V98.67C106.4 99.78 107.75 100.89 110.705 101.13L110.135 102.54C107.84 102.345 106.25 101.595 105.44 100.5C104.63 101.565 103.04 102.345 100.805 102.54L100.175 101.13ZM100.625 91.95C100.61 90.33 102.515 89.43 105.485 89.43C108.455 89.43 110.315 90.33 110.315 91.95C110.315 93.525 108.455 94.455 105.485 94.44C102.515 94.455 100.61 93.525 100.625 91.95ZM102.575 91.95C102.545 92.64 103.595 93.03 105.485 93.03C107.33 93.03 108.395 92.64 108.395 91.95C108.395 91.2 107.33 90.795 105.485 90.81C103.595 90.795 102.545 91.2 102.575 91.95Z" fill="#C7C7CC"/>
<path d="M277.25 112.25C278.493 112.25 279.5 111.243 279.5 110C279.5 108.757 278.493 107.75 277.25 107.75V112.25ZM148.625 107.75C147.382 107.75 146.375 108.757 146.375 110C146.375 111.243 147.382 112.25 148.625 112.25V107.75ZM277.25 107.75H148.625V112.25H277.25V107.75Z" fill="#191919" mask="url(#path-95-inside-2_2759_25330)"/>
<path d="M196.831 89.28V99H194.971V89.28H196.831ZM185.641 95.73C187.861 94.965 188.836 93.105 188.851 91.29V90H190.771V91.29C190.771 93.06 191.716 94.785 193.921 95.49L192.961 96.96C191.446 96.465 190.411 95.46 189.826 94.185C189.226 95.55 188.161 96.66 186.601 97.2L185.641 95.73ZM187.891 102.36V98.07H189.781V100.86H197.191V102.36H187.891ZM206.225 90.66V92.13H203.555C203.57 93.48 204.575 94.875 206.705 95.43L205.835 96.87C204.32 96.48 203.255 95.655 202.655 94.575C202.07 95.805 200.99 96.78 199.415 97.23L198.545 95.76C200.69 95.145 201.68 93.63 201.695 92.13H198.995V90.66H201.695V89.22H203.585V90.66H206.225ZM200.735 100.05C200.735 98.46 202.49 97.56 205.325 97.56C208.16 97.56 209.915 98.46 209.915 100.05C209.915 101.67 208.16 102.6 205.325 102.6C202.49 102.6 200.735 101.67 200.735 100.05ZM202.595 100.05C202.595 100.785 203.555 101.175 205.325 101.19C207.125 101.175 208.055 100.785 208.055 100.05C208.055 99.33 207.125 98.97 205.325 98.97C203.555 98.97 202.595 99.33 202.595 100.05ZM205.835 94.35V92.85H208.025V89.25H209.885V97.32H208.025V94.35H205.835ZM225.676 89.79V94.5H222.076V95.76H227.236V97.26H215.056V95.76H220.186V94.5H216.556V89.79H225.676ZM216.406 99.72V98.25H225.736V102.6H223.876V99.72H216.406ZM218.386 93.03H223.846V91.26H218.386V93.03ZM240.2 96.42V97.92H228.02V96.42H233.18V95.46H229.52V91.77H236.87V90.96H229.52V89.52H238.73V93.12H231.38V94.02H238.97V95.46H235.04V96.42H240.2ZM229.37 100.14V98.67H238.82V102.54H236.93V100.14H229.37Z" fill="#191919"/>
</g>
<rect x="4" y="4" width="289.25" height="617" rx="34" stroke="#E6E6E6" stroke-width="8"/>
<g filter="url(#filter0_d_2759_25330)">
<rect x="354" y="396" width="454.359" height="220.25" rx="13.5" fill="white"/>
<path d="M529.627 435.525V437.73H525.622C525.689 439.755 527.129 441.757 530.302 442.59L528.997 444.75C526.747 444.165 525.149 442.905 524.249 441.285C523.372 443.085 521.774 444.48 519.412 445.11L518.107 442.95C521.257 442.095 522.764 439.957 522.832 437.73H518.782V435.525H522.832V433.455H525.667V435.525H529.627ZM521.032 453.3V446.055H534.127V453.3H521.032ZM523.822 451.05H531.337V448.305H523.822V451.05ZM531.292 445.245V433.5H534.127V438.225H536.827V440.52H534.127V445.245H531.292ZM543.223 434.94C545 434.94 546.508 435.93 547.408 437.64H551.818V433.5H554.563V453.57H551.818V446.1H547.61C546.71 448.08 545.135 449.205 543.223 449.205C540.163 449.205 538.003 446.437 538.003 442.05C538.003 437.685 540.163 434.94 543.223 434.94ZM540.703 442.05C540.68 445.042 541.715 446.64 543.223 446.64C544.73 446.64 545.72 445.042 545.743 442.05C545.72 439.08 544.73 437.46 543.223 437.46C541.715 437.46 540.68 439.08 540.703 442.05ZM548.195 439.89C548.33 440.565 548.398 441.285 548.398 442.05C548.398 442.68 548.353 443.287 548.263 443.85H551.818V439.89H548.195ZM572.939 435.075C572.939 437.438 575.346 440.047 579.914 440.61L578.834 442.905C575.324 442.387 572.759 440.767 571.476 438.585C570.171 440.767 567.606 442.387 564.119 442.905L563.039 440.61C567.584 440.047 569.991 437.438 569.969 435.075V434.13H572.939V435.075ZM562.319 446.685V444.39H580.589V446.685H572.804V453.525H570.014V446.685H562.319ZM591.665 434.625V440.79H585.32V442.68C588.605 442.657 590.832 442.545 593.375 442.095L593.69 444.345C590.81 444.84 588.245 444.975 584.195 444.975H582.485V438.63H588.92V436.875H582.485V434.625H591.665ZM584.195 448.845V446.595H597.65V453.48H594.815V448.845H584.195ZM594.815 445.695V433.545H597.65V438.315H600.35V440.61H597.65V445.695H594.815ZM612.426 434.355C615.351 434.355 617.444 435.997 617.466 438.405C617.444 440.362 616.004 441.847 613.866 442.297V443.76C615.441 443.67 616.994 443.535 618.456 443.31L618.681 445.38C614.564 446.1 609.996 446.19 606.621 446.19L606.351 443.985C607.746 443.985 609.344 443.962 611.031 443.895V442.32C608.849 441.87 607.386 440.385 607.386 438.405C607.386 435.997 609.479 434.355 612.426 434.355ZM609.006 453.165V447.45H611.796V450.915H623.091V453.165H609.006ZM609.996 438.405C609.974 439.62 611.009 440.34 612.426 440.34C613.866 440.34 614.811 439.62 614.811 438.405C614.811 437.145 613.866 436.47 612.426 436.47C611.009 436.47 609.974 437.145 609.996 438.405ZM619.581 448.8V433.545H622.371V439.845H624.936V442.185H622.371V448.8H619.581ZM644.157 448.98V451.275H625.842V448.98H630.522V445.92H627.957V439.215H639.252V437.055H627.912V434.805H642.042V441.465H630.747V443.67H642.492V445.92H639.657V448.98H644.157ZM633.267 448.98H636.912V445.92H633.267V448.98Z" fill="black"/>
<path d="M446.067 477.734C446.085 479.57 447.507 481.262 449.919 481.946L449.127 483.242C447.327 482.72 445.977 481.604 445.275 480.164C444.591 481.748 443.205 482.972 441.315 483.53L440.523 482.234C442.935 481.532 444.429 479.732 444.411 477.734V477.59H440.991V476.258H444.411V474.422H446.103V476.258H449.487V477.59H446.067V477.734ZM442.863 490.046V484.502H452.943V490.046H442.863ZM444.519 488.678H451.287V485.798H444.519V488.678ZM451.287 483.782V474.494H452.943V478.382H455.211V479.786H452.943V483.782H451.287ZM460.4 475.682C461.84 475.682 463.01 476.492 463.694 477.914H467.6V474.494H469.256V490.262H467.6V484.214H463.82C463.154 485.816 461.93 486.734 460.4 486.734C458.042 486.734 456.386 484.592 456.404 481.19C456.386 477.824 458.042 475.682 460.4 475.682ZM457.988 481.19C457.988 483.692 458.96 485.24 460.4 485.222C461.822 485.24 462.794 483.692 462.812 481.19C462.794 478.724 461.822 477.176 460.4 477.158C458.96 477.176 457.988 478.724 457.988 481.19ZM464.162 479.282C464.288 479.858 464.36 480.506 464.36 481.19C464.36 481.802 464.306 482.36 464.216 482.882H467.6V479.282H464.162ZM489.135 474.494V490.262H487.443V474.494H489.135ZM476.607 481.19C476.607 477.824 478.317 475.682 480.675 475.682C483.033 475.682 484.761 477.824 484.743 481.19C484.761 484.592 483.033 486.734 480.675 486.734C478.317 486.734 476.607 484.592 476.607 481.19ZM478.227 481.19C478.227 483.692 479.235 485.24 480.675 485.222C482.133 485.24 483.141 483.692 483.123 481.19C483.141 478.724 482.133 477.176 480.675 477.158C479.235 477.176 478.227 478.724 478.227 481.19ZM506.024 481.586V482.99H499.616V484.646H497.96V482.99H491.624V481.586H506.024ZM492.632 488.894C495.656 488.606 497.906 487.31 497.924 485.762V485.33H499.616V485.762C499.616 487.346 501.848 488.606 504.908 488.894L504.404 490.154C501.812 489.902 499.706 488.984 498.77 487.544C497.798 488.948 495.728 489.902 493.172 490.154L492.632 488.894ZM493.172 477.626C493.172 475.772 495.332 474.728 498.788 474.71C502.28 474.728 504.422 475.772 504.404 477.626C504.422 479.48 502.28 480.542 498.788 480.542C495.332 480.542 493.172 479.48 493.172 477.626ZM494.9 477.626C494.882 478.652 496.34 479.264 498.788 479.246C501.236 479.264 502.712 478.652 502.712 477.626C502.712 476.582 501.236 475.97 498.788 475.97C496.34 475.97 494.882 476.582 494.9 477.626ZM515.964 476.186V477.158C515.946 478.472 515.946 480.506 515.496 483.314L513.84 483.206C514.254 480.668 514.29 478.814 514.308 477.518H507.9V476.186H515.964ZM507.036 485.474C508.008 485.474 509.106 485.474 510.24 485.438V480.686H511.896V485.402C513.57 485.33 515.28 485.222 516.864 485.042L516.972 486.266C513.678 486.806 510.024 486.878 507.216 486.842L507.036 485.474ZM517.764 490.226V474.494H519.456V481.01H521.868V482.414H519.456V490.226H517.764ZM527.885 475.61C530.369 475.61 532.151 477.158 532.169 479.354C532.151 481.586 530.369 483.116 527.885 483.134C525.401 483.116 523.583 481.586 523.601 479.354C523.583 477.158 525.401 475.61 527.885 475.61ZM522.809 485.474C525.689 485.492 529.667 485.474 533.105 484.97L533.249 486.194C529.667 486.86 525.851 486.878 523.025 486.878L522.809 485.474ZM525.221 479.354C525.221 480.758 526.337 481.676 527.885 481.658C529.397 481.676 530.531 480.758 530.549 479.354C530.531 477.986 529.397 477.068 527.885 477.05C526.337 477.068 525.221 477.986 525.221 479.354ZM534.113 490.262V474.494H535.769V490.262H534.113ZM547.404 479.318C547.404 481.766 548.538 484.304 550.752 485.438L549.78 486.698C548.268 485.87 547.206 484.376 546.63 482.612C546.072 484.502 545.01 486.14 543.48 487.022L542.508 485.798C544.686 484.538 545.82 481.838 545.82 479.318V478.706H542.94V477.338H545.82V475.07H547.404V477.338H550.284V478.706H547.404V479.318ZM551.256 489.47V474.782H552.804V480.758H554.712V474.494H556.296V490.226H554.712V482.162H552.804V489.47H551.256ZM566.741 475.646V476.978H560.837V478.706H566.273V480.038H560.837V481.838C563.987 481.838 565.823 481.784 567.965 481.442L568.145 482.774C565.841 483.134 563.897 483.206 560.441 483.206H559.145V475.646H566.741ZM560.693 487.31C560.675 485.474 562.691 484.412 566.021 484.43C569.333 484.412 571.385 485.474 571.385 487.31C571.385 489.164 569.333 490.226 566.021 490.226C562.691 490.226 560.675 489.164 560.693 487.31ZM562.349 487.31C562.331 488.336 563.681 488.912 566.021 488.93C568.343 488.912 569.729 488.336 569.729 487.31C569.729 486.302 568.343 485.726 566.021 485.726C563.681 485.726 562.331 486.302 562.349 487.31ZM569.657 484.178V474.494H571.313V484.178H569.657ZM581.11 484.322C584.35 484.304 586.33 485.384 586.33 487.274C586.33 489.146 584.35 490.226 581.11 490.226C577.816 490.226 575.818 489.146 575.818 487.274C575.818 485.384 577.816 484.304 581.11 484.322ZM574.414 482.774V475.466H576.07V477.734H580.174V475.466H581.83V482.774H574.414ZM576.07 481.442H580.174V479.066H576.07V481.442ZM577.474 487.274C577.474 488.318 578.824 488.912 581.11 488.93C583.36 488.912 584.692 488.318 584.71 487.274C584.692 486.212 583.36 485.618 581.11 485.618C578.824 485.618 577.474 486.212 577.474 487.274ZM584.53 483.89V474.494H586.186V478.346H588.454V479.75H586.186V483.89H584.53ZM602.426 474.494V490.262H600.734V474.494H602.426ZM589.898 481.19C589.898 477.824 591.608 475.682 593.966 475.682C596.324 475.682 598.052 477.824 598.034 481.19C598.052 484.592 596.324 486.734 593.966 486.734C591.608 486.734 589.898 484.592 589.898 481.19ZM591.518 481.19C591.518 483.692 592.526 485.24 593.966 485.222C595.424 485.24 596.432 483.692 596.414 481.19C596.432 478.724 595.424 477.176 593.966 477.158C592.526 477.176 591.518 478.724 591.518 481.19ZM622.809 474.494V490.226H621.189V482.09H619.245V489.47H617.697V474.926H619.245V480.722H621.189V474.494H622.809ZM609.273 485.726C612.765 483.746 614.223 481.082 614.493 477.878H609.921V476.51H616.113C616.113 480.632 614.727 484.358 610.245 486.914L609.273 485.726ZM638.006 474.494V482.594H636.35V478.562H633.002V477.194H636.35V474.494H638.006ZM624.83 481.334C627.278 480.542 628.736 478.58 628.754 476.366V474.998H630.41V476.366C630.41 478.382 631.85 480.254 634.226 481.01L633.326 482.306C631.616 481.712 630.302 480.524 629.6 479.012C628.916 480.704 627.566 482.018 625.694 482.666L624.83 481.334ZM627.71 484.646V483.35H638.006V487.238H629.366V488.714H638.546V490.046H627.746V486.014H636.35V484.646H627.71ZM649.819 481.154V482.522H646.507V485.438C647.965 485.384 649.423 485.276 650.791 485.114L650.935 486.374C647.443 486.878 643.717 486.932 640.711 486.914L640.495 485.546C641.827 485.546 643.303 485.546 644.815 485.492V482.522H641.647V475.97H649.747V477.302H643.303V481.154H649.819ZM651.799 490.262V474.494H653.455V490.262H651.799ZM661.595 484.862C661.577 486.248 662.243 487.67 663.683 488.552C665.123 487.598 665.807 486.068 665.807 484.862V484.034H667.463V484.862C667.445 486.518 668.525 488.12 670.595 488.786L669.731 490.046C668.201 489.488 667.157 488.426 666.599 487.13C666.113 488.39 665.159 489.56 663.683 490.154C662.207 489.596 661.253 488.48 660.749 487.184C660.173 488.426 659.147 489.488 657.671 490.046L656.843 488.786C658.877 488.084 659.957 486.41 659.975 484.862V484.034H661.595V484.862ZM656.231 479.066C656.213 476.906 657.977 475.358 660.335 475.358C662.387 475.358 664.007 476.564 664.367 478.346H667.463V474.494H669.119V483.422H667.463V479.714H664.385C664.061 481.55 662.423 482.792 660.335 482.81C657.977 482.792 656.213 481.262 656.231 479.066ZM657.815 479.066C657.815 480.434 658.877 481.406 660.335 481.406C661.757 481.406 662.837 480.434 662.819 479.066C662.837 477.698 661.757 476.762 660.335 476.762C658.877 476.762 657.815 477.698 657.815 479.066ZM674.956 483.926V485.618H682.372V483.926H684.028V490.046H673.336V483.926H674.956ZM671.536 482.954V481.586H685.9V482.954H671.536ZM672.328 479.282C675.37 478.886 677.854 477.212 677.872 475.322V474.674H679.564V475.322C679.582 477.14 682.084 478.904 685.108 479.282L684.496 480.614C681.958 480.254 679.726 479.03 678.736 477.356C677.71 479.03 675.478 480.254 672.94 480.614L672.328 479.282ZM674.956 488.714H682.372V486.914H674.956V488.714ZM700.161 474.494V490.226H698.505V474.494H700.161ZM688.065 486.23V476.042H689.721V484.79C692.007 484.79 694.437 484.592 696.957 484.07L697.173 485.474C694.401 486.05 691.863 486.248 689.397 486.23H688.065ZM714.925 474.494V480.578H717.445V481.982H714.925V490.262H713.269V474.494H714.925ZM703.333 486.374V476.006H710.677V477.374H704.989V484.97C707.635 484.952 709.615 484.844 711.865 484.43L712.081 485.87C709.615 486.284 707.509 486.374 704.593 486.374H703.333ZM720.006 488.858C719.322 488.876 718.746 488.318 718.746 487.634C718.746 486.932 719.322 486.374 720.006 486.374C720.672 486.374 721.248 486.932 721.23 487.634C721.248 488.318 720.672 488.876 720.006 488.858Z" fill="#8E8E93"/>
<rect x="372" y="530.75" width="418.359" height="67.5" rx="13.5" fill="#042D53"/>
<path d="M539.406 561.075C539.406 564.067 540.463 567.15 543.366 568.635L541.791 570.705C539.991 569.782 538.798 568.162 538.101 566.205C537.403 568.342 536.211 570.12 534.411 571.155L532.791 569.085C535.648 567.442 536.751 564.18 536.751 561.075V560.715H533.421V558.42H536.751V555.72H539.361V558.42H542.646V560.715H539.406V561.075ZM543.591 574.08V555.315H546.246V562.74H547.911V555H550.611V575.025H547.911V564.99H546.246V574.08H543.591ZM563.396 556.44V558.645H556.511V560.22H562.811V562.38H556.511V564C560.021 564 562.271 563.955 564.791 563.55L565.061 565.71C562.226 566.182 559.684 566.25 555.431 566.25H553.721V556.44H563.396ZM555.656 571.245C555.656 568.837 558.266 567.42 562.541 567.42C566.771 567.42 569.449 568.837 569.426 571.245C569.449 573.63 566.771 575.025 562.541 575.025C558.266 575.025 555.656 573.63 555.656 571.245ZM558.446 571.245C558.446 572.325 559.864 572.887 562.541 572.91C565.196 572.887 566.636 572.325 566.636 571.245C566.636 570.142 565.196 569.58 562.541 569.58C559.864 569.58 558.446 570.142 558.446 571.245ZM566.546 567.15V555.045H569.336V567.15H566.546ZM581.357 567.285C585.52 567.262 588.107 568.702 588.107 571.155C588.107 573.608 585.52 575.048 581.357 575.07C577.127 575.048 574.495 573.608 574.517 571.155C574.495 568.702 577.127 567.262 581.357 567.285ZM572.627 565.665V556.26H575.417V558.825H579.512V556.26H582.347V565.665H572.627ZM575.417 563.46H579.512V560.985H575.417V563.46ZM577.307 571.155C577.307 572.28 578.747 572.865 581.357 572.865C583.945 572.865 585.34 572.28 585.317 571.155C585.34 569.985 583.945 569.445 581.357 569.445C578.747 569.445 577.307 569.985 577.307 571.155ZM585.092 566.835V555H587.927V559.68H590.627V562.02H587.927V566.835H585.092ZM600.623 556.035C604.831 556.057 608.138 558.33 608.138 561.795C608.138 565.282 604.831 567.555 600.623 567.555C596.393 567.555 593.108 565.282 593.108 561.795C593.108 558.33 596.393 556.057 600.623 556.035ZM591.488 572.595V570.3H609.803V572.595H591.488ZM595.808 561.795C595.808 563.977 597.833 565.26 600.623 565.26C603.368 565.26 605.371 563.977 605.393 561.795C605.371 559.657 603.368 558.307 600.623 558.33C597.833 558.307 595.808 559.657 595.808 561.795ZM629.249 570.48V572.775H610.934V570.48H618.674V567.465H613.049V560.76H624.344V558.555H613.004V556.305H627.134V562.965H615.839V565.215H627.584V567.465H621.419V570.48H629.249Z" fill="white"/>
</g>
<path d="M238.333 556C238.333 557.473 239.527 558.667 241 558.667C242.473 558.667 243.667 557.473 243.667 556C243.667 554.527 242.473 553.333 241 553.333C239.527 553.333 238.333 554.527 238.333 556ZM354.354 556.354C354.549 556.158 354.549 555.842 354.354 555.646L351.172 552.464C350.976 552.269 350.66 552.269 350.464 552.464C350.269 552.66 350.269 552.976 350.464 553.172L353.293 556L350.464 558.828C350.269 559.024 350.269 559.34 350.464 559.536C350.66 559.731 350.976 559.731 351.172 559.536L354.354 556.354ZM243.568 556.5C243.844 556.5 244.068 556.276 244.068 556C244.068 555.724 243.844 555.5 243.568 555.5L243.568 556.5ZM248.705 555.5C248.428 555.5 248.205 555.724 248.205 556C248.205 556.276 248.428 556.5 248.705 556.5L248.705 555.5ZM253.841 556.5C254.117 556.5 254.341 556.276 254.341 556C254.341 555.724 254.117 555.5 253.841 555.5L253.841 556.5ZM258.977 555.5C258.701 555.5 258.477 555.724 258.477 556C258.477 556.276 258.701 556.5 258.977 556.5L258.977 555.5ZM264.114 556.5C264.39 556.5 264.614 556.276 264.614 556C264.614 555.724 264.39 555.5 264.114 555.5L264.114 556.5ZM269.25 555.5C268.974 555.5 268.75 555.724 268.75 556C268.75 556.276 268.974 556.5 269.25 556.5L269.25 555.5ZM274.386 556.5C274.663 556.5 274.886 556.276 274.886 556C274.886 555.724 274.663 555.5 274.386 555.5L274.386 556.5ZM279.523 555.5C279.247 555.5 279.023 555.724 279.023 556C279.023 556.276 279.247 556.5 279.523 556.5L279.523 555.5ZM284.659 556.5C284.935 556.5 285.159 556.276 285.159 556C285.159 555.724 284.935 555.5 284.659 555.5L284.659 556.5ZM289.795 555.5C289.519 555.5 289.295 555.724 289.295 556C289.295 556.276 289.519 556.5 289.795 556.5L289.795 555.5ZM294.932 556.5C295.208 556.5 295.432 556.276 295.432 556C295.432 555.724 295.208 555.5 294.932 555.5L294.932 556.5ZM300.068 555.5C299.792 555.5 299.568 555.724 299.568 556C299.568 556.276 299.792 556.5 300.068 556.5L300.068 555.5ZM305.205 556.5C305.481 556.5 305.705 556.276 305.705 556C305.705 555.724 305.481 555.5 305.205 555.5L305.205 556.5ZM310.341 555.5C310.065 555.5 309.841 555.724 309.841 556C309.841 556.276 310.065 556.5 310.341 556.5L310.341 555.5ZM315.477 556.5C315.753 556.5 315.977 556.276 315.977 556C315.977 555.724 315.753 555.5 315.477 555.5L315.477 556.5ZM320.614 555.5C320.337 555.5 320.114 555.724 320.114 556C320.114 556.276 320.337 556.5 320.614 556.5L320.614 555.5ZM325.75 556.5C326.026 556.5 326.25 556.276 326.25 556C326.25 555.724 326.026 555.5 325.75 555.5L325.75 556.5ZM330.886 555.5C330.61 555.5 330.386 555.724 330.386 556C330.386 556.276 330.61 556.5 330.886 556.5L330.886 555.5ZM336.023 556.5C336.299 556.5 336.523 556.276 336.523 556C336.523 555.724 336.299 555.5 336.023 555.5L336.023 556.5ZM341.159 555.5C340.883 555.5 340.659 555.724 340.659 556C340.659 556.276 340.883 556.5 341.159 556.5L341.159 555.5ZM346.295 556.5C346.572 556.5 346.795 556.276 346.795 556C346.795 555.724 346.572 555.5 346.295 555.5L346.295 556.5ZM351.432 555.5C351.156 555.5 350.932 555.724 350.932 556C350.932 556.276 351.156 556.5 351.432 556.5L351.432 555.5ZM241 556.5L243.568 556.5L243.568 555.5L241 555.5L241 556.5ZM248.705 556.5L253.841 556.5L253.841 555.5L248.705 555.5L248.705 556.5ZM258.977 556.5L264.114 556.5L264.114 555.5L258.977 555.5L258.977 556.5ZM269.25 556.5L274.386 556.5L274.386 555.5L269.25 555.5L269.25 556.5ZM279.523 556.5L284.659 556.5L284.659 555.5L279.523 555.5L279.523 556.5ZM289.795 556.5L294.932 556.5L294.932 555.5L289.795 555.5L289.795 556.5ZM300.068 556.5L305.205 556.5L305.205 555.5L300.068 555.5L300.068 556.5ZM310.341 556.5L315.477 556.5L315.477 555.5L310.341 555.5L310.341 556.5ZM320.614 556.5L325.75 556.5L325.75 555.5L320.614 555.5L320.614 556.5ZM330.886 556.5L336.023 556.5L336.023 555.5L330.886 555.5L330.886 556.5ZM341.159 556.5L346.295 556.5L346.295 555.5L341.159 555.5L341.159 556.5ZM351.432 556.5L354 556.5L354 555.5L351.432 555.5L351.432 556.5ZM235.667 556C235.667 558.946 238.054 561.333 241 561.333C243.946 561.333 246.333 558.946 246.333 556C246.333 553.054 243.946 550.667 241 550.667C238.054 550.667 235.667 553.054 235.667 556ZM354.707 556.707C355.098 556.317 355.098 555.683 354.707 555.293L348.343 548.929C347.953 548.538 347.319 548.538 346.929 548.929C346.538 549.319 346.538 549.953 346.929 550.343L352.586 556L346.929 561.657C346.538 562.047 346.538 562.681 346.929 563.071C347.319 563.462 347.953 563.462 348.343 563.071L354.707 556.707ZM243.568 557C244.12 557 244.568 556.552 244.568 556C244.568 555.448 244.12 555 243.568 555L243.568 557ZM248.705 555C248.152 555 247.705 555.448 247.705 556C247.705 556.552 248.152 557 248.705 557L248.705 555ZM253.841 557C254.393 557 254.841 556.552 254.841 556C254.841 555.448 254.393 555 253.841 555L253.841 557ZM258.977 555C258.425 555 257.977 555.448 257.977 556C257.977 556.552 258.425 557 258.977 557L258.977 555ZM264.114 557C264.666 557 265.114 556.552 265.114 556C265.114 555.448 264.666 555 264.114 555L264.114 557ZM269.25 555C268.698 555 268.25 555.448 268.25 556C268.25 556.552 268.698 557 269.25 557L269.25 555ZM274.386 557C274.939 557 275.386 556.552 275.386 556C275.386 555.448 274.939 555 274.386 555L274.386 557ZM279.523 555C278.97 555 278.523 555.448 278.523 556C278.523 556.552 278.97 557 279.523 557L279.523 555ZM284.659 557C285.211 557 285.659 556.552 285.659 556C285.659 555.448 285.211 555 284.659 555L284.659 557ZM289.795 555C289.243 555 288.795 555.448 288.795 556C288.795 556.552 289.243 557 289.795 557L289.795 555ZM294.932 557C295.484 557 295.932 556.552 295.932 556C295.932 555.448 295.484 555 294.932 555L294.932 557ZM300.068 555C299.516 555 299.068 555.448 299.068 556C299.068 556.552 299.516 557 300.068 557L300.068 555ZM305.205 557C305.757 557 306.205 556.552 306.205 556C306.205 555.448 305.757 555 305.205 555L305.205 557ZM310.341 555C309.789 555 309.341 555.448 309.341 556C309.341 556.552 309.789 557 310.341 557L310.341 555ZM315.477 557C316.03 557 316.477 556.552 316.477 556C316.477 555.448 316.03 555 315.477 555L315.477 557ZM320.614 555C320.061 555 319.614 555.448 319.614 556C319.614 556.552 320.061 557 320.614 557L320.614 555ZM325.75 557C326.302 557 326.75 556.552 326.75 556C326.75 555.448 326.302 555 325.75 555L325.75 557ZM330.886 555C330.334 555 329.886 555.448 329.886 556C329.886 556.552 330.334 557 330.886 557L330.886 555ZM336.023 557C336.575 557 337.023 556.552 337.023 556C337.023 555.448 336.575 555 336.023 555L336.023 557ZM341.159 555C340.607 555 340.159 555.448 340.159 556C340.159 556.552 340.607 557 341.159 557L341.159 555ZM346.295 557C346.848 557 347.295 556.552 347.295 556C347.295 555.448 346.848 555 346.295 555L346.295 557ZM351.432 555C350.88 555 350.432 555.448 350.432 556C350.432 556.552 350.88 557 351.432 557L351.432 555ZM241 557L243.568 557L243.568 555L241 555L241 557ZM248.705 557L253.841 557L253.841 555L248.705 555L248.705 557ZM258.977 557L264.114 557L264.114 555L258.977 555L258.977 557ZM269.25 557L274.386 557L274.386 555L269.25 555L269.25 557ZM279.523 557L284.659 557L284.659 555L279.523 555L279.523 557ZM289.795 557L294.932 557L294.932 555L289.795 555L289.795 557ZM300.068 557L305.205 557L305.205 555L300.068 555L300.068 557ZM310.341 557L315.477 557L315.477 555L310.341 555L310.341 557ZM320.614 557L325.75 557L325.75 555L320.614 555L320.614 557ZM330.886 557L336.023 557L336.023 555L330.886 555L330.886 557ZM341.159 557L346.295 557L346.295 555L341.159 555L341.159 557ZM351.432 557L354 557L354 555L351.432 555L351.432 557Z" fill="#FFA339"/>
<circle opacity="0.5" cx="241" cy="556" r="16" transform="rotate(-180 241 556)" fill="#FFA339"/>
<defs>
<filter id="filter0_d_2759_25330" x="338" y="380" width="486.359" height="252.25" filterUnits="userSpaceOnUse" color-interpolation-filters="sRGB">
<feFlood flood-opacity="0" result="BackgroundImageFix"/>
<feColorMatrix in="SourceAlpha" type="matrix" values="0 0 0 0 0 0 0 0 0 0 0 0 0 0 0 0 0 0 127 0" result="hardAlpha"/>
<feOffset/>
<feGaussianBlur stdDeviation="8"/>
<feComposite in2="hardAlpha" operator="out"/>
<feColorMatrix type="matrix" values="0 0 0 0 0 0 0 0 0 0 0 0 0 0 0 0 0 0 0.1 0"/>
<feBlend mode="normal" in2="BackgroundImageFix" result="effect1_dropShadow_2759_25330"/>
<feBlend mode="normal" in="SourceGraphic" in2="effect1_dropShadow_2759_25330" result="shape"/>
</filter>
<clipPath id="clip0_2759_25330">
<rect x="8" y="8" width="281.25" height="609" rx="30" fill="white"/>
</clipPath>
</defs>
</svg>
