<svg width="680" height="625" viewBox="0 0 680 625" fill="none" xmlns="http://www.w3.org/2000/svg">
<g clip-path="url(#clip0_2711_38292)">
<rect x="6" y="8" width="281" height="608.459" rx="29.9733" fill="#F2F2F7"/>
<rect width="281" height="32.9707" transform="translate(6 8)" fill="white"/>
<path d="M34.6623 28.2427H34.2946V20.6798H34.2507L32.467 21.8323V21.4262L34.2233 20.2956H34.6623V28.2427ZM38.7143 28.2427H38.3466V20.6798H38.3027L36.519 21.8323V21.4262L38.2752 20.2956H38.7143V28.2427ZM41.2186 27.1285C41.16 27.1285 41.1033 27.1121 41.0484 27.0791C40.9936 27.0462 40.9496 27.0041 40.9167 26.9529C40.8874 26.9017 40.8728 26.845 40.8728 26.7828C40.8728 26.7206 40.8874 26.662 40.9167 26.6072C40.9496 26.5523 40.9936 26.5102 41.0484 26.4809C41.1033 26.448 41.1619 26.4315 41.2241 26.4315C41.2863 26.4315 41.343 26.448 41.3942 26.4809C41.4491 26.5139 41.4912 26.5578 41.5204 26.6126C41.5497 26.6639 41.5643 26.7206 41.5643 26.7828C41.5643 26.845 41.5497 26.9017 41.5204 26.9529C41.4912 27.0041 41.4491 27.0462 41.3942 27.0791C41.3393 27.1121 41.2808 27.1285 41.2186 27.1285ZM41.2186 22.1013C41.16 22.1013 41.1033 22.0848 41.0484 22.0519C40.9936 22.0189 40.9496 21.9769 40.9167 21.9256C40.8874 21.8744 40.8728 21.8177 40.8728 21.7555C40.8728 21.6933 40.8874 21.6348 40.9167 21.5799C40.9496 21.525 40.9936 21.4829 41.0484 21.4537C41.1033 21.4207 41.1619 21.4043 41.2241 21.4043C41.2863 21.4043 41.343 21.4207 41.3942 21.4537C41.4491 21.4866 41.4912 21.5305 41.5204 21.5854C41.5497 21.6366 41.5643 21.6933 41.5643 21.7555C41.5643 21.8177 41.5497 21.8744 41.5204 21.9256C41.4912 21.9769 41.4491 22.0189 41.3942 22.0519C41.3393 22.0848 41.2808 22.1013 41.2186 22.1013ZM45.0291 28.2427H44.6613V20.6798H44.6174L42.8337 21.8323V21.4262L44.59 20.2956H45.0291V28.2427ZM49.081 28.2427H48.7133V20.6798H48.6694L46.8857 21.8323V21.4262L48.642 20.2956H49.081V28.2427Z" fill="black" fill-opacity="0.85"/>
<path d="M222.557 21.1133C222.557 20.6995 222.893 20.364 223.307 20.364H224.056C224.47 20.364 224.805 20.6995 224.805 21.1133V27.108C224.805 27.5218 224.47 27.8573 224.056 27.8573H223.307C222.893 27.8573 222.557 27.5218 222.557 27.108V21.1133Z" fill="black" fill-opacity="0.85"/>
<path d="M226.304 19.6147C226.304 19.2008 226.639 18.8653 227.053 18.8653H227.803C228.216 18.8653 228.552 19.2008 228.552 19.6147V27.108C228.552 27.5218 228.216 27.8573 227.803 27.8573H227.053C226.639 27.8573 226.304 27.5218 226.304 27.108V19.6147Z" fill="black" fill-opacity="0.85"/>
<path d="M218.811 23.736C218.811 23.3221 219.146 22.9867 219.56 22.9867H220.309C220.723 22.9867 221.059 23.3221 221.059 23.736V27.108C221.059 27.5218 220.723 27.8573 220.309 27.8573H219.56C219.146 27.8573 218.811 27.5218 218.811 27.108V23.736Z" fill="black" fill-opacity="0.85"/>
<path d="M215.064 25.6093C215.064 25.1955 215.399 24.86 215.813 24.86H216.563C216.976 24.86 217.312 25.1955 217.312 25.6093V27.108C217.312 27.5218 216.976 27.8573 216.563 27.8573H215.813C215.399 27.8573 215.064 27.5218 215.064 27.108V25.6093Z" fill="black" fill-opacity="0.85"/>
<path fill-rule="evenodd" clip-rule="evenodd" d="M240.167 20.8664C242.015 20.8665 243.793 21.5914 245.132 22.8913C245.233 22.9917 245.395 22.9904 245.494 22.8885L246.458 21.8952C246.508 21.8435 246.536 21.7735 246.536 21.7006C246.536 21.6277 246.507 21.5581 246.456 21.507C242.94 18.0677 237.393 18.0677 233.878 21.507C233.827 21.558 233.798 21.6277 233.797 21.7006C233.797 21.7734 233.825 21.8435 233.875 21.8952L234.84 22.8885C234.939 22.9906 235.1 22.9919 235.201 22.8913C236.541 21.5913 238.319 20.8664 240.167 20.8664ZM240.194 23.8651C241.209 23.8651 242.188 24.2504 242.941 24.9461C243.043 25.0449 243.203 25.0428 243.303 24.9413L244.266 23.948C244.316 23.8959 244.345 23.8252 244.344 23.7518C244.343 23.6783 244.313 23.6083 244.262 23.5572C241.969 21.3807 238.42 21.3807 236.127 23.5572C236.076 23.6083 236.046 23.6784 236.045 23.7518C236.045 23.8253 236.073 23.896 236.124 23.948L237.087 24.9413C237.186 25.0428 237.346 25.0449 237.448 24.9461C238.2 24.2508 239.179 23.8656 240.194 23.8651ZM242.152 25.8039C242.154 25.8776 242.125 25.9486 242.074 26.0002L240.408 27.7163C240.359 27.7668 240.292 27.7952 240.223 27.7952C240.153 27.7952 240.087 27.7668 240.038 27.7163L238.372 26.0002C238.32 25.9486 238.292 25.8775 238.293 25.8039C238.295 25.7302 238.326 25.6605 238.38 25.6111C239.444 24.6925 241.002 24.6925 242.066 25.6111C242.119 25.6605 242.151 25.7303 242.152 25.8039Z" fill="black" fill-opacity="0.85"/>
<path opacity="0.35" d="M254.779 18.8653H267.517C268.966 18.8653 270.14 20.0395 270.14 21.488V25.2347C270.14 26.6831 268.966 27.8573 267.517 27.8573H254.779C253.33 27.8573 252.156 26.6831 252.156 25.2347V21.488C252.156 20.0395 253.33 18.8653 254.779 18.8653Z" stroke="black" stroke-opacity="0.85" stroke-width="0.749333"/>
<path opacity="0.4" d="M271.264 22.2373V25.3998C271.9 25.1319 272.314 24.5089 272.314 23.8186C272.314 23.1282 271.9 22.5052 271.264 22.2373" fill="black" fill-opacity="0.85"/>
<path d="M253.28 21.488C253.28 20.6603 253.951 19.9893 254.779 19.9893H267.517C268.345 19.9893 269.016 20.6603 269.016 21.488V25.2347C269.016 26.0624 268.345 26.7333 267.517 26.7333H254.779C253.951 26.7333 253.28 26.0624 253.28 25.2347V21.488Z" fill="black" fill-opacity="0.85"/>
<rect width="281" height="23.9787" transform="translate(6 592.48)" fill="white"/>
<rect x="95.9199" y="606.717" width="100.411" height="3.74667" rx="1.87333" fill="black" fill-opacity="0.85"/>
<rect width="281" height="31.472" transform="translate(5.12524 40.9707)" fill="white"/>
<path d="M29.8545 49.9514C29.4873 49.5842 28.8953 49.5842 28.5282 49.9514L22.3012 56.1784C22.009 56.4706 22.009 56.9427 22.3012 57.2349L28.5282 63.4619C28.8953 63.8291 29.4873 63.8291 29.8545 63.4619C30.2217 63.0947 30.2217 62.5028 29.8545 62.1356L24.4293 56.7029L29.862 51.2702C30.2217 50.9106 30.2217 50.3111 29.8545 49.9514Z" fill="black"/>
<path d="M129.833 50.2473V59.4791H128.064V55.3727H127.015V58.49H125.277V50.4571H127.015V53.8441H128.064V50.2473H129.833ZM118.323 53.0948V51.6561H120.661V50.3672H122.519V51.6561H124.857V53.0948H118.323ZM118.713 55.9422C118.728 54.5185 119.942 53.5743 121.59 53.5743C123.299 53.5743 124.513 54.5185 124.528 55.9422C124.513 57.366 123.299 58.3401 121.59 58.3401C119.942 58.3401 118.728 57.366 118.713 55.9422ZM119.942 62.0868C122.864 61.7721 124.273 60.4682 124.288 59.2393V58.9695H126.146V59.2393C126.131 60.4682 127.54 61.7721 130.462 62.0868L129.803 63.4955C127.63 63.2557 126.041 62.4315 125.217 61.2625C124.378 62.4315 122.774 63.2557 120.601 63.4955L119.942 62.0868ZM120.391 55.9422C120.391 56.6166 120.886 56.9763 121.59 56.9613C122.339 56.9763 122.834 56.6166 122.819 55.9422C122.834 55.2978 122.339 54.9231 121.59 54.9231C120.886 54.9231 120.391 55.2978 120.391 55.9422ZM136.221 51.5362C136.221 53.1697 137.165 54.6834 139.278 55.2828L138.349 56.7215C136.88 56.2869 135.891 55.4027 135.307 54.2637C134.722 55.5676 133.658 56.5717 132.085 57.0812L131.156 55.5826C133.359 54.9082 134.348 53.3046 134.363 51.5362V50.6969H136.221V51.5362ZM133.074 59.0295V57.5908H141.916V61.1576H134.932V61.9969H142.306V63.4655H133.104V59.8088H140.058V59.0295H133.074ZM140.028 57.0812V50.2173H141.916V52.825H143.714V54.3537H141.916V57.0812H140.028ZM154.695 51.5062C154.68 55.6125 153.691 59.0445 148.701 61.5473L147.682 60.1385C149.915 59.0295 151.234 57.7856 151.983 56.3019L148.041 56.6916L147.832 55.073L152.552 54.7883C152.687 54.2338 152.777 53.6343 152.822 53.0049H148.521V51.5062H154.695ZM156.374 63.5255V50.2173H158.262V55.3428H160.151V56.8714H158.262V63.5255H156.374ZM171.544 56.3918V57.8905H162.133V51.3563H171.454V52.855H163.991V56.3918H171.544ZM160.694 61.9369V60.4083H172.893V61.9369H160.694Z" fill="black"/>
<rect width="281" height="363.427" transform="translate(6 253.032)" fill="white"/>
<path d="M36.2251 274.034V275.581C36.2071 277.541 36.2071 279.735 35.6137 282.954L33.4196 282.774C33.9412 279.843 33.9591 277.703 33.9591 275.833H24.3917V274.034H36.2251ZM22.9529 286.695V284.861H26.0462V279.825H28.3122V284.861H30.0746V279.825H32.2686V284.861H37.5559V286.695H22.9529ZM51.2644 272.631V277.883H53.3146V279.753H51.2644V285.112H49.0344V272.631H51.2644ZM38.3159 281.839C39.4669 281.839 40.7977 281.821 42.2005 281.785V280.868C40.474 280.616 39.3949 279.753 39.3949 278.494C39.3949 276.912 40.9416 275.994 43.3155 276.012C45.6714 275.994 47.218 276.912 47.236 278.494C47.218 279.753 46.1389 280.616 44.4305 280.868V281.677C45.7433 281.605 47.0561 281.48 48.279 281.3L48.4589 282.846C45.0959 283.494 41.3013 283.53 38.5677 283.566L38.3159 281.839ZM38.7475 275.545V273.962H42.2005V272.595H44.4305V273.962H47.8834V275.545H38.7475ZM40.5819 288.349V284.285H42.8119V286.551H51.8399V288.349H40.5819ZM41.553 278.494C41.535 279.088 42.1825 279.429 43.3155 279.429C44.4305 279.429 45.0779 279.088 45.0779 278.494C45.0779 277.829 44.4305 277.487 43.3155 277.487C42.1825 277.487 41.535 277.829 41.553 278.494ZM71.9591 272.631V288.637H69.8369V280.652H68.3263V287.846H66.2042V272.919H68.3263V278.818H69.8369V272.631H71.9591ZM58.8307 284.753V274.43H61.0967V282.774C62.3736 282.738 63.7763 282.631 65.305 282.343L65.5567 284.249C63.4167 284.627 61.5823 284.735 59.9098 284.753H58.8307ZM87.2141 282.81V288.637H84.9841V284.573H76.2079V282.81H87.2141ZM73.9419 277.415C73.9239 275.149 75.7763 273.495 78.1862 273.495C79.481 273.495 80.614 273.98 81.3873 274.79H84.9841V272.631H87.2141V282.091H84.9841V280.077H81.3873C80.614 280.904 79.481 281.39 78.1862 281.408C75.7763 281.39 73.9239 279.735 73.9419 277.415ZM76.064 277.415C76.064 278.728 76.9453 279.483 78.1862 279.501C79.3731 279.483 80.2723 278.728 80.2723 277.415C80.2723 276.174 79.3731 275.401 78.1862 275.401C76.9453 275.401 76.064 276.174 76.064 277.415ZM82.3225 278.278H84.9841V276.588H82.3405C82.3944 276.858 82.4304 277.127 82.4304 277.415C82.4304 277.721 82.3944 278.009 82.3225 278.278Z" fill="black"/>
<rect width="281" height="35.968" transform="translate(6 293.019)" fill="white"/>
<g clip-path="url(#clip1_2711_38292)">
<rect x="17.9893" y="299.013" width="69.9874" height="23.9787" rx="8.992" fill="#F2F2F7"/>
<path d="M35.6143 314.28V315.191H25.9988V314.28H30.2191V312.122H27.1018V306.726H28.2049V308.525H33.3603V306.726H34.4633V312.122H31.3221V314.28H35.6143ZM28.2049 311.234H33.3603V309.436H28.2049V311.234ZM45.3047 306.007V313.776H44.2497V309.94H42.9548V313.464H41.8998V306.199H42.9548V309.028H44.2497V306.007H45.3047ZM36.8643 311.714V306.894H37.9673V310.803C39.0223 310.791 40.0174 310.707 41.1804 310.491L41.3003 311.402C39.9335 311.666 38.7825 311.714 37.5357 311.714H36.8643ZM38.327 316.198V312.721H39.43V315.287H45.6165V316.198H38.327ZM58.6417 306.007V316.486H57.5626V311.139H56.2198V315.958H55.1887V306.223H56.2198V310.203H57.5626V306.007H58.6417ZM50.1532 313.824V307.254H51.2562V312.841C52.2274 312.841 53.2824 312.757 54.4694 312.529L54.5893 313.488C53.1505 313.764 51.9516 313.836 50.8246 313.824H50.1532ZM68.7637 312.745V316.486H67.6607V313.608H61.6421V312.745H68.7637ZM60.1794 309.124C60.1674 307.638 61.3424 306.583 62.913 306.583C63.8002 306.583 64.5555 306.93 65.0471 307.494H67.6607V306.007H68.7637V312.194H67.6607V310.755H65.0471C64.5555 311.318 63.8002 311.666 62.913 311.666C61.3424 311.666 60.1674 310.611 60.1794 309.124ZM61.2344 309.124C61.2225 310.083 61.9298 310.719 62.913 310.731C63.8601 310.719 64.5795 310.083 64.5915 309.124C64.5795 308.189 63.8601 307.53 62.913 307.542C61.9298 307.53 61.2225 308.189 61.2344 309.124ZM65.5386 309.844H67.6607V308.405H65.5386C65.6106 308.633 65.6465 308.873 65.6465 309.124C65.6465 309.376 65.6106 309.616 65.5386 309.844ZM75.6967 306.918V311.834H70.781V306.918H75.6967ZM71.8601 310.947H74.5937V307.829H71.8601V310.947ZM71.98 316.27V312.937H73.083V315.383H79.0777V316.27H71.98ZM77.5191 313.68V306.007H78.6221V309.148H80.1327V310.06H78.6221V313.68H77.5191Z" fill="#8E8E93"/>
<rect x="93.9714" y="299.013" width="69.9874" height="23.9787" rx="8.992" fill="#F2F2F7"/>
<path d="M110.23 306.007V308.477H111.74V309.412H110.23V312.146H109.127V306.007H110.23ZM102.389 311.522V306.607H103.492V308.117H106.225V306.607H107.328V311.522H102.389ZM103.492 310.635H106.225V309.004H103.492V310.635ZM103.54 316.342V312.673H110.302V313.56H104.667V315.455H110.493V316.342H103.54ZM121.91 311.474V312.385H112.343V311.474H121.91ZM113.374 308.453C113.374 307.134 114.837 306.355 117.115 306.367C119.393 306.355 120.867 307.134 120.855 308.453C120.867 309.784 119.393 310.575 117.115 310.587C114.837 310.575 113.374 309.784 113.374 308.453ZM113.566 316.27V313.225H114.669V315.383H120.831V316.27H113.566ZM114.525 308.453C114.513 309.232 115.52 309.676 117.115 309.676C118.733 309.676 119.728 309.232 119.728 308.453C119.728 307.698 118.733 307.254 117.115 307.254C115.52 307.254 114.513 307.698 114.525 308.453ZM134.624 306.007V316.486H133.545V311.139H132.202V315.958H131.171V306.223H132.202V310.203H133.545V306.007H134.624ZM126.135 313.824V307.254H127.238V312.841C128.21 312.841 129.265 312.757 130.452 312.529L130.571 313.488C129.133 313.764 127.934 313.836 126.807 313.824H126.135ZM144.746 312.745V316.486H143.643V313.608H137.624V312.745H144.746ZM136.162 309.124C136.15 307.638 137.325 306.583 138.895 306.583C139.782 306.583 140.538 306.93 141.029 307.494H143.643V306.007H144.746V312.194H143.643V310.755H141.029C140.538 311.318 139.782 311.666 138.895 311.666C137.325 311.666 136.15 310.611 136.162 309.124ZM137.217 309.124C137.205 310.083 137.912 310.719 138.895 310.731C139.842 310.719 140.562 310.083 140.574 309.124C140.562 308.189 139.842 307.53 138.895 307.542C137.912 307.53 137.205 308.189 137.217 309.124ZM141.521 309.844H143.643V308.405H141.521C141.593 308.633 141.629 308.873 141.629 309.124C141.629 309.376 141.593 309.616 141.521 309.844ZM151.679 306.918V311.834H146.763V306.918H151.679ZM147.842 310.947H150.576V307.829H147.842V310.947ZM147.962 316.27V312.937H149.065V315.383H155.06V316.27H147.962ZM153.501 313.68V306.007H154.604V309.148H156.115V310.06H154.604V313.68H153.501Z" fill="#8E8E93"/>
</g>
<rect width="281" height="60.4613" transform="translate(6 328.987)" fill="white"/>
<rect x="17.9893" y="340.976" width="23.9787" height="23.9787" rx="11.9893" fill="#F2F2F7"/>
<path d="M29.9786 357.911C32.7099 357.911 34.9242 355.697 34.9242 352.965C34.9242 350.234 32.7099 348.02 29.9786 348.02C27.2472 348.02 25.033 350.234 25.033 352.965C25.033 355.697 27.2472 357.911 29.9786 357.911Z" fill="#FFA339"/>
<path d="M25.0902 349.707C25.9902 349.707 26.7198 348.978 26.7198 348.078C26.7198 347.178 25.9902 346.448 25.0902 346.448C24.1903 346.448 23.4607 347.178 23.4607 348.078C23.4607 348.978 24.1903 349.707 25.0902 349.707Z" fill="#FFA339"/>
<path d="M23.0658 354.595C23.9658 354.595 24.6954 353.865 24.6954 352.965C24.6954 352.065 23.9658 351.336 23.0658 351.336C22.1659 351.336 21.4363 352.065 21.4363 352.965C21.4363 353.865 22.1659 354.595 23.0658 354.595Z" fill="#FFA339"/>
<path d="M25.0902 359.484C25.9902 359.484 26.7198 358.754 26.7198 357.854C26.7198 356.954 25.9902 356.224 25.0902 356.224C24.1903 356.224 23.4607 356.954 23.4607 357.854C23.4607 358.754 24.1903 359.484 25.0902 359.484Z" fill="#FFA339"/>
<path d="M29.9787 361.508C30.8786 361.508 31.6082 360.778 31.6082 359.878C31.6082 358.978 30.8786 358.249 29.9787 358.249C29.0787 358.249 28.3491 358.978 28.3491 359.878C28.3491 360.778 29.0787 361.508 29.9787 361.508Z" fill="#FFA339"/>
<path d="M34.8673 359.484C35.7673 359.484 36.4969 358.754 36.4969 357.854C36.4969 356.954 35.7673 356.224 34.8673 356.224C33.9674 356.224 33.2378 356.954 33.2378 357.854C33.2378 358.754 33.9674 359.484 34.8673 359.484Z" fill="#FFA339"/>
<path d="M36.8915 354.595C37.7915 354.595 38.5211 353.865 38.5211 352.965C38.5211 352.065 37.7915 351.336 36.8915 351.336C35.9915 351.336 35.262 352.065 35.262 352.965C35.262 353.865 35.9915 354.595 36.8915 354.595Z" fill="#FFA339"/>
<path d="M34.8673 349.707C35.7673 349.707 36.4969 348.978 36.4969 348.078C36.4969 347.178 35.7673 346.448 34.8673 346.448C33.9674 346.448 33.2378 347.178 33.2378 348.078C33.2378 348.978 33.9674 349.707 34.8673 349.707Z" fill="#FFA339"/>
<path d="M29.9787 347.682C30.8786 347.682 31.6082 346.952 31.6082 346.052C31.6082 345.153 30.8786 344.423 29.9787 344.423C29.0787 344.423 28.3491 345.153 28.3491 346.052C28.3491 346.952 29.0787 347.682 29.9787 347.682Z" fill="#FFA339"/>
<path d="M27.2751 348.507C27.2751 348.507 26.32 349.567 25.9183 350.276C25.5167 350.984 23.8941 351.456 23.7412 351.875C23.5994 352.266 24.2568 352.017 24.2568 352.017C24.2568 352.017 26.265 351.368 26.7016 350.868C27.1382 350.369 28.555 348.153 27.9795 347.822C27.6917 347.656 27.2751 348.508 27.2751 348.508V348.507Z" fill="#3582B7"/>
<path d="M30.6958 348.38L25.2856 351.025C25.1338 351.099 24.9649 350.993 24.9539 350.815C24.895 349.853 25.0099 348.307 26.8612 347.314C29.1082 346.108 30.5939 347.467 30.8247 348.027C30.8797 348.16 30.8217 348.319 30.6958 348.38Z" fill="#E54142"/>
<mask id="mask0_2711_38292" style="mask-type:luminance" maskUnits="userSpaceOnUse" x="24" y="346" width="7" height="6">
<path d="M30.6958 348.38L25.2856 351.025C25.1338 351.099 24.9649 350.993 24.9539 350.815C24.895 349.853 25.0099 348.307 26.8612 347.314C29.1082 346.108 30.5939 347.467 30.8247 348.027C30.8797 348.16 30.8217 348.319 30.6958 348.38Z" fill="white"/>
</mask>
<g mask="url(#mask0_2711_38292)">
<path d="M31.7359 348.68L28.8995 350.032L26.8203 347.084L28.349 346.052L30.8297 347.073L31.7359 348.68Z" fill="#3582B7"/>
</g>
<mask id="mask1_2711_38292" style="mask-type:luminance" maskUnits="userSpaceOnUse" x="24" y="346" width="7" height="6">
<path d="M30.6958 348.38L25.2856 351.025C25.1338 351.099 24.9649 350.993 24.9539 350.815C24.895 349.853 25.0099 348.307 26.8612 347.314C29.1082 346.108 30.5939 347.467 30.8247 348.027C30.8797 348.16 30.8217 348.319 30.6958 348.38Z" fill="white"/>
</mask>
<g mask="url(#mask1_2711_38292)">
<path d="M26.8613 347.313C26.8613 347.313 26.123 348.078 26.6715 349.793C27.22 351.509 29.8686 349.899 29.8686 349.899C29.8686 349.899 28.2661 346.801 26.8613 347.312V347.313Z" fill="#FED600"/>
</g>
<path d="M27.1681 347.124C27.21 347.208 27.0942 347.271 26.9483 347.342C26.8024 347.413 26.6825 347.467 26.6406 347.383C26.5986 347.299 26.6755 347.155 26.8204 347.084C26.9653 347.012 27.1261 347.039 27.1681 347.124Z" fill="#3582B7"/>
<path d="M28.5401 352.641C28.7387 352.641 28.8998 352.319 28.8998 351.921C28.8998 351.524 28.7387 351.202 28.5401 351.202C28.3415 351.202 28.1804 351.524 28.1804 351.921C28.1804 352.319 28.3415 352.641 28.5401 352.641Z" fill="#282828"/>
<path d="M31.4175 352.641C31.6162 352.641 31.7772 352.319 31.7772 351.921C31.7772 351.524 31.6162 351.202 31.4175 351.202C31.2189 351.202 31.0579 351.524 31.0579 351.921C31.0579 352.319 31.2189 352.641 31.4175 352.641Z" fill="#282828"/>
<path d="M29.1245 354.228C28.8468 353.907 28.6729 353.497 28.646 353.352C28.619 353.207 28.6589 353.039 28.7838 353.039C28.9817 353.038 29.4782 353.197 30.0287 353.185C30.6881 353.171 31.1357 353.058 31.1357 353.058C31.2646 353.04 31.3196 353.107 31.3186 353.216C31.3136 353.663 30.9919 354.115 30.9209 354.209C30.6851 354.522 29.9598 355.195 29.1235 354.229L29.1245 354.228Z" fill="#E54142"/>
<path d="M58.7651 344.385V355.055H57.2785V349.708H55.1444V348.485H57.2785V344.385H58.7651ZM49.6772 352.034C52.3748 350.703 53.4898 349.012 53.7056 346.686H50.1808V345.512H55.2163C55.2043 348.725 54.1612 351.362 50.4446 353.209L49.6772 352.034ZM64.4752 345.44V349.54H61.8855V351.446C62.8806 351.434 63.8517 351.398 64.9547 351.218L65.0506 352.417C63.6479 352.645 62.4969 352.693 61.1901 352.705H60.4467V348.341H63.0364V346.639H60.4228V345.44H64.4752ZM65.5302 354.528V344.576H66.921V348.437H67.9281V344.385H69.3428V355.055H67.9281V349.636H66.921V354.528H65.5302ZM82.4439 344.385V355.055H81.0292V349.732H80.022V354.528H78.6073V344.576H80.022V348.509H81.0292V344.385H82.4439ZM73.6917 352.465V345.583H75.2023V351.147C76.0536 351.123 76.9887 351.051 78.0078 350.859L78.1757 352.13C76.749 352.381 75.526 352.453 74.411 352.465H73.6917ZM93.3573 349.444V350.643H83.6219V349.444H85.828V348.173C85.0367 347.837 84.5931 347.298 84.6051 346.615C84.5931 345.32 86.1157 344.552 88.4896 344.552C90.8395 344.552 92.3502 345.32 92.3502 346.615C92.3502 347.31 91.8946 347.849 91.1033 348.185V349.444H93.3573ZM84.7489 353.113C84.7369 351.878 86.1397 351.194 88.4656 351.194C90.7796 351.194 92.1703 351.878 92.1823 353.113C92.1703 354.372 90.7796 355.043 88.4656 355.031C86.1397 355.043 84.7369 354.372 84.7489 353.113ZM86.1637 346.615C86.1397 347.202 86.979 347.49 88.4896 347.502C89.9643 347.49 90.8155 347.202 90.8155 346.615C90.8155 346.015 89.9643 345.703 88.4896 345.703C86.979 345.703 86.1397 346.015 86.1637 346.615ZM86.2596 353.113C86.2476 353.652 86.9909 353.928 88.4656 353.928C89.9163 353.928 90.6837 353.652 90.6956 353.113C90.6837 352.585 89.9163 352.333 88.4656 352.321C86.9909 352.333 86.2476 352.585 86.2596 353.113ZM87.3147 349.444H89.6166V348.557C89.2689 348.605 88.8853 348.629 88.4896 348.629C88.07 348.629 87.6743 348.605 87.3147 348.557V349.444Z" fill="#8E8E93"/>
<path d="M248.78 352.566C247.315 352.566 246.451 351.379 246.442 349.293C246.451 347.234 247.324 346.029 248.78 346.038C250.246 346.029 251.118 347.234 251.118 349.293C251.118 351.379 250.255 352.566 248.78 352.566ZM247.414 349.293C247.414 350.884 247.926 351.73 248.78 351.739C249.644 351.73 250.156 350.884 250.147 349.293C250.156 347.719 249.635 346.847 248.78 346.847C247.935 346.847 247.414 347.719 247.414 349.293ZM258.386 345.354V349.976H257.541V349.599H256.012V349.077H257.541V345.354H258.386ZM251.822 348.268C253.35 348.268 255.275 348.25 256.965 348.07L257.019 348.609C256.273 348.708 255.508 348.771 254.753 348.807V349.994H253.926V348.843C253.215 348.861 252.532 348.861 251.912 348.861L251.822 348.268ZM252.415 346.685C252.406 345.957 253.188 345.498 254.375 345.498C255.553 345.498 256.336 345.957 256.336 346.685C256.336 347.414 255.553 347.854 254.375 347.854C253.188 347.854 252.406 347.414 252.415 346.685ZM253.009 350.821V350.246H258.386V351.936H253.854V352.548H258.62V353.141H253.027V351.379H257.558V350.821H253.009ZM253.188 346.685C253.188 347.054 253.656 347.297 254.375 347.297C255.095 347.297 255.562 347.054 255.562 346.685C255.562 346.307 255.095 346.056 254.375 346.056C253.656 346.056 253.188 346.307 253.188 346.685ZM264.288 352.566C262.822 352.566 261.959 351.379 261.95 349.293C261.959 347.234 262.831 346.029 264.288 346.038C265.754 346.029 266.626 347.234 266.626 349.293C266.626 351.379 265.763 352.566 264.288 352.566ZM262.921 349.293C262.921 350.884 263.434 351.73 264.288 351.739C265.151 351.73 265.664 350.884 265.655 349.293C265.664 347.719 265.142 346.847 264.288 346.847C263.443 346.847 262.921 347.719 262.921 349.293ZM269.577 345.624C270.764 345.624 271.636 346.352 271.645 347.387C271.636 348.421 270.764 349.14 269.577 349.131C268.381 349.14 267.509 348.421 267.509 347.387C267.509 346.352 268.381 345.624 269.577 345.624ZM268.318 347.387C268.318 348.034 268.858 348.457 269.577 348.466C270.297 348.457 270.836 348.034 270.836 347.387C270.836 346.748 270.297 346.316 269.577 346.325C268.858 346.316 268.318 346.748 268.318 347.387ZM268.696 350.39V349.724H273.875V351.703H269.541V352.458H274.127V353.123H268.732V351.073H273.048V350.39H268.696ZM273.048 349.365V345.354H273.875V349.365H273.048Z" fill="#8E8E93"/>
<path d="M54.0893 369.918V371.285H50.2287V369.918H54.0893ZM55.2962 374.091V372.82L58.3175 370.014C59.1208 369.259 59.5404 368.791 59.5404 368.12C59.5404 367.365 58.9769 366.897 58.1976 366.897C57.4063 366.897 56.8788 367.401 56.8788 368.216H55.2003C55.2003 366.561 56.4352 365.494 58.2216 365.506C60.032 365.494 61.2429 366.525 61.2429 368C61.2429 368.971 60.7753 369.763 59.0129 371.333L57.742 372.58V372.652H61.3628V374.091H55.2962ZM65.899 374.211C63.7769 374.211 62.494 372.628 62.494 369.846C62.494 367.077 63.7889 365.494 65.899 365.506C68.0091 365.494 69.304 367.089 69.304 369.846C69.304 372.64 68.0211 374.211 65.899 374.211ZM64.2924 369.846C64.2804 371.813 64.9159 372.748 65.899 372.748C66.8821 372.748 67.5175 371.813 67.5056 369.846C67.5056 367.916 66.8821 366.945 65.899 366.945C64.9279 366.945 64.2924 367.916 64.2924 369.846ZM82.0921 364.523V371.909H80.6773V368.624H79.8381V371.117H78.4473V364.691H79.8381V367.401H80.6773V364.523H82.0921ZM72.8843 366.801V365.65H74.7546V364.619H76.2413V365.65H78.1116V366.801H72.8843ZM73.196 369.079C73.208 367.94 74.1791 367.185 75.4979 367.185C76.8647 367.185 77.8359 367.94 77.8479 369.079C77.8359 370.218 76.8647 370.997 75.4979 370.997C74.1791 370.997 73.208 370.218 73.196 369.079ZM74.1791 373.995C76.517 373.743 77.644 372.7 77.656 371.717V371.501H79.1427V371.717C79.1307 372.7 80.2577 373.743 82.5956 373.995L82.0681 375.122C80.3296 374.93 79.0588 374.271 78.3994 373.335C77.728 374.271 76.4451 374.93 74.7067 375.122L74.1791 373.995ZM74.5388 369.079C74.5388 369.619 74.9344 369.906 75.4979 369.894C76.0974 369.906 76.4931 369.619 76.4811 369.079C76.4931 368.564 76.0974 368.264 75.4979 368.264C74.9344 368.264 74.5388 368.564 74.5388 369.079ZM87.2026 365.554C87.2026 366.861 87.958 368.072 89.6485 368.552L88.9051 369.703C87.7302 369.355 86.9389 368.648 86.4713 367.736C86.0037 368.779 85.1525 369.583 83.8936 369.99L83.1502 368.791C84.9127 368.252 85.704 366.969 85.716 365.554V364.883H87.2026V365.554ZM84.6849 371.549V370.398H91.7586V373.251H86.1715V373.923H92.0703V375.098H84.7088V372.172H90.2719V371.549H84.6849ZM90.2479 369.99V364.499H91.7586V366.585H93.1973V367.808H91.7586V369.99H90.2479Z" fill="#042D53"/>
<path d="M209.284 366.705C209.284 368.084 210.219 369.367 211.825 369.918L211.226 370.734C210.063 370.326 209.188 369.511 208.732 368.48C208.276 369.643 207.365 370.566 206.118 371.021L205.543 370.134C207.173 369.559 208.157 368.168 208.181 366.705V366.37H205.879V365.458H211.538V366.37H209.284V366.705ZM207.221 374.858V371.573H208.324V373.971H214.319V374.858H207.221ZM212.76 372.268V364.595H213.863V367.76H215.374V368.671H213.863V372.268H212.76ZM218.47 365.243C219.861 365.243 220.88 366.274 220.892 367.76C220.88 369.235 219.861 370.242 218.47 370.23C217.068 370.242 216.061 369.235 216.073 367.76C216.061 366.274 217.068 365.243 218.47 365.243ZM217.08 367.76C217.068 368.671 217.655 369.307 218.47 369.295C219.274 369.307 219.873 368.671 219.885 367.76C219.873 366.825 219.274 366.202 218.47 366.202C217.655 366.202 217.068 366.825 217.08 367.76ZM217.799 372.292V371.405H224.921V375.074H223.818V372.292H217.799ZM221.612 370.782V364.787H222.667V367.257H223.866V364.595H224.921V370.854H223.866V368.144H222.667V370.782H221.612ZM232.647 374.211C230.884 374.211 229.637 373.263 229.577 371.885H230.896C230.944 372.616 231.675 373.096 232.623 373.108C233.654 373.096 234.397 372.532 234.397 371.717C234.397 370.878 233.702 370.278 232.479 370.278H231.759V369.223H232.479C233.45 369.223 234.133 368.683 234.133 367.88C234.133 367.101 233.546 366.573 232.647 366.585C231.795 366.573 231.04 367.053 231.016 367.808H229.769C229.805 366.429 231.076 365.494 232.671 365.506C234.325 365.494 235.38 366.549 235.38 367.808C235.38 368.767 234.781 369.463 233.87 369.679V369.751C235.021 369.906 235.704 370.686 235.692 371.765C235.704 373.179 234.397 374.211 232.647 374.211ZM240.056 374.211C238.102 374.211 236.951 372.628 236.939 369.846C236.951 367.101 238.114 365.494 240.056 365.506C242.011 365.494 243.174 367.101 243.174 369.846C243.174 372.628 242.023 374.211 240.056 374.211ZM238.234 369.846C238.234 371.969 238.917 373.096 240.056 373.108C241.207 373.096 241.891 371.969 241.879 369.846C241.891 367.748 241.195 366.585 240.056 366.585C238.929 366.585 238.234 367.748 238.234 369.846ZM247.444 374.211C245.49 374.211 244.339 372.628 244.327 369.846C244.339 367.101 245.502 365.494 247.444 365.506C249.399 365.494 250.561 367.101 250.561 369.846C250.561 372.628 249.411 374.211 247.444 374.211ZM245.622 369.846C245.622 371.969 246.305 373.096 247.444 373.108C248.595 373.096 249.279 371.969 249.267 369.846C249.279 367.748 248.583 366.585 247.444 366.585C246.317 366.585 245.622 367.748 245.622 369.846ZM263.394 364.595V371.933H262.339V368.432H261.164V371.093H260.109V364.787H261.164V367.521H262.339V364.595H263.394ZM254.402 366.729V365.842H256.512V364.691H257.615V365.842H259.702V366.729H254.402ZM254.81 369.079C254.798 367.952 255.745 367.221 257.064 367.233C258.395 367.221 259.318 367.952 259.318 369.079C259.318 370.194 258.395 370.937 257.064 370.949C255.745 370.937 254.798 370.194 254.81 369.079ZM255.721 374.187C257.735 373.959 259.282 372.928 259.294 371.741V371.501H260.397V371.741C260.397 372.928 261.956 373.959 263.97 374.187L263.562 375.026C261.92 374.822 260.505 374.115 259.845 373.084C259.186 374.115 257.771 374.822 256.105 375.026L255.721 374.187ZM255.793 369.079C255.793 369.715 256.309 370.11 257.064 370.086C257.807 370.11 258.323 369.715 258.311 369.079C258.323 368.444 257.807 368.048 257.064 368.048C256.309 368.048 255.793 368.444 255.793 369.079ZM268.457 365.722C268.445 367.101 269.404 368.324 270.975 368.791L270.399 369.655C269.236 369.283 268.373 368.504 267.917 367.497C267.462 368.648 266.539 369.535 265.292 369.966L264.74 369.079C266.371 368.54 267.342 367.245 267.354 365.746V364.955H268.457V365.722ZM266.275 371.381V370.494H273.061V373.108H267.402V374.091H273.42V374.978H266.299V372.268H271.958V371.381H266.275ZM271.958 370.038V364.595H273.061V366.801H274.571V367.736H273.061V370.038H271.958Z" fill="#8E8E93"/>
<rect width="281" height="60.4613" transform="translate(6 389.448)" fill="white"/>
<rect x="17.9893" y="401.437" width="23.9787" height="23.9787" rx="11.9893" fill="#F2F2F7"/>
<path d="M24.6907 412.217H35.2676C36.7894 412.217 38.0251 413.453 38.0251 414.975V420.736H21.9331V414.975C21.9331 413.453 23.1688 412.217 24.6907 412.217Z" fill="#013753"/>
<path d="M34.2979 414.495V410.165H32.5332V407.612L29.9786 406.538L27.424 407.612V410.165H25.6593V414.495L22.8796 415.598V420.736H37.0775V415.598L34.2979 414.495Z" fill="#7D91A0"/>
<path d="M27.5964 416.003H32.3617C32.8749 416.003 33.2924 416.42 33.2924 416.934V420.736H26.6667V416.934C26.6667 416.421 27.0832 416.003 27.5975 416.003H27.5964Z" fill="#013753"/>
<path d="M28.5588 412.217H27.6123V414.11H28.5588V412.217Z" fill="#013753"/>
<path d="M30.4519 412.217H29.5054V414.11H30.4519V412.217Z" fill="#013753"/>
<path d="M32.345 412.217H31.3984V414.11H32.345V412.217Z" fill="#013753"/>
<path d="M30.4519 415.057H29.5054V420.736H30.4519V415.057Z" fill="#7D91A0"/>
<path d="M50.6604 416.284V405.781H53.8975V407.1H52.3389V414.965H53.8975V416.284H50.6604ZM63.4128 404.846V415.516H61.9021V404.846H63.4128ZM54.4927 412.495C57.2383 411.188 58.4492 409.51 58.689 407.148H55.0442V405.973H60.1997C60.2116 409.198 59.0727 411.896 55.26 413.694L54.4927 412.495ZM70.7773 405.637V406.309C70.7773 407.04 70.7773 408.095 70.5375 409.426L69.0749 409.282C69.2667 408.263 69.3146 407.496 69.3266 406.86H65.3102V405.637H70.7773ZM64.6628 410.193C65.2622 410.193 65.9456 410.193 66.653 410.181V408.083H68.1397V410.133C69.1947 410.085 70.2858 410.001 71.2809 409.857L71.3768 410.936C69.1468 411.344 66.653 411.38 64.8066 411.392L64.6628 410.193ZM66.2454 415.325V412.111H67.732V414.126H73.7267V415.325H66.2454ZM71.8564 412.831V404.846H73.391V408.107H74.6859V409.354H73.391V412.831H71.8564ZM78.3337 405.781V416.284H75.0966V414.965H76.6552V407.1H75.0966V405.781H78.3337ZM91.5713 404.846V415.516H90.0607V404.846H91.5713ZM82.6513 412.495C85.3968 411.188 86.6078 409.51 86.8475 407.148H83.2028V405.973H88.3582C88.3702 409.198 87.2312 411.896 83.4186 413.694L82.6513 412.495ZM98.9359 405.637V406.309C98.9359 407.04 98.9359 408.095 98.6961 409.426L97.2334 409.282C97.4252 408.263 97.4732 407.496 97.4852 406.86H93.4687V405.637H98.9359ZM92.8213 410.193C93.4208 410.193 94.1042 410.193 94.8115 410.181V408.083H96.2982V410.133C97.3533 410.085 98.4443 410.001 99.4394 409.857L99.5353 410.936C97.3053 411.344 94.8115 411.38 92.9652 411.392L92.8213 410.193ZM94.4039 415.325V412.111H95.8906V414.126H101.885V415.325H94.4039ZM100.015 412.831V404.846H101.55V408.107H102.844V409.354H101.55V412.831H100.015ZM112.319 404.846V411.104H110.832V409.738H108.842V410.529H103.783V405.637H108.842V406.428H110.832V404.846H112.319ZM105.006 413.454C105.006 412.147 106.396 411.38 108.674 411.368C110.952 411.38 112.343 412.147 112.343 413.454C112.343 414.773 110.952 415.516 108.674 415.516C106.396 415.516 105.006 414.773 105.006 413.454ZM105.269 409.33H107.379V406.812H105.269V409.33ZM106.492 413.454C106.492 414.066 107.26 414.377 108.674 414.389C110.089 414.377 110.856 414.066 110.856 413.454C110.856 412.819 110.089 412.519 108.674 412.519C107.26 412.519 106.492 412.819 106.492 413.454ZM108.842 408.539H110.832V407.603H108.842V408.539Z" fill="#8E8E93"/>
<path d="M248.78 413.027C247.315 413.027 246.451 411.84 246.442 409.754C246.451 407.695 247.324 406.49 248.78 406.499C250.246 406.49 251.118 407.695 251.118 409.754C251.118 411.84 250.255 413.027 248.78 413.027ZM247.413 409.754C247.413 411.346 247.926 412.191 248.78 412.2C249.644 412.191 250.156 411.346 250.147 409.754C250.156 408.181 249.635 407.308 248.78 407.308C247.935 407.308 247.413 408.181 247.413 409.754ZM258.386 405.816V410.438H257.54V410.06H256.012V409.538H257.54V405.816H258.386ZM251.821 408.729C253.35 408.729 255.274 408.711 256.965 408.531L257.019 409.071C256.273 409.17 255.508 409.233 254.753 409.269V410.456H253.926V409.305C253.215 409.323 252.532 409.323 251.911 409.323L251.821 408.729ZM252.415 407.146C252.406 406.418 253.188 405.96 254.375 405.96C255.553 405.96 256.335 406.418 256.335 407.146C256.335 407.875 255.553 408.315 254.375 408.315C253.188 408.315 252.406 407.875 252.415 407.146ZM253.008 411.283V410.707H258.386V412.398H253.854V413.009H258.619V413.603H253.026V411.84H257.558V411.283H253.008ZM253.188 407.146C253.188 407.515 253.656 407.758 254.375 407.758C255.095 407.758 255.562 407.515 255.562 407.146C255.562 406.769 255.095 406.517 254.375 406.517C253.656 406.517 253.188 406.769 253.188 407.146ZM264.288 413.027C262.822 413.027 261.959 411.84 261.95 409.754C261.959 407.695 262.831 406.49 264.288 406.499C265.754 406.49 266.626 407.695 266.626 409.754C266.626 411.84 265.763 413.027 264.288 413.027ZM262.921 409.754C262.921 411.346 263.434 412.191 264.288 412.2C265.151 412.191 265.664 411.346 265.655 409.754C265.664 408.181 265.142 407.308 264.288 407.308C263.443 407.308 262.921 408.181 262.921 409.754ZM269.577 406.085C270.764 406.085 271.636 406.814 271.645 407.848C271.636 408.882 270.764 409.601 269.577 409.592C268.381 409.601 267.509 408.882 267.509 407.848C267.509 406.814 268.381 406.085 269.577 406.085ZM268.318 407.848C268.318 408.495 268.858 408.918 269.577 408.927C270.297 408.918 270.836 408.495 270.836 407.848C270.836 407.209 270.297 406.778 269.577 406.787C268.858 406.778 268.318 407.209 268.318 407.848ZM268.696 410.851V410.186H273.875V412.164H269.541V412.919H274.127V413.585H268.732V411.535H273.048V410.851H268.696ZM273.048 409.826V405.816H273.875V409.826H273.048Z" fill="#8E8E93"/>
<path d="M52.6506 434.096V431.89H50.4446V430.428H52.6506V428.246H54.1133V430.428H56.2953V431.89H54.1133V434.096H52.6506ZM57.7432 434.552V433.281L60.7646 430.476C61.5678 429.72 61.9875 429.253 61.9875 428.581C61.9875 427.826 61.424 427.358 60.6447 427.358C59.8534 427.358 59.3258 427.862 59.3258 428.677H57.6473C57.6473 427.023 58.8822 425.956 60.6686 425.968C62.479 425.956 63.69 426.987 63.69 428.461C63.69 429.433 63.2224 430.224 61.4599 431.794L60.1891 433.041V433.113H63.8098V434.552H57.7432ZM68.346 434.672C66.2239 434.672 64.9411 433.089 64.9411 430.308C64.9411 427.538 66.2359 425.956 68.346 425.968C70.4562 425.956 71.751 427.55 71.751 430.308C71.751 433.101 70.4681 434.672 68.346 434.672ZM66.7395 430.308C66.7275 432.274 67.3629 433.209 68.346 433.209C69.3292 433.209 69.9646 432.274 69.9526 430.308C69.9526 428.377 69.3292 427.406 68.346 427.406C67.3749 427.406 66.7395 428.377 66.7395 430.308ZM84.5391 424.984V432.37H83.1244V429.085H82.2851V431.579H80.8944V425.152H82.2851V427.862H83.1244V424.984H84.5391ZM75.3313 427.262V426.111H77.2017V425.08H78.6883V426.111H80.5587V427.262H75.3313ZM75.643 429.54C75.655 428.401 76.6262 427.646 77.945 427.646C79.3118 427.646 80.2829 428.401 80.2949 429.54C80.2829 430.679 79.3118 431.459 77.945 431.459C76.6262 431.459 75.655 430.679 75.643 429.54ZM76.6262 434.456C78.9641 434.204 80.0911 433.161 80.1031 432.178V431.962H81.5897V432.178C81.5778 433.161 82.7048 434.204 85.0427 434.456L84.5151 435.583C82.7767 435.391 81.5058 434.732 80.8464 433.797C80.175 434.732 78.8921 435.391 77.1537 435.583L76.6262 434.456ZM76.9858 429.54C76.9858 430.08 77.3815 430.368 77.945 430.356C78.5445 430.368 78.9401 430.08 78.9281 429.54C78.9401 429.025 78.5445 428.725 77.945 428.725C77.3815 428.725 76.9858 429.025 76.9858 429.54ZM89.6497 426.016C89.6497 427.322 90.405 428.533 92.0955 429.013L91.3522 430.164C90.1772 429.816 89.3859 429.109 88.9183 428.198C88.4507 429.241 87.5995 430.044 86.3406 430.452L85.5973 429.253C87.3597 428.713 88.151 427.43 88.163 426.016V425.344H89.6497V426.016ZM87.1319 432.01V430.859H94.2056V433.713H88.6186V434.384H94.5173V435.559H87.1559V432.634H92.7189V432.01H87.1319ZM92.695 430.452V424.961H94.2056V427.047H95.6443V428.27H94.2056V430.452H92.695Z" fill="#FFA339"/>
<path d="M209.418 427.167C209.418 428.545 210.353 429.828 211.96 430.38L211.36 431.195C210.197 430.787 209.322 429.972 208.867 428.941C208.411 430.104 207.5 431.027 206.253 431.483L205.678 430.596C207.308 430.02 208.291 428.629 208.315 427.167V426.831H206.013V425.92H211.672V426.831H209.418V427.167ZM207.356 435.319V432.034H208.459V434.432H214.454V435.319H207.356ZM212.895 432.73V425.056H213.998V428.222H215.509V429.133H213.998V432.73H212.895ZM218.605 425.704C219.996 425.704 221.015 426.735 221.027 428.222C221.015 429.696 219.996 430.703 218.605 430.691C217.202 430.703 216.195 429.696 216.207 428.222C216.195 426.735 217.202 425.704 218.605 425.704ZM217.214 428.222C217.202 429.133 217.79 429.768 218.605 429.756C219.408 429.768 220.008 429.133 220.02 428.222C220.008 427.286 219.408 426.663 218.605 426.663C217.79 426.663 217.202 427.286 217.214 428.222ZM217.934 432.754V431.866H225.055V435.535H223.952V432.754H217.934ZM221.746 431.243V425.248H222.801V427.718H224V425.056H225.055V431.315H224V428.605H222.801V431.243H221.746ZM232.781 434.672C231.019 434.672 229.772 433.725 229.712 432.346H231.031C231.079 433.077 231.81 433.557 232.757 433.569C233.788 433.557 234.532 432.993 234.532 432.178C234.532 431.339 233.836 430.739 232.613 430.739H231.894V429.684H232.613C233.585 429.684 234.268 429.145 234.268 428.342C234.268 427.562 233.68 427.035 232.781 427.047C231.93 427.035 231.175 427.514 231.151 428.27H229.904C229.94 426.891 231.211 425.956 232.805 425.968C234.46 425.956 235.515 427.011 235.515 428.27C235.515 429.229 234.915 429.924 234.004 430.14V430.212C235.155 430.368 235.839 431.147 235.827 432.226C235.839 433.641 234.532 434.672 232.781 434.672ZM237.242 434.552V433.617L240.191 430.643C241.114 429.684 241.582 429.145 241.582 428.413C241.582 427.574 240.898 427.035 239.999 427.047C239.064 427.035 238.464 427.634 238.464 428.533H237.242C237.242 426.987 238.417 425.956 240.047 425.968C241.666 425.956 242.805 426.987 242.805 428.365C242.805 429.313 242.349 430.068 240.766 431.627L239.04 433.377V433.449H242.949V434.552H237.242ZM247.31 434.672C245.355 434.672 244.204 433.089 244.192 430.308C244.204 427.562 245.367 425.956 247.31 425.968C249.264 425.956 250.427 427.562 250.427 430.308C250.427 433.089 249.276 434.672 247.31 434.672ZM245.487 430.308C245.487 432.43 246.171 433.557 247.31 433.569C248.461 433.557 249.144 432.43 249.132 430.308C249.144 428.21 248.449 427.047 247.31 427.047C246.183 427.047 245.487 428.21 245.487 430.308ZM263.26 425.056V432.394H262.205V428.893H261.03V431.555H259.975V425.248H261.03V427.982H262.205V425.056H263.26ZM254.268 427.191V426.303H256.378V425.152H257.481V426.303H259.567V427.191H254.268ZM254.675 429.54C254.663 428.413 255.61 427.682 256.929 427.694C258.26 427.682 259.183 428.413 259.183 429.54C259.183 430.655 258.26 431.399 256.929 431.411C255.61 431.399 254.663 430.655 254.675 429.54ZM255.586 434.648C257.601 434.42 259.147 433.389 259.159 432.202V431.962H260.262V432.202C260.262 433.389 261.821 434.42 263.835 434.648L263.428 435.487C261.785 435.283 260.37 434.576 259.711 433.545C259.051 434.576 257.637 435.283 255.97 435.487L255.586 434.648ZM255.658 429.54C255.658 430.176 256.174 430.572 256.929 430.548C257.673 430.572 258.188 430.176 258.176 429.54C258.188 428.905 257.673 428.509 256.929 428.509C256.174 428.509 255.658 428.905 255.658 429.54ZM268.322 426.183C268.31 427.562 269.269 428.785 270.84 429.253L270.265 430.116C269.102 429.744 268.238 428.965 267.783 427.958C267.327 429.109 266.404 429.996 265.157 430.428L264.606 429.54C266.236 429.001 267.207 427.706 267.219 426.207V425.416H268.322V426.183ZM266.14 431.842V430.955H272.926V433.569H267.267V434.552H273.286V435.439H266.164V432.73H271.823V431.842H266.14ZM271.823 430.5V425.056H272.926V427.262H274.437V428.198H272.926V430.5H271.823Z" fill="#8E8E93"/>
<rect width="281" height="60.4613" transform="translate(6 449.909)" fill="white"/>
<rect x="17.9893" y="461.899" width="23.9787" height="23.9787" rx="11.9893" fill="#F2F2F7"/>
<path d="M29.0291 470.941C28.9112 470.941 28.7947 470.946 28.6794 470.953C28.7465 470.525 28.7731 469.902 28.5565 469.457C27.9077 468.158 26.2074 468.442 25.878 469.969C25.5941 471.61 24.0015 472.922 22.5013 473.275C20.8605 473.594 21.5865 476.053 23.1272 475.659C23.3743 475.616 23.6302 475.55 23.8913 475.465C23.6429 477.273 24.4399 479.165 25.9033 480.253C28.4031 482.184 32.1219 481.328 33.5688 478.621C35.4732 475.211 32.9429 470.917 29.0291 470.942V470.941ZM27.5213 475.782C27.0246 475.757 27.0246 474.3 27.5213 474.274C28.018 474.3 28.018 475.757 27.5213 475.782ZM30.0173 477.425C29.7703 477.754 29.01 478.458 28.1345 477.446C27.8431 477.109 27.6619 476.679 27.6328 476.528C27.6049 476.378 27.6467 476.201 27.7772 476.2C27.9838 476.2 28.5045 476.365 29.0823 476.352C29.7728 476.337 30.2429 476.219 30.2429 476.219C30.3784 476.2 30.4355 476.27 30.4342 476.384C30.4291 476.851 30.0921 477.327 30.0173 477.424V477.425ZM30.5368 475.782C30.0401 475.757 30.0401 474.3 30.5368 474.274C31.0335 474.3 31.0335 475.757 30.5368 475.782Z" fill="#F8981C"/>
<path d="M23.102 471.906C24.0445 471.906 24.8086 471.142 24.8086 470.199C24.8086 469.257 24.0445 468.493 23.102 468.493C22.1594 468.493 21.3953 469.257 21.3953 470.199C21.3953 471.142 22.1594 471.906 23.102 471.906Z" fill="#F8981C"/>
<path d="M35.465 470.976V470.982C34.9584 470.347 34.1311 469.932 33.1944 469.932H30.7892C30.5029 469.932 30.2693 470.15 30.2693 470.422C30.2693 470.693 30.5016 470.911 30.7892 470.911H33.1944C34.1602 470.911 34.9452 471.593 34.9452 472.43V479.377C34.9452 479.637 34.7209 479.849 34.4438 479.849H33.0031C32.8118 479.488 32.416 479.238 31.9568 479.238H30.7879C30.1427 479.238 29.6189 479.731 29.6189 480.339C29.6189 480.948 30.1427 481.441 30.7879 481.441H31.9568C32.416 481.441 32.8118 481.191 33.0031 480.829H34.4438C35.2935 480.829 35.9835 480.178 35.9835 479.377V477.552C37.6736 477.316 38.9706 475.942 38.9706 474.283C38.9706 472.457 37.4005 470.977 35.4637 470.977L35.465 470.976Z" fill="#7D91A0"/>
<path d="M50.6604 476.745V466.242H53.8975V467.561H52.3389V475.426H53.8975V476.745H50.6604ZM63.6046 465.331V472.717H62.1899V469.432H61.3506V471.925H59.9599V465.499H61.3506V468.209H62.1899V465.331H63.6046ZM54.3968 467.609V466.458H56.2672V465.427H57.7538V466.458H59.6242V467.609H54.3968ZM54.7085 469.887C54.7205 468.748 55.6917 467.993 57.0105 467.993C58.3773 467.993 59.3484 468.748 59.3604 469.887C59.3484 471.026 58.3773 471.805 57.0105 471.805C55.6917 471.805 54.7205 471.026 54.7085 469.887ZM55.6917 474.803C58.0296 474.551 59.1566 473.508 59.1686 472.525V472.309H60.6552V472.525C60.6433 473.508 61.7703 474.551 64.1082 474.803L63.5806 475.93C61.8422 475.738 60.5713 475.079 59.9119 474.143C59.2405 475.079 57.9576 475.738 56.2192 475.93L55.6917 474.803ZM56.0513 469.887C56.0513 470.427 56.447 470.714 57.0105 470.702C57.61 470.714 58.0056 470.427 57.9936 469.887C58.0056 469.372 57.61 469.072 57.0105 469.072C56.447 469.072 56.0513 469.372 56.0513 469.887ZM68.7152 466.362C68.7152 467.669 69.4705 468.88 71.161 469.36L70.4177 470.511C69.2427 470.163 68.4514 469.456 67.9838 468.544C67.5162 469.587 66.665 470.391 65.4061 470.798L64.6628 469.599C66.4252 469.06 67.2165 467.777 67.2285 466.362V465.691H68.7152V466.362ZM66.1974 472.357V471.206H73.2711V474.059H67.6841V474.731H73.5828V475.906H66.2214V472.98H71.7844V472.357H66.1974ZM71.7605 470.798V465.307H73.2711V467.393H74.7098V468.616H73.2711V470.798H71.7605ZM80.6357 466.338V473.364H75.5042V466.338H80.6357ZM76.9909 472.189H79.149V467.489H76.9909V472.189ZM82.0744 475.978V465.307H83.585V469.336H85.1436V470.583H83.585V475.978H82.0744ZM90.3981 465.475C92.8439 465.475 94.2586 466.11 94.2586 467.297C94.2586 468.472 92.8439 469.12 90.3981 469.12C87.9283 469.12 86.5015 468.472 86.5135 467.297C86.5015 466.11 87.9283 465.475 90.3981 465.475ZM85.5304 470.798V469.623H95.2657V470.798H85.5304ZM86.6574 475.906V473.1H92.6041V472.525H86.6574V471.422H94.0668V474.131H88.1201V474.779H94.3545V475.906H86.6574ZM88.0721 467.297C88.0721 467.813 88.8275 468.017 90.3981 468.017C91.9687 468.017 92.724 467.813 92.724 467.297C92.724 466.818 91.9687 466.566 90.3981 466.554C88.8275 466.566 88.0721 466.818 88.0721 467.297ZM99.0575 466.242V476.745H95.8203V475.426H97.379V467.561H95.8203V466.242H99.0575ZM107.475 467.729C107.475 469.695 108.363 471.65 110.185 472.405L109.298 473.604C108.075 473.052 107.224 471.997 106.744 470.678C106.264 472.117 105.389 473.28 104.094 473.868L103.183 472.621C105.054 471.841 105.953 469.803 105.965 467.729V466.146H107.475V467.729ZM110.736 476.002V465.307H112.247V476.002H110.736ZM119.756 465.931V467.13H117.621C117.633 468.376 118.377 469.659 120.115 470.223L119.348 471.374C118.173 470.99 117.358 470.235 116.89 469.276C116.423 470.319 115.571 471.158 114.336 471.566L113.545 470.391C115.296 469.827 116.099 468.46 116.111 467.13H113.953V465.931H119.756ZM114.984 473.388V472.213H122.153V475.978H120.643V473.388H114.984ZM120.643 471.757V465.307H122.153V467.897H123.592V469.144H122.153V471.757H120.643ZM135.974 465.331V472.717H134.559V469.432H133.72V471.925H132.329V465.499H133.72V468.209H134.559V465.331H135.974ZM126.766 467.609V466.458H128.636V465.427H130.123V466.458H131.993V467.609H126.766ZM127.078 469.887C127.09 468.748 128.061 467.993 129.38 467.993C130.746 467.993 131.718 468.748 131.73 469.887C131.718 471.026 130.746 471.805 129.38 471.805C128.061 471.805 127.09 471.026 127.078 469.887ZM128.061 474.803C130.399 474.551 131.526 473.508 131.538 472.525V472.309H133.024V472.525C133.012 473.508 134.139 474.551 136.477 474.803L135.95 475.93C134.211 475.738 132.941 475.079 132.281 474.143C131.61 475.079 130.327 475.738 128.588 475.93L128.061 474.803ZM128.421 469.887C128.421 470.427 128.816 470.714 129.38 470.702C129.979 470.714 130.375 470.427 130.363 469.887C130.375 469.372 129.979 469.072 129.38 469.072C128.816 469.072 128.421 469.372 128.421 469.887ZM141.084 466.362C141.084 467.669 141.84 468.88 143.53 469.36L142.787 470.511C141.612 470.163 140.821 469.456 140.353 468.544C139.885 469.587 139.034 470.391 137.775 470.798L137.032 469.599C138.794 469.06 139.586 467.777 139.598 466.362V465.691H141.084V466.362ZM138.567 472.357V471.206H145.64V474.059H140.053V474.731H145.952V475.906H138.591V472.98H144.154V472.357H138.567ZM144.13 470.798V465.307H145.64V467.393H147.079V468.616H145.64V470.798H144.13Z" fill="#8E8E93"/>
<path d="M248.78 473.489C247.315 473.489 246.451 472.302 246.442 470.215C246.451 468.156 247.324 466.951 248.78 466.96C250.246 466.951 251.118 468.156 251.118 470.215C251.118 472.302 250.255 473.489 248.78 473.489ZM247.413 470.215C247.413 471.807 247.926 472.652 248.78 472.661C249.644 472.652 250.156 471.807 250.147 470.215C250.156 468.642 249.635 467.77 248.78 467.77C247.935 467.77 247.413 468.642 247.413 470.215ZM258.386 466.277V470.899H257.54V470.521H256.012V470H257.54V466.277H258.386ZM251.821 469.19C253.35 469.19 255.274 469.172 256.965 468.993L257.019 469.532C256.273 469.631 255.508 469.694 254.753 469.73V470.917H253.926V469.766C253.215 469.784 252.532 469.784 251.911 469.784L251.821 469.19ZM252.415 467.608C252.406 466.879 253.188 466.421 254.375 466.421C255.553 466.421 256.335 466.879 256.335 467.608C256.335 468.336 255.553 468.777 254.375 468.777C253.188 468.777 252.406 468.336 252.415 467.608ZM253.008 471.744V471.169H258.386V472.859H253.854V473.471H258.619V474.064H253.026V472.302H257.558V471.744H253.008ZM253.188 467.608C253.188 467.976 253.656 468.219 254.375 468.219C255.095 468.219 255.562 467.976 255.562 467.608C255.562 467.23 255.095 466.978 254.375 466.978C253.656 466.978 253.188 467.23 253.188 467.608ZM264.288 473.489C262.822 473.489 261.959 472.302 261.95 470.215C261.959 468.156 262.831 466.951 264.288 466.96C265.754 466.951 266.626 468.156 266.626 470.215C266.626 472.302 265.763 473.489 264.288 473.489ZM262.921 470.215C262.921 471.807 263.434 472.652 264.288 472.661C265.151 472.652 265.664 471.807 265.655 470.215C265.664 468.642 265.142 467.77 264.288 467.77C263.443 467.77 262.921 468.642 262.921 470.215ZM269.577 466.547C270.764 466.547 271.636 467.275 271.645 468.309C271.636 469.343 270.764 470.063 269.577 470.054C268.381 470.063 267.509 469.343 267.509 468.309C267.509 467.275 268.381 466.547 269.577 466.547ZM268.318 468.309C268.318 468.957 268.858 469.379 269.577 469.388C270.297 469.379 270.836 468.957 270.836 468.309C270.836 467.671 270.297 467.239 269.577 467.248C268.858 467.239 268.318 467.671 268.318 468.309ZM268.696 471.313V470.647H273.875V472.625H269.541V473.381H274.127V474.046H268.732V471.996H273.048V471.313H268.696ZM273.048 470.287V466.277H273.875V470.287H273.048Z" fill="#8E8E93"/>
<path d="M52.6506 494.558V492.352H50.4446V490.889H52.6506V488.707H54.1133V490.889H56.2953V492.352H54.1133V494.558H52.6506ZM61.0718 495.133C59.2014 495.133 57.8706 494.102 57.8347 492.639H59.6091C59.6451 493.251 60.2565 493.671 61.0718 493.671C61.923 493.671 62.5225 493.203 62.5105 492.52C62.5225 491.836 61.911 491.345 60.9039 491.345H60.1366V490.05H60.9039C61.7552 490.038 62.3307 489.582 62.3187 488.899C62.3307 488.263 61.8391 487.82 61.0958 487.82C60.3404 487.82 59.717 488.239 59.705 488.899H58.0025C58.0385 487.436 59.3573 486.417 61.0958 486.429C62.8582 486.417 64.0331 487.472 64.0212 488.803C64.0331 489.762 63.3737 490.433 62.4146 490.601V490.673C63.6735 490.817 64.3569 491.572 64.3569 492.639C64.3569 494.09 62.9781 495.133 61.0718 495.133ZM68.8612 495.133C66.7391 495.133 65.4562 493.551 65.4562 490.769C65.4562 488 66.7511 486.417 68.8612 486.429C70.9713 486.417 72.2662 488.012 72.2662 490.769C72.2662 493.563 70.9833 495.133 68.8612 495.133ZM67.2546 490.769C67.2426 492.735 67.8781 493.671 68.8612 493.671C69.8443 493.671 70.4798 492.735 70.4678 490.769C70.4678 488.839 69.8443 487.868 68.8612 487.868C67.8901 487.868 67.2546 488.839 67.2546 490.769ZM76.776 495.133C74.6539 495.133 73.3711 493.551 73.3711 490.769C73.3711 488 74.6659 486.417 76.776 486.429C78.8862 486.417 80.181 488.012 80.181 490.769C80.181 493.563 78.8981 495.133 76.776 495.133ZM75.1695 490.769C75.1575 492.735 75.7929 493.671 76.776 493.671C77.7592 493.671 78.3946 492.735 78.3826 490.769C78.3826 488.839 77.7592 487.868 76.776 487.868C75.8049 487.868 75.1695 488.839 75.1695 490.769ZM92.9691 485.446V492.831H91.5544V489.546H90.7151V492.04H89.3244V485.614H90.7151V488.323H91.5544V485.446H92.9691ZM83.7613 487.724V486.573H85.6317V485.542H87.1183V486.573H88.9887V487.724H83.7613ZM84.073 490.002C84.085 488.863 85.0562 488.107 86.375 488.107C87.7418 488.107 88.7129 488.863 88.7249 490.002C88.7129 491.141 87.7418 491.92 86.375 491.92C85.0562 491.92 84.085 491.141 84.073 490.002ZM85.0562 494.917C87.3941 494.666 88.5211 493.623 88.5331 492.639V492.424H90.0197V492.639C90.0078 493.623 91.1348 494.666 93.4727 494.917L92.9451 496.044C91.2067 495.853 89.9358 495.193 89.2764 494.258C88.605 495.193 87.3221 495.853 85.5837 496.044L85.0562 494.917ZM85.4158 490.002C85.4158 490.541 85.8115 490.829 86.375 490.817C86.9745 490.829 87.3701 490.541 87.3581 490.002C87.3701 489.486 86.9745 489.187 86.375 489.187C85.8115 489.187 85.4158 489.486 85.4158 490.002ZM98.0797 486.477C98.0797 487.784 98.835 488.995 100.525 489.474L99.7822 490.625C98.6072 490.278 97.8159 489.57 97.3483 488.659C96.8807 489.702 96.0295 490.505 94.7706 490.913L94.0273 489.714C95.7897 489.175 96.581 487.892 96.593 486.477V485.806H98.0797V486.477ZM95.5619 492.472V491.321H102.636V494.174H97.0486V494.845H102.947V496.02H95.5859V493.095H101.149V492.472H95.5619ZM101.125 490.913V485.422H102.636V487.508H104.074V488.731H102.636V490.913H101.125Z" fill="#FFA339"/>
<path d="M209.284 487.628C209.284 489.007 210.219 490.29 211.825 490.841L211.226 491.656C210.063 491.249 209.188 490.433 208.732 489.402C208.276 490.565 207.365 491.488 206.118 491.944L205.543 491.057C207.173 490.481 208.157 489.091 208.181 487.628V487.292H205.879V486.381H211.538V487.292H209.284V487.628ZM207.221 495.781V492.496H208.324V494.893H214.319V495.781H207.221ZM212.76 493.191V485.518H213.863V488.683H215.374V489.594H213.863V493.191H212.76ZM218.47 486.165C219.861 486.165 220.88 487.196 220.892 488.683C220.88 490.158 219.861 491.165 218.47 491.153C217.068 491.165 216.061 490.158 216.073 488.683C216.061 487.196 217.068 486.165 218.47 486.165ZM217.08 488.683C217.068 489.594 217.655 490.23 218.47 490.218C219.274 490.23 219.873 489.594 219.885 488.683C219.873 487.748 219.274 487.124 218.47 487.124C217.655 487.124 217.068 487.748 217.08 488.683ZM217.799 493.215V492.328H224.921V495.996H223.818V493.215H217.799ZM221.612 491.704V485.71H222.667V488.179H223.866V485.518H224.921V491.776H223.866V489.067H222.667V491.704H221.612ZM232.647 495.133C230.884 495.133 229.637 494.186 229.577 492.807H230.896C230.944 493.539 231.675 494.018 232.623 494.03C233.654 494.018 234.397 493.455 234.397 492.639C234.397 491.8 233.702 491.201 232.479 491.201H231.759V490.146H232.479C233.45 490.146 234.133 489.606 234.133 488.803C234.133 488.024 233.546 487.496 232.647 487.508C231.795 487.496 231.04 487.976 231.016 488.731H229.769C229.805 487.352 231.076 486.417 232.671 486.429C234.325 486.417 235.38 487.472 235.38 488.731C235.38 489.69 234.781 490.385 233.87 490.601V490.673C235.021 490.829 235.704 491.608 235.692 492.687C235.704 494.102 234.397 495.133 232.647 495.133ZM240.056 495.133C238.102 495.133 236.951 493.551 236.939 490.769C236.951 488.024 238.114 486.417 240.056 486.429C242.011 486.417 243.174 488.024 243.174 490.769C243.174 493.551 242.023 495.133 240.056 495.133ZM238.234 490.769C238.234 492.891 238.917 494.018 240.056 494.03C241.207 494.018 241.891 492.891 241.879 490.769C241.891 488.671 241.195 487.508 240.056 487.508C238.929 487.508 238.234 488.671 238.234 490.769ZM247.444 495.133C245.49 495.133 244.339 493.551 244.327 490.769C244.339 488.024 245.502 486.417 247.444 486.429C249.399 486.417 250.561 488.024 250.561 490.769C250.561 493.551 249.411 495.133 247.444 495.133ZM245.622 490.769C245.622 492.891 246.305 494.018 247.444 494.03C248.595 494.018 249.279 492.891 249.267 490.769C249.279 488.671 248.583 487.508 247.444 487.508C246.317 487.508 245.622 488.671 245.622 490.769ZM263.394 485.518V492.855H262.339V489.354H261.164V492.016H260.109V485.71H261.164V488.443H262.339V485.518H263.394ZM254.402 487.652V486.765H256.512V485.614H257.615V486.765H259.702V487.652H254.402ZM254.81 490.002C254.798 488.875 255.745 488.143 257.064 488.155C258.395 488.143 259.318 488.875 259.318 490.002C259.318 491.117 258.395 491.86 257.064 491.872C255.745 491.86 254.798 491.117 254.81 490.002ZM255.721 495.109C257.735 494.881 259.282 493.85 259.294 492.663V492.424H260.397V492.663C260.397 493.85 261.956 494.881 263.97 495.109L263.562 495.948C261.92 495.745 260.505 495.037 259.845 494.006C259.186 495.037 257.771 495.745 256.105 495.948L255.721 495.109ZM255.793 490.002C255.793 490.637 256.309 491.033 257.064 491.009C257.807 491.033 258.323 490.637 258.311 490.002C258.323 489.366 257.807 488.971 257.064 488.971C256.309 488.971 255.793 489.366 255.793 490.002ZM268.457 486.645C268.445 488.024 269.404 489.246 270.975 489.714L270.399 490.577C269.236 490.206 268.373 489.426 267.917 488.419C267.462 489.57 266.539 490.457 265.292 490.889L264.74 490.002C266.371 489.462 267.342 488.167 267.354 486.669V485.877H268.457V486.645ZM266.275 492.304V491.417H273.061V494.03H267.402V495.013H273.42V495.901H266.299V493.191H271.958V492.304H266.275ZM271.958 490.961V485.518H273.061V487.724H274.571V488.659H273.061V490.961H271.958Z" fill="#8E8E93"/>
<rect width="281" height="176.915" transform="translate(5.12524 72.4427)" fill="white"/>
<g filter="url(#filter0_d_2711_38292)">
<rect x="17.1147" y="87.4293" width="257.021" height="146.941" rx="7.49333" fill="#FFA339" shape-rendering="crispEdges"/>
<path d="M36.6408 110.713C36.6258 114.819 35.6367 118.251 30.6461 120.754L29.627 119.345C31.8601 118.236 33.1789 116.992 33.9282 115.509L29.9867 115.898L29.7769 114.28L34.4977 113.995C34.6326 113.44 34.7225 112.841 34.7675 112.212H30.4663V110.713H36.6408ZM38.3193 122.732V109.424H40.2076V114.549H42.0959V116.078H40.2076V122.732H38.3193ZM53.4897 115.599V117.097H44.0781V110.563H53.3998V112.062H45.9364V115.599H53.4897ZM42.6393 121.144V119.615H54.8385V121.144H42.6393ZM70.2856 109.424V116.288H68.4273V114.969H65.9695V115.898H59.6151V109.993H61.5034V111.582H64.1111V109.993H65.9695V111.132H68.4273V109.424H70.2856ZM61.4135 122.612V118.985H68.4273V118.236H61.4135V116.797H70.2856V120.364H63.3018V121.144H70.6753V122.612H61.4135ZM61.5034 114.46H64.1111V112.991H61.5034V114.46ZM65.9695 113.56H68.4273V112.541H65.9695V113.56ZM83.238 109.424V117.247H81.3796V115.539H78.8918V116.528H72.5675V110.413H78.8918V111.402H81.3796V109.424H83.238ZM74.0961 120.184C74.0961 118.551 75.8346 117.592 78.682 117.577C81.5295 117.592 83.2679 118.551 83.2679 120.184C83.2679 121.833 81.5295 122.762 78.682 122.762C75.8346 122.762 74.0961 121.833 74.0961 120.184ZM74.4258 115.029H77.0635V111.882H74.4258V115.029ZM75.9545 120.184C75.9545 120.949 76.9136 121.338 78.682 121.353C80.4505 121.338 81.4096 120.949 81.4096 120.184C81.4096 119.39 80.4505 119.015 78.682 119.015C76.9136 119.015 75.9545 119.39 75.9545 120.184ZM78.8918 114.04H81.3796V112.871H78.8918V114.04ZM91.0349 109.634C94.0922 109.634 95.8606 110.428 95.8606 111.912C95.8606 113.38 94.0922 114.19 91.0349 114.19C87.9477 114.19 86.1642 113.38 86.1792 111.912C86.1642 110.428 87.9477 109.634 91.0349 109.634ZM84.9503 116.288V114.819H97.1195V116.288H84.9503ZM86.3591 122.672V119.165H93.7925V118.446H86.3591V117.067H95.6208V120.454H88.1874V121.263H95.9805V122.672H86.3591ZM88.1275 111.912C88.1275 112.556 89.0717 112.811 91.0349 112.811C92.9982 112.811 93.9423 112.556 93.9423 111.912C93.9423 111.312 92.9982 110.998 91.0349 110.983C89.0717 110.998 88.1275 111.312 88.1275 111.912ZM112.597 109.424V116.228H110.738V112.901H108.221V111.432H110.738V109.424H112.597ZM101.267 114.849C103.47 114.19 104.459 112.571 104.474 110.833V109.874H106.362V110.833C106.347 112.436 107.276 113.98 109.389 114.609L108.4 116.048C106.992 115.584 106.002 114.699 105.418 113.545C104.834 114.834 103.784 115.838 102.226 116.318L101.267 114.849ZM103.725 118.206V116.767H112.597V120.334H105.583V121.144H112.956V122.612H103.754V118.956H110.738V118.206H103.725ZM125.549 109.424V117.337H123.691V114.19H121.592V112.691H123.691V109.424H125.549ZM114.219 115.868C116.407 115.149 117.411 113.41 117.456 111.732H114.759V110.233H121.982V111.732H119.344C119.374 113.276 120.334 114.849 122.402 115.539L121.473 117.007C120.019 116.528 119 115.569 118.415 114.37C117.831 115.733 116.782 116.812 115.208 117.367L114.219 115.868ZM116.407 120.214C116.407 118.596 118.146 117.652 120.993 117.637C123.84 117.652 125.579 118.596 125.579 120.214C125.579 121.833 123.84 122.777 120.993 122.792C118.146 122.777 116.407 121.833 116.407 120.214ZM118.265 120.214C118.265 120.979 119.225 121.353 120.993 121.353C122.761 121.353 123.721 120.979 123.721 120.214C123.721 119.45 122.761 119.06 120.993 119.075C119.225 119.06 118.265 119.45 118.265 120.214ZM133.706 111.462V112.961H127.231V111.462H129.569V109.814H131.398V111.462H133.706ZM127.561 116.708C127.561 114.864 128.805 113.56 130.498 113.56C132.207 113.56 133.421 114.864 133.436 116.708C133.421 118.581 132.207 119.885 130.498 119.885C128.805 119.885 127.561 118.581 127.561 116.708ZM129.21 116.708C129.195 117.727 129.734 118.311 130.498 118.296C131.248 118.311 131.772 117.727 131.787 116.708C131.772 115.718 131.248 115.104 130.498 115.119C129.734 115.104 129.195 115.718 129.21 116.708ZM134.185 122.193V109.694H135.924V114.849H137.003V109.424H138.801V122.762H137.003V116.348H135.924V122.193H134.185ZM152.413 119.705V121.204H140.214V119.705H145.369V117.217H141.503V110.293H143.391V112.361H149.206V110.293H151.064V117.217H147.197V119.705H152.413ZM143.391 115.748H149.206V113.83H143.391V115.748ZM157.452 112.781C157.437 114.954 158.037 117.172 159.88 118.356L158.861 119.795C157.707 119.105 156.973 117.951 156.538 116.573C156.073 118.086 155.264 119.345 154.065 120.095L152.926 118.716C154.889 117.487 155.624 115.134 155.624 112.871V110.593H157.452V112.781ZM158.471 115.449V113.92H160.18V109.634H161.918V122.133H160.18V115.449H158.471ZM162.937 122.762V109.424H164.706V122.762H162.937ZM178.317 119.675V121.204H166.118V119.675H168.846V116.408C167.812 115.778 167.197 114.834 167.197 113.65C167.197 111.522 169.31 110.083 172.203 110.083C175.08 110.083 177.208 111.522 177.208 113.65C177.208 114.819 176.594 115.763 175.59 116.378V119.675H178.317ZM169.026 113.65C169.041 114.969 170.285 115.778 172.203 115.778C174.076 115.778 175.365 114.969 175.38 113.65C175.365 112.331 174.076 111.552 172.203 111.552C170.285 111.552 169.041 112.331 169.026 113.65ZM170.704 119.675H173.702V117.082C173.237 117.172 172.727 117.217 172.203 117.217C171.678 117.217 171.169 117.172 170.704 117.082V119.675ZM180.809 121.533C180.12 121.548 179.55 120.994 179.58 120.304C179.55 119.645 180.12 119.09 180.809 119.105C181.454 119.09 182.023 119.645 182.038 120.304C182.023 120.994 181.454 121.548 180.809 121.533Z" fill="white"/>
<path d="M246.41 120.006V122.284C246.41 122.493 246.575 122.658 246.784 122.658H249.062C249.16 122.658 249.257 122.621 249.325 122.546L257.507 114.371L254.697 111.561L246.522 119.736C246.447 119.811 246.41 119.901 246.41 120.006Z" fill="white"/>
<path d="M259.68 111.141L257.927 109.388C257.635 109.095 257.163 109.095 256.87 109.388L255.499 110.759L258.309 113.569L259.68 112.198C259.973 111.905 259.973 111.433 259.68 111.141Z" fill="white"/>
<path d="M35.1537 148.053L34.764 147.664C34.3744 147.274 33.7449 147.284 33.3653 147.664L33.3553 147.674C32.9656 148.063 32.9656 148.693 33.3553 149.072L33.7449 149.462C34.1346 149.852 34.754 149.852 35.1437 149.462L35.1537 149.452C35.5433 149.072 35.5433 148.433 35.1537 148.053ZM32.1164 154.408H31.0973C30.5478 154.408 30.1082 154.847 30.1082 155.397V155.407C30.1082 155.956 30.5478 156.396 31.0973 156.396H32.1064C32.6659 156.406 33.1055 155.966 33.1055 155.417V155.407C33.1055 154.847 32.6659 154.408 32.1164 154.408ZM41.1084 144.466H41.0984C40.5389 144.466 40.0993 144.906 40.0993 145.456V146.415C40.0993 146.964 40.5389 147.404 41.0884 147.404H41.0984C41.6579 147.414 42.0975 146.974 42.0975 146.425V145.456C42.0975 144.906 41.6579 144.466 41.1084 144.466ZM48.8415 147.674C48.4518 147.284 47.8224 147.284 47.4327 147.664L47.0431 148.053C46.6534 148.443 46.6534 149.072 47.0431 149.452L47.0531 149.462C47.4427 149.852 48.0722 149.852 48.4518 149.462L48.8415 149.072C49.2311 148.683 49.2311 148.063 48.8415 147.674ZM47.0331 162.76L47.4227 163.15C47.8124 163.539 48.4418 163.539 48.8315 163.15C49.2211 162.76 49.2211 162.131 48.8315 161.741L48.4418 161.351C48.0522 160.962 47.4228 160.972 47.0431 161.351C46.6434 161.751 46.6434 162.371 47.0331 162.76ZM49.0913 155.397V155.407C49.0913 155.956 49.5309 156.396 50.0804 156.396H51.0895C51.639 156.396 52.0786 155.956 52.0786 155.407V155.397C52.0786 154.847 51.639 154.408 51.0895 154.408H50.0804C49.5309 154.408 49.0913 154.847 49.0913 155.397ZM41.0984 149.412C37.7913 149.412 35.1037 152.1 35.1037 155.407C35.1037 158.714 37.7913 161.401 41.0984 161.401C44.4054 161.401 47.093 158.714 47.093 155.407C47.093 152.1 44.4054 149.412 41.0984 149.412ZM41.0884 166.347H41.0984C41.6479 166.347 42.0875 165.907 42.0875 165.358V164.399C42.0875 163.849 41.6479 163.41 41.0984 163.41H41.0884C40.5389 163.41 40.0993 163.849 40.0993 164.399V165.358C40.0993 165.907 40.5389 166.347 41.0884 166.347ZM33.3553 163.14C33.7449 163.529 34.3744 163.529 34.764 163.14L35.1537 162.75C35.5433 162.361 35.5333 161.731 35.1537 161.351L35.1437 161.341C34.754 160.952 34.1246 160.952 33.7349 161.341L33.3453 161.731C32.9656 162.131 32.9656 162.75 33.3553 163.14Z" fill="white"/>
<path d="M62.773 168.907V165.094L71.8369 156.678C74.2468 154.412 75.5057 153.009 75.5057 150.995C75.5057 148.729 73.8152 147.326 71.4773 147.326C69.1034 147.326 67.5208 148.837 67.5208 151.282H62.4853C62.4853 146.319 66.19 143.118 71.5492 143.154C76.9804 143.118 80.6131 146.211 80.6131 150.635C80.6131 153.548 79.2104 155.922 73.9231 160.634L70.1105 164.375V164.591H80.9728V168.907H62.773ZM94.1498 169.266C88.5387 169.266 84.5463 166.173 84.4384 161.785H89.7617C89.8696 163.619 91.7039 164.878 94.1498 164.878C96.7035 164.878 98.5019 163.476 98.4659 161.425C98.5019 159.375 96.6675 157.9 93.6462 157.9H91.3442V154.016H93.6462C96.1999 153.98 97.9264 152.613 97.8904 150.563C97.9264 148.657 96.4517 147.326 94.2217 147.326C91.9557 147.326 90.0854 148.585 90.0494 150.563H84.9419C85.0498 146.175 89.0063 143.118 94.2217 143.154C99.509 143.118 103.034 146.283 102.998 150.275C103.034 153.153 101.056 155.167 98.1782 155.67V155.886C101.955 156.318 104.005 158.584 104.005 161.785C104.005 166.137 99.8687 169.266 94.1498 169.266ZM117.518 169.266C111.152 169.266 107.303 164.519 107.303 156.174C107.303 147.865 111.188 143.118 117.518 143.154C123.848 143.118 127.733 147.901 127.733 156.174C127.733 164.555 123.884 169.266 117.518 169.266ZM112.698 156.174C112.662 162.073 114.569 164.878 117.518 164.878C120.467 164.878 122.374 162.073 122.338 156.174C122.338 150.383 120.467 147.47 117.518 147.47C114.605 147.47 112.698 150.383 112.698 156.174Z" fill="white"/>
<path d="M150.457 151.278V162.284H148.874V157.033H147.112V161.025H145.529V151.566H147.112V155.666H148.874V151.278H150.457ZM136.969 154.479V153.148H140.134V151.422H141.789V153.148H144.918V154.479H136.969ZM137.58 158.004C137.562 156.314 138.983 155.217 140.961 155.234C142.957 155.217 144.342 156.314 144.342 158.004C144.342 159.677 142.957 160.792 140.961 160.81C138.983 160.792 137.562 159.677 137.58 158.004ZM138.947 165.665C141.968 165.324 144.288 163.777 144.306 161.996V161.637H145.961V161.996C145.961 163.777 148.299 165.324 151.32 165.665L150.709 166.924C148.245 166.618 146.123 165.557 145.134 164.011C144.144 165.557 142.022 166.618 139.523 166.924L138.947 165.665ZM139.055 158.004C139.055 158.957 139.828 159.551 140.961 159.515C142.076 159.551 142.85 158.957 142.832 158.004C142.85 157.051 142.076 156.457 140.961 156.457C139.828 156.457 139.055 157.051 139.055 158.004ZM158.051 152.969C158.033 155.037 159.471 156.871 161.827 157.572L160.964 158.867C159.22 158.31 157.925 157.141 157.241 155.63C156.558 157.357 155.173 158.687 153.303 159.335L152.476 158.004C154.921 157.195 156.378 155.252 156.396 153.004V151.818H158.051V152.969ZM154.778 161.457V160.126H164.957V164.047H156.468V165.521H165.496V166.852H154.814V162.788H163.302V161.457H154.778ZM163.302 159.443V151.278H164.957V154.587H167.223V155.99H164.957V159.443H163.302Z" fill="white"/>
<rect x="183.542" y="184.775" width="78.2301" height="31.2373" rx="8.61733" fill="#FFF0D4"/>
<rect x="183.542" y="184.775" width="78.2301" height="31.2373" rx="8.61733" stroke="#FFA339" stroke-width="0.749333"/>
<path d="M204.843 195.326V202.711H203.428V199.426H202.589V201.92H201.198V195.494H202.589V198.203H203.428V195.326H204.843ZM195.635 197.604V196.453H197.505V195.422H198.992V196.453H200.862V197.604H195.635ZM195.947 199.882C195.959 198.743 196.93 197.987 198.249 197.987C199.615 197.987 200.586 198.743 200.598 199.882C200.586 201.021 199.615 201.8 198.249 201.8C196.93 201.8 195.959 201.021 195.947 199.882ZM196.93 204.797C199.268 204.546 200.395 203.503 200.407 202.519V202.304H201.893V202.519C201.881 203.503 203.008 204.546 205.346 204.797L204.819 205.924C203.08 205.733 201.809 205.073 201.15 204.138C200.479 205.073 199.196 205.733 197.457 205.924L196.93 204.797ZM197.289 199.882C197.289 200.421 197.685 200.709 198.249 200.697C198.848 200.709 199.244 200.421 199.232 199.882C199.244 199.366 198.848 199.067 198.249 199.067C197.685 199.067 197.289 199.366 197.289 199.882ZM209.953 196.357C209.953 197.664 210.709 198.875 212.399 199.354L211.656 200.505C210.481 200.158 209.689 199.45 209.222 198.539C208.754 199.582 207.903 200.385 206.644 200.793L205.901 199.594C207.663 199.055 208.455 197.772 208.467 196.357V195.686H209.953V196.357ZM207.435 202.352V201.201H214.509V204.054H208.922V204.725H214.821V205.9H207.459V202.975H213.022V202.352H207.435ZM212.998 200.793V195.302H214.509V197.388H215.948V198.611H214.509V200.793H212.998ZM228.929 203.527V204.725H219.17V203.527H223.294V201.536H220.201V195.997H221.711V197.652H226.363V195.997H227.85V201.536H224.757V203.527H228.929ZM221.711 200.361H226.363V198.827H221.711V200.361ZM238.715 195.302V205.972H237.301V200.649H236.294V205.445H234.879V195.494H236.294V199.426H237.301V195.302H238.715ZM229.963 203.383V196.501H231.474V202.064C232.325 202.04 233.26 201.968 234.279 201.776L234.447 203.047C233.02 203.299 231.798 203.371 230.683 203.383H229.963ZM248.861 195.302V205.972H247.351V195.302H248.861ZM239.941 202.951C242.687 201.644 243.898 199.966 244.138 197.604H240.493V196.429H245.648C245.66 199.654 244.521 202.352 240.709 204.15L239.941 202.951Z" fill="#FFA339"/>
</g>
<rect width="281" height="23.9787" transform="translate(5.12524 592.021)" fill="white"/>
<rect x="95.0454" y="606.259" width="100.411" height="3.74667" rx="1.87333" fill="black" fill-opacity="0.85"/>
</g>
<rect x="3.00267" y="5.00267" width="286.995" height="614.453" rx="32.9707" stroke="#E6E6E6" stroke-width="5.99467"/>
<g clip-path="url(#clip2_2711_38292)">
<rect x="391" y="8" width="281" height="608.459" rx="29.9733" fill="white"/>
<path d="M412.227 166.312V170.469H410.729V167.518H404.898V166.312H412.227ZM412.227 159.802V165.879H410.729V159.802H412.227ZM405.413 160.364V164.064C406.795 164.041 408.287 163.918 409.827 163.619L410.003 164.825C408.176 165.188 406.443 165.305 404.839 165.305H403.914V160.364H405.413ZM415.576 160.809V166.617C416.553 166.599 417.455 166.529 418.456 166.312L418.655 167.565C417.344 167.846 416.196 167.893 414.827 167.893H414.077V160.809H415.576ZM422.905 159.791V170.445H421.5V159.791H422.905ZM420.622 159.99V169.977H419.205V164.369H417.075V163.163H419.205V159.99H420.622ZM432.951 159.802V165.82H431.452V159.802H432.951ZM432.951 166.3V170.328H425.809V166.3H432.951ZM427.284 167.483V169.134H431.487V167.483H427.284ZM427.109 160.282C428.771 160.282 430.024 161.336 430.024 162.858C430.024 164.322 428.771 165.399 427.109 165.399C425.446 165.399 424.193 164.322 424.193 162.858C424.193 161.336 425.446 160.282 427.109 160.282ZM427.109 161.535C426.254 161.535 425.645 162.027 425.657 162.858C425.645 163.654 426.254 164.146 427.109 164.146C427.94 164.146 428.549 163.654 428.549 162.858C428.549 162.027 427.94 161.535 427.109 161.535Z" fill="#191919"/>
<rect x="403.364" y="181.236" width="247.28" height="33.72" rx="7.11867" fill="#F2F2F7"/>
<rect x="403.364" y="181.236" width="247.28" height="33.72" rx="7.11867" stroke="#007AFF" stroke-width="0.749333"/>
<path d="M419.568 193.101V198.732H418.456V193.101H419.568ZM413.796 199.236V200.418H418.468V199.236H419.568V203.462H412.707V199.236H413.796ZM413.796 202.549H418.468V201.296H413.796V202.549ZM413.878 193.581C415.482 193.581 416.665 194.576 416.665 196.016C416.665 197.456 415.482 198.451 413.878 198.44C412.274 198.451 411.08 197.456 411.08 196.016C411.08 194.576 412.274 193.581 413.878 193.581ZM413.878 194.517C412.883 194.506 412.169 195.126 412.169 196.016C412.169 196.917 412.883 197.526 413.878 197.526C414.862 197.526 415.576 196.917 415.576 196.016C415.576 195.126 414.862 194.506 413.878 194.517ZM426.23 193.733V196.789H422.765V198.24C424.591 198.246 425.586 198.205 426.769 197.983L426.874 198.884C425.598 199.107 424.521 199.142 422.425 199.142H421.664V195.946H425.118V194.623H421.652V193.733H426.23ZM429.977 193.112V199.564H428.865V197.714H426.898V196.824H428.865V195.524H426.898V194.634H428.865V193.112H429.977ZM429.977 200.09V203.603H428.865V200.992H422.858V200.09H429.977ZM440.315 193.112V199.482H439.215V193.112H440.315ZM431.663 198.217C432.524 198.217 433.513 198.211 434.543 198.182V197.023H432.576V193.663H437.669V194.576H433.689V196.133H437.74V197.023H435.667V198.123C436.598 198.082 437.535 198 438.419 197.878L438.489 198.674C436.206 199.06 433.677 199.083 431.792 199.083L431.663 198.217ZM440.315 199.962V203.462H433.326V199.962H440.315ZM434.426 200.851V202.561H439.238V200.851H434.426Z" fill="#191919"/>
<path d="M412.461 241.245V248.645H411.045V245.331H410.213V247.837H408.82V241.409H410.213V244.125H411.045V241.245H412.461ZM408.481 242.369V243.528H403.247V242.369H405.132V241.339H406.619V242.369H408.481ZM405.881 243.903C407.24 243.903 408.2 244.664 408.211 245.811C408.2 246.935 407.24 247.708 405.881 247.708C404.547 247.708 403.575 246.935 403.575 245.811C403.575 244.664 404.547 243.903 405.881 243.903ZM405.881 244.98C405.296 244.98 404.91 245.284 404.91 245.811C404.91 246.35 405.296 246.619 405.881 246.619C406.467 246.619 406.853 246.35 406.865 245.811C406.853 245.284 406.467 244.98 405.881 244.98ZM409.511 248.422C409.499 249.417 410.635 250.471 412.977 250.705L412.438 251.841C410.699 251.642 409.429 250.986 408.773 250.061C408.094 250.986 406.818 251.642 405.062 251.841L404.558 250.705C406.888 250.471 408.012 249.417 408.012 248.422V248.223H409.511V248.422ZM417.578 242.275C417.566 243.587 418.327 244.793 420.025 245.273L419.264 246.432C418.099 246.08 417.303 245.372 416.852 244.453C416.372 245.495 415.517 246.303 414.265 246.701L413.527 245.518C415.283 244.98 416.068 243.68 416.079 242.287V241.608H417.578V242.275ZM422.121 241.233V243.317H423.561V244.535H422.121V246.713H420.622V241.233H422.121ZM422.121 247.123V249.968H416.536V250.635H422.425V251.818H415.072V248.902H420.634V248.27H415.049V247.123H422.121ZM433.923 242.662V243.903H432.483V244.921H433.923V246.151H432.483V247.673H430.984V241.245H432.483V242.662H433.923ZM429.298 241.877V245.05H425.903V245.987C427.665 245.975 428.859 245.905 430.211 245.671L430.375 246.865C428.841 247.146 427.472 247.204 425.317 247.204H424.416V243.926H427.846V243.048H424.404V241.877H429.298ZM428.97 247.837C431.183 247.837 432.588 248.609 432.588 249.886C432.588 251.15 431.183 251.876 428.97 251.876C426.71 251.876 425.317 251.15 425.317 249.886C425.317 248.609 426.71 247.837 428.97 247.837ZM428.97 248.996C427.553 248.996 426.781 249.289 426.792 249.886C426.781 250.459 427.553 250.764 428.97 250.764C430.375 250.764 431.113 250.459 431.113 249.886C431.113 249.289 430.375 248.996 428.97 248.996Z" fill="#191919"/>
<rect x="403.364" y="262.679" width="247.28" height="33.72" rx="7.11867" fill="#F2F2F7"/>
<rect x="403.364" y="262.679" width="247.28" height="33.72" rx="7.11867" stroke="#007AFF" stroke-width="0.749333"/>
<path d="M419.568 274.543V280.175H418.456V274.543H419.568ZM413.796 280.678V281.861H418.468V280.678H419.568V284.905H412.707V280.678H413.796ZM413.796 283.992H418.468V282.739H413.796V283.992ZM413.878 275.023C415.482 275.023 416.665 276.018 416.665 277.459C416.665 278.899 415.482 279.894 413.878 279.882C412.274 279.894 411.08 278.899 411.08 277.459C411.08 276.018 412.274 275.023 413.878 275.023ZM413.878 275.96C412.883 275.948 412.169 276.569 412.169 277.459C412.169 278.36 412.883 278.969 413.878 278.969C414.862 278.969 415.576 278.36 415.576 277.459C415.576 276.569 414.862 275.948 413.878 275.96ZM426.23 275.175V278.231H422.765V279.683C424.591 279.689 425.586 279.648 426.769 279.426L426.874 280.327C425.598 280.55 424.521 280.585 422.425 280.585H421.664V277.388H425.118V276.065H421.652V275.175H426.23ZM429.977 274.555V281.006H428.865V279.156H426.898V278.266H428.865V276.967H426.898V276.077H428.865V274.555H429.977ZM429.977 281.533V285.046H428.865V282.435H422.858V281.533H429.977ZM440.315 274.555V280.924H439.215V274.555H440.315ZM431.663 279.66C432.524 279.66 433.513 279.654 434.543 279.625V278.465H432.576V275.105H437.669V276.018H433.689V277.576H437.74V278.465H435.667V279.566C436.598 279.525 437.535 279.443 438.419 279.32L438.489 280.116C436.206 280.503 433.677 280.526 431.792 280.526L431.663 279.66ZM440.315 281.404V284.905H433.326V281.404H440.315ZM434.426 282.294V284.004H439.238V282.294H434.426Z" fill="#191919"/>
<rect width="281" height="23.9787" transform="translate(390.875 592.021)" fill="white"/>
<rect x="480.795" y="606.259" width="100.411" height="3.74667" rx="1.87333" fill="black" fill-opacity="0.85"/>
<path d="M419.662 28.2427H419.295V20.6798H419.251L417.467 21.8323V21.4262L419.223 20.2956H419.662V28.2427ZM423.714 28.2427H423.347V20.6798H423.303L421.519 21.8323V21.4262L423.275 20.2956H423.714V28.2427ZM426.219 27.1285C426.16 27.1285 426.103 27.1121 426.049 27.0791C425.994 27.0462 425.95 27.0041 425.917 26.9529C425.888 26.9017 425.873 26.845 425.873 26.7828C425.873 26.7206 425.888 26.662 425.917 26.6072C425.95 26.5523 425.994 26.5102 426.049 26.4809C426.103 26.448 426.162 26.4315 426.224 26.4315C426.286 26.4315 426.343 26.448 426.394 26.4809C426.449 26.5139 426.491 26.5578 426.521 26.6126C426.55 26.6639 426.564 26.7206 426.564 26.7828C426.564 26.845 426.55 26.9017 426.521 26.9529C426.491 27.0041 426.449 27.0462 426.394 27.0791C426.339 27.1121 426.281 27.1285 426.219 27.1285ZM426.219 22.1013C426.16 22.1013 426.103 22.0848 426.049 22.0519C425.994 22.0189 425.95 21.9769 425.917 21.9256C425.888 21.8744 425.873 21.8177 425.873 21.7555C425.873 21.6933 425.888 21.6348 425.917 21.5799C425.95 21.525 425.994 21.4829 426.049 21.4537C426.103 21.4207 426.162 21.4043 426.224 21.4043C426.286 21.4043 426.343 21.4207 426.394 21.4537C426.449 21.4866 426.491 21.5305 426.521 21.5854C426.55 21.6366 426.564 21.6933 426.564 21.7555C426.564 21.8177 426.55 21.8744 426.521 21.9256C426.491 21.9769 426.449 22.0189 426.394 22.0519C426.339 22.0848 426.281 22.1013 426.219 22.1013ZM430.029 28.2427H429.661V20.6798H429.618L427.834 21.8323V21.4262L429.59 20.2956H430.029V28.2427ZM434.081 28.2427H433.713V20.6798H433.67L431.886 21.8323V21.4262L433.642 20.2956H434.081V28.2427Z" fill="black" fill-opacity="0.85"/>
<path d="M607.557 21.1133C607.557 20.6995 607.893 20.364 608.307 20.364H609.056C609.47 20.364 609.805 20.6995 609.805 21.1133V27.108C609.805 27.5218 609.47 27.8573 609.056 27.8573H608.307C607.893 27.8573 607.557 27.5218 607.557 27.108V21.1133Z" fill="black" fill-opacity="0.85"/>
<path d="M611.304 19.6147C611.304 19.2008 611.639 18.8653 612.053 18.8653H612.803C613.216 18.8653 613.552 19.2008 613.552 19.6147V27.108C613.552 27.5218 613.216 27.8573 612.803 27.8573H612.053C611.639 27.8573 611.304 27.5218 611.304 27.108V19.6147Z" fill="black" fill-opacity="0.85"/>
<path d="M603.811 23.736C603.811 23.3221 604.146 22.9867 604.56 22.9867H605.309C605.723 22.9867 606.059 23.3221 606.059 23.736V27.108C606.059 27.5218 605.723 27.8573 605.309 27.8573H604.56C604.146 27.8573 603.811 27.5218 603.811 27.108V23.736Z" fill="black" fill-opacity="0.85"/>
<path d="M600.064 25.6093C600.064 25.1955 600.399 24.86 600.813 24.86H601.563C601.976 24.86 602.312 25.1955 602.312 25.6093V27.108C602.312 27.5218 601.976 27.8573 601.563 27.8573H600.813C600.399 27.8573 600.064 27.5218 600.064 27.108V25.6093Z" fill="black" fill-opacity="0.85"/>
<path fill-rule="evenodd" clip-rule="evenodd" d="M625.167 20.8664C627.015 20.8665 628.793 21.5914 630.132 22.8913C630.233 22.9917 630.395 22.9904 630.494 22.8885L631.458 21.8952C631.508 21.8435 631.536 21.7735 631.536 21.7006C631.536 21.6277 631.507 21.5581 631.456 21.507C627.94 18.0677 622.393 18.0677 618.878 21.507C618.827 21.558 618.798 21.6277 618.797 21.7006C618.797 21.7734 618.825 21.8435 618.875 21.8952L619.84 22.8885C619.939 22.9906 620.1 22.9919 620.201 22.8913C621.541 21.5913 623.319 20.8664 625.167 20.8664ZM625.194 23.8651C626.209 23.8651 627.188 24.2504 627.941 24.9461C628.043 25.0449 628.203 25.0427 628.303 24.9413L629.266 23.948C629.316 23.8959 629.345 23.8252 629.344 23.7518C629.343 23.6783 629.313 23.6082 629.262 23.5572C626.969 21.3807 623.42 21.3807 621.127 23.5572C621.076 23.6082 621.046 23.6784 621.045 23.7518C621.045 23.8253 621.073 23.896 621.124 23.948L622.087 24.9413C622.186 25.0427 622.346 25.0449 622.448 24.9461C623.2 24.2508 624.179 23.8656 625.194 23.8651ZM627.152 25.8039C627.154 25.8776 627.125 25.9486 627.074 26.0002L625.408 27.7163C625.359 27.7668 625.292 27.7951 625.223 27.7951C625.153 27.7951 625.087 27.7668 625.038 27.7163L623.372 26.0002C623.32 25.9485 623.292 25.8775 623.293 25.8039C623.295 25.7302 623.326 25.6605 623.38 25.6111C624.444 24.6925 626.002 24.6925 627.066 25.6111C627.119 25.6605 627.151 25.7303 627.152 25.8039Z" fill="black" fill-opacity="0.85"/>
<path opacity="0.35" d="M637.156 21.488C637.156 20.0395 638.33 18.8653 639.779 18.8653H652.517C653.966 18.8653 655.14 20.0395 655.14 21.488V25.2347C655.14 26.6831 653.966 27.8573 652.517 27.8573H639.779C638.33 27.8573 637.156 26.6831 637.156 25.2347V21.488Z" stroke="black" stroke-opacity="0.85" stroke-width="0.749333"/>
<path opacity="0.4" d="M656.264 22.2373V25.3998C656.9 25.1319 657.314 24.5089 657.314 23.8186C657.314 23.1282 656.9 22.5052 656.264 22.2373Z" fill="black" fill-opacity="0.85"/>
<path d="M638.28 21.488C638.28 20.6603 638.951 19.9893 639.779 19.9893H652.517C653.345 19.9893 654.016 20.6603 654.016 21.488V25.2347C654.016 26.0624 653.345 26.7333 652.517 26.7333H639.779C638.951 26.7333 638.28 26.0624 638.28 25.2347V21.488Z" fill="black" fill-opacity="0.85"/>
<path d="M421.342 99.5565V115.574H419.077V99.5565H421.342ZM412.666 100.681C415.072 100.681 416.864 102.893 416.864 106.371C416.864 109.883 415.072 112.079 412.666 112.079C410.208 112.079 408.416 109.883 408.434 106.371C408.416 102.893 410.208 100.681 412.666 100.681ZM412.666 102.7C411.419 102.7 410.594 104 410.594 106.371C410.594 108.759 411.419 110.041 412.666 110.041C413.878 110.041 414.704 108.759 414.704 106.371C414.704 104 413.878 102.7 412.666 102.7ZM438.079 106.564V108.408H431.88V109.918H429.649V108.408H423.502V106.564H438.079ZM431.897 110.849C431.897 112.166 433.513 113.484 437.043 113.782L436.358 115.468C433.627 115.222 431.704 114.327 430.738 113.027C429.763 114.3 427.875 115.222 425.188 115.468L424.433 113.782C427.911 113.484 429.579 112.096 429.597 110.849V110.533H431.897V110.849ZM430.791 99.7497C434.374 99.7497 436.586 100.839 436.604 102.753C436.586 104.667 434.374 105.774 430.791 105.774C427.226 105.774 424.96 104.667 424.96 102.753C424.96 100.839 427.226 99.7497 430.791 99.7497ZM430.791 101.401C428.525 101.401 427.278 101.875 427.296 102.753C427.278 103.613 428.525 104.07 430.791 104.07C433.021 104.07 434.286 103.613 434.286 102.753C434.286 101.875 433.021 101.401 430.791 101.401ZM452.902 99.5565V115.538H450.759V99.5565H452.902ZM449.565 99.7849V114.801H447.458V107.249H446.176C445.965 110.393 444.63 112.289 442.663 112.289C440.556 112.289 439.186 110.076 439.186 106.476C439.186 102.893 440.556 100.698 442.663 100.698C444.586 100.698 445.903 102.489 446.158 105.475H447.458V99.7849H449.565ZM442.663 102.806C441.767 102.806 441.24 104.035 441.258 106.476C441.24 108.935 441.767 110.147 442.663 110.129C443.576 110.147 444.121 108.935 444.121 106.476C444.121 104.035 443.576 102.806 442.663 102.806ZM468.445 99.5565V115.538H466.337V99.5565H468.445ZM465.038 99.9078V114.836H462.948V107.495H460.331C459.418 109.321 457.934 110.902 455.659 112.219L454.395 110.638C457.618 108.724 459.04 106.397 459.347 103.262H455.273V101.453H461.578C461.569 102.972 461.411 104.404 461.033 105.721H462.948V99.9078H465.038ZM488.009 99.5741V110.674H485.884V105.703H484.637V109.462H482.547V99.82H484.637V103.894H485.884V99.5741H488.009ZM482.038 101.26V102.999H474.188V101.26H477.015V99.7146H479.246V101.26H482.038ZM478.139 103.561C480.177 103.561 481.617 104.702 481.634 106.423C481.617 108.109 480.177 109.269 478.139 109.269C476.137 109.269 474.679 108.109 474.679 106.423C474.679 104.702 476.137 103.561 478.139 103.561ZM478.139 105.177C477.261 105.177 476.682 105.633 476.682 106.423C476.682 107.231 477.261 107.635 478.139 107.635C479.017 107.635 479.597 107.231 479.615 106.423C479.597 105.633 479.017 105.177 478.139 105.177ZM483.584 110.34C483.566 111.833 485.27 113.413 488.782 113.765L487.974 115.468C485.366 115.17 483.461 114.186 482.477 112.799C481.459 114.186 479.544 115.17 476.91 115.468L476.155 113.765C479.65 113.413 481.336 111.833 481.336 110.34V110.041H483.584V110.34ZM495.684 101.12C495.667 103.087 496.808 104.896 499.355 105.616L498.213 107.354C496.466 106.827 495.272 105.765 494.595 104.386C493.875 105.949 492.593 107.161 490.714 107.758L489.608 105.984C492.242 105.177 493.419 103.227 493.436 101.137V100.119H495.684V101.12ZM502.498 99.5565V102.683H504.659V104.509H502.498V107.776H500.25V99.5565H502.498ZM502.498 108.39V112.658H494.121V113.659H502.955V115.433H491.926V111.06H500.268V110.112H491.891V108.39H502.498ZM512.65 99.7849C516.32 99.7849 518.445 100.751 518.463 102.507C518.445 104.281 516.32 105.247 512.65 105.247C508.961 105.247 506.819 104.281 506.819 102.507C506.819 100.751 508.961 99.7849 512.65 99.7849ZM512.65 101.418C510.296 101.418 509.155 101.805 509.172 102.507C509.155 103.297 510.296 103.596 512.65 103.596C515.021 103.596 516.145 103.297 516.145 102.507C516.145 101.805 515.021 101.418 512.65 101.418ZM519.938 106.002V107.776H505.361V106.002H519.938ZM518.164 108.707V112.781H509.26V113.747H518.586V115.433H507.065V111.218H515.951V110.34H507.047V108.707H518.164ZM539.678 111.85V113.677H525.049V111.85H531.213V108.9H526.594V100.575H528.842V103.051H535.815V100.575H538.045V108.9H533.444V111.85H539.678ZM528.842 107.108H535.815V104.843H528.842V107.108ZM554.378 99.5565V115.538H552.218V107.547H550.725V114.766H548.618V99.82H550.725V105.739H552.218V99.5565H554.378ZM543.489 101.33V109.673C544.771 109.646 546.176 109.532 547.722 109.233L547.95 111.165C545.808 111.534 543.981 111.64 542.33 111.64H541.241V101.33H543.489ZM570.764 111.833V113.677H556.134V111.833H559.401V107.916C558.163 107.179 557.416 106.046 557.416 104.632C557.416 102.05 559.945 100.329 563.423 100.329C566.883 100.329 569.429 102.05 569.447 104.632C569.438 106.011 568.709 107.135 567.515 107.881V111.833H570.764ZM563.423 102.103C561.14 102.103 559.629 103.016 559.629 104.632C559.629 106.195 561.14 107.161 563.423 107.161C565.688 107.161 567.216 106.195 567.234 104.632C567.216 103.016 565.688 102.103 563.423 102.103ZM561.614 111.833H565.249V108.724C564.678 108.838 564.064 108.9 563.423 108.9C562.782 108.9 562.176 108.847 561.614 108.724V111.833ZM573.75 114.081C572.924 114.081 572.257 113.413 572.274 112.605C572.257 111.798 572.924 111.148 573.75 111.148C574.522 111.148 575.207 111.798 575.207 112.605C575.207 113.413 574.522 114.081 573.75 114.081Z" fill="black"/>
<rect width="281" height="65.9413" transform="translate(390.125 526.08)" fill="white"/>
<rect x="402.115" y="532.075" width="257.021" height="44.96" rx="8.992" fill="#042D53"/>
<path d="M493.678 548.098V557.347H491.908V553.205H490.868V556.337H489.127V548.302H490.868V551.698H491.908V548.098H493.678ZM488.702 549.503V550.951H482.16V549.503H484.517V548.215H486.375V549.503H488.702ZM485.453 551.42C487.151 551.42 488.351 552.371 488.366 553.805C488.351 555.21 487.151 556.176 485.453 556.176C483.785 556.176 482.57 555.21 482.57 553.805C482.57 552.371 483.785 551.42 485.453 551.42ZM485.453 552.766C484.722 552.766 484.239 553.147 484.239 553.805C484.239 554.479 484.722 554.815 485.453 554.815C486.185 554.815 486.668 554.479 486.683 553.805C486.668 553.147 486.185 552.766 485.453 552.766ZM489.99 557.069C489.976 558.313 491.395 559.63 494.322 559.923L493.649 561.343C491.476 561.094 489.888 560.274 489.068 559.118C488.219 560.274 486.624 561.094 484.429 561.343L483.8 559.923C486.712 559.63 488.117 558.313 488.117 557.069V556.82H489.99V557.069ZM500.074 549.385C500.06 551.025 501.011 552.532 503.133 553.132L502.182 554.581C500.725 554.142 499.73 553.257 499.167 552.108C498.567 553.41 497.498 554.42 495.932 554.918L495.01 553.439C497.206 552.766 498.186 551.142 498.201 549.4V548.551H500.074V549.385ZM505.753 548.083V550.688H507.553V552.21H505.753V554.932H503.879V548.083H505.753ZM505.753 555.445V559.001H498.772V559.835H506.133V561.313H496.942V557.669H503.894V556.879H496.913V555.445H505.753ZM523.784 558.328V559.85H511.592V558.328H516.729V555.869H512.88V548.932H514.754V550.995H520.564V548.932H522.422V555.869H518.588V558.328H523.784ZM514.754 554.376H520.564V552.488H514.754V554.376ZM536.033 548.083V561.401H534.233V554.742H532.989V560.757H531.233V548.302H532.989V553.235H534.233V548.083H536.033ZM526.959 549.561V556.513C528.028 556.491 529.199 556.396 530.487 556.147L530.677 557.757C528.891 558.064 527.369 558.152 525.993 558.152H525.086V549.561H526.959ZM548.693 548.083V561.401H546.805V548.083H548.693ZM544.698 549.473C544.698 553.513 543.278 556.864 538.521 559.118L537.541 557.625C540.98 556.001 542.495 553.893 542.795 550.937H538.258V549.473H544.698ZM557.913 548.624C559.86 548.624 561.265 549.722 561.265 551.332C561.265 552.635 560.306 553.63 558.879 553.937V554.903C559.918 554.844 560.965 554.749 561.938 554.61L562.084 555.971C559.348 556.454 556.289 556.513 554.064 556.513L553.874 555.035C554.796 555.035 555.872 555.027 557.006 554.991V553.952C555.535 553.659 554.547 552.656 554.562 551.332C554.547 549.722 555.952 548.624 557.913 548.624ZM557.913 550.029C556.962 550.044 556.289 550.498 556.303 551.332C556.289 552.137 556.962 552.62 557.913 552.62C558.865 552.62 559.509 552.137 559.509 551.332C559.509 550.498 558.865 550.044 557.913 550.029ZM564.558 548.098V552.283H566.256V553.835H564.558V558.255H562.684V548.098H564.558ZM565.012 559.66V561.152H555.63V557.362H557.504V559.66H565.012ZM579.047 558.386V559.923H566.856V558.386H569.973V556.352H568.261V551.873H575.798V550.439H568.246V548.946H577.642V553.366H570.134V554.844H577.949V556.352H576.061V558.386H579.047ZM571.788 558.386H574.232V556.352H571.788V558.386Z" fill="white"/>
<rect width="281" height="31.472" transform="translate(391 40.9707)" fill="white"/>
<path d="M415.729 49.9514C415.362 49.5842 414.77 49.5842 414.403 49.9514L408.176 56.1784C407.884 56.4706 407.884 56.9427 408.176 57.2349L414.403 63.4619C414.77 63.8291 415.362 63.8291 415.729 63.4619C416.097 63.0947 416.097 62.5028 415.729 62.1356L410.304 56.7029L415.737 51.2702C416.097 50.9106 416.097 50.3111 415.729 49.9514Z" fill="black"/>
<path d="M509.232 50.2495V59.4991H507.461V55.3573H506.422V58.4893H504.681V50.4544H506.422V53.8498H507.461V50.2495H509.232ZM504.256 51.6545V53.1034H497.714V51.6545H500.07V50.3666H501.929V51.6545H504.256ZM501.007 53.5718C502.705 53.5718 503.905 54.5231 503.92 55.9573C503.905 57.3623 502.705 58.3283 501.007 58.3283C499.339 58.3283 498.124 57.3623 498.124 55.9573C498.124 54.5231 499.339 53.5718 501.007 53.5718ZM501.007 54.9182C500.275 54.9182 499.792 55.2987 499.792 55.9573C499.792 56.6306 500.275 56.9672 501.007 56.9672C501.739 56.9672 502.222 56.6306 502.237 55.9573C502.222 55.2987 501.739 54.9182 501.007 54.9182ZM505.544 59.221C505.529 60.4651 506.949 61.7822 509.876 62.0749L509.203 63.4946C507.03 63.2458 505.442 62.4262 504.622 61.27C503.773 62.4262 502.178 63.2458 499.983 63.4946L499.353 62.0749C502.266 61.7822 503.671 60.4651 503.671 59.221V58.9722H505.544V59.221ZM515.628 51.5374C515.613 53.1766 516.565 54.6841 518.687 55.2841L517.735 56.733C516.279 56.294 515.284 55.4085 514.721 54.2596C514.12 55.5622 513.052 56.572 511.486 57.0696L510.564 55.5915C512.759 54.9182 513.74 53.2937 513.755 51.5521V50.7032H515.628V51.5374ZM521.306 50.2349V52.84H523.107V54.3621H521.306V57.0843H519.433V50.2349H521.306ZM521.306 57.5965V61.1529H514.325V61.9871H521.687V63.4653H512.496V59.8211H519.448V59.0308H512.467V57.5965H521.306ZM539.337 60.4797V62.0018H527.146V60.4797H532.283V58.0209H528.434V51.0837H530.307V53.1473H536.117V51.0837H537.976V58.0209H534.142V60.4797H539.337ZM530.307 56.5281H536.117V54.6402H530.307V56.5281ZM551.587 50.2349V63.5531H549.787V56.894H548.543V62.9092H546.787V50.4544H548.543V55.3866H549.787V50.2349H551.587ZM542.513 51.7131V58.6649C543.582 58.6429 544.752 58.5478 546.04 58.299L546.231 59.9089C544.445 60.2162 542.923 60.3041 541.547 60.3041H540.64V51.7131H542.513ZM564.247 50.2349V63.5531H562.359V50.2349H564.247ZM560.251 51.6253C560.251 55.6646 558.832 59.0161 554.075 61.27L553.095 59.7772C556.534 58.1527 558.049 56.0452 558.349 53.0888H553.812V51.6253H560.251Z" fill="black"/>
</g>
<rect x="387" y="4" width="289" height="616.459" rx="33.9733" stroke="#E6E6E6" stroke-width="8"/>
<circle opacity="0.5" cx="287" cy="198" r="16" fill="#FFA339"/>
<path d="M284.333 198C284.333 199.473 285.527 200.667 287 200.667C288.473 200.667 289.667 199.473 289.667 198C289.667 196.527 288.473 195.333 287 195.333C285.527 195.333 284.333 196.527 284.333 198ZM391.354 198.354C391.549 198.158 391.549 197.842 391.354 197.646L388.172 194.464C387.976 194.269 387.66 194.269 387.464 194.464C387.269 194.66 387.269 194.976 387.464 195.172L390.293 198L387.464 200.828C387.269 201.024 387.269 201.34 387.464 201.536C387.66 201.731 387.976 201.731 388.172 201.536L391.354 198.354ZM289.6 198.5C289.876 198.5 290.1 198.276 290.1 198C290.1 197.724 289.876 197.5 289.6 197.5V198.5ZM294.8 197.5C294.524 197.5 294.3 197.724 294.3 198C294.3 198.276 294.524 198.5 294.8 198.5V197.5ZM300 198.5C300.276 198.5 300.5 198.276 300.5 198C300.5 197.724 300.276 197.5 300 197.5V198.5ZM305.2 197.5C304.924 197.5 304.7 197.724 304.7 198C304.7 198.276 304.924 198.5 305.2 198.5V197.5ZM310.4 198.5C310.676 198.5 310.9 198.276 310.9 198C310.9 197.724 310.676 197.5 310.4 197.5V198.5ZM315.6 197.5C315.324 197.5 315.1 197.724 315.1 198C315.1 198.276 315.324 198.5 315.6 198.5V197.5ZM320.8 198.5C321.076 198.5 321.3 198.276 321.3 198C321.3 197.724 321.076 197.5 320.8 197.5V198.5ZM326 197.5C325.724 197.5 325.5 197.724 325.5 198C325.5 198.276 325.724 198.5 326 198.5V197.5ZM331.2 198.5C331.476 198.5 331.7 198.276 331.7 198C331.7 197.724 331.476 197.5 331.2 197.5V198.5ZM336.4 197.5C336.124 197.5 335.9 197.724 335.9 198C335.9 198.276 336.124 198.5 336.4 198.5V197.5ZM341.6 198.5C341.876 198.5 342.1 198.276 342.1 198C342.1 197.724 341.876 197.5 341.6 197.5V198.5ZM346.8 197.5C346.524 197.5 346.3 197.724 346.3 198C346.3 198.276 346.524 198.5 346.8 198.5V197.5ZM352 198.5C352.276 198.5 352.5 198.276 352.5 198C352.5 197.724 352.276 197.5 352 197.5V198.5ZM357.2 197.5C356.924 197.5 356.7 197.724 356.7 198C356.7 198.276 356.924 198.5 357.2 198.5V197.5ZM362.4 198.5C362.676 198.5 362.9 198.276 362.9 198C362.9 197.724 362.676 197.5 362.4 197.5V198.5ZM367.6 197.5C367.324 197.5 367.1 197.724 367.1 198C367.1 198.276 367.324 198.5 367.6 198.5V197.5ZM372.8 198.5C373.076 198.5 373.3 198.276 373.3 198C373.3 197.724 373.076 197.5 372.8 197.5V198.5ZM378 197.5C377.724 197.5 377.5 197.724 377.5 198C377.5 198.276 377.724 198.5 378 198.5V197.5ZM383.2 198.5C383.476 198.5 383.7 198.276 383.7 198C383.7 197.724 383.476 197.5 383.2 197.5V198.5ZM388.4 197.5C388.124 197.5 387.9 197.724 387.9 198C387.9 198.276 388.124 198.5 388.4 198.5V197.5ZM287 198.5H289.6V197.5H287V198.5ZM294.8 198.5H300V197.5H294.8V198.5ZM305.2 198.5H310.4V197.5H305.2V198.5ZM315.6 198.5H320.8V197.5H315.6V198.5ZM326 198.5H331.2V197.5H326V198.5ZM336.4 198.5H341.6V197.5H336.4V198.5ZM346.8 198.5H352V197.5H346.8V198.5ZM357.2 198.5H362.4V197.5H357.2V198.5ZM367.6 198.5H372.8V197.5H367.6V198.5ZM378 198.5H383.2V197.5H378V198.5ZM388.4 198.5H391V197.5H388.4V198.5ZM281.667 198C281.667 200.946 284.054 203.333 287 203.333C289.946 203.333 292.333 200.946 292.333 198C292.333 195.054 289.946 192.667 287 192.667C284.054 192.667 281.667 195.054 281.667 198ZM391.707 198.707C392.098 198.317 392.098 197.683 391.707 197.293L385.343 190.929C384.953 190.538 384.319 190.538 383.929 190.929C383.538 191.319 383.538 191.953 383.929 192.343L389.586 198L383.929 203.657C383.538 204.047 383.538 204.681 383.929 205.071C384.319 205.462 384.953 205.462 385.343 205.071L391.707 198.707ZM289.6 199C290.152 199 290.6 198.552 290.6 198C290.6 197.448 290.152 197 289.6 197V199ZM294.8 197C294.248 197 293.8 197.448 293.8 198C293.8 198.552 294.248 199 294.8 199V197ZM300 199C300.552 199 301 198.552 301 198C301 197.448 300.552 197 300 197V199ZM305.2 197C304.648 197 304.2 197.448 304.2 198C304.2 198.552 304.648 199 305.2 199V197ZM310.4 199C310.952 199 311.4 198.552 311.4 198C311.4 197.448 310.952 197 310.4 197V199ZM315.6 197C315.048 197 314.6 197.448 314.6 198C314.6 198.552 315.048 199 315.6 199V197ZM320.8 199C321.352 199 321.8 198.552 321.8 198C321.8 197.448 321.352 197 320.8 197V199ZM326 197C325.448 197 325 197.448 325 198C325 198.552 325.448 199 326 199V197ZM331.2 199C331.752 199 332.2 198.552 332.2 198C332.2 197.448 331.752 197 331.2 197V199ZM336.4 197C335.848 197 335.4 197.448 335.4 198C335.4 198.552 335.848 199 336.4 199V197ZM341.6 199C342.152 199 342.6 198.552 342.6 198C342.6 197.448 342.152 197 341.6 197V199ZM346.8 197C346.248 197 345.8 197.448 345.8 198C345.8 198.552 346.248 199 346.8 199V197ZM352 199C352.552 199 353 198.552 353 198C353 197.448 352.552 197 352 197V199ZM357.2 197C356.648 197 356.2 197.448 356.2 198C356.2 198.552 356.648 199 357.2 199V197ZM362.4 199C362.952 199 363.4 198.552 363.4 198C363.4 197.448 362.952 197 362.4 197V199ZM367.6 197C367.048 197 366.6 197.448 366.6 198C366.6 198.552 367.048 199 367.6 199V197ZM372.8 199C373.352 199 373.8 198.552 373.8 198C373.8 197.448 373.352 197 372.8 197V199ZM378 197C377.448 197 377 197.448 377 198C377 198.552 377.448 199 378 199V197ZM383.2 199C383.752 199 384.2 198.552 384.2 198C384.2 197.448 383.752 197 383.2 197V199ZM388.4 197C387.848 197 387.4 197.448 387.4 198C387.4 198.552 387.848 199 388.4 199V197ZM287 199H289.6V197H287V199ZM294.8 199H300V197H294.8V199ZM305.2 199H310.4V197H305.2V199ZM315.6 199H320.8V197H315.6V199ZM326 199H331.2V197H326V199ZM336.4 199H341.6V197H336.4V199ZM346.8 199H352V197H346.8V199ZM357.2 199H362.4V197H357.2V199ZM367.6 199H372.8V197H367.6V199ZM378 199H383.2V197H378V199ZM388.4 199H391V197H388.4V199Z" fill="#FFA339"/>
<defs>
<filter id="filter0_d_2711_38292" x="5.12541" y="75.44" width="281" height="170.92" filterUnits="userSpaceOnUse" color-interpolation-filters="sRGB">
<feFlood flood-opacity="0" result="BackgroundImageFix"/>
<feColorMatrix in="SourceAlpha" type="matrix" values="0 0 0 0 0 0 0 0 0 0 0 0 0 0 0 0 0 0 127 0" result="hardAlpha"/>
<feOffset/>
<feGaussianBlur stdDeviation="5.99467"/>
<feComposite in2="hardAlpha" operator="out"/>
<feColorMatrix type="matrix" values="0 0 0 0 1 0 0 0 0 0.9422 0 0 0 0 0.83 0 0 0 1 0"/>
<feBlend mode="normal" in2="BackgroundImageFix" result="effect1_dropShadow_2711_38292"/>
<feBlend mode="normal" in="SourceGraphic" in2="effect1_dropShadow_2711_38292" result="shape"/>
</filter>
<clipPath id="clip0_2711_38292">
<rect x="6" y="8" width="281" height="608.459" rx="29.9733" fill="white"/>
</clipPath>
<clipPath id="clip1_2711_38292">
<rect width="257.021" height="23.9787" fill="white" transform="translate(17.9893 299.013)"/>
</clipPath>
<clipPath id="clip2_2711_38292">
<rect x="391" y="8" width="281" height="608.459" rx="29.9733" fill="white"/>
</clipPath>
</defs>
</svg>
