<svg width="781" height="625" viewBox="0 0 781 625" fill="none" xmlns="http://www.w3.org/2000/svg">
<g clip-path="url(#clip0_127_7074)">
<rect x="8" y="8" width="281.25" height="609" rx="30" fill="white"/>
<g clip-path="url(#clip1_127_7074)">
<rect width="281.25" height="33" transform="translate(8 8)" fill="white"/>
<path d="M91.4451 7.25H206.519V18.5C206.519 25.5416 200.847 31.25 193.85 31.25H104.114C97.1171 31.25 91.4451 25.5416 91.4451 18.5V7.25Z" fill="black"/>
<path d="M91.6178 7.25L90.5 6.5C92.4753 6.5 91.4684 8.86156 91.4684 10.8495C91.4684 10.8999 91.4673 10.9501 91.4653 11H91.6178V7.25Z" fill="black"/>
<path d="M206.382 7.25L207.5 6.5C205.525 6.5 206.532 8.86156 206.532 10.8495C206.532 10.8999 206.533 10.9501 206.535 11H206.382V7.25Z" fill="black"/>
<path d="M36.6879 28.25H36.3199V20.6804H36.2759L34.4907 21.834V21.4275L36.2485 20.2959H36.6879V28.25ZM40.7435 28.25H40.3755V20.6804H40.3315L38.5462 21.834V21.4275L40.304 20.2959H40.7435V28.25ZM43.25 27.1349C43.1914 27.1349 43.1346 27.1184 43.0797 27.0854C43.0248 27.0525 42.9808 27.0104 42.9479 26.9591C42.9186 26.9078 42.9039 26.8511 42.9039 26.7888C42.9039 26.7266 42.9186 26.668 42.9479 26.613C42.9808 26.5581 43.0248 26.516 43.0797 26.4867C43.1346 26.4537 43.1932 26.4373 43.2555 26.4373C43.3177 26.4373 43.3745 26.4537 43.4258 26.4867C43.4807 26.5197 43.5228 26.5636 43.5521 26.6185C43.5814 26.6698 43.5961 26.7266 43.5961 26.7888C43.5961 26.8511 43.5814 26.9078 43.5521 26.9591C43.5228 27.0104 43.4807 27.0525 43.4258 27.0854C43.3708 27.1184 43.3123 27.1349 43.25 27.1349ZM43.25 22.1031C43.1914 22.1031 43.1346 22.0867 43.0797 22.0537C43.0248 22.0208 42.9808 21.9786 42.9479 21.9274C42.9186 21.8761 42.9039 21.8193 42.9039 21.7571C42.9039 21.6948 42.9186 21.6362 42.9479 21.5813C42.9808 21.5264 43.0248 21.4843 43.0797 21.455C43.1346 21.422 43.1932 21.4055 43.2555 21.4055C43.3177 21.4055 43.3745 21.422 43.4258 21.455C43.4807 21.4879 43.5228 21.5319 43.5521 21.5868C43.5814 21.6381 43.5961 21.6948 43.5961 21.7571C43.5961 21.8193 43.5814 21.8761 43.5521 21.9274C43.5228 21.9786 43.4807 22.0208 43.4258 22.0537C43.3708 22.0867 43.3123 22.1031 43.25 22.1031ZM47.0639 28.25H46.6958V20.6804H46.6519L44.8666 21.834V21.4275L46.6244 20.2959H47.0639V28.25ZM51.1194 28.25H50.7514V20.6804H50.7075L48.9222 21.834V21.4275L50.68 20.2959H51.1194V28.25Z" fill="black" fill-opacity="0.85"/>
<path d="M224.75 21.125C224.75 20.7108 225.086 20.375 225.5 20.375H226.25C226.664 20.375 227 20.7108 227 21.125V27.125C227 27.5392 226.664 27.875 226.25 27.875H225.5C225.086 27.875 224.75 27.5392 224.75 27.125V21.125Z" fill="black" fill-opacity="0.85"/>
<path d="M228.5 19.625C228.5 19.2108 228.836 18.875 229.25 18.875H230C230.414 18.875 230.75 19.2108 230.75 19.625V27.125C230.75 27.5392 230.414 27.875 230 27.875H229.25C228.836 27.875 228.5 27.5392 228.5 27.125V19.625Z" fill="black" fill-opacity="0.85"/>
<path d="M221 23.75C221 23.3358 221.336 23 221.75 23H222.5C222.914 23 223.25 23.3358 223.25 23.75V27.125C223.25 27.5392 222.914 27.875 222.5 27.875H221.75C221.336 27.875 221 27.5392 221 27.125V23.75Z" fill="black" fill-opacity="0.85"/>
<path d="M217.25 25.625C217.25 25.2108 217.586 24.875 218 24.875H218.75C219.164 24.875 219.5 25.2108 219.5 25.625V27.125C219.5 27.5392 219.164 27.875 218.75 27.875H218C217.586 27.875 217.25 27.5392 217.25 27.125V25.625Z" fill="black" fill-opacity="0.85"/>
<path fill-rule="evenodd" clip-rule="evenodd" d="M242.375 20.8781C244.225 20.8782 246.004 21.6038 247.345 22.9049C247.446 23.0053 247.607 23.004 247.707 22.902L248.672 21.9078C248.722 21.8561 248.75 21.786 248.75 21.7131C248.75 21.6401 248.721 21.5704 248.67 21.5193C245.151 18.0769 239.599 18.0769 236.08 21.5193C236.029 21.5704 236 21.6401 236 21.713C236 21.7859 236.028 21.8561 236.078 21.9078L237.043 22.902C237.143 23.0042 237.304 23.0055 237.405 22.9049C238.746 21.6037 240.525 20.8781 242.375 20.8781ZM242.402 23.8793C243.418 23.8792 244.398 24.2649 245.152 24.9612C245.254 25.0601 245.414 25.0579 245.514 24.9564L246.478 23.9622C246.528 23.9101 246.557 23.8393 246.556 23.7658C246.555 23.6923 246.526 23.6222 246.474 23.5711C244.179 21.3926 240.626 21.3926 238.332 23.5711C238.28 23.6222 238.251 23.6924 238.25 23.7659C238.249 23.8394 238.278 23.9102 238.328 23.9622L239.292 24.9564C239.391 25.0579 239.552 25.0601 239.654 24.9612C240.407 24.2653 241.386 23.8797 242.402 23.8793ZM244.362 25.8198C244.364 25.8935 244.335 25.9646 244.284 26.0162L242.616 27.7339C242.567 27.7844 242.501 27.8128 242.431 27.8128C242.362 27.8128 242.295 27.7844 242.246 27.7339L240.578 26.0162C240.527 25.9645 240.499 25.8934 240.5 25.8197C240.502 25.746 240.533 25.6762 240.586 25.6268C241.651 24.7074 243.211 24.7074 244.276 25.6268C244.329 25.6762 244.361 25.7461 244.362 25.8198Z" fill="black" fill-opacity="0.85"/>
<path opacity="0.35" d="M257 18.875H269.75C271.2 18.875 272.375 20.0503 272.375 21.5V25.25C272.375 26.6997 271.2 27.875 269.75 27.875H257C255.55 27.875 254.375 26.6997 254.375 25.25V21.5C254.375 20.0503 255.55 18.875 257 18.875Z" stroke="black" stroke-opacity="0.85" stroke-width="0.75"/>
<path opacity="0.4" d="M273.5 22.25V25.4153C274.137 25.1472 274.551 24.5236 274.551 23.8326C274.551 23.1417 274.137 22.5181 273.5 22.25" fill="black" fill-opacity="0.85"/>
<path d="M255.5 21.5C255.5 20.6716 256.172 20 257 20H269.75C270.578 20 271.25 20.6716 271.25 21.5V25.25C271.25 26.0784 270.578 26.75 269.75 26.75H257C256.172 26.75 255.5 26.0784 255.5 25.25V21.5Z" fill="black" fill-opacity="0.85"/>
</g>
<rect width="281.25" height="24" transform="translate(8 593)" fill="white"/>
<rect x="98" y="607.25" width="100.5" height="3.75" rx="1.875" fill="black" fill-opacity="0.85"/>
<rect width="281.25" height="31.5" transform="translate(8 41)" fill="white"/>
<path d="M32.7511 49.989C32.3836 49.6215 31.7911 49.6215 31.4236 49.989L25.1911 56.2215C24.8986 56.514 24.8986 56.9865 25.1911 57.279L31.4236 63.5115C31.7911 63.879 32.3836 63.879 32.7511 63.5115C33.1186 63.144 33.1186 62.5515 32.7511 62.184L27.3211 56.7465L32.7586 51.309C33.1186 50.949 33.1186 50.349 32.7511 49.989Z" fill="black"/>
<path d="M132.519 50.28V60H130.659V50.28H132.519ZM121.329 56.73C123.549 55.965 124.524 54.105 124.539 52.29V51H126.459V52.29C126.459 54.06 127.404 55.785 129.609 56.49L128.649 57.96C127.134 57.465 126.099 56.46 125.514 55.185C124.914 56.55 123.849 57.66 122.289 58.2L121.329 56.73ZM123.579 63.36V59.07H125.469V61.86H132.879V63.36H123.579ZM141.913 51.66V53.13H139.243C139.258 54.48 140.263 55.875 142.393 56.43L141.523 57.87C140.008 57.48 138.943 56.655 138.343 55.575C137.758 56.805 136.678 57.78 135.103 58.23L134.233 56.76C136.378 56.145 137.368 54.63 137.383 53.13H134.683V51.66H137.383V50.22H139.273V51.66H141.913ZM136.423 61.05C136.423 59.46 138.178 58.56 141.013 58.56C143.848 58.56 145.603 59.46 145.603 61.05C145.603 62.67 143.848 63.6 141.013 63.6C138.178 63.6 136.423 62.67 136.423 61.05ZM138.283 61.05C138.283 61.785 139.243 62.175 141.013 62.19C142.813 62.175 143.743 61.785 143.743 61.05C143.743 60.33 142.813 59.97 141.013 59.97C139.243 59.97 138.283 60.33 138.283 61.05ZM141.523 55.35V53.85H143.713V50.25H145.573V58.32H143.713V55.35H141.523ZM161.364 50.79V55.5H157.764V56.76H162.924V58.26H150.744V56.76H155.874V55.5H152.244V50.79H161.364ZM152.094 60.72V59.25H161.424V63.6H159.564V60.72H152.094ZM154.074 54.03H159.534V52.26H154.074V54.03ZM175.887 57.42V58.92H163.707V57.42H168.867V56.46H165.207V52.77H172.557V51.96H165.207V50.52H174.417V54.12H167.067V55.02H174.657V56.46H170.727V57.42H175.887ZM165.057 61.14V59.67H174.507V63.54H172.617V61.14H165.057Z" fill="black"/>
<rect width="281.25" height="293.25" transform="translate(8 72.5)" fill="white"/>
<path d="M23.792 90.564C23.78 92.388 24.284 94.128 25.784 94.932L24.92 96.108C23.996 95.592 23.396 94.728 23.036 93.672C22.664 94.86 22.016 95.844 21.056 96.42L20.12 95.34C21.716 94.38 22.328 92.472 22.328 90.66V88.836H23.792V90.564ZM25.808 98.076V88.068H27.2V92.076H28.136V87.9H29.552V98.58H28.136V93.276H27.2V98.076H25.808ZM40.4511 96.156V97.38H30.6831V96.156H34.8111V94.548H31.8111V90.972H37.8351V89.796H31.7871V88.596H39.3231V92.148H33.2991V93.348H39.5631V94.548H36.2751V96.156H40.4511ZM50.7982 93.108V94.284H46.7662V96.156H45.2542V94.284H41.0542V93.108H50.7982ZM42.0622 90.324C42.0502 88.98 43.5982 88.128 45.9262 88.116C48.2302 88.128 49.7662 88.98 49.7662 90.324C49.7662 91.692 48.2302 92.532 45.9262 92.532C43.5982 92.532 42.0502 91.692 42.0622 90.324ZM42.2062 98.388V95.196H43.7182V97.188H49.7182V98.388H42.2062ZM43.6702 90.324C43.6582 90.984 44.5462 91.332 45.9262 91.332C47.2942 91.332 48.1702 90.984 48.1822 90.324C48.1702 89.652 47.2942 89.292 45.9262 89.292C44.5462 89.292 43.6582 89.652 43.6702 90.324ZM63.1189 87.924V95.7H61.6309V87.924H63.1189ZM54.1669 93.084C55.9429 92.472 56.7229 90.984 56.7349 89.532V88.5H58.2709V89.532C58.2709 90.948 59.0269 92.328 60.7909 92.892L60.0229 94.068C58.8109 93.672 57.9829 92.868 57.5149 91.848C57.0349 92.94 56.1829 93.828 54.9349 94.26L54.1669 93.084ZM55.9669 98.388V94.956H57.4789V97.188H63.4069V98.388H55.9669ZM70.634 89.028V90.204H68.498C68.51 91.284 69.314 92.4 71.018 92.844L70.322 93.996C69.11 93.684 68.258 93.024 67.778 92.16C67.31 93.144 66.446 93.924 65.186 94.284L64.49 93.108C66.206 92.616 66.998 91.404 67.01 90.204H64.85V89.028H67.01V87.876H68.522V89.028H70.634ZM66.242 96.54C66.242 95.268 67.646 94.548 69.914 94.548C72.182 94.548 73.586 95.268 73.586 96.54C73.586 97.836 72.182 98.58 69.914 98.58C67.646 98.58 66.242 97.836 66.242 96.54ZM67.73 96.54C67.73 97.128 68.498 97.44 69.914 97.452C71.354 97.44 72.098 97.128 72.098 96.54C72.098 95.964 71.354 95.676 69.914 95.676C68.498 95.676 67.73 95.964 67.73 96.54ZM70.322 91.98V90.78H72.074V87.9H73.562V94.356H72.074V91.98H70.322ZM81.2027 97.62C79.3307 97.62 77.9987 96.588 77.9627 95.124H79.7387C79.7747 95.736 80.3867 96.156 81.2027 96.156C82.0547 96.156 82.6547 95.688 82.6427 95.004C82.6547 94.32 82.0427 93.828 81.0347 93.828H80.2667V92.532H81.0347C81.8867 92.52 82.4627 92.064 82.4507 91.38C82.4627 90.744 81.9707 90.3 81.2267 90.3C80.4707 90.3 79.8467 90.72 79.8347 91.38H78.1307C78.1667 89.916 79.4867 88.896 81.2267 88.908C82.9907 88.896 84.1667 89.952 84.1547 91.284C84.1667 92.244 83.5067 92.916 82.5467 93.084V93.156C83.8067 93.3 84.4907 94.056 84.4907 95.124C84.4907 96.576 83.1107 97.62 81.2027 97.62Z" fill="black"/>
<rect x="20" y="125" width="24" height="24" rx="12" fill="#F2F2F7"/>
<path d="M32.0008 141.95C34.7346 141.95 36.9508 139.734 36.9508 137C36.9508 134.266 34.7346 132.05 32.0008 132.05C29.267 132.05 27.0508 134.266 27.0508 137C27.0508 139.734 29.267 141.95 32.0008 141.95Z" fill="#F8981D"/>
<path d="M27.1076 133.739C28.0083 133.739 28.7386 133.009 28.7386 132.108C28.7386 131.207 28.0083 130.477 27.1076 130.477C26.2068 130.477 25.4766 131.207 25.4766 132.108C25.4766 133.009 26.2068 133.739 27.1076 133.739Z" fill="#F8981D"/>
<path d="M25.0812 138.631C25.982 138.631 26.7122 137.901 26.7122 137C26.7122 136.099 25.982 135.369 25.0812 135.369C24.1804 135.369 23.4502 136.099 23.4502 137C23.4502 137.901 24.1804 138.631 25.0812 138.631Z" fill="#F8981D"/>
<path d="M27.1076 143.524C28.0083 143.524 28.7386 142.794 28.7386 141.893C28.7386 140.992 28.0083 140.262 27.1076 140.262C26.2068 140.262 25.4766 140.992 25.4766 141.893C25.4766 142.794 26.2068 143.524 27.1076 143.524Z" fill="#F8981D"/>
<path d="M32.0001 145.55C32.9009 145.55 33.6311 144.82 33.6311 143.919C33.6311 143.018 32.9009 142.288 32.0001 142.288C31.0994 142.288 30.3691 143.018 30.3691 143.919C30.3691 144.82 31.0994 145.55 32.0001 145.55Z" fill="#F8981D"/>
<path d="M36.8927 143.524C37.7935 143.524 38.5237 142.794 38.5237 141.893C38.5237 140.992 37.7935 140.262 36.8927 140.262C35.9919 140.262 35.2617 140.992 35.2617 141.893C35.2617 142.794 35.9919 143.524 36.8927 143.524Z" fill="#F8981D"/>
<path d="M38.9191 138.631C39.8199 138.631 40.5501 137.901 40.5501 137C40.5501 136.099 39.8199 135.369 38.9191 135.369C38.0183 135.369 37.2881 136.099 37.2881 137C37.2881 137.901 38.0183 138.631 38.9191 138.631Z" fill="#F8981D"/>
<path d="M36.8927 133.739C37.7935 133.739 38.5237 133.009 38.5237 132.108C38.5237 131.207 37.7935 130.477 36.8927 130.477C35.9919 130.477 35.2617 131.207 35.2617 132.108C35.2617 133.009 35.9919 133.739 36.8927 133.739Z" fill="#F8981D"/>
<path d="M32.0001 131.712C32.9009 131.712 33.6311 130.982 33.6311 130.081C33.6311 129.18 32.9009 128.45 32.0001 128.45C31.0994 128.45 30.3691 129.18 30.3691 130.081C30.3691 130.982 31.0994 131.712 32.0001 131.712Z" fill="#F8981D"/>
<path d="M29.2944 132.538C29.2944 132.538 28.3384 133.599 27.9364 134.308C27.5344 135.017 25.9104 135.489 25.7574 135.909C25.6154 136.3 26.2734 136.051 26.2734 136.051C26.2734 136.051 28.2834 135.401 28.7204 134.901C29.1574 134.401 30.5754 132.183 29.9994 131.852C29.7114 131.686 29.2944 132.539 29.2944 132.539V132.538Z" fill="#3582B7"/>
<path d="M32.718 132.411L27.303 135.058C27.151 135.132 26.982 135.026 26.971 134.848C26.912 133.885 27.027 132.338 28.88 131.344C31.129 130.137 32.616 131.497 32.847 132.057C32.902 132.19 32.844 132.35 32.718 132.411Z" fill="#E54142"/>
<mask id="mask0_127_7074" style="mask-type:luminance" maskUnits="userSpaceOnUse" x="26" y="130" width="7" height="6">
<path d="M32.719 132.411L27.304 135.058C27.152 135.132 26.983 135.026 26.972 134.848C26.913 133.885 27.028 132.338 28.881 131.344C31.13 130.137 32.617 131.497 32.848 132.057C32.903 132.19 32.845 132.35 32.719 132.411Z" fill="white"/>
</mask>
<g mask="url(#mask0_127_7074)">
<path d="M33.7598 132.711L30.9208 134.064L28.8398 131.113L30.3698 130.081L32.8528 131.102L33.7598 132.711Z" fill="#3582B7"/>
</g>
<mask id="mask1_127_7074" style="mask-type:luminance" maskUnits="userSpaceOnUse" x="26" y="130" width="7" height="6">
<path d="M32.719 132.411L27.304 135.058C27.152 135.132 26.983 135.026 26.972 134.848C26.913 133.885 27.028 132.338 28.881 131.344C31.13 130.137 32.617 131.497 32.848 132.057C32.903 132.19 32.845 132.35 32.719 132.411Z" fill="white"/>
</mask>
<g mask="url(#mask1_127_7074)">
<path d="M28.8812 131.343C28.8812 131.343 28.1422 132.108 28.6912 133.825C29.2402 135.542 31.8912 133.931 31.8912 133.931C31.8912 133.931 30.2872 130.83 28.8812 131.342V131.343Z" fill="#FED600"/>
</g>
<path d="M29.1869 131.153C29.2289 131.238 29.1129 131.301 28.9669 131.372C28.8209 131.443 28.7009 131.497 28.6589 131.413C28.6169 131.329 28.6939 131.185 28.8389 131.113C28.9839 131.041 29.1449 131.068 29.1869 131.153Z" fill="#3582B7"/>
<path d="M30.5602 136.675C30.759 136.675 30.9202 136.353 30.9202 135.955C30.9202 135.557 30.759 135.235 30.5602 135.235C30.3614 135.235 30.2002 135.557 30.2002 135.955C30.2002 136.353 30.3614 136.675 30.5602 136.675Z" fill="#282828"/>
<path d="M33.4401 136.675C33.6389 136.675 33.8001 136.353 33.8001 135.955C33.8001 135.557 33.6389 135.235 33.4401 135.235C33.2413 135.235 33.0801 135.557 33.0801 135.955C33.0801 136.353 33.2413 136.675 33.4401 136.675Z" fill="#282828"/>
<path d="M31.1452 138.264C30.8672 137.943 30.6932 137.532 30.6662 137.387C30.6392 137.242 30.6792 137.074 30.8042 137.074C31.0022 137.073 31.4992 137.232 32.0502 137.22C32.7102 137.206 33.1582 137.093 33.1582 137.093C33.2872 137.075 33.3422 137.142 33.3412 137.251C33.3362 137.698 33.0142 138.151 32.9432 138.245C32.7072 138.558 31.9812 139.232 31.1442 138.265L31.1452 138.264Z" fill="#E54142"/>
<path d="M60.74 134.928V139.104H59.252V136.152H53.42V134.928H60.74ZM52.436 133.944V129H53.924V132.696C55.304 132.672 56.792 132.54 58.34 132.24L58.508 133.464C56.684 133.812 54.956 133.932 53.348 133.944H52.436ZM59.252 134.496V128.424H60.74V134.496H59.252ZM64.1031 129.432V135.24C65.0871 135.228 65.9751 135.144 66.9831 134.928L67.1751 136.2C65.8671 136.476 64.7151 136.524 63.3351 136.536H62.5911V129.432H64.1031ZM65.5911 132.984V131.784H67.7271V128.616H69.1431V138.6H67.7271V132.984H65.5911ZM70.0311 139.08V128.4H71.4231V139.08H70.0311ZM81.4822 128.424V134.448H79.9942V128.424H81.4822ZM72.7222 131.472C72.7222 129.96 73.9702 128.904 75.6502 128.904C77.3062 128.904 78.5542 129.96 78.5542 131.472C78.5542 132.948 77.3062 134.028 75.6502 134.04C73.9702 134.028 72.7222 132.948 72.7222 131.472ZM74.1862 131.472C74.1742 132.276 74.7862 132.768 75.6502 132.768C76.4782 132.768 77.0782 132.276 77.0662 131.472C77.0782 130.644 76.4782 130.164 75.6502 130.176C74.7862 130.164 74.1742 130.644 74.1862 131.472ZM74.3302 138.96V134.928H81.4822V138.96H74.3302ZM75.8182 137.76H80.0182V136.104H75.8182V137.76Z" fill="black"/>
<path d="M58.358 148.622V153.302H57.53V151.322H56.054V150.638H57.53V148.622H58.358ZM51.788 152.6C53.012 152.168 53.759 151.106 53.768 150.026V149.846H52.058V149.162H56.306V149.846H54.614V150.008C54.605 151.007 55.316 151.979 56.504 152.384L56.072 153.05C55.19 152.735 54.542 152.105 54.209 151.331C53.858 152.213 53.165 152.924 52.22 153.266L51.788 152.6ZM53.048 155.012C53.048 154.076 54.065 153.527 55.712 153.536C57.368 153.527 58.376 154.076 58.376 155.012C58.376 155.948 57.368 156.488 55.712 156.488C54.065 156.488 53.048 155.948 53.048 155.012ZM53.876 155.012C53.876 155.543 54.56 155.849 55.712 155.84C56.864 155.849 57.548 155.543 57.548 155.012C57.548 154.481 56.864 154.175 55.712 154.166C54.56 154.175 53.876 154.481 53.876 155.012ZM66.7663 152.762V153.41H59.5663V152.762H66.7663ZM60.3943 155.228C60.3853 154.4 61.3933 153.959 63.1483 153.95C64.8943 153.959 65.9023 154.4 65.9023 155.228C65.9023 156.047 64.8943 156.488 63.1483 156.488C61.3933 156.488 60.3853 156.047 60.3943 155.228ZM60.4663 149.504V148.856H65.8663V150.8H61.3123V151.502H66.0103V152.15H60.4843V150.188H65.0203V149.504H60.4663ZM61.2403 155.228C61.2313 155.651 61.9063 155.876 63.1483 155.876C64.3903 155.876 65.0563 155.651 65.0563 155.228C65.0563 154.805 64.3903 154.571 63.1483 154.58C61.9063 154.571 61.2313 154.805 61.2403 155.228ZM74.0946 148.622V156.488H73.3026V148.622H74.0946ZM67.2366 154.328C68.3436 153.653 68.9196 152.222 68.9106 150.818V150.188H67.4706V149.504H71.0706V150.188H69.7206V150.818C69.7206 152.168 70.2606 153.509 71.3766 154.148L70.8726 154.76C70.1166 154.31 69.6036 153.518 69.3246 152.564C69.0456 153.59 68.5146 154.463 67.7406 154.94L67.2366 154.328ZM70.4946 152.096V151.412H71.7186V148.784H72.5106V156.092H71.7186V152.096H70.4946ZM75.393 155.75V155.048L77.607 152.816C78.3 152.096 78.651 151.691 78.651 151.142C78.651 150.512 78.138 150.107 77.463 150.116C76.761 150.107 76.311 150.557 76.311 151.232H75.393C75.393 150.071 76.275 149.297 77.499 149.306C78.714 149.297 79.569 150.071 79.569 151.106C79.569 151.817 79.227 152.384 78.039 153.554L76.743 154.868V154.922H79.677V155.75H75.393ZM87.6667 152.456V153.122H80.4667V152.456H83.6527V151.61H81.3667V148.982H86.7667V149.648H82.1947V150.944H86.8207V151.61H84.4627V152.456H87.6667ZM81.3127 155.066C81.3217 154.148 82.3477 153.635 84.0487 153.644C85.7497 153.635 86.7667 154.148 86.7667 155.066C86.7667 155.975 85.7497 156.488 84.0487 156.488C82.3477 156.488 81.3217 155.975 81.3127 155.066ZM82.1767 155.066C82.1587 155.57 82.8517 155.849 84.0487 155.84C85.2457 155.849 85.9297 155.57 85.9387 155.066C85.9297 154.571 85.2457 154.283 84.0487 154.274C82.8517 154.283 82.1587 154.571 82.1767 155.066Z" fill="#8E8E93"/>
<path d="M92.808 155.75V155.048L95.022 152.816C95.715 152.096 96.066 151.691 96.066 151.142C96.066 150.512 95.553 150.107 94.878 150.116C94.176 150.107 93.726 150.557 93.726 151.232H92.808C92.808 150.071 93.69 149.297 94.914 149.306C96.129 149.297 96.984 150.071 96.984 151.106C96.984 151.817 96.642 152.384 95.454 153.554L94.158 154.868V154.922H97.092V155.75H92.808ZM100.78 150.62C100.771 152.06 101.635 153.509 102.85 154.058L102.364 154.706C101.455 154.283 100.735 153.401 100.366 152.33C100.006 153.482 99.2768 154.427 98.3318 154.886L97.8278 154.184C99.0608 153.635 99.9338 152.132 99.9338 150.62V149.27H100.78V150.62ZM103.57 156.506V148.622H104.416V156.506H103.57ZM111.852 148.622V150.944H112.986V151.646H111.852V154.346H111.006V148.622H111.852ZM105.66 152.816C107.496 152.258 108.648 151.205 108.81 149.918H105.984V149.216H109.71C109.71 151.286 108.306 152.78 106.002 153.482L105.66 152.816ZM106.848 156.326V153.752H107.694V155.66H112.176V156.326H106.848ZM122.206 148.622V154.4H121.378V151.43H119.866V150.764H121.378V148.622H122.206ZM115.636 152.744C116.86 152.339 117.607 151.304 117.616 150.224V149.918H115.906V149.234H120.154V149.918H118.462V150.224C118.453 151.205 119.164 152.186 120.352 152.582L119.92 153.248C119.038 152.942 118.39 152.312 118.048 151.529C117.706 152.402 117.013 153.095 116.068 153.428L115.636 152.744ZM117.094 156.326V153.878H117.922V155.66H122.404V156.326H117.094Z" fill="#8E8E93"/>
<path d="M60.596 166.371V174.075H59.492V166.371H60.596ZM51.956 171.699C53.588 171.099 54.56 169.587 54.572 168.003V166.971H55.7V168.003C55.7 169.527 56.672 170.943 58.292 171.507L57.716 172.395C56.504 171.951 55.604 171.051 55.148 169.911C54.68 171.135 53.78 172.107 52.532 172.587L51.956 171.699ZM53.732 176.643V173.355H54.836V175.755H60.908V176.643H53.732ZM65.9271 168.603C65.9391 169.839 66.9471 171.003 68.5671 171.435L68.0151 172.323C66.8031 171.975 65.8791 171.219 65.4111 170.247C64.9551 171.327 64.0311 172.191 62.7831 172.587L62.2551 171.723C63.8511 171.219 64.8351 169.959 64.8231 168.603V168.483H62.5431V167.595H64.8231V166.323H65.9511V167.595H68.2071V168.483H65.9271V168.603ZM63.9351 174.915C63.9351 173.667 65.2911 172.971 67.4871 172.971C69.6951 172.971 71.0391 173.667 71.0391 174.915C71.0391 176.139 69.6951 176.859 67.4871 176.859C65.2911 176.859 63.9351 176.139 63.9351 174.915ZM65.0391 174.915C65.0391 175.587 65.9511 175.983 67.4871 175.995C69.0351 175.983 69.9351 175.587 69.9351 174.915C69.9351 174.219 69.0351 173.835 67.4871 173.835C65.9511 173.835 65.0391 174.219 65.0391 174.915ZM67.8951 170.211V169.323H69.9111V166.371H71.0151V172.731H69.9111V170.211H67.8951ZM83.8119 166.371V169.755H85.3239V170.691H83.8119V174.243H82.7079V166.371H83.8119ZM75.5799 168.507V167.595H78.1479V166.371H79.2519V167.595H81.8199V168.507H75.5799ZM76.1559 171.003C76.1439 169.791 77.1759 168.999 78.6999 169.011C80.2119 168.999 81.2439 169.791 81.2439 171.003C81.2439 172.179 80.2119 172.959 78.6999 172.947C77.1759 172.959 76.1439 172.179 76.1559 171.003ZM77.1639 176.643V173.619H78.2679V175.755H84.2679V176.643H77.1639ZM77.2119 171.003C77.2119 171.675 77.8119 172.095 78.6999 172.083C79.5879 172.095 80.1879 171.675 80.1879 171.003C80.1879 170.295 79.5879 169.863 78.6999 169.875C77.8119 169.863 77.2119 170.295 77.2119 171.003ZM94.1847 167.403V174.243H89.2647V167.403H94.1847ZM90.3447 173.331H93.0567V168.291H90.3447V173.331ZM95.9367 176.859V166.371H97.0407V170.475H98.7207V171.435H97.0407V176.859H95.9367ZM107.94 166.371V176.883H106.812V166.371H107.94ZM99.8998 174.315V167.355H104.94V168.267H101.028V173.355C103.008 173.367 104.28 173.307 105.78 173.043L105.876 173.955C104.316 174.255 102.948 174.315 100.764 174.315H99.8998Z" fill="black"/>
<path d="M236.699 129.623C236.687 130.991 237.431 132.371 239.123 132.935L238.307 134.111C237.191 133.691 236.411 132.911 235.967 131.915C235.499 133.031 234.671 133.907 233.435 134.351L232.619 133.175C234.407 132.599 235.175 131.135 235.187 129.599V128.447H236.699V129.623ZM234.587 138.263V134.855H236.099V137.063H241.907V138.263H234.587ZM238.187 131.279V130.079H240.203V127.799H241.691V135.671H240.203V131.279H238.187ZM247.646 128.495V129.695H244.886V130.583H247.55V131.711H244.886V132.659C246.062 132.647 246.938 132.587 247.91 132.431L248.078 133.631C246.818 133.847 245.774 133.883 244.166 133.895H243.446V128.495H247.646ZM244.862 135.935V134.735H252.23V138.455H250.742V135.935H244.862ZM248.486 134.231V127.991H249.878V130.391H250.814V127.799H252.23V134.303H250.814V131.591H249.878V134.231H248.486Z" fill="#8E8E93"/>
<path d="M265.846 135.781L263.244 133.179C262.951 132.886 262.479 132.886 262.186 133.179C261.894 133.471 261.894 133.944 262.186 134.236L265.321 137.371C265.614 137.664 266.086 137.664 266.379 137.371L274.314 129.436C274.606 129.144 274.606 128.671 274.314 128.379C274.021 128.086 273.549 128.086 273.256 128.379L265.846 135.781Z" fill="#8E8E93"/>
<rect width="281.25" height="69.25" transform="translate(8 186.75)" fill="#FFF0D4"/>
<rect x="20" y="194.25" width="24" height="24" rx="12" fill="#FFF0D4"/>
<path d="M32.0008 211.2C34.7346 211.2 36.9508 208.984 36.9508 206.25C36.9508 203.516 34.7346 201.3 32.0008 201.3C29.267 201.3 27.0508 203.516 27.0508 206.25C27.0508 208.984 29.267 211.2 32.0008 211.2Z" fill="#F8981D"/>
<path d="M27.1076 202.989C28.0083 202.989 28.7386 202.259 28.7386 201.358C28.7386 200.457 28.0083 199.727 27.1076 199.727C26.2068 199.727 25.4766 200.457 25.4766 201.358C25.4766 202.259 26.2068 202.989 27.1076 202.989Z" fill="#F8981D"/>
<path d="M25.0812 207.881C25.982 207.881 26.7122 207.151 26.7122 206.25C26.7122 205.349 25.982 204.619 25.0812 204.619C24.1804 204.619 23.4502 205.349 23.4502 206.25C23.4502 207.151 24.1804 207.881 25.0812 207.881Z" fill="#F8981D"/>
<path d="M27.1076 212.774C28.0083 212.774 28.7386 212.044 28.7386 211.143C28.7386 210.242 28.0083 209.512 27.1076 209.512C26.2068 209.512 25.4766 210.242 25.4766 211.143C25.4766 212.044 26.2068 212.774 27.1076 212.774Z" fill="#F8981D"/>
<path d="M32.0001 214.8C32.9009 214.8 33.6311 214.07 33.6311 213.169C33.6311 212.268 32.9009 211.538 32.0001 211.538C31.0994 211.538 30.3691 212.268 30.3691 213.169C30.3691 214.07 31.0994 214.8 32.0001 214.8Z" fill="#F8981D"/>
<path d="M36.8927 212.774C37.7935 212.774 38.5237 212.044 38.5237 211.143C38.5237 210.242 37.7935 209.512 36.8927 209.512C35.9919 209.512 35.2617 210.242 35.2617 211.143C35.2617 212.044 35.9919 212.774 36.8927 212.774Z" fill="#F8981D"/>
<path d="M38.9191 207.881C39.8199 207.881 40.5501 207.151 40.5501 206.25C40.5501 205.349 39.8199 204.619 38.9191 204.619C38.0183 204.619 37.2881 205.349 37.2881 206.25C37.2881 207.151 38.0183 207.881 38.9191 207.881Z" fill="#F8981D"/>
<path d="M36.8927 202.989C37.7935 202.989 38.5237 202.259 38.5237 201.358C38.5237 200.457 37.7935 199.727 36.8927 199.727C35.9919 199.727 35.2617 200.457 35.2617 201.358C35.2617 202.259 35.9919 202.989 36.8927 202.989Z" fill="#F8981D"/>
<path d="M32.0001 200.962C32.9009 200.962 33.6311 200.232 33.6311 199.331C33.6311 198.43 32.9009 197.7 32.0001 197.7C31.0994 197.7 30.3691 198.43 30.3691 199.331C30.3691 200.232 31.0994 200.962 32.0001 200.962Z" fill="#F8981D"/>
<path d="M29.2944 201.788C29.2944 201.788 28.3384 202.849 27.9364 203.558C27.5344 204.267 25.9104 204.739 25.7574 205.159C25.6154 205.55 26.2734 205.301 26.2734 205.301C26.2734 205.301 28.2834 204.651 28.7204 204.151C29.1574 203.651 30.5754 201.433 29.9994 201.102C29.7114 200.936 29.2944 201.789 29.2944 201.789V201.788Z" fill="#3582B7"/>
<path d="M32.718 201.661L27.303 204.308C27.151 204.382 26.982 204.276 26.971 204.098C26.912 203.135 27.027 201.588 28.88 200.594C31.129 199.387 32.616 200.747 32.847 201.307C32.902 201.44 32.844 201.6 32.718 201.661Z" fill="#E54142"/>
<mask id="mask2_127_7074" style="mask-type:luminance" maskUnits="userSpaceOnUse" x="26" y="200" width="7" height="5">
<path d="M32.719 201.661L27.304 204.308C27.152 204.382 26.983 204.276 26.972 204.098C26.913 203.135 27.028 201.588 28.881 200.594C31.13 199.387 32.617 200.747 32.848 201.307C32.903 201.44 32.845 201.6 32.719 201.661Z" fill="white"/>
</mask>
<g mask="url(#mask2_127_7074)">
<path d="M33.7598 201.961L30.9208 203.314L28.8398 200.363L30.3698 199.331L32.8528 200.352L33.7598 201.961Z" fill="#3582B7"/>
</g>
<mask id="mask3_127_7074" style="mask-type:luminance" maskUnits="userSpaceOnUse" x="26" y="200" width="7" height="5">
<path d="M32.719 201.661L27.304 204.308C27.152 204.382 26.983 204.276 26.972 204.098C26.913 203.135 27.028 201.588 28.881 200.594C31.13 199.387 32.617 200.747 32.848 201.307C32.903 201.44 32.845 201.6 32.719 201.661Z" fill="white"/>
</mask>
<g mask="url(#mask3_127_7074)">
<path d="M28.8812 200.593C28.8812 200.593 28.1422 201.358 28.6912 203.075C29.2402 204.792 31.8912 203.181 31.8912 203.181C31.8912 203.181 30.2872 200.08 28.8812 200.592V200.593Z" fill="#FED600"/>
</g>
<path d="M29.1869 200.403C29.2289 200.488 29.1129 200.551 28.9669 200.622C28.8209 200.693 28.7009 200.747 28.6589 200.663C28.6169 200.579 28.6939 200.435 28.8389 200.363C28.9839 200.291 29.1449 200.318 29.1869 200.403Z" fill="#3582B7"/>
<path d="M30.5602 205.925C30.759 205.925 30.9202 205.603 30.9202 205.205C30.9202 204.807 30.759 204.485 30.5602 204.485C30.3614 204.485 30.2002 204.807 30.2002 205.205C30.2002 205.603 30.3614 205.925 30.5602 205.925Z" fill="#282828"/>
<path d="M33.4401 205.925C33.6389 205.925 33.8001 205.603 33.8001 205.205C33.8001 204.807 33.6389 204.485 33.4401 204.485C33.2413 204.485 33.0801 204.807 33.0801 205.205C33.0801 205.603 33.2413 205.925 33.4401 205.925Z" fill="#282828"/>
<path d="M31.1452 207.514C30.8672 207.193 30.6932 206.782 30.6662 206.637C30.6392 206.492 30.6792 206.324 30.8042 206.324C31.0022 206.323 31.4992 206.482 32.0502 206.47C32.7102 206.456 33.1582 206.343 33.1582 206.343C33.2872 206.325 33.3422 206.392 33.3412 206.501C33.3362 206.948 33.0142 207.401 32.9432 207.495C32.7072 207.808 31.9812 208.482 31.1442 207.515L31.1452 207.514Z" fill="#E54142"/>
<path d="M60.74 204.178V208.354H59.252V205.402H53.42V204.178H60.74ZM52.436 203.194V198.25H53.924V201.946C55.304 201.922 56.792 201.79 58.34 201.49L58.508 202.714C56.684 203.062 54.956 203.182 53.348 203.194H52.436ZM59.252 203.746V197.674H60.74V203.746H59.252ZM64.1031 198.682V204.49C65.0871 204.478 65.9751 204.394 66.9831 204.178L67.1751 205.45C65.8671 205.726 64.7151 205.774 63.3351 205.786H62.5911V198.682H64.1031ZM65.5911 202.234V201.034H67.7271V197.866H69.1431V207.85H67.7271V202.234H65.5911ZM70.0311 208.33V197.65H71.4231V208.33H70.0311ZM81.4822 197.674V203.698H79.9942V197.674H81.4822ZM72.7222 200.722C72.7222 199.21 73.9702 198.154 75.6502 198.154C77.3062 198.154 78.5542 199.21 78.5542 200.722C78.5542 202.198 77.3062 203.278 75.6502 203.29C73.9702 203.278 72.7222 202.198 72.7222 200.722ZM74.1862 200.722C74.1742 201.526 74.7862 202.018 75.6502 202.018C76.4782 202.018 77.0782 201.526 77.0662 200.722C77.0782 199.894 76.4782 199.414 75.6502 199.426C74.7862 199.414 74.1742 199.894 74.1862 200.722ZM74.3302 208.21V204.178H81.4822V208.21H74.3302ZM75.8182 207.01H80.0182V205.354H75.8182V207.01Z" fill="#FFA339"/>
<path d="M58.358 217.872V222.552H57.53V220.572H56.054V219.888H57.53V217.872H58.358ZM51.788 221.85C53.012 221.418 53.759 220.356 53.768 219.276V219.096H52.058V218.412H56.306V219.096H54.614V219.258C54.605 220.257 55.316 221.229 56.504 221.634L56.072 222.3C55.19 221.985 54.542 221.355 54.209 220.581C53.858 221.463 53.165 222.174 52.22 222.516L51.788 221.85ZM53.048 224.262C53.048 223.326 54.065 222.777 55.712 222.786C57.368 222.777 58.376 223.326 58.376 224.262C58.376 225.198 57.368 225.738 55.712 225.738C54.065 225.738 53.048 225.198 53.048 224.262ZM53.876 224.262C53.876 224.793 54.56 225.099 55.712 225.09C56.864 225.099 57.548 224.793 57.548 224.262C57.548 223.731 56.864 223.425 55.712 223.416C54.56 223.425 53.876 223.731 53.876 224.262ZM66.7663 222.012V222.66H59.5663V222.012H66.7663ZM60.3943 224.478C60.3853 223.65 61.3933 223.209 63.1483 223.2C64.8943 223.209 65.9023 223.65 65.9023 224.478C65.9023 225.297 64.8943 225.738 63.1483 225.738C61.3933 225.738 60.3853 225.297 60.3943 224.478ZM60.4663 218.754V218.106H65.8663V220.05H61.3123V220.752H66.0103V221.4H60.4843V219.438H65.0203V218.754H60.4663ZM61.2403 224.478C61.2313 224.901 61.9063 225.126 63.1483 225.126C64.3903 225.126 65.0563 224.901 65.0563 224.478C65.0563 224.055 64.3903 223.821 63.1483 223.83C61.9063 223.821 61.2313 224.055 61.2403 224.478ZM74.0946 217.872V225.738H73.3026V217.872H74.0946ZM67.2366 223.578C68.3436 222.903 68.9196 221.472 68.9106 220.068V219.438H67.4706V218.754H71.0706V219.438H69.7206V220.068C69.7206 221.418 70.2606 222.759 71.3766 223.398L70.8726 224.01C70.1166 223.56 69.6036 222.768 69.3246 221.814C69.0456 222.84 68.5146 223.713 67.7406 224.19L67.2366 223.578ZM70.4946 221.346V220.662H71.7186V218.034H72.5106V225.342H71.7186V221.346H70.4946ZM75.393 225V224.298L77.607 222.066C78.3 221.346 78.651 220.941 78.651 220.392C78.651 219.762 78.138 219.357 77.463 219.366C76.761 219.357 76.311 219.807 76.311 220.482H75.393C75.393 219.321 76.275 218.547 77.499 218.556C78.714 218.547 79.569 219.321 79.569 220.356C79.569 221.067 79.227 221.634 78.039 222.804L76.743 224.118V224.172H79.677V225H75.393ZM87.6667 221.706V222.372H80.4667V221.706H83.6527V220.86H81.3667V218.232H86.7667V218.898H82.1947V220.194H86.8207V220.86H84.4627V221.706H87.6667ZM81.3127 224.316C81.3217 223.398 82.3477 222.885 84.0487 222.894C85.7497 222.885 86.7667 223.398 86.7667 224.316C86.7667 225.225 85.7497 225.738 84.0487 225.738C82.3477 225.738 81.3217 225.225 81.3127 224.316ZM82.1767 224.316C82.1587 224.82 82.8517 225.099 84.0487 225.09C85.2457 225.099 85.9297 224.82 85.9387 224.316C85.9297 223.821 85.2457 223.533 84.0487 223.524C82.8517 223.533 82.1587 223.821 82.1767 224.316Z" fill="#AEAEB2"/>
<path d="M92.808 225V224.298L95.022 222.066C95.715 221.346 96.066 220.941 96.066 220.392C96.066 219.762 95.553 219.357 94.878 219.366C94.176 219.357 93.726 219.807 93.726 220.482H92.808C92.808 219.321 93.69 218.547 94.914 218.556C96.129 218.547 96.984 219.321 96.984 220.356C96.984 221.067 96.642 221.634 95.454 222.804L94.158 224.118V224.172H97.092V225H92.808ZM100.78 219.87C100.771 221.31 101.635 222.759 102.85 223.308L102.364 223.956C101.455 223.533 100.735 222.651 100.366 221.58C100.006 222.732 99.2768 223.677 98.3318 224.136L97.8278 223.434C99.0608 222.885 99.9338 221.382 99.9338 219.87V218.52H100.78V219.87ZM103.57 225.756V217.872H104.416V225.756H103.57ZM111.852 217.872V220.194H112.986V220.896H111.852V223.596H111.006V217.872H111.852ZM105.66 222.066C107.496 221.508 108.648 220.455 108.81 219.168H105.984V218.466H109.71C109.71 220.536 108.306 222.03 106.002 222.732L105.66 222.066ZM106.848 225.576V223.002H107.694V224.91H112.176V225.576H106.848ZM122.206 217.872V223.65H121.378V220.68H119.866V220.014H121.378V217.872H122.206ZM115.636 221.994C116.86 221.589 117.607 220.554 117.616 219.474V219.168H115.906V218.484H120.154V219.168H118.462V219.474C118.453 220.455 119.164 221.436 120.352 221.832L119.92 222.498C119.038 222.192 118.39 221.562 118.048 220.779C117.706 221.652 117.013 222.345 116.068 222.678L115.636 221.994ZM117.094 225.576V223.128H117.922V224.91H122.404V225.576H117.094Z" fill="#AEAEB2"/>
<path d="M60.596 235.621V243.325H59.492V235.621H60.596ZM51.956 240.949C53.588 240.349 54.56 238.837 54.572 237.253V236.221H55.7V237.253C55.7 238.777 56.672 240.193 58.292 240.757L57.716 241.645C56.504 241.201 55.604 240.301 55.148 239.161C54.68 240.385 53.78 241.357 52.532 241.837L51.956 240.949ZM53.732 245.893V242.605H54.836V245.005H60.908V245.893H53.732ZM65.9271 237.853C65.9391 239.089 66.9471 240.253 68.5671 240.685L68.0151 241.573C66.8031 241.225 65.8791 240.469 65.4111 239.497C64.9551 240.577 64.0311 241.441 62.7831 241.837L62.2551 240.973C63.8511 240.469 64.8351 239.209 64.8231 237.853V237.733H62.5431V236.845H64.8231V235.573H65.9511V236.845H68.2071V237.733H65.9271V237.853ZM63.9351 244.165C63.9351 242.917 65.2911 242.221 67.4871 242.221C69.6951 242.221 71.0391 242.917 71.0391 244.165C71.0391 245.389 69.6951 246.109 67.4871 246.109C65.2911 246.109 63.9351 245.389 63.9351 244.165ZM65.0391 244.165C65.0391 244.837 65.9511 245.233 67.4871 245.245C69.0351 245.233 69.9351 244.837 69.9351 244.165C69.9351 243.469 69.0351 243.085 67.4871 243.085C65.9511 243.085 65.0391 243.469 65.0391 244.165ZM67.8951 239.461V238.573H69.9111V235.621H71.0151V241.981H69.9111V239.461H67.8951ZM83.8119 235.621V239.005H85.3239V239.941H83.8119V243.493H82.7079V235.621H83.8119ZM75.5799 237.757V236.845H78.1479V235.621H79.2519V236.845H81.8199V237.757H75.5799ZM76.1559 240.253C76.1439 239.041 77.1759 238.249 78.6999 238.261C80.2119 238.249 81.2439 239.041 81.2439 240.253C81.2439 241.429 80.2119 242.209 78.6999 242.197C77.1759 242.209 76.1439 241.429 76.1559 240.253ZM77.1639 245.893V242.869H78.2679V245.005H84.2679V245.893H77.1639ZM77.2119 240.253C77.2119 240.925 77.8119 241.345 78.6999 241.333C79.5879 241.345 80.1879 240.925 80.1879 240.253C80.1879 239.545 79.5879 239.113 78.6999 239.125C77.8119 239.113 77.2119 239.545 77.2119 240.253ZM94.1847 236.653V243.493H89.2647V236.653H94.1847ZM90.3447 242.581H93.0567V237.541H90.3447V242.581ZM95.9367 246.109V235.621H97.0407V239.725H98.7207V240.685H97.0407V246.109H95.9367ZM107.94 235.621V246.133H106.812V235.621H107.94ZM99.8998 243.565V236.605H104.94V237.517H101.028V242.605C103.008 242.617 104.28 242.557 105.78 242.293L105.876 243.205C104.316 243.505 102.948 243.565 100.764 243.565H99.8998Z" fill="black"/>
<path d="M236.699 198.873C236.687 200.241 237.431 201.621 239.123 202.185L238.307 203.361C237.191 202.941 236.411 202.161 235.967 201.165C235.499 202.281 234.671 203.157 233.435 203.601L232.619 202.425C234.407 201.849 235.175 200.385 235.187 198.849V197.697H236.699V198.873ZM234.587 207.513V204.105H236.099V206.313H241.907V207.513H234.587ZM238.187 200.529V199.329H240.203V197.049H241.691V204.921H240.203V200.529H238.187ZM247.646 197.745V198.945H244.886V199.833H247.55V200.961H244.886V201.909C246.062 201.897 246.938 201.837 247.91 201.681L248.078 202.881C246.818 203.097 245.774 203.133 244.166 203.145H243.446V197.745H247.646ZM244.862 205.185V203.985H252.23V207.705H250.742V205.185H244.862ZM248.486 203.481V197.241H249.878V199.641H250.814V197.049H252.23V203.553H250.814V200.841H249.878V203.481H248.486Z" fill="#FFA339"/>
<path d="M265.846 205.031L263.244 202.429C262.951 202.136 262.479 202.136 262.186 202.429C261.894 202.721 261.894 203.194 262.186 203.486L265.321 206.621C265.614 206.914 266.086 206.914 266.379 206.621L274.314 198.686C274.606 198.394 274.606 197.921 274.314 197.629C274.021 197.336 273.549 197.336 273.256 197.629L265.846 205.031Z" fill="#FFA339"/>
<rect width="281.25" height="69.25" transform="translate(8 256)" fill="#FFF0D4"/>
<rect x="20" y="263.5" width="24" height="24" rx="12" fill="#FFF0D4"/>
<path d="M32.0008 280.45C34.7346 280.45 36.9508 278.234 36.9508 275.5C36.9508 272.766 34.7346 270.55 32.0008 270.55C29.267 270.55 27.0508 272.766 27.0508 275.5C27.0508 278.234 29.267 280.45 32.0008 280.45Z" fill="#F8981D"/>
<path d="M27.1076 272.239C28.0083 272.239 28.7386 271.509 28.7386 270.608C28.7386 269.707 28.0083 268.977 27.1076 268.977C26.2068 268.977 25.4766 269.707 25.4766 270.608C25.4766 271.509 26.2068 272.239 27.1076 272.239Z" fill="#F8981D"/>
<path d="M25.0812 277.131C25.982 277.131 26.7122 276.401 26.7122 275.5C26.7122 274.599 25.982 273.869 25.0812 273.869C24.1804 273.869 23.4502 274.599 23.4502 275.5C23.4502 276.401 24.1804 277.131 25.0812 277.131Z" fill="#F8981D"/>
<path d="M27.1076 282.024C28.0083 282.024 28.7386 281.294 28.7386 280.393C28.7386 279.492 28.0083 278.762 27.1076 278.762C26.2068 278.762 25.4766 279.492 25.4766 280.393C25.4766 281.294 26.2068 282.024 27.1076 282.024Z" fill="#F8981D"/>
<path d="M32.0001 284.05C32.9009 284.05 33.6311 283.32 33.6311 282.419C33.6311 281.518 32.9009 280.788 32.0001 280.788C31.0994 280.788 30.3691 281.518 30.3691 282.419C30.3691 283.32 31.0994 284.05 32.0001 284.05Z" fill="#F8981D"/>
<path d="M36.8927 282.024C37.7935 282.024 38.5237 281.294 38.5237 280.393C38.5237 279.492 37.7935 278.762 36.8927 278.762C35.9919 278.762 35.2617 279.492 35.2617 280.393C35.2617 281.294 35.9919 282.024 36.8927 282.024Z" fill="#F8981D"/>
<path d="M38.9191 277.131C39.8199 277.131 40.5501 276.401 40.5501 275.5C40.5501 274.599 39.8199 273.869 38.9191 273.869C38.0183 273.869 37.2881 274.599 37.2881 275.5C37.2881 276.401 38.0183 277.131 38.9191 277.131Z" fill="#F8981D"/>
<path d="M36.8927 272.239C37.7935 272.239 38.5237 271.509 38.5237 270.608C38.5237 269.707 37.7935 268.977 36.8927 268.977C35.9919 268.977 35.2617 269.707 35.2617 270.608C35.2617 271.509 35.9919 272.239 36.8927 272.239Z" fill="#F8981D"/>
<path d="M32.0001 270.212C32.9009 270.212 33.6311 269.482 33.6311 268.581C33.6311 267.68 32.9009 266.95 32.0001 266.95C31.0994 266.95 30.3691 267.68 30.3691 268.581C30.3691 269.482 31.0994 270.212 32.0001 270.212Z" fill="#F8981D"/>
<path d="M29.2944 271.038C29.2944 271.038 28.3384 272.099 27.9364 272.808C27.5344 273.517 25.9104 273.989 25.7574 274.409C25.6154 274.8 26.2734 274.551 26.2734 274.551C26.2734 274.551 28.2834 273.901 28.7204 273.401C29.1574 272.901 30.5754 270.683 29.9994 270.352C29.7114 270.186 29.2944 271.039 29.2944 271.039V271.038Z" fill="#3582B7"/>
<path d="M32.718 270.911L27.303 273.558C27.151 273.632 26.982 273.526 26.971 273.348C26.912 272.385 27.027 270.838 28.88 269.844C31.129 268.637 32.616 269.997 32.847 270.557C32.902 270.69 32.844 270.85 32.718 270.911Z" fill="#E54142"/>
<mask id="mask4_127_7074" style="mask-type:luminance" maskUnits="userSpaceOnUse" x="26" y="269" width="7" height="5">
<path d="M32.719 270.911L27.304 273.558C27.152 273.632 26.983 273.526 26.972 273.348C26.913 272.385 27.028 270.838 28.881 269.844C31.13 268.637 32.617 269.997 32.848 270.557C32.903 270.69 32.845 270.85 32.719 270.911Z" fill="white"/>
</mask>
<g mask="url(#mask4_127_7074)">
<path d="M33.7598 271.211L30.9208 272.564L28.8398 269.613L30.3698 268.581L32.8528 269.602L33.7598 271.211Z" fill="#3582B7"/>
</g>
<mask id="mask5_127_7074" style="mask-type:luminance" maskUnits="userSpaceOnUse" x="26" y="269" width="7" height="5">
<path d="M32.719 270.911L27.304 273.558C27.152 273.632 26.983 273.526 26.972 273.348C26.913 272.385 27.028 270.838 28.881 269.844C31.13 268.637 32.617 269.997 32.848 270.557C32.903 270.69 32.845 270.85 32.719 270.911Z" fill="white"/>
</mask>
<g mask="url(#mask5_127_7074)">
<path d="M28.8812 269.843C28.8812 269.843 28.1422 270.608 28.6912 272.325C29.2402 274.042 31.8912 272.431 31.8912 272.431C31.8912 272.431 30.2872 269.33 28.8812 269.842V269.843Z" fill="#FED600"/>
</g>
<path d="M29.1869 269.653C29.2289 269.738 29.1129 269.801 28.9669 269.872C28.8209 269.943 28.7009 269.997 28.6589 269.913C28.6169 269.829 28.6939 269.685 28.8389 269.613C28.9839 269.541 29.1449 269.568 29.1869 269.653Z" fill="#3582B7"/>
<path d="M30.5602 275.175C30.759 275.175 30.9202 274.853 30.9202 274.455C30.9202 274.057 30.759 273.735 30.5602 273.735C30.3614 273.735 30.2002 274.057 30.2002 274.455C30.2002 274.853 30.3614 275.175 30.5602 275.175Z" fill="#282828"/>
<path d="M33.4401 275.175C33.6389 275.175 33.8001 274.853 33.8001 274.455C33.8001 274.057 33.6389 273.735 33.4401 273.735C33.2413 273.735 33.0801 274.057 33.0801 274.455C33.0801 274.853 33.2413 275.175 33.4401 275.175Z" fill="#282828"/>
<path d="M31.1452 276.764C30.8672 276.443 30.6932 276.032 30.6662 275.887C30.6392 275.742 30.6792 275.574 30.8042 275.574C31.0022 275.573 31.4992 275.732 32.0502 275.72C32.7102 275.706 33.1582 275.593 33.1582 275.593C33.2872 275.575 33.3422 275.642 33.3412 275.751C33.3362 276.198 33.0142 276.651 32.9432 276.745C32.7072 277.058 31.9812 277.732 31.1442 276.765L31.1452 276.764Z" fill="#E54142"/>
<path d="M60.74 273.428V277.604H59.252V274.652H53.42V273.428H60.74ZM52.436 272.444V267.5H53.924V271.196C55.304 271.172 56.792 271.04 58.34 270.74L58.508 271.964C56.684 272.312 54.956 272.432 53.348 272.444H52.436ZM59.252 272.996V266.924H60.74V272.996H59.252ZM64.1031 267.932V273.74C65.0871 273.728 65.9751 273.644 66.9831 273.428L67.1751 274.7C65.8671 274.976 64.7151 275.024 63.3351 275.036H62.5911V267.932H64.1031ZM65.5911 271.484V270.284H67.7271V267.116H69.1431V277.1H67.7271V271.484H65.5911ZM70.0311 277.58V266.9H71.4231V277.58H70.0311ZM81.4822 266.924V272.948H79.9942V266.924H81.4822ZM72.7222 269.972C72.7222 268.46 73.9702 267.404 75.6502 267.404C77.3062 267.404 78.5542 268.46 78.5542 269.972C78.5542 271.448 77.3062 272.528 75.6502 272.54C73.9702 272.528 72.7222 271.448 72.7222 269.972ZM74.1862 269.972C74.1742 270.776 74.7862 271.268 75.6502 271.268C76.4782 271.268 77.0782 270.776 77.0662 269.972C77.0782 269.144 76.4782 268.664 75.6502 268.676C74.7862 268.664 74.1742 269.144 74.1862 269.972ZM74.3302 277.46V273.428H81.4822V277.46H74.3302ZM75.8182 276.26H80.0182V274.604H75.8182V276.26Z" fill="#FFA339"/>
<path d="M58.358 287.122V291.802H57.53V289.822H56.054V289.138H57.53V287.122H58.358ZM51.788 291.1C53.012 290.668 53.759 289.606 53.768 288.526V288.346H52.058V287.662H56.306V288.346H54.614V288.508C54.605 289.507 55.316 290.479 56.504 290.884L56.072 291.55C55.19 291.235 54.542 290.605 54.209 289.831C53.858 290.713 53.165 291.424 52.22 291.766L51.788 291.1ZM53.048 293.512C53.048 292.576 54.065 292.027 55.712 292.036C57.368 292.027 58.376 292.576 58.376 293.512C58.376 294.448 57.368 294.988 55.712 294.988C54.065 294.988 53.048 294.448 53.048 293.512ZM53.876 293.512C53.876 294.043 54.56 294.349 55.712 294.34C56.864 294.349 57.548 294.043 57.548 293.512C57.548 292.981 56.864 292.675 55.712 292.666C54.56 292.675 53.876 292.981 53.876 293.512ZM66.7663 291.262V291.91H59.5663V291.262H66.7663ZM60.3943 293.728C60.3853 292.9 61.3933 292.459 63.1483 292.45C64.8943 292.459 65.9023 292.9 65.9023 293.728C65.9023 294.547 64.8943 294.988 63.1483 294.988C61.3933 294.988 60.3853 294.547 60.3943 293.728ZM60.4663 288.004V287.356H65.8663V289.3H61.3123V290.002H66.0103V290.65H60.4843V288.688H65.0203V288.004H60.4663ZM61.2403 293.728C61.2313 294.151 61.9063 294.376 63.1483 294.376C64.3903 294.376 65.0563 294.151 65.0563 293.728C65.0563 293.305 64.3903 293.071 63.1483 293.08C61.9063 293.071 61.2313 293.305 61.2403 293.728ZM74.0946 287.122V294.988H73.3026V287.122H74.0946ZM67.2366 292.828C68.3436 292.153 68.9196 290.722 68.9106 289.318V288.688H67.4706V288.004H71.0706V288.688H69.7206V289.318C69.7206 290.668 70.2606 292.009 71.3766 292.648L70.8726 293.26C70.1166 292.81 69.6036 292.018 69.3246 291.064C69.0456 292.09 68.5146 292.963 67.7406 293.44L67.2366 292.828ZM70.4946 290.596V289.912H71.7186V287.284H72.5106V294.592H71.7186V290.596H70.4946ZM75.393 294.25V293.548L77.607 291.316C78.3 290.596 78.651 290.191 78.651 289.642C78.651 289.012 78.138 288.607 77.463 288.616C76.761 288.607 76.311 289.057 76.311 289.732H75.393C75.393 288.571 76.275 287.797 77.499 287.806C78.714 287.797 79.569 288.571 79.569 289.606C79.569 290.317 79.227 290.884 78.039 292.054L76.743 293.368V293.422H79.677V294.25H75.393ZM87.6667 290.956V291.622H80.4667V290.956H83.6527V290.11H81.3667V287.482H86.7667V288.148H82.1947V289.444H86.8207V290.11H84.4627V290.956H87.6667ZM81.3127 293.566C81.3217 292.648 82.3477 292.135 84.0487 292.144C85.7497 292.135 86.7667 292.648 86.7667 293.566C86.7667 294.475 85.7497 294.988 84.0487 294.988C82.3477 294.988 81.3217 294.475 81.3127 293.566ZM82.1767 293.566C82.1587 294.07 82.8517 294.349 84.0487 294.34C85.2457 294.349 85.9297 294.07 85.9387 293.566C85.9297 293.071 85.2457 292.783 84.0487 292.774C82.8517 292.783 82.1587 293.071 82.1767 293.566Z" fill="#AEAEB2"/>
<path d="M92.808 294.25V293.548L95.022 291.316C95.715 290.596 96.066 290.191 96.066 289.642C96.066 289.012 95.553 288.607 94.878 288.616C94.176 288.607 93.726 289.057 93.726 289.732H92.808C92.808 288.571 93.69 287.797 94.914 287.806C96.129 287.797 96.984 288.571 96.984 289.606C96.984 290.317 96.642 290.884 95.454 292.054L94.158 293.368V293.422H97.092V294.25H92.808ZM100.78 289.12C100.771 290.56 101.635 292.009 102.85 292.558L102.364 293.206C101.455 292.783 100.735 291.901 100.366 290.83C100.006 291.982 99.2768 292.927 98.3318 293.386L97.8278 292.684C99.0608 292.135 99.9338 290.632 99.9338 289.12V287.77H100.78V289.12ZM103.57 295.006V287.122H104.416V295.006H103.57ZM111.852 287.122V289.444H112.986V290.146H111.852V292.846H111.006V287.122H111.852ZM105.66 291.316C107.496 290.758 108.648 289.705 108.81 288.418H105.984V287.716H109.71C109.71 289.786 108.306 291.28 106.002 291.982L105.66 291.316ZM106.848 294.826V292.252H107.694V294.16H112.176V294.826H106.848ZM122.206 287.122V292.9H121.378V289.93H119.866V289.264H121.378V287.122H122.206ZM115.636 291.244C116.86 290.839 117.607 289.804 117.616 288.724V288.418H115.906V287.734H120.154V288.418H118.462V288.724C118.453 289.705 119.164 290.686 120.352 291.082L119.92 291.748C119.038 291.442 118.39 290.812 118.048 290.029C117.706 290.902 117.013 291.595 116.068 291.928L115.636 291.244ZM117.094 294.826V292.378H117.922V294.16H122.404V294.826H117.094Z" fill="#AEAEB2"/>
<path d="M60.596 304.871V312.575H59.492V304.871H60.596ZM51.956 310.199C53.588 309.599 54.56 308.087 54.572 306.503V305.471H55.7V306.503C55.7 308.027 56.672 309.443 58.292 310.007L57.716 310.895C56.504 310.451 55.604 309.551 55.148 308.411C54.68 309.635 53.78 310.607 52.532 311.087L51.956 310.199ZM53.732 315.143V311.855H54.836V314.255H60.908V315.143H53.732ZM65.9271 307.103C65.9391 308.339 66.9471 309.503 68.5671 309.935L68.0151 310.823C66.8031 310.475 65.8791 309.719 65.4111 308.747C64.9551 309.827 64.0311 310.691 62.7831 311.087L62.2551 310.223C63.8511 309.719 64.8351 308.459 64.8231 307.103V306.983H62.5431V306.095H64.8231V304.823H65.9511V306.095H68.2071V306.983H65.9271V307.103ZM63.9351 313.415C63.9351 312.167 65.2911 311.471 67.4871 311.471C69.6951 311.471 71.0391 312.167 71.0391 313.415C71.0391 314.639 69.6951 315.359 67.4871 315.359C65.2911 315.359 63.9351 314.639 63.9351 313.415ZM65.0391 313.415C65.0391 314.087 65.9511 314.483 67.4871 314.495C69.0351 314.483 69.9351 314.087 69.9351 313.415C69.9351 312.719 69.0351 312.335 67.4871 312.335C65.9511 312.335 65.0391 312.719 65.0391 313.415ZM67.8951 308.711V307.823H69.9111V304.871H71.0151V311.231H69.9111V308.711H67.8951ZM83.8119 304.871V308.255H85.3239V309.191H83.8119V312.743H82.7079V304.871H83.8119ZM75.5799 307.007V306.095H78.1479V304.871H79.2519V306.095H81.8199V307.007H75.5799ZM76.1559 309.503C76.1439 308.291 77.1759 307.499 78.6999 307.511C80.2119 307.499 81.2439 308.291 81.2439 309.503C81.2439 310.679 80.2119 311.459 78.6999 311.447C77.1759 311.459 76.1439 310.679 76.1559 309.503ZM77.1639 315.143V312.119H78.2679V314.255H84.2679V315.143H77.1639ZM77.2119 309.503C77.2119 310.175 77.8119 310.595 78.6999 310.583C79.5879 310.595 80.1879 310.175 80.1879 309.503C80.1879 308.795 79.5879 308.363 78.6999 308.375C77.8119 308.363 77.2119 308.795 77.2119 309.503ZM94.1847 305.903V312.743H89.2647V305.903H94.1847ZM90.3447 311.831H93.0567V306.791H90.3447V311.831ZM95.9367 315.359V304.871H97.0407V308.975H98.7207V309.935H97.0407V315.359H95.9367ZM107.94 304.871V315.383H106.812V304.871H107.94ZM99.8998 312.815V305.855H104.94V306.767H101.028V311.855C103.008 311.867 104.28 311.807 105.78 311.543L105.876 312.455C104.316 312.755 102.948 312.815 100.764 312.815H99.8998Z" fill="black"/>
<path d="M236.699 268.123C236.687 269.491 237.431 270.871 239.123 271.435L238.307 272.611C237.191 272.191 236.411 271.411 235.967 270.415C235.499 271.531 234.671 272.407 233.435 272.851L232.619 271.675C234.407 271.099 235.175 269.635 235.187 268.099V266.947H236.699V268.123ZM234.587 276.763V273.355H236.099V275.563H241.907V276.763H234.587ZM238.187 269.779V268.579H240.203V266.299H241.691V274.171H240.203V269.779H238.187ZM247.646 266.995V268.195H244.886V269.083H247.55V270.211H244.886V271.159C246.062 271.147 246.938 271.087 247.91 270.931L248.078 272.131C246.818 272.347 245.774 272.383 244.166 272.395H243.446V266.995H247.646ZM244.862 274.435V273.235H252.23V276.955H250.742V274.435H244.862ZM248.486 272.731V266.491H249.878V268.891H250.814V266.299H252.23V272.803H250.814V270.091H249.878V272.731H248.486Z" fill="#FFA339"/>
<path d="M265.846 274.281L263.244 271.679C262.951 271.386 262.479 271.386 262.186 271.679C261.894 271.971 261.894 272.444 262.186 272.736L265.321 275.871C265.614 276.164 266.086 276.164 266.379 275.871L274.314 267.936C274.606 267.644 274.606 267.171 274.314 266.879C274.021 266.586 273.549 266.586 273.256 266.879L265.846 274.281Z" fill="#FFA339"/>
<rect x="20" y="533" width="257.25" height="45" rx="9" fill="#042D53"/>
<path d="M128.95 550.35V551.82H126.28C126.325 553.17 127.285 554.505 129.4 555.06L128.53 556.5C127.03 556.11 125.965 555.27 125.365 554.19C124.78 555.39 123.715 556.32 122.14 556.74L121.27 555.3C123.37 554.73 124.375 553.305 124.42 551.82H121.72V550.35H124.42V548.97H126.31V550.35H128.95ZM123.22 562.2V557.37H131.95V562.2H123.22ZM125.08 560.7H130.09V558.87H125.08V560.7ZM130.06 556.83V549H131.95V552.15H133.75V553.68H131.95V556.83H130.06ZM138.014 549.96C139.199 549.96 140.204 550.62 140.804 551.76H143.744V549H145.574V562.38H143.744V557.4H140.939C140.339 558.72 139.289 559.47 138.014 559.47C135.974 559.47 134.534 557.625 134.534 554.7C134.534 551.79 135.974 549.96 138.014 549.96ZM136.334 554.7C136.319 556.695 137.009 557.76 138.014 557.76C139.019 557.76 139.679 556.695 139.694 554.7C139.679 552.72 139.019 551.64 138.014 551.64C137.009 551.64 136.319 552.72 136.334 554.7ZM141.329 553.26C141.419 553.71 141.464 554.19 141.464 554.7C141.464 555.12 141.434 555.525 141.374 555.9H143.744V553.26H141.329ZM157.824 550.05C157.824 551.625 159.429 553.365 162.474 553.74L161.754 555.27C159.414 554.925 157.704 553.845 156.849 552.39C155.979 553.845 154.269 554.925 151.944 555.27L151.224 553.74C154.254 553.365 155.859 551.625 155.844 550.05V549.42H157.824V550.05ZM150.744 557.79V556.26H162.924V557.79H157.734V562.35H155.874V557.79H150.744ZM170.308 549.75V553.86H166.078V555.12C168.268 555.105 169.753 555.03 171.448 554.73L171.658 556.23C169.738 556.56 168.028 556.65 165.328 556.65H164.188V552.42H168.478V551.25H164.188V549.75H170.308ZM165.328 559.23V557.73H174.298V562.32H172.408V559.23H165.328ZM172.408 557.13V549.03H174.298V552.21H176.098V553.74H174.298V557.13H172.408Z" fill="white"/>
</g>
<rect x="4" y="4" width="289.25" height="617" rx="34" stroke="#E6E6E6" stroke-width="8"/>
<g filter="url(#filter0_d_127_7074)">
<g clip-path="url(#clip2_127_7074)">
<rect x="354" y="396" width="403.875" height="209.25" rx="13.5" fill="white"/>
<path d="M504.385 430.025V432.23H500.38C500.447 434.255 501.887 436.257 505.06 437.09L503.755 439.25C501.505 438.665 499.907 437.405 499.007 435.785C498.13 437.585 496.532 438.98 494.17 439.61L492.865 437.45C496.015 436.595 497.522 434.457 497.59 432.23H493.54V430.025H497.59V427.955H500.425V430.025H504.385ZM495.79 447.8V440.555H508.885V447.8H495.79ZM498.58 445.55H506.095V442.805H498.58V445.55ZM506.05 439.745V428H508.885V432.725H511.585V435.02H508.885V439.745H506.05ZM517.98 429.44C519.758 429.44 521.265 430.43 522.165 432.14H526.575V428H529.32V448.07H526.575V440.6H522.368C521.468 442.58 519.893 443.705 517.98 443.705C514.92 443.705 512.76 440.937 512.76 436.55C512.76 432.185 514.92 429.44 517.98 429.44ZM515.46 436.55C515.438 439.542 516.473 441.14 517.98 441.14C519.488 441.14 520.478 439.542 520.5 436.55C520.478 433.58 519.488 431.96 517.98 431.96C516.473 431.96 515.438 433.58 515.46 436.55ZM522.953 434.39C523.088 435.065 523.155 435.785 523.155 436.55C523.155 437.18 523.11 437.787 523.02 438.35H526.575V434.39H522.953ZM547.697 429.575C547.697 431.938 550.104 434.547 554.672 435.11L553.592 437.405C550.082 436.887 547.517 435.267 546.234 433.085C544.929 435.267 542.364 436.887 538.877 437.405L537.797 435.11C542.342 434.547 544.749 431.938 544.727 429.575V428.63H547.697V429.575ZM537.077 441.185V438.89H555.347V441.185H547.562V448.025H544.772V441.185H537.077ZM566.423 429.125V435.29H560.078V437.18C563.363 437.157 565.59 437.045 568.133 436.595L568.448 438.845C565.568 439.34 563.003 439.475 558.953 439.475H557.243V433.13H563.678V431.375H557.243V429.125H566.423ZM558.953 443.345V441.095H572.408V447.98H569.573V443.345H558.953ZM569.573 440.195V428.045H572.408V432.815H575.108V435.11H572.408V440.195H569.573ZM587.184 428.855C590.109 428.855 592.201 430.497 592.224 432.905C592.201 434.862 590.761 436.347 588.624 436.797V438.26C590.199 438.17 591.751 438.035 593.214 437.81L593.439 439.88C589.321 440.6 584.754 440.69 581.379 440.69L581.109 438.485C582.504 438.485 584.101 438.462 585.789 438.395V436.82C583.606 436.37 582.144 434.885 582.144 432.905C582.144 430.497 584.236 428.855 587.184 428.855ZM583.764 447.665V441.95H586.554V445.415H597.849V447.665H583.764ZM584.754 432.905C584.731 434.12 585.766 434.84 587.184 434.84C588.624 434.84 589.569 434.12 589.569 432.905C589.569 431.645 588.624 430.97 587.184 430.97C585.766 430.97 584.731 431.645 584.754 432.905ZM594.339 443.3V428.045H597.129V434.345H599.694V436.685H597.129V443.3H594.339ZM618.915 443.48V445.775H600.6V443.48H605.28V440.42H602.715V433.715H614.01V431.555H602.67V429.305H616.8V435.965H605.505V438.17H617.25V440.42H614.415V443.48H618.915ZM608.025 443.48H611.67V440.42H608.025V443.48Z" fill="black"/>
<path d="M420.825 471.234C420.843 473.07 422.265 474.762 424.677 475.446L423.885 476.742C422.085 476.22 420.735 475.104 420.033 473.664C419.349 475.248 417.963 476.472 416.073 477.03L415.281 475.734C417.693 475.032 419.187 473.232 419.169 471.234V471.09H415.749V469.758H419.169V467.922H420.861V469.758H424.245V471.09H420.825V471.234ZM417.621 483.546V478.002H427.701V483.546H417.621ZM419.277 482.178H426.045V479.298H419.277V482.178ZM426.045 477.282V467.994H427.701V471.882H429.969V473.286H427.701V477.282H426.045ZM435.158 469.182C436.598 469.182 437.768 469.992 438.452 471.414H442.358V467.994H444.014V483.762H442.358V477.714H438.578C437.912 479.316 436.688 480.234 435.158 480.234C432.8 480.234 431.144 478.092 431.162 474.69C431.144 471.324 432.8 469.182 435.158 469.182ZM432.746 474.69C432.746 477.192 433.718 478.74 435.158 478.722C436.58 478.74 437.552 477.192 437.57 474.69C437.552 472.224 436.58 470.676 435.158 470.658C433.718 470.676 432.746 472.224 432.746 474.69ZM438.92 472.782C439.046 473.358 439.118 474.006 439.118 474.69C439.118 475.302 439.064 475.86 438.974 476.382H442.358V472.782H438.92ZM463.893 467.994V483.762H462.201V467.994H463.893ZM451.365 474.69C451.365 471.324 453.075 469.182 455.433 469.182C457.791 469.182 459.519 471.324 459.501 474.69C459.519 478.092 457.791 480.234 455.433 480.234C453.075 480.234 451.365 478.092 451.365 474.69ZM452.985 474.69C452.985 477.192 453.993 478.74 455.433 478.722C456.891 478.74 457.899 477.192 457.881 474.69C457.899 472.224 456.891 470.676 455.433 470.658C453.993 470.676 452.985 472.224 452.985 474.69ZM480.782 475.086V476.49H474.374V478.146H472.718V476.49H466.382V475.086H480.782ZM467.39 482.394C470.414 482.106 472.664 480.81 472.682 479.262V478.83H474.374V479.262C474.374 480.846 476.606 482.106 479.666 482.394L479.162 483.654C476.57 483.402 474.464 482.484 473.528 481.044C472.556 482.448 470.486 483.402 467.93 483.654L467.39 482.394ZM467.93 471.126C467.93 469.272 470.09 468.228 473.546 468.21C477.038 468.228 479.18 469.272 479.162 471.126C479.18 472.98 477.038 474.042 473.546 474.042C470.09 474.042 467.93 472.98 467.93 471.126ZM469.658 471.126C469.64 472.152 471.098 472.764 473.546 472.746C475.994 472.764 477.47 472.152 477.47 471.126C477.47 470.082 475.994 469.47 473.546 469.47C471.098 469.47 469.64 470.082 469.658 471.126ZM490.722 469.686V470.658C490.704 471.972 490.704 474.006 490.254 476.814L488.598 476.706C489.012 474.168 489.048 472.314 489.066 471.018H482.658V469.686H490.722ZM481.794 478.974C482.766 478.974 483.864 478.974 484.998 478.938V474.186H486.654V478.902C488.328 478.83 490.038 478.722 491.622 478.542L491.73 479.766C488.436 480.306 484.782 480.378 481.974 480.342L481.794 478.974ZM492.522 483.726V467.994H494.214V474.51H496.626V475.914H494.214V483.726H492.522ZM502.643 469.11C505.127 469.11 506.909 470.658 506.927 472.854C506.909 475.086 505.127 476.616 502.643 476.634C500.159 476.616 498.341 475.086 498.359 472.854C498.341 470.658 500.159 469.11 502.643 469.11ZM497.567 478.974C500.447 478.992 504.425 478.974 507.863 478.47L508.007 479.694C504.425 480.36 500.609 480.378 497.783 480.378L497.567 478.974ZM499.979 472.854C499.979 474.258 501.095 475.176 502.643 475.158C504.155 475.176 505.289 474.258 505.307 472.854C505.289 471.486 504.155 470.568 502.643 470.55C501.095 470.568 499.979 471.486 499.979 472.854ZM508.871 483.762V467.994H510.527V483.762H508.871ZM522.162 472.818C522.162 475.266 523.296 477.804 525.51 478.938L524.538 480.198C523.026 479.37 521.964 477.876 521.388 476.112C520.83 478.002 519.768 479.64 518.238 480.522L517.266 479.298C519.444 478.038 520.578 475.338 520.578 472.818V472.206H517.698V470.838H520.578V468.57H522.162V470.838H525.042V472.206H522.162V472.818ZM526.014 482.97V468.282H527.562V474.258H529.47V467.994H531.054V483.726H529.47V475.662H527.562V482.97H526.014ZM541.499 469.146V470.478H535.595V472.206H541.031V473.538H535.595V475.338C538.745 475.338 540.581 475.284 542.723 474.942L542.903 476.274C540.599 476.634 538.655 476.706 535.199 476.706H533.903V469.146H541.499ZM535.451 480.81C535.433 478.974 537.449 477.912 540.779 477.93C544.091 477.912 546.143 478.974 546.143 480.81C546.143 482.664 544.091 483.726 540.779 483.726C537.449 483.726 535.433 482.664 535.451 480.81ZM537.107 480.81C537.089 481.836 538.439 482.412 540.779 482.43C543.101 482.412 544.487 481.836 544.487 480.81C544.487 479.802 543.101 479.226 540.779 479.226C538.439 479.226 537.089 479.802 537.107 480.81ZM544.415 477.678V467.994H546.071V477.678H544.415ZM555.867 477.822C559.107 477.804 561.087 478.884 561.087 480.774C561.087 482.646 559.107 483.726 555.867 483.726C552.573 483.726 550.575 482.646 550.575 480.774C550.575 478.884 552.573 477.804 555.867 477.822ZM549.171 476.274V468.966H550.827V471.234H554.931V468.966H556.587V476.274H549.171ZM550.827 474.942H554.931V472.566H550.827V474.942ZM552.231 480.774C552.231 481.818 553.581 482.412 555.867 482.43C558.117 482.412 559.449 481.818 559.467 480.774C559.449 479.712 558.117 479.118 555.867 479.118C553.581 479.118 552.231 479.712 552.231 480.774ZM559.287 477.39V467.994H560.943V471.846H563.211V473.25H560.943V477.39H559.287ZM577.184 467.994V483.762H575.492V467.994H577.184ZM564.656 474.69C564.656 471.324 566.366 469.182 568.724 469.182C571.082 469.182 572.81 471.324 572.792 474.69C572.81 478.092 571.082 480.234 568.724 480.234C566.366 480.234 564.656 478.092 564.656 474.69ZM566.276 474.69C566.276 477.192 567.284 478.74 568.724 478.722C570.182 478.74 571.19 477.192 571.172 474.69C571.19 472.224 570.182 470.676 568.724 470.658C567.284 470.676 566.276 472.224 566.276 474.69ZM597.567 467.994V483.726H595.947V475.59H594.003V482.97H592.455V468.426H594.003V474.222H595.947V467.994H597.567ZM584.031 479.226C587.523 477.246 588.981 474.582 589.251 471.378H584.679V470.01H590.871C590.871 474.132 589.485 477.858 585.003 480.414L584.031 479.226ZM612.764 467.994V476.094H611.108V472.062H607.76V470.694H611.108V467.994H612.764ZM599.588 474.834C602.036 474.042 603.494 472.08 603.512 469.866V468.498H605.168V469.866C605.168 471.882 606.608 473.754 608.984 474.51L608.084 475.806C606.374 475.212 605.06 474.024 604.358 472.512C603.674 474.204 602.324 475.518 600.452 476.166L599.588 474.834ZM602.468 478.146V476.85H612.764V480.738H604.124V482.214H613.304V483.546H602.504V479.514H611.108V478.146H602.468ZM624.576 474.654V476.022H621.264V478.938C622.722 478.884 624.18 478.776 625.548 478.614L625.692 479.874C622.2 480.378 618.474 480.432 615.468 480.414L615.252 479.046C616.584 479.046 618.06 479.046 619.572 478.992V476.022H616.404V469.47H624.504V470.802H618.06V474.654H624.576ZM626.556 483.762V467.994H628.212V483.762H626.556ZM636.353 478.362C636.335 479.748 637.001 481.17 638.441 482.052C639.881 481.098 640.565 479.568 640.565 478.362V477.534H642.221V478.362C642.203 480.018 643.283 481.62 645.353 482.286L644.489 483.546C642.959 482.988 641.915 481.926 641.357 480.63C640.871 481.89 639.917 483.06 638.441 483.654C636.965 483.096 636.011 481.98 635.507 480.684C634.931 481.926 633.905 482.988 632.429 483.546L631.601 482.286C633.635 481.584 634.715 479.91 634.733 478.362V477.534H636.353V478.362ZM630.989 472.566C630.971 470.406 632.735 468.858 635.093 468.858C637.145 468.858 638.765 470.064 639.125 471.846H642.221V467.994H643.877V476.922H642.221V473.214H639.143C638.819 475.05 637.181 476.292 635.093 476.31C632.735 476.292 630.971 474.762 630.989 472.566ZM632.573 472.566C632.573 473.934 633.635 474.906 635.093 474.906C636.515 474.906 637.595 473.934 637.577 472.566C637.595 471.198 636.515 470.262 635.093 470.262C633.635 470.262 632.573 471.198 632.573 472.566ZM649.714 477.426V479.118H657.13V477.426H658.786V483.546H648.094V477.426H649.714ZM646.294 476.454V475.086H660.658V476.454H646.294ZM647.086 472.782C650.128 472.386 652.612 470.712 652.63 468.822V468.174H654.322V468.822C654.34 470.64 656.842 472.404 659.866 472.782L659.254 474.114C656.716 473.754 654.484 472.53 653.494 470.856C652.468 472.53 650.236 473.754 647.698 474.114L647.086 472.782ZM649.714 482.214H657.13V480.414H649.714V482.214ZM674.918 467.994V483.726H673.262V467.994H674.918ZM662.822 479.73V469.542H664.478V478.29C666.764 478.29 669.194 478.092 671.714 477.57L671.93 478.974C669.158 479.55 666.62 479.748 664.154 479.73H662.822ZM689.683 467.994V474.078H692.203V475.482H689.683V483.762H688.027V467.994H689.683ZM678.091 479.874V469.506H685.435V470.874H679.747V478.47C682.393 478.452 684.373 478.344 686.623 477.93L686.839 479.37C684.373 479.784 682.267 479.874 679.351 479.874H678.091ZM694.764 482.358C694.08 482.376 693.504 481.818 693.504 481.134C693.504 480.432 694.08 479.874 694.764 479.874C695.43 479.874 696.006 480.432 695.988 481.134C696.006 481.818 695.43 482.376 694.764 482.358Z" fill="#8E8E93"/>
<rect x="363" y="524.25" width="385.875" height="67.5" rx="13.5" fill="#042D53"/>
<path d="M514.163 554.575C514.163 557.567 515.22 560.65 518.123 562.135L516.548 564.205C514.748 563.282 513.555 561.662 512.858 559.705C512.16 561.842 510.968 563.62 509.168 564.655L507.548 562.585C510.405 560.942 511.508 557.68 511.508 554.575V554.215H508.178V551.92H511.508V549.22H514.118V551.92H517.403V554.215H514.163V554.575ZM518.348 567.58V548.815H521.003V556.24H522.668V548.5H525.368V568.525H522.668V558.49H521.003V567.58H518.348ZM538.154 549.94V552.145H531.269V553.72H537.569V555.88H531.269V557.5C534.779 557.5 537.029 557.455 539.549 557.05L539.819 559.21C536.984 559.682 534.441 559.75 530.189 559.75H528.479V549.94H538.154ZM530.414 564.745C530.414 562.337 533.024 560.92 537.299 560.92C541.529 560.92 544.206 562.337 544.184 564.745C544.206 567.13 541.529 568.525 537.299 568.525C533.024 568.525 530.414 567.13 530.414 564.745ZM533.204 564.745C533.204 565.825 534.621 566.387 537.299 566.41C539.954 566.387 541.394 565.825 541.394 564.745C541.394 563.642 539.954 563.08 537.299 563.08C534.621 563.08 533.204 563.642 533.204 564.745ZM541.304 560.65V548.545H544.094V560.65H541.304ZM556.115 560.785C560.277 560.762 562.865 562.202 562.865 564.655C562.865 567.108 560.277 568.548 556.115 568.57C551.885 568.548 549.252 567.108 549.275 564.655C549.252 562.202 551.885 560.762 556.115 560.785ZM547.385 559.165V549.76H550.175V552.325H554.27V549.76H557.105V559.165H547.385ZM550.175 556.96H554.27V554.485H550.175V556.96ZM552.065 564.655C552.065 565.78 553.505 566.365 556.115 566.365C558.702 566.365 560.097 565.78 560.075 564.655C560.097 563.485 558.702 562.945 556.115 562.945C553.505 562.945 552.065 563.485 552.065 564.655ZM559.85 560.335V548.5H562.685V553.18H565.385V555.52H562.685V560.335H559.85ZM575.38 549.535C579.588 549.557 582.895 551.83 582.895 555.295C582.895 558.782 579.588 561.055 575.38 561.055C571.15 561.055 567.865 558.782 567.865 555.295C567.865 551.83 571.15 549.557 575.38 549.535ZM566.245 566.095V563.8H584.56V566.095H566.245ZM570.565 555.295C570.565 557.477 572.59 558.76 575.38 558.76C578.125 558.76 580.128 557.477 580.15 555.295C580.128 553.157 578.125 551.807 575.38 551.83C572.59 551.807 570.565 553.157 570.565 555.295ZM604.006 563.98V566.275H585.691V563.98H593.431V560.965H587.806V554.26H599.101V552.055H587.761V549.805H601.891V556.465H590.596V558.715H602.341V560.965H596.176V563.98H604.006Z" fill="white"/>
</g>
</g>
<path d="M238.333 556C238.333 557.473 239.527 558.667 241 558.667C242.473 558.667 243.667 557.473 243.667 556C243.667 554.527 242.473 553.333 241 553.333C239.527 553.333 238.333 554.527 238.333 556ZM354.354 556.354C354.549 556.158 354.549 555.842 354.354 555.646L351.172 552.464C350.976 552.269 350.66 552.269 350.464 552.464C350.269 552.66 350.269 552.976 350.464 553.172L353.293 556L350.464 558.828C350.269 559.024 350.269 559.34 350.464 559.536C350.66 559.731 350.976 559.731 351.172 559.536L354.354 556.354ZM243.568 556.5C243.844 556.5 244.068 556.276 244.068 556C244.068 555.724 243.844 555.5 243.568 555.5L243.568 556.5ZM248.705 555.5C248.428 555.5 248.205 555.724 248.205 556C248.205 556.276 248.428 556.5 248.705 556.5L248.705 555.5ZM253.841 556.5C254.117 556.5 254.341 556.276 254.341 556C254.341 555.724 254.117 555.5 253.841 555.5L253.841 556.5ZM258.977 555.5C258.701 555.5 258.477 555.724 258.477 556C258.477 556.276 258.701 556.5 258.977 556.5L258.977 555.5ZM264.114 556.5C264.39 556.5 264.614 556.276 264.614 556C264.614 555.724 264.39 555.5 264.114 555.5L264.114 556.5ZM269.25 555.5C268.974 555.5 268.75 555.724 268.75 556C268.75 556.276 268.974 556.5 269.25 556.5L269.25 555.5ZM274.386 556.5C274.663 556.5 274.886 556.276 274.886 556C274.886 555.724 274.663 555.5 274.386 555.5L274.386 556.5ZM279.523 555.5C279.247 555.5 279.023 555.724 279.023 556C279.023 556.276 279.247 556.5 279.523 556.5L279.523 555.5ZM284.659 556.5C284.935 556.5 285.159 556.276 285.159 556C285.159 555.724 284.935 555.5 284.659 555.5L284.659 556.5ZM289.795 555.5C289.519 555.5 289.295 555.724 289.295 556C289.295 556.276 289.519 556.5 289.795 556.5L289.795 555.5ZM294.932 556.5C295.208 556.5 295.432 556.276 295.432 556C295.432 555.724 295.208 555.5 294.932 555.5L294.932 556.5ZM300.068 555.5C299.792 555.5 299.568 555.724 299.568 556C299.568 556.276 299.792 556.5 300.068 556.5L300.068 555.5ZM305.205 556.5C305.481 556.5 305.705 556.276 305.705 556C305.705 555.724 305.481 555.5 305.205 555.5L305.205 556.5ZM310.341 555.5C310.065 555.5 309.841 555.724 309.841 556C309.841 556.276 310.065 556.5 310.341 556.5L310.341 555.5ZM315.477 556.5C315.753 556.5 315.977 556.276 315.977 556C315.977 555.724 315.753 555.5 315.477 555.5L315.477 556.5ZM320.614 555.5C320.337 555.5 320.114 555.724 320.114 556C320.114 556.276 320.337 556.5 320.614 556.5L320.614 555.5ZM325.75 556.5C326.026 556.5 326.25 556.276 326.25 556C326.25 555.724 326.026 555.5 325.75 555.5L325.75 556.5ZM330.886 555.5C330.61 555.5 330.386 555.724 330.386 556C330.386 556.276 330.61 556.5 330.886 556.5L330.886 555.5ZM336.023 556.5C336.299 556.5 336.523 556.276 336.523 556C336.523 555.724 336.299 555.5 336.023 555.5L336.023 556.5ZM341.159 555.5C340.883 555.5 340.659 555.724 340.659 556C340.659 556.276 340.883 556.5 341.159 556.5L341.159 555.5ZM346.295 556.5C346.572 556.5 346.795 556.276 346.795 556C346.795 555.724 346.572 555.5 346.295 555.5L346.295 556.5ZM351.432 555.5C351.156 555.5 350.932 555.724 350.932 556C350.932 556.276 351.156 556.5 351.432 556.5L351.432 555.5ZM241 556.5L243.568 556.5L243.568 555.5L241 555.5L241 556.5ZM248.705 556.5L253.841 556.5L253.841 555.5L248.705 555.5L248.705 556.5ZM258.977 556.5L264.114 556.5L264.114 555.5L258.977 555.5L258.977 556.5ZM269.25 556.5L274.386 556.5L274.386 555.5L269.25 555.5L269.25 556.5ZM279.523 556.5L284.659 556.5L284.659 555.5L279.523 555.5L279.523 556.5ZM289.795 556.5L294.932 556.5L294.932 555.5L289.795 555.5L289.795 556.5ZM300.068 556.5L305.205 556.5L305.205 555.5L300.068 555.5L300.068 556.5ZM310.341 556.5L315.477 556.5L315.477 555.5L310.341 555.5L310.341 556.5ZM320.614 556.5L325.75 556.5L325.75 555.5L320.614 555.5L320.614 556.5ZM330.886 556.5L336.023 556.5L336.023 555.5L330.886 555.5L330.886 556.5ZM341.159 556.5L346.295 556.5L346.295 555.5L341.159 555.5L341.159 556.5ZM351.432 556.5L354 556.5L354 555.5L351.432 555.5L351.432 556.5ZM235.667 556C235.667 558.946 238.054 561.333 241 561.333C243.946 561.333 246.333 558.946 246.333 556C246.333 553.054 243.946 550.667 241 550.667C238.054 550.667 235.667 553.054 235.667 556ZM354.707 556.707C355.098 556.317 355.098 555.683 354.707 555.293L348.343 548.929C347.953 548.538 347.319 548.538 346.929 548.929C346.538 549.319 346.538 549.953 346.929 550.343L352.586 556L346.929 561.657C346.538 562.047 346.538 562.681 346.929 563.071C347.319 563.462 347.953 563.462 348.343 563.071L354.707 556.707ZM243.568 557C244.12 557 244.568 556.552 244.568 556C244.568 555.448 244.12 555 243.568 555L243.568 557ZM248.705 555C248.152 555 247.705 555.448 247.705 556C247.705 556.552 248.152 557 248.705 557L248.705 555ZM253.841 557C254.393 557 254.841 556.552 254.841 556C254.841 555.448 254.393 555 253.841 555L253.841 557ZM258.977 555C258.425 555 257.977 555.448 257.977 556C257.977 556.552 258.425 557 258.977 557L258.977 555ZM264.114 557C264.666 557 265.114 556.552 265.114 556C265.114 555.448 264.666 555 264.114 555L264.114 557ZM269.25 555C268.698 555 268.25 555.448 268.25 556C268.25 556.552 268.698 557 269.25 557L269.25 555ZM274.386 557C274.939 557 275.386 556.552 275.386 556C275.386 555.448 274.939 555 274.386 555L274.386 557ZM279.523 555C278.97 555 278.523 555.448 278.523 556C278.523 556.552 278.97 557 279.523 557L279.523 555ZM284.659 557C285.211 557 285.659 556.552 285.659 556C285.659 555.448 285.211 555 284.659 555L284.659 557ZM289.795 555C289.243 555 288.795 555.448 288.795 556C288.795 556.552 289.243 557 289.795 557L289.795 555ZM294.932 557C295.484 557 295.932 556.552 295.932 556C295.932 555.448 295.484 555 294.932 555L294.932 557ZM300.068 555C299.516 555 299.068 555.448 299.068 556C299.068 556.552 299.516 557 300.068 557L300.068 555ZM305.205 557C305.757 557 306.205 556.552 306.205 556C306.205 555.448 305.757 555 305.205 555L305.205 557ZM310.341 555C309.789 555 309.341 555.448 309.341 556C309.341 556.552 309.789 557 310.341 557L310.341 555ZM315.477 557C316.03 557 316.477 556.552 316.477 556C316.477 555.448 316.03 555 315.477 555L315.477 557ZM320.614 555C320.061 555 319.614 555.448 319.614 556C319.614 556.552 320.061 557 320.614 557L320.614 555ZM325.75 557C326.302 557 326.75 556.552 326.75 556C326.75 555.448 326.302 555 325.75 555L325.75 557ZM330.886 555C330.334 555 329.886 555.448 329.886 556C329.886 556.552 330.334 557 330.886 557L330.886 555ZM336.023 557C336.575 557 337.023 556.552 337.023 556C337.023 555.448 336.575 555 336.023 555L336.023 557ZM341.159 555C340.607 555 340.159 555.448 340.159 556C340.159 556.552 340.607 557 341.159 557L341.159 555ZM346.295 557C346.848 557 347.295 556.552 347.295 556C347.295 555.448 346.848 555 346.295 555L346.295 557ZM351.432 555C350.88 555 350.432 555.448 350.432 556C350.432 556.552 350.88 557 351.432 557L351.432 555ZM241 557L243.568 557L243.568 555L241 555L241 557ZM248.705 557L253.841 557L253.841 555L248.705 555L248.705 557ZM258.977 557L264.114 557L264.114 555L258.977 555L258.977 557ZM269.25 557L274.386 557L274.386 555L269.25 555L269.25 557ZM279.523 557L284.659 557L284.659 555L279.523 555L279.523 557ZM289.795 557L294.932 557L294.932 555L289.795 555L289.795 557ZM300.068 557L305.205 557L305.205 555L300.068 555L300.068 557ZM310.341 557L315.477 557L315.477 555L310.341 555L310.341 557ZM320.614 557L325.75 557L325.75 555L320.614 555L320.614 557ZM330.886 557L336.023 557L336.023 555L330.886 555L330.886 557ZM341.159 557L346.295 557L346.295 555L341.159 555L341.159 557ZM351.432 557L354 557L354 555L351.432 555L351.432 557Z" fill="#FFA339"/>
<circle opacity="0.5" cx="241" cy="556" r="16" transform="rotate(-180 241 556)" fill="#FFA339"/>
<defs>
<filter id="filter0_d_127_7074" x="331.5" y="367.875" width="448.875" height="254.25" filterUnits="userSpaceOnUse" color-interpolation-filters="sRGB">
<feFlood flood-opacity="0" result="BackgroundImageFix"/>
<feColorMatrix in="SourceAlpha" type="matrix" values="0 0 0 0 0 0 0 0 0 0 0 0 0 0 0 0 0 0 127 0" result="hardAlpha"/>
<feOffset dy="-5.625"/>
<feGaussianBlur stdDeviation="11.25"/>
<feComposite in2="hardAlpha" operator="out"/>
<feColorMatrix type="matrix" values="0 0 0 0 0 0 0 0 0 0 0 0 0 0 0 0 0 0 0.08 0"/>
<feBlend mode="normal" in2="BackgroundImageFix" result="effect1_dropShadow_127_7074"/>
<feBlend mode="normal" in="SourceGraphic" in2="effect1_dropShadow_127_7074" result="shape"/>
</filter>
<clipPath id="clip0_127_7074">
<rect x="8" y="8" width="281.25" height="609" rx="30" fill="white"/>
</clipPath>
<clipPath id="clip1_127_7074">
<rect width="281.25" height="33" fill="white" transform="translate(8 8)"/>
</clipPath>
<clipPath id="clip2_127_7074">
<rect x="354" y="396" width="403.875" height="209.25" rx="13.5" fill="white"/>
</clipPath>
</defs>
</svg>
