<svg width="234" height="64" viewBox="0 0 234 64" fill="none" xmlns="http://www.w3.org/2000/svg">
<path d="M42.6193 43.6338C39.7366 40.4037 35.7057 39.5524 32.0487 40.7617C31.0568 37.2638 26.1004 38.5871 26.0208 42.1831C25.6204 45.1692 22.1039 47.3199 19.4493 47.9591C16.0999 48.6114 17.1395 54.2282 20.2873 53.422C23.9497 52.7776 29.0812 49.1896 31.155 45.6572C34.1119 44.4055 37.151 45.0181 38.6202 47.1741C41.3304 50.5367 45.8016 46.7498 42.6166 43.6338H42.6193Z" fill="#FFA339"/>
<path d="M11.8888 49.3303C14.2776 49.3303 16.2141 47.3938 16.2141 45.005C16.2141 42.6162 14.2776 40.6797 11.8888 40.6797C9.49998 40.6797 7.56348 42.6162 7.56348 45.005C7.56348 47.3938 9.49998 49.3303 11.8888 49.3303Z" fill="#FFA339"/>
<path d="M37.3024 22.8694C39.6912 22.8694 41.6277 20.9329 41.6277 18.5441C41.6277 16.1553 39.6912 14.2188 37.3024 14.2188C34.9136 14.2188 32.9771 16.1553 32.9771 18.5441C32.9771 20.9329 34.9136 22.8694 37.3024 22.8694Z" fill="#FFA339"/>
<path d="M9.31407 20.8381C11.7029 20.8381 13.6394 18.9016 13.6394 16.5128C13.6394 14.124 11.7029 12.1875 9.31407 12.1875C6.92527 12.1875 4.98877 14.124 4.98877 16.5128C4.98877 18.9016 6.92527 20.8381 9.31407 20.8381Z" fill="#FFA339"/>
<path d="M24.3289 18.3929C24.0319 18.3929 23.7375 18.4061 23.4431 18.4247C23.5651 17.698 23.6129 16.868 23.5015 15.9451C23.4484 15.4916 23.3344 15.0408 23.1302 14.6324C21.486 11.344 17.1766 12.06 16.3439 15.9292C16.2511 16.3615 16.0549 16.9555 15.8878 17.4673C14.7528 20.8883 10.987 23.535 7.79143 24.3067C3.63585 25.1155 5.47364 31.3449 9.37729 30.3451C10.0031 30.2364 10.6502 30.0693 11.3132 29.8545C11.2443 30.4008 11.2045 30.9551 11.2045 31.5199C11.2045 37.927 15.7976 43.26 21.8705 44.4136C22.8624 43.7135 23.6182 42.8463 23.7746 41.9738C23.9364 38.5635 26.8297 36.4605 29.471 36.4605C30.9455 36.4605 32.2529 37.081 33.1598 38.1392C34.0509 37.9588 34.9446 37.8633 35.833 37.8501C36.8672 35.9725 37.4586 33.8165 37.4586 31.5226C37.4586 24.2722 31.5819 18.3955 24.3315 18.3955L24.3289 18.3929ZM19.5554 28.746C19.5554 27.6905 19.9824 26.8366 20.5101 26.8366C21.0378 26.8366 21.4648 27.6905 21.4648 28.746C21.4648 29.8015 21.0378 30.6554 20.5101 30.6554C19.9824 30.6554 19.5554 29.8015 19.5554 28.746ZM26.8323 34.8189C26.2065 35.649 24.2812 37.4364 22.0615 34.872C21.3243 34.0207 20.8628 32.9308 20.7912 32.5462C20.7196 32.1617 20.8257 31.7162 21.1572 31.7162C21.6823 31.7135 23.0003 32.1352 24.4615 32.1033C26.2118 32.0662 27.3998 31.7666 27.3998 31.7666C27.7419 31.7188 27.8878 31.8965 27.8851 32.1856C27.8719 33.371 27.018 34.5723 26.8297 34.8216L26.8323 34.8189ZM28.1477 30.6554C27.6199 30.6554 27.193 29.8015 27.193 28.746C27.193 27.6905 27.6199 26.8366 28.1477 26.8366C28.6754 26.8366 29.1024 27.6905 29.1024 28.746C29.1024 29.8015 28.6754 30.6554 28.1477 30.6554Z" fill="#FFA339"/>
<path d="M102.123 19.3863V19.253C102.123 17.183 103.793 16.283 105.56 16.3163C107.297 16.3497 108.763 17.3163 108.763 19.253V19.3863C108.763 20.1763 108.713 20.9397 108.61 21.6563C108.587 21.823 108.703 21.9697 108.87 21.9863C113.34 22.4563 116.343 25.5097 116.087 31.5897C116.08 31.7463 115.95 31.8697 115.793 31.8697H109.95C109.78 31.8697 109.647 31.723 109.66 31.553C109.85 28.9897 108.953 27.3363 107.127 26.9663C107.007 26.943 106.887 27.003 106.827 27.1063C104.917 30.2697 101.863 32.0763 98.6501 32.2063C96.9134 32.273 95.7134 31.373 95.4134 30.103C95.0467 28.5663 95.7801 27.133 97.2167 26.833C100.62 26.133 102.123 23.4297 102.123 19.3897V19.3863ZM102.123 47.4263C99.0868 47.4263 97.3834 45.2897 97.3834 42.8863V42.4863C97.3834 40.083 99.0868 38.5463 102.123 38.5463H117.953C118.113 38.5463 118.247 38.4163 118.247 38.253V37.6763C118.247 37.2763 118.147 37.143 117.713 37.143H99.5868C98.2834 37.143 97.7501 36.1763 97.7501 35.173C97.7501 34.2397 98.3168 33.2363 99.5868 33.2363H120.95C123.92 33.2363 125.023 34.103 125.023 36.743V39.8763C125.023 41.0963 124.037 42.083 122.817 42.083H105.16C104.66 42.083 104.427 42.383 104.427 42.7163V42.8163C104.427 43.1497 104.66 43.4497 105.16 43.4497H123.987C125.323 43.4497 125.89 44.483 125.89 45.4863C125.89 46.4197 125.357 47.423 123.987 47.423H102.123V47.4263ZM118.18 19.3863C118.18 17.2163 119.717 16.083 121.483 16.083C123.25 16.083 124.787 17.2497 124.787 19.3863V21.163C124.787 21.323 124.917 21.4563 125.08 21.4563H125.823C127.86 21.4563 128.46 22.9597 128.46 24.293C128.46 25.6263 127.827 27.1297 125.823 27.1297H125.08C124.92 27.1297 124.787 27.2597 124.787 27.423V31.8797C124.787 32.0397 124.657 32.173 124.493 32.173H118.467C118.307 32.173 118.173 32.043 118.173 31.8797V19.3863H118.18Z" fill="#8E8E93"/>
<path d="M135.207 46.1597C130.833 46.1597 130.033 44.8563 130.033 40.653V22.693C130.033 18.4863 130.833 17.1863 135.207 17.1863H143.017C147.39 17.1863 148.19 18.4897 148.19 22.693V41.8297C148.19 44.2197 146.253 46.1597 143.86 46.1597H135.203H135.207ZM136.51 39.7163C136.51 40.4497 136.743 40.853 137.61 40.853H140.797C141.303 40.853 141.717 40.443 141.717 39.933V23.593C141.717 22.9263 141.55 22.493 140.817 22.493H137.38C136.647 22.493 136.513 22.9263 136.513 23.593V39.7163H136.51ZM151.833 19.3197C151.833 17.183 153.403 16.083 155.14 16.083C156.877 16.083 158.443 17.2197 158.443 19.3197V27.7663H159.543C161.58 27.7663 162.18 29.3363 162.18 30.6697C162.18 32.003 161.547 33.573 159.543 33.573H158.443V44.3897C158.443 46.0663 157.083 47.4263 155.407 47.4263H154.87C153.193 47.4263 151.833 46.0663 151.833 44.3897V19.3197Z" fill="#8E8E93"/>
<path d="M192.29 28.366C194.06 28.366 194.694 29.5027 194.694 30.636C194.694 31.8394 194.027 32.906 192.29 32.906H165.854C164.117 32.906 163.45 31.836 163.45 30.636C163.45 29.5027 164.084 28.366 165.854 28.366H192.29ZM168.59 47.426C165.72 47.426 164.384 45.4227 164.384 43.1527V43.0527C164.384 40.716 165.687 39.0793 168.59 39.0793H186.45V38.446C186.45 38.146 186.25 37.9127 185.75 37.9127H166.624C165.387 37.9127 164.72 36.946 164.72 36.076C164.72 35.206 165.287 34.206 166.624 34.206H189.59C192.427 34.206 193.33 35.276 193.33 37.3093V39.946C193.33 41.366 192.18 42.5193 190.757 42.5193H172.2C171.7 42.5193 171.567 42.7527 171.567 43.086C171.567 43.4527 171.7 43.686 172.2 43.686H192.464C193.767 43.686 194.267 44.6193 194.267 45.556C194.267 46.356 193.8 47.426 192.464 47.426H168.597H168.59ZM187.55 27.1627H170.594C166.42 27.1627 164.517 24.7927 164.517 21.7893C164.517 18.786 166.42 16.416 170.594 16.416H187.55C191.724 16.416 193.627 18.786 193.627 21.7893C193.627 24.7927 191.724 27.1627 187.55 27.1627ZM185.447 20.7527H172.697C171.697 20.7527 171.36 21.186 171.36 21.786C171.36 22.386 171.694 22.8193 172.697 22.8193H185.447C186.447 22.8193 186.784 22.386 186.784 21.786C186.784 21.186 186.45 20.7527 185.447 20.7527Z" fill="#8E8E93"/>
<path d="M63.4333 29.5198C63.4333 34.0265 66.8367 36.2965 70.8767 36.2965C74.9167 36.2965 78.32 34.0265 78.32 29.5198V25.1298C78.32 24.3965 78.1533 23.7265 77.8533 23.1265C79.1233 22.8931 79.6567 21.9598 79.6567 20.8898C79.6567 19.6898 78.9567 18.5198 77.2867 18.5198H73.8833C73.85 16.5165 72.6133 15.5498 70.88 15.5498C69.1467 15.5498 67.8767 16.4831 67.8767 18.5198H64.4033C62.7667 18.5198 62 19.6898 62 20.8898C62 21.9598 62.6 22.8931 63.87 23.1265C63.6033 23.7265 63.4367 24.3965 63.4367 25.1298V29.5198H63.4333ZM69.1067 25.0965C69.1067 23.6265 70.0067 23.0598 70.8767 23.0598C71.7467 23.0598 72.6467 23.6265 72.6467 25.0965V29.5531C72.6467 31.0231 71.7467 31.5898 70.8767 31.5898C70.0067 31.5898 69.1067 31.0231 69.1067 29.5531V25.0965Z" fill="#8E8E93"/>
<path d="M84.2 36.543C84.8467 36.5797 85.4767 36.6563 86.09 36.763C86.09 36.7263 86.0967 36.6897 86.0967 36.653V27.9997H87.6667V36.653C87.6667 36.8197 87.6834 36.983 87.71 37.143C89.2767 37.6063 90.69 38.3197 91.9067 39.2463C92.8534 38.7697 93.5067 37.7897 93.5067 36.653V18.9197C93.5067 17.083 92.07 16.083 90.57 16.083C89.07 16.083 87.6667 17.0497 87.6667 18.9197V22.8597H86.0967V18.9197C86.0967 17.083 84.6934 16.083 83.1934 16.083C81.6934 16.083 80.29 17.0497 80.29 18.9197V33.493C81.3934 33.643 82.3867 34.113 83.1367 34.8697C83.6134 35.3463 83.97 35.913 84.2034 36.543H84.2Z" fill="#8E8E93"/>
<path d="M93.5766 44.1833C91.5133 39.8866 86.8633 38.25 82.6266 38.4133C82.6433 34.41 76.9966 34.2966 75.8166 38.08C74.48 41.1166 70.1066 42.32 67.1033 42.1866C63.36 41.8566 63.3933 47.62 66.97 47.7266C71.0433 48.16 76.9166 46.4233 80.19 43.32C83.7 42.8966 86.7266 44.47 87.6266 47.2033C89.47 51.5866 95.9966 48.4533 93.5766 44.1833Z" fill="#8E8E93"/>
</svg>
